<?xml version="1.0" encoding="UTF-8"?>
<svg width="20px" height="20px" viewBox="0 0 20 20" version="1.1" xmlns="http://www.w3.org/2000/svg" xmlns:xlink="http://www.w3.org/1999/xlink">
    <!-- Generator: Sketch 59.1 (86144) - https://sketch.com -->
    <title>widget-column</title>
    <desc>Created with Sketch.</desc>
    <g id="Style" stroke="none" stroke-width="1" fill="none" fill-rule="evenodd">
        <g id="$0-UI-icons" transform="translate(-120.000000, -1219.000000)">
            <g id="widget-column" transform="translate(120.000000, 1219.000000)">
                <path d="M15,0 C16.1045695,0 17,0.8954305 17,2 L17,18 C17,19.1045695 16.1045695,20 15,20 L5,20 C3.8954305,20 3,19.1045695 3,18 L3,2 C3,0.8954305 3.8954305,0 5,0 L15,0 Z M15,1 L5,1 C4.44771525,1 4,1.44771525 4,2 L4,18 C4,18.5522847 4.44771525,19 5,19 L15,19 C15.5522847,19 16,18.5522847 16,18 L16,2 C16,1.44771525 15.5522847,1 15,1 Z M11,16 L11,17 L10,17 L10,16 L11,16 Z M13,15 L13,17 L12,17 L12,15 L13,15 Z M9,16 L9,17 L7,17 L7,16 L9,16 Z M8,14 L8,15 L7,15 L7,14 L8,14 Z M13,13 L13,14 L12,14 L12,13 L13,13 Z M8,11 L8,13 L7,13 L7,11 L8,11 Z M10,11 L10,12 L9,12 L9,11 L10,11 Z M13,11 L13,12 L11,12 L11,11 L13,11 Z M13,3 L13,9 L7,9 L7,3 L13,3 Z" id="Combined-Shape" fill="#000000" fill-rule="nonzero"></path>
                <rect id="Rectangle" x="0" y="0" width="20" height="20"></rect>
            </g>
        </g>
    </g>
</svg>