<?xml version="1.0" encoding="UTF-8"?>
<svg width="46px" height="18px" viewBox="0 0 46 18" version="1.1" xmlns="http://www.w3.org/2000/svg" xmlns:xlink="http://www.w3.org/1999/xlink">
    <!-- Generator: Sketch 52.4 (67378) - http://www.bohemiancoding.com/sketch -->
    <title>Combined Shape</title>
    <desc>Created with Sketch.</desc>
    <g id="Style" stroke="none" stroke-width="1" fill="none" fill-rule="evenodd">
        <g id="UI-icons" transform="translate(-357.000000, -408.000000)">
            <g id="Group-17" transform="translate(357.000000, 408.000000)">
                <path d="M13.1265,12.1166199 L17.4165,12.1166199 L17.4165,12.9597755 L12.1905,12.9597755 L12.1905,3.6323667 L13.1265,3.6323667 L13.1265,12.1166199 Z M19.6655,12.9597755 L18.7815,12.9597755 L18.7815,6.79420019 L19.6655,6.79420019 L19.6655,12.9597755 Z M19.8475,4.42282507 C19.8475,4.60726628 19.7825006,4.75876929 19.6525,4.87733863 C19.5224993,4.99590798 19.3795008,5.05519177 19.2235,5.05519177 C19.0674992,5.05519177 18.9245006,4.99590798 18.7945,4.87733863 C18.6644993,4.75876929 18.5995,4.60726628 18.5995,4.42282507 C18.5995,4.23838386 18.6644993,4.08688085 18.7945,3.96831151 C18.9245006,3.84974216 19.0674992,3.79045837 19.2235,3.79045837 C19.3795008,3.79045837 19.5224993,3.84974216 19.6525,3.96831151 C19.7825006,4.08688085 19.8475,4.23838386 19.8475,4.42282507 Z M22.8115,6.79420019 C22.8288334,6.96107557 22.8418333,7.14551401 22.8505,7.34752105 C22.8591667,7.54952809 22.8635,7.71640096 22.8635,7.84814468 L22.8895,7.84814468 C23.0628342,7.48804518 23.344498,7.19601765 23.7345,6.97205332 C24.1245019,6.748089 24.5361645,6.63610851 24.9695,6.63610851 C25.7408372,6.63610851 26.3193314,6.86885226 26.705,7.33434674 C27.0906686,7.79984122 27.2835,8.41463603 27.2835,9.17874961 L27.2835,12.9597755 L26.3995,12.9597755 L26.3995,9.54763018 C26.3995,9.22266234 26.3735003,8.92843911 26.3215,8.66495167 C26.2694997,8.40146423 26.1806673,8.17530757 26.055,7.9864749 C25.9293327,7.79764223 25.7603344,7.65053062 25.548,7.54513564 C25.3356656,7.43974066 25.0691683,7.38704397 24.7485,7.38704397 C24.5144988,7.38704397 24.2870011,7.43534927 24.066,7.53196133 C23.8449989,7.6285734 23.6478342,7.77568501 23.4745,7.97330059 C23.3011658,8.17091617 23.1625005,8.42122549 23.0585,8.72423605 C22.9544995,9.0272466 22.9025,9.38514501 22.9025,9.797942 L22.9025,12.9597755 L22.0185,12.9597755 L22.0185,8.15115373 C22.0185,7.98427835 22.0141667,7.76910016 22.0055,7.50561272 C21.9968333,7.24212528 21.9838334,7.00499014 21.9665,6.79420019 L22.8115,6.79420019 Z M30.4815,9.5739788 L30.5205,9.5739788 L33.3285,6.79420019 L34.6025,6.79420019 L31.5345,9.61350171 L34.9145,12.9597755 L33.6145,12.9597755 L30.5205,9.71889616 L30.4815,9.71889616 L30.4815,12.9597755 L29.5975,12.9597755 L29.5975,3 L30.4815,3 L30.4815,9.5739788 Z M12,14.9865918 L35,14.9865918 L35,16 L12,16 L12,14.9865918 Z" id="Combined-Shape" fill="#E6EBF0"></path>
                <rect id="Rectangle" fill-rule="nonzero" x="0" y="0" width="46" height="18"></rect>
            </g>
        </g>
    </g>
</svg>