<?xml version="1.0" encoding="UTF-8"?>
<svg width="16px" height="16px" viewBox="0 0 16 16" version="1.1" xmlns="http://www.w3.org/2000/svg" xmlns:xlink="http://www.w3.org/1999/xlink">
    <!-- Generator: Sketch 52.3 (67297) - http://www.bohemiancoding.com/sketch -->
    <title>Widget_List</title>
    <desc>Created with Sketch.</desc>
    <g id="Style" stroke="none" stroke-width="1" fill="none" fill-rule="evenodd">
        <g id="UI-icons" transform="translate(-1037.000000, -789.000000)" fill="#FFFFFF" fill-rule="nonzero">
            <path d="M1039,792 C1039.55228,792 1040,791.552285 1040,791 C1040,790.447715 1039.55228,790 1039,790 C1038.44772,790 1038,790.447715 1038,791 C1038,791.552285 1038.44772,792 1039,792 Z M1039,793 C1037.89543,793 1037,792.104569 1037,791 C1037,789.895431 1037.89543,789 1039,789 C1040.10457,789 1041,789.895431 1041,791 C1041,792.104569 1040.10457,793 1039,793 Z M1044,790 C1043.44772,790 1043,790.447715 1043,791 C1043,791.552285 1043.44772,792 1044,792 L1051,792 C1051.55228,792 1052,791.552285 1052,791 C1052,790.447715 1051.55228,790 1051,790 L1044,790 Z M1044,789 L1051,789 C1052.10457,789 1053,789.895431 1053,791 C1053,792.104569 1052.10457,793 1051,793 L1044,793 C1042.89543,793 1042,792.104569 1042,791 C1042,789.895431 1042.89543,789 1044,789 Z M1044,796 C1043.44772,796 1043,796.447715 1043,797 C1043,797.552285 1043.44772,798 1044,798 L1051,798 C1051.55228,798 1052,797.552285 1052,797 C1052,796.447715 1051.55228,796 1051,796 L1044,796 Z M1044,795 L1051,795 C1052.10457,795 1053,795.895431 1053,797 C1053,798.104569 1052.10457,799 1051,799 L1044,799 C1042.89543,799 1042,798.104569 1042,797 C1042,795.895431 1042.89543,795 1044,795 Z M1044,802 C1043.44772,802 1043,802.447715 1043,803 C1043,803.552285 1043.44772,804 1044,804 L1051,804 C1051.55228,804 1052,803.552285 1052,803 C1052,802.447715 1051.55228,802 1051,802 L1044,802 Z M1044,801 L1051,801 C1052.10457,801 1053,801.895431 1053,803 C1053,804.104569 1052.10457,805 1051,805 L1044,805 C1042.89543,805 1042,804.104569 1042,803 C1042,801.895431 1042.89543,801 1044,801 Z M1039,798 C1039.55228,798 1040,797.552285 1040,797 C1040,796.447715 1039.55228,796 1039,796 C1038.44772,796 1038,796.447715 1038,797 C1038,797.552285 1038.44772,798 1039,798 Z M1039,799 C1037.89543,799 1037,798.104569 1037,797 C1037,795.895431 1037.89543,795 1039,795 C1040.10457,795 1041,795.895431 1041,797 C1041,798.104569 1040.10457,799 1039,799 Z M1039,804 C1039.55228,804 1040,803.552285 1040,803 C1040,802.447715 1039.55228,802 1039,802 C1038.44772,802 1038,802.447715 1038,803 C1038,803.552285 1038.44772,804 1039,804 Z M1039,805 C1037.89543,805 1037,804.104569 1037,803 C1037,801.895431 1037.89543,801 1039,801 C1040.10457,801 1041,801.895431 1041,803 C1041,804.104569 1040.10457,805 1039,805 Z" id="Widget_List"></path>
        </g>
    </g>
</svg>