<?xml version="1.0" encoding="UTF-8"?>
<svg width="20px" height="20px" viewBox="0 0 20 20" version="1.1" xmlns="http://www.w3.org/2000/svg" xmlns:xlink="http://www.w3.org/1999/xlink">
    <!-- Generator: Sketch 59.1 (86144) - https://sketch.com -->
    <title>widget-place-holder</title>
    <desc>Created with Sketch.</desc>
    <g id="Style" stroke="none" stroke-width="1" fill="none" fill-rule="evenodd">
        <g id="$0-UI-icons" transform="translate(-200.000000, -1219.000000)" fill="#000000" fill-rule="nonzero">
            <path d="M218,1219 C219.104569,1219 220,1219.89543 220,1221 L220,1237 C220,1238.10457 219.104569,1239 218,1239 L202,1239 C200.895431,1239 200,1238.10457 200,1237 L200,1221 C200,1219.89543 200.895431,1219 202,1219 L218,1219 Z M218,1220 L202,1220 C201.447715,1220 201,1220.44772 201,1221 L201,1237 C201,1237.55228 201.447715,1238 202,1238 L218,1238 C218.552285,1238 219,1237.55228 219,1237 L219,1221 C219,1220.44772 218.552285,1220 218,1220 Z M205,1233 L205,1235 L204,1235 L204,1233 L205,1233 Z M216,1234 L216,1235 L214,1235 L214,1234 L216,1234 Z M212,1234 L212,1235 L210,1235 L210,1234 L212,1234 Z M208,1234 L208,1235 L206,1235 L206,1234 L208,1234 Z M216,1231 L216,1233 L215,1233 L215,1231 L216,1231 Z M205,1229 L205,1231 L204,1231 L204,1229 L205,1229 Z M216,1227 L216,1229 L215,1229 L215,1227 L216,1227 Z M205,1225 L205,1227 L204,1227 L204,1225 L205,1225 Z M216,1223 L216,1225 L215,1225 L215,1223 L216,1223 Z M206,1223 L206,1224 L204,1224 L204,1223 L206,1223 Z M210,1223 L210,1224 L208,1224 L208,1223 L210,1223 Z M214,1223 L214,1224 L212,1224 L212,1223 L214,1223 Z" id="widget-place-holder"></path>
        </g>
    </g>
</svg>