<?xml version="1.0" encoding="UTF-8"?>
<svg width="20px" height="20px" viewBox="0 0 20 20" version="1.1" xmlns="http://www.w3.org/2000/svg" xmlns:xlink="http://www.w3.org/1999/xlink">
    <!-- Generator: Sketch 59.1 (86144) - https://sketch.com -->
    <title>widget-embed</title>
    <desc>Created with Sketch.</desc>
    <g id="Style" stroke="none" stroke-width="1" fill="none" fill-rule="evenodd">
        <g id="$0-UI-icons" transform="translate(-280.000000, -1139.000000)" fill="#000000" fill-rule="nonzero">
            <path d="M298,1139 C299.104569,1139 300,1139.89543 300,1141 L300,1157 C300,1158.10457 299.104569,1159 298,1159 L282,1159 C280.895431,1159 280,1158.10457 280,1157 L280,1141 C280,1139.89543 280.895431,1139 282,1139 L298,1139 Z M299,1145 L281,1145 L281,1157 C281,1157.55228 281.447715,1158 282,1158 L298,1158 C298.552285,1158 299,1157.55228 299,1157 L299,1145 Z M287.360331,1147.13895 C287.546556,1147.32423 287.546556,1147.62461 287.360331,1147.80988 L283.651239,1151.5 L287.360331,1155.19012 C287.546556,1155.37539 287.546556,1155.67577 287.360331,1155.86105 C287.174106,1156.04632 286.872176,1156.04632 286.685951,1155.86105 L282.639669,1151.83547 C282.453444,1151.65019 282.453444,1151.34981 282.639669,1151.16453 L286.685951,1147.13895 C286.872176,1146.95368 287.174106,1146.95368 287.360331,1147.13895 Z M293.239243,1147.07816 L293.314049,1147.13895 L297.360331,1151.16453 C297.523278,1151.32665 297.543646,1151.5769 297.421436,1151.76104 L297.360331,1151.83547 L293.314049,1155.86105 C293.127824,1156.04632 292.825894,1156.04632 292.639669,1155.86105 C292.476722,1155.69893 292.456354,1155.44869 292.578564,1155.26454 L292.639669,1155.19012 L296.348761,1151.5 L292.639669,1147.80988 C292.453444,1147.62461 292.453444,1147.32423 292.639669,1147.13895 C292.802616,1146.97684 293.054149,1146.95658 293.239243,1147.07816 Z M291.137833,1147.0177 C291.398416,1147.0914 291.553058,1147.37412 291.483234,1147.64918 L289.460421,1155.61772 C289.390598,1155.89277 289.122751,1156.056 288.862167,1155.9823 C288.601584,1155.9086 288.446942,1155.62588 288.516766,1155.35082 L290.539579,1147.38228 C290.609402,1147.10723 290.877249,1146.944 291.137833,1147.0177 Z M298,1140 L282,1140 C281.447715,1140 281,1140.44772 281,1141 L281,1144 L299,1144 L299,1141 C299,1140.44772 298.552285,1140 298,1140 Z M283,1141 C283.552285,1141 284,1141.44772 284,1142 C284,1142.55228 283.552285,1143 283,1143 C282.447715,1143 282,1142.55228 282,1142 C282,1141.44772 282.447715,1141 283,1141 Z M286,1141 C286.552285,1141 287,1141.44772 287,1142 C287,1142.55228 286.552285,1143 286,1143 C285.447715,1143 285,1142.55228 285,1142 C285,1141.44772 285.447715,1141 286,1141 Z M289,1141 C289.552285,1141 290,1141.44772 290,1142 C290,1142.55228 289.552285,1143 289,1143 C288.447715,1143 288,1142.55228 288,1142 C288,1141.44772 288.447715,1141 289,1141 Z" id="widget-embed"></path>
        </g>
    </g>
</svg>