<?xml version="1.0" encoding="UTF-8"?>
<svg width="20px" height="20px" viewBox="0 0 20 20" version="1.1" xmlns="http://www.w3.org/2000/svg" xmlns:xlink="http://www.w3.org/1999/xlink">
    <!-- Generator: Sketch 59.1 (86144) - https://sketch.com -->
    <title>widget-feature-info</title>
    <desc>Created with Sketch.</desc>
    <g id="Style" stroke="none" stroke-width="1" fill="none" fill-rule="evenodd">
        <g id="$0-UI-icons" transform="translate(-40.000000, -1179.000000)" fill="#000000" fill-rule="nonzero">
            <path d="M58,1179 C59.1045695,1179 60,1179.89543 60,1181 L60,1197 C60,1198.10457 59.1045695,1199 58,1199 L42,1199 C40.8954305,1199 40,1198.10457 40,1197 L40,1181 C40,1179.89543 40.8954305,1179 42,1179 L58,1179 Z M58,1180 L42,1180 C41.4477153,1180 41,1180.44772 41,1181 L41,1197 C41,1197.55228 41.4477153,1198 42,1198 L58,1198 C58.5522847,1198 59,1197.55228 59,1197 L59,1181 C59,1180.44772 58.5522847,1180 58,1180 Z M46,1193 L46,1196 L44,1194.5 L46,1193 Z M54,1193 L56,1194.5 L54,1196 L54,1193 Z M56.5,1189 C56.7761424,1189 57,1189.22386 57,1189.5 C57,1189.77614 56.7761424,1190 56.5,1190 L48.5,1190 C48.2238576,1190 48,1189.77614 48,1189.5 C48,1189.22386 48.2238576,1189 48.5,1189 L56.5,1189 Z M45.5,1189 C45.7761424,1189 46,1189.22386 46,1189.5 C46,1189.77614 45.7761424,1190 45.5,1190 L43.5,1190 C43.2238576,1190 43,1189.77614 43,1189.5 C43,1189.22386 43.2238576,1189 43.5,1189 L45.5,1189 Z M53.5,1186 C53.7761424,1186 54,1186.22386 54,1186.5 C54,1186.77614 53.7761424,1187 53.5,1187 L48.5,1187 C48.2238576,1187 48,1186.77614 48,1186.5 C48,1186.22386 48.2238576,1186 48.5,1186 L53.5,1186 Z M45.5,1186 C45.7761424,1186 46,1186.22386 46,1186.5 C46,1186.77614 45.7761424,1187 45.5,1187 L44.5,1187 C44.2238576,1187 44,1186.77614 44,1186.5 C44,1186.22386 44.2238576,1186 44.5,1186 L45.5,1186 Z M56.5,1183 C56.7761424,1183 57,1183.22386 57,1183.5 C57,1183.77614 56.7761424,1184 56.5,1184 L48.5,1184 C48.2238576,1184 48,1183.77614 48,1183.5 C48,1183.22386 48.2238576,1183 48.5,1183 L56.5,1183 Z M45.5,1183 C45.7761424,1183 46,1183.22386 46,1183.5 C46,1183.77614 45.7761424,1184 45.5,1184 L43.5,1184 C43.2238576,1184 43,1183.77614 43,1183.5 C43,1183.22386 43.2238576,1183 43.5,1183 L45.5,1183 Z" id="widget-feature-info"></path>
        </g>
    </g>
</svg>