<?xml version="1.0" encoding="UTF-8"?>
<svg width="228px" height="30px" viewBox="0 0 228 30" version="1.1" xmlns="http://www.w3.org/2000/svg" xmlns:xlink="http://www.w3.org/1999/xlink">
    <title>thumbnail_bookmark_presentation_navigator</title>
    <g id="Bookmark" stroke="none" stroke-width="1" fill="none" fill-rule="evenodd">
        <g id="Choose-Template" transform="translate(-1196.000000, -647.000000)" fill-rule="nonzero">
            <g id="Thumbnail/Bookmark/Presentation/Navigator" transform="translate(1196.000000, 647.000000)">
                <g>
                    <rect id="Rectangle" fill="#6A6A6A" x="8" y="8" width="14" height="14" rx="7"></rect>
                    <rect id="Rectangle-Copy-9" fill="#6A6A6A" x="26" y="8" width="14" height="14" rx="7"></rect>
                    <g id="arrow-crude-left" transform="translate(99.000000, 11.000000)">
                        <rect id="Rectangle" fill="#000000" opacity="0" x="0" y="0" width="8" height="8"></rect>
                        <polygon id="Path" fill="#6A6A6A" points="7 0 3.98945209 4 7 8 5.01054791 8 2 4 5.01054791 0"></polygon>
                    </g>
                    <g id="arrow-crude-left-copy" transform="translate(126.000000, 15.000000) scale(-1, 1) translate(-126.000000, -15.000000) translate(122.000000, 11.000000)">
                        <rect id="Rectangle" fill="#000000" opacity="0" x="0" y="0" width="8" height="8"></rect>
                        <polygon id="Path" fill="#6A6A6A" points="7 0 3.98945209 4 7 8 5.01054791 8 2 4 5.01054791 0"></polygon>
                    </g>
                    <rect id="Rectangle-Copy-10" fill="#6A6A6A" x="206" y="8" width="14" height="14" rx="7"></rect>
                </g>
            </g>
        </g>
    </g>
</svg>