<?xml version="1.0" encoding="UTF-8"?>
<svg width="108px" height="108px" viewBox="0 0 108 108" version="1.1" xmlns="http://www.w3.org/2000/svg" xmlns:xlink="http://www.w3.org/1999/xlink">
    <title>thumbnail_bookmark_presentation_slide_01</title>
    <g id="Bookmark" stroke="none" stroke-width="1" fill="none" fill-rule="evenodd">
        <g id="Choose-Template" transform="translate(-1196.000000, -326.000000)" fill-rule="nonzero">
            <g id="Thumbnail/Bookmark/Presentation/Slide_01" transform="translate(1196.000000, 326.000000)">
                <g>
                    <rect id="Rectangle" fill="#282828" x="8" y="8" width="92" height="92"></rect>
                    <rect id="Rectangle" fill="#363636" x="8" y="8" width="92" height="18"></rect>
                    <rect id="Title-Copy-9" fill="#6A6A6A" x="12" y="12" width="51" height="4"></rect>
                    <rect id="Title-Copy-24" fill="#6A6A6A" x="12" y="20" width="84" height="2"></rect>
                    <polygon id="image-14" fill="#525252" points="51.6145553 55.3396226 58.2857143 46 69 61 39 61 47.5714286 50.2857143"></polygon>
                    <rect id="Title-Copy-33" fill="#6A6A6A" x="12" y="88" width="8" height="8" rx="4"></rect>
                    <rect id="Rectangle" fill="#000000" opacity="0" x="42" y="89" width="6" height="6"></rect>
                    <polygon id="Path" fill="#6A6A6A" points="47.25 89 44.9920891 92 47.25 95 45.7579109 95 43.5 92 45.7579109 89"></polygon>
                    <rect id="Rectangle" fill="#000000" opacity="0" transform="translate(63.000000, 92.000000) scale(-1, 1) translate(-63.000000, -92.000000) " x="60" y="89" width="6" height="6"></rect>
                    <polygon id="Path" fill="#6A6A6A" transform="translate(62.625000, 92.000000) scale(-1, 1) translate(-62.625000, -92.000000) " points="64.5 89 62.2420891 92 64.5 95 63.0079109 95 60.75 92 63.0079109 89"></polygon>
                    <rect id="Title-Copy-36" fill="#6A6A6A" x="88" y="88" width="8" height="8" rx="4"></rect>
                </g>
            </g>
        </g>
    </g>
</svg>