<?xml version="1.0" encoding="UTF-8"?>
<svg width="108px" height="108px" viewBox="0 0 108 108" version="1.1" xmlns="http://www.w3.org/2000/svg" xmlns:xlink="http://www.w3.org/1999/xlink">
    <title>thumbnail_bookmark_tradition_card</title>
    <g id="Bookmark" stroke="none" stroke-width="1" fill="none" fill-rule="evenodd">
        <g id="Choose-Template" transform="translate(-1196.000000, -193.000000)" fill-rule="nonzero">
            <g id="Thumbnail/Bookmark/Tradition/Card" transform="translate(1196.000000, 193.000000)">
                <g>
                    <rect id="Rectangle" fill="#282828" x="8" y="8" width="28" height="28"></rect>
                    <rect id="Rectangle-Copy-4" stroke="#282828" x="8.5" y="59.5" width="27" height="27"></rect>
                    <rect id="Rectangle" fill="#000000" opacity="0" x="16" y="67" width="12" height="12"></rect>
                    <polygon id="Path" fill="#525252" points="28 73.75 22.75 73.75 22.75 79 21.25 79 21.25 73.75 16 73.75 16 72.25 21.25 72.25 21.25 67 22.75 67 22.75 72.25 28 72.25"></polygon>
                    <rect id="Rectangle-Copy" fill="#282828" x="40" y="8" width="28" height="28"></rect>
                    <rect id="Rectangle-Copy-3" fill="#282828" x="72" y="8" width="28" height="28"></rect>
                    <rect id="Title-Copy-9" fill="#525252" x="8" y="40" width="24" height="3"></rect>
                    <rect id="Title-Copy-14" fill="#282828" x="8" y="50" width="92" height="1"></rect>
                    <rect id="Title-Copy-12" fill="#525252" x="40" y="40" width="24" height="3"></rect>
                    <rect id="Title-Copy-13" fill="#525252" x="72" y="40" width="24" height="3"></rect>
                    <polygon id="image-14" fill="#525252" points="20.7277628 22.9811321 24.2857143 18 30 26 14 26 18.5714286 20.2857143"></polygon>
                    <polygon id="image-14-copy" fill="#525252" points="52.7277628 22.9811321 56.2857143 18 62 26 46 26 50.5714286 20.2857143"></polygon>
                    <polygon id="image-14-copy-2" fill="#525252" points="84.7277628 22.9811321 88.2857143 18 94 26 78 26 82.5714286 20.2857143"></polygon>
                </g>
            </g>
        </g>
    </g>
</svg>