<?xml version="1.0" encoding="UTF-8"?>
<svg width="20px" height="20px" viewBox="0 0 20 20" version="1.1" xmlns="http://www.w3.org/2000/svg" xmlns:xlink="http://www.w3.org/1999/xlink">
    <!-- Generator: Sketch 59.1 (86144) - https://sketch.com -->
    <title>widget-menu</title>
    <desc>Created with Sketch.</desc>
    <g id="Style" stroke="none" stroke-width="1" fill="none" fill-rule="evenodd">
        <g id="$0-UI-icons" transform="translate(-320.000000, -1139.000000)" fill="#000000" fill-rule="nonzero">
            <path d="M330,1139 C335.522847,1139 340,1143.47715 340,1149 C340,1154.52285 335.522847,1159 330,1159 C324.477153,1159 320,1154.52285 320,1149 C320,1143.47715 324.477153,1139 330,1139 Z M330,1140 C325.029437,1140 321,1144.02944 321,1149 C321,1153.97056 325.029437,1158 330,1158 C334.970563,1158 339,1153.97056 339,1149 C339,1144.02944 334.970563,1140 330,1140 Z M334.5,1152 C334.776142,1152 335,1152.22386 335,1152.5 C335,1152.77614 334.776142,1153 334.5,1153 L325.5,1153 C325.223858,1153 325,1152.77614 325,1152.5 C325,1152.22386 325.223858,1152 325.5,1152 L334.5,1152 Z M334.5,1148.5 C334.776142,1148.5 335,1148.72386 335,1149 C335,1149.27614 334.776142,1149.5 334.5,1149.5 L325.5,1149.5 C325.223858,1149.5 325,1149.27614 325,1149 C325,1148.72386 325.223858,1148.5 325.5,1148.5 L334.5,1148.5 Z M334.5,1145 C334.776142,1145 335,1145.22386 335,1145.5 C335,1145.77614 334.776142,1146 334.5,1146 L325.5,1146 C325.223858,1146 325,1145.77614 325,1145.5 C325,1145.22386 325.223858,1145 325.5,1145 L334.5,1145 Z" id="widget-menu"></path>
        </g>
    </g>
</svg>