<?xml version="1.0" encoding="UTF-8"?>
<svg width="12px" height="12px" viewBox="0 0 12 12" version="1.1" xmlns="http://www.w3.org/2000/svg" xmlns:xlink="http://www.w3.org/1999/xlink">
    <!-- Generator: Sketch 61.2 (89653) - https://sketch.com -->
    <g id="Components" stroke="none" stroke-width="1" fill="none" fill-rule="evenodd">
        <g id="$0-UI-icons" transform="translate(-276.000000, -315.000000)" fill="#000000" fill-rule="nonzero">
            <path d="M285.085786,321.5 L283,321.5 L283,320.5 L285.085786,320.5 L284.06066,319.474874 C283.865398,319.279612 283.865398,318.963029 284.06066,318.767767 C284.255922,318.572505 284.572505,318.572505 284.767767,318.767767 L287,321 L284.843146,323.156854 C284.647884,323.352116 284.331301,323.352116 284.136039,323.156854 C283.940777,322.961592 283.940777,322.64501 284.136039,322.449747 L285.085786,321.5 Z M278.914214,321.5 L279.863961,322.449747 C280.059223,322.64501 280.059223,322.961592 279.863961,323.156854 C279.668699,323.352116 279.352116,323.352116 279.156854,323.156854 L277,321 L279.232233,318.767767 C279.427495,318.572505 279.744078,318.572505 279.93934,318.767767 C280.134602,318.963029 280.134602,319.279612 279.93934,319.474874 L278.914214,320.5 L281,320.5 L281,321.5 L278.914214,321.5 Z M287,316 L277,316 L277,326 L287,326 L287,316 Z M288,316 L288,326 C288,326.552285 287.552285,327 287,327 L277,327 C276.447715,327 276,326.552285 276,326 L276,316 C276,315.447715 276.447715,315 277,315 L287,315 C287.552285,315 288,315.447715 288,316 Z" id="tool-width-max-12"></path>
        </g>
    </g>
</svg>