<?xml version="1.0" encoding="UTF-8"?>
<svg width="20px" height="20px" viewBox="0 0 20 20" version="1.1" xmlns="http://www.w3.org/2000/svg" xmlns:xlink="http://www.w3.org/1999/xlink">
    <!-- Generator: Sketch 59.1 (86144) - https://sketch.com -->
    <title>widget-button</title>
    <desc>Created with Sketch.</desc>
    <g id="Style" stroke="none" stroke-width="1" fill="none" fill-rule="evenodd">
        <g id="$0-UI-icons" transform="translate(-200.000000, -1139.000000)" fill="#000000" fill-rule="nonzero">
            <path d="M218,1139 C219.104569,1139 220,1139.89543 220,1141 L220,1150 C220,1151.10457 219.104569,1152 218,1152 L216,1152 L216,1151 L218,1151 C218.552285,1151 219,1150.55228 219,1150 L219,1141 C219,1140.44772 218.552285,1140 218,1140 L202,1140 C201.447715,1140 201,1140.44772 201,1141 L201,1150 C201,1150.55228 201.447715,1151 202,1151 L204,1151 L204,1152 L202,1152 C200.895431,1152 200,1151.10457 200,1150 L200,1141 C200,1139.89543 200.895431,1139 202,1139 L218,1139 Z M216.5,1151 L216.5,1152.92957 C216.5,1154.35753 216.497233,1155.98395 215,1157.5 C213.718377,1158.79773 212.045445,1158.99843 210.522723,1158.99843 C209,1158.99843 207.061567,1158.80936 205.5,1157 C203.325713,1154.48069 202.819176,1151.21287 204,1150 C204.682273,1149.29921 206.120871,1149.00812 207,1150.30982 L207,1146 C207,1144.96447 207.851728,1144 209,1144 C210.148272,1144 211,1144.96447 211,1146 L210.999796,1148.682 L215.5,1149.5 C216.168354,1149.60046 216.5,1150.38895 216.5,1151 Z M210,1146 C210,1145.65482 209.723911,1145 209,1145 C208.276089,1145 208,1145.65482 208,1146 L208,1151.5 C208,1151.84518 207.812107,1152 207.5,1152 C207.291929,1152 207.125262,1151.83333 207,1151.5 C206.413454,1150.24978 204.980769,1150.03846 204.5,1151 C204,1152 204.544736,1154.45003 206.453834,1156.55733 C207.76081,1158 209.20746,1158 210.522723,1158 C211.837985,1158 212.927274,1157.99738 214.071897,1157 C215.254695,1155.96936 215.5,1154.64094 215.5,1153 L215.5,1151 C215.5,1150.7414 215.25754,1150.52341 215,1150.5 L210.5,1150 C210.24246,1149.97659 210,1149.7586 210,1149.5 L210,1146 Z" id="widget-button"></path>
        </g>
    </g>
</svg>