<?xml version="1.0" encoding="UTF-8"?>
<svg width="16px" height="16px" viewBox="0 0 16 16" version="1.1" xmlns="http://www.w3.org/2000/svg" xmlns:xlink="http://www.w3.org/1999/xlink">
    <!-- Generator: Sketch 54.1 (76490) - https://sketchapp.com -->
    <title>widget-iframe</title>
    <desc>Created with Sketch.</desc>
    <g id="Style" stroke="none" stroke-width="1" fill="none" fill-rule="evenodd">
        <g id="0-UI-icons" transform="translate(-281.000000, -808.000000)" fill="#000000" fill-rule="nonzero">
            <path d="M283,809 C282.447715,809 282,809.447715 282,810 L282,822 C282,822.552285 282.447715,823 283,823 L295,823 C295.552285,823 296,822.552285 296,822 L296,810 C296,809.447715 295.552285,809 295,809 L283,809 Z M283,808 L295,808 C296.104569,808 297,808.895431 297,810 L297,822 C297,823.104569 296.104569,824 295,824 L283,824 C281.895431,824 281,823.104569 281,822 L281,810 C281,808.895431 281.895431,808 283,808 Z M282,812 L296,812 L296,813 L282,813 L282,812 Z M283.5,811 C283.223858,811 283,810.776142 283,810.5 C283,810.223858 283.223858,810 283.5,810 C283.776142,810 284,810.223858 284,810.5 C284,810.776142 283.776142,811 283.5,811 Z M285.5,811 C285.223858,811 285,810.776142 285,810.5 C285,810.223858 285.223858,810 285.5,810 C285.776142,810 286,810.223858 286,810.5 C286,810.776142 285.776142,811 285.5,811 Z M287.5,811 C287.223858,811 287,810.776142 287,810.5 C287,810.223858 287.223858,810 287.5,810 C287.776142,810 288,810.223858 288,810.5 C288,810.776142 287.776142,811 287.5,811 Z M286.853553,820.646447 C287.048816,820.841709 287.048816,821.158291 286.853553,821.353553 C286.658291,821.548816 286.341709,821.548816 286.146447,821.353553 L283.146447,818.353553 C282.951184,818.158291 282.951184,817.841709 283.146447,817.646447 L286.146447,814.646447 C286.341709,814.451184 286.658291,814.451184 286.853553,814.646447 C287.048816,814.841709 287.048816,815.158291 286.853553,815.353553 L284.207107,818 L286.853553,820.646447 Z M291.146447,820.646447 L293.792893,818 L291.146447,815.353553 C290.951184,815.158291 290.951184,814.841709 291.146447,814.646447 C291.341709,814.451184 291.658291,814.451184 291.853553,814.646447 L294.853553,817.646447 C295.048816,817.841709 295.048816,818.158291 294.853553,818.353553 L291.853553,821.353553 C291.658291,821.548816 291.341709,821.548816 291.146447,821.353553 C290.951184,821.158291 290.951184,820.841709 291.146447,820.646447 Z M289.982448,814.61926 C290.249181,814.690731 290.407472,814.964899 290.336001,815.231632 L288.783087,821.027187 C288.711616,821.29392 288.437448,821.452211 288.170715,821.38074 C287.903982,821.309269 287.74569,821.035101 287.817161,820.768368 L289.370075,814.972813 C289.441546,814.70608 289.715715,814.547789 289.982448,814.61926 Z" id="widget-iframe"></path>
        </g>
    </g>
</svg>