<svg xmlns="http://www.w3.org/2000/svg" xmlns:xlink="http://www.w3.org/1999/xlink" width="20px" height="20px" viewBox="0 0 20 20" version="1.1">
    <title>widget_divider_20</title>
    <g id="Icons" stroke="none" stroke-width="1" fill="none" fill-rule="evenodd">
        <g transform="translate(-160.000000, -1000.000000)" id="20*20">
            <g transform="translate(39.000000, 784.000000)">
                <g id="widget/divider/20" transform="translate(121.000000, 216.000000)">
                    <rect id="Rectangle" x="0" y="0" width="20" height="20"/>
                    <path d="M20,14 L20,15 L19.999,15 L20,19 L19,19 L18.999,15 L1,15 L1,19 L0,19 L0,14 L20,14 Z M20,9 L20,11 L0,11 L0,9 L20,9 Z M1,1 L1,5 L18.999,5 L19,1 L20,1 L19.999,5 L20,5 L20,6 L0,6 L0,1 L1,1 Z" id="Combined-Shape" fill="#000000"/>
                </g>
            </g>
        </g>
    </g>
</svg>