<svg width="32" height="32" viewBox="0 0 32 32" fill="none" xmlns="http://www.w3.org/2000/svg">
<circle cx="16" cy="16" r="16" fill="#1DA1F2"/>
<path d="M13.5215 24.6193C20.597 24.6193 24.467 18.7573 24.467 13.6738C24.467 13.5073 24.467 13.3415 24.4557 13.1765C25.2086 12.6319 25.8585 11.9577 26.375 11.1853C25.6729 11.4964 24.9281 11.7004 24.1655 11.7905C24.9686 11.3098 25.5696 10.5536 25.8568 9.66277C25.1016 10.1109 24.2755 10.4266 23.414 10.5965C22.2216 9.32856 20.3268 9.01823 18.7922 9.83953C17.2575 10.6608 16.4647 12.4095 16.8582 14.105C13.7652 13.95 10.8834 12.489 8.93 10.0858C7.90897 11.8435 8.43049 14.0922 10.121 15.221C9.50881 15.2029 8.90996 15.0377 8.375 14.7395C8.375 14.7553 8.375 14.7718 8.375 14.7883C8.3755 16.6195 9.66631 18.1967 11.4613 18.5593C10.8949 18.7137 10.3007 18.7363 9.72425 18.6253C10.2282 20.1923 11.6724 21.2659 13.3183 21.2968C11.9561 22.3673 10.2733 22.9485 8.54075 22.9468C8.23468 22.9462 7.9289 22.9276 7.625 22.8913C9.38423 24.0202 11.4312 24.6191 13.5215 24.6163" fill="white"/>
</svg>
