<svg width="32" height="32" viewBox="0 0 32 32" fill="none" xmlns="http://www.w3.org/2000/svg">
<circle cx="16" cy="16" r="16" fill="black"/>
<path fill-rule="evenodd" clip-rule="evenodd" d="M18.0045 21.8904C16.9081 21.8904 15.8117 21.4795 15.1265 20.6575L13.756 25.0411L13.619 25.3151C13.3449 25.726 12.9337 26 12.3855 26C11.5633 26 10.878 25.3151 10.878 24.4932C10.878 24.3562 10.878 24.3562 10.878 24.3562L11.0151 24.0822L13.4819 16.411C13.4819 16.411 13.2078 15.589 13.2078 14.3562C13.2078 12.0274 14.4413 11.3425 15.5376 11.3425C16.497 11.3425 17.4563 11.7534 17.4563 13.1233C17.4563 14.9041 16.2229 15.863 16.2229 17.2329C16.2229 18.1918 17.0452 19.0137 18.0045 19.0137C21.1566 19.0137 22.39 16.5479 22.39 14.3562C22.39 11.3425 19.7861 8.87671 16.634 8.87671C13.4819 8.87671 10.878 11.3425 10.878 14.3562C10.878 15.3151 11.1521 16.137 11.5633 16.9589C11.7003 17.2329 11.7003 17.3699 11.7003 17.6438C11.7003 18.4658 11.1521 19.0137 10.3298 19.0137C9.78163 19.0137 9.37048 18.7397 9.09638 18.3288C8.41114 17.0959 8 15.726 8 14.2192C8 9.69863 11.8373 6 16.497 6C21.1566 6 24.994 9.69863 24.994 14.2192C25.131 18.0548 22.9382 21.8904 18.0045 21.8904Z" fill="white"/>
</svg>
