<svg width="32" height="32" viewBox="0 0 32 32" fill="none" xmlns="http://www.w3.org/2000/svg">
<circle cx="16" cy="16" r="16" fill="black"/>
<path fill-rule="evenodd" clip-rule="evenodd" d="M13.7143 8H8V13.7143H13.7143V8ZM9.14286 12.5714V9.14286H12.5714V12.5714H9.14286ZM18.2857 8H24V13.7143H18.2857V8ZM19.4286 8.95238V12.7619H22.8571V8.95238H19.4286ZM21.7143 10.2857H20.5714V11.4286H21.7143V10.2857ZM13.7143 18.2857H8V24H13.7143V18.2857ZM9.14286 22.8571V19.4286H12.5714V22.8571H9.14286ZM10.2857 20.5714H11.4286V21.7143H10.2857V20.5714ZM10.2857 10.2857H11.4286V11.4286H10.2857V10.2857ZM14.8571 8H16V9.14286H14.8571V8ZM16 10.2857V9.14286H17.1429V11.4286H16V12.5714H17.1429V16H16V13.7143H14.8571V10.2857H16ZM20.5714 19.4286H24V18.2857L21.7143 18.2857V17.1429H20.5714V16H22.8571V17.1429H24V16V14.8571H19.4286V16H17.1429V17.1429V18.2857H14.8571V20.5714H17.1429V21.7143H14.8571V22.8571L16 22.8571V24H18.2857V22.8571L19.4286 22.8571V21.7143H20.5714V22.8571V24H22.8571H24V20.5714H22.8571V22.8571L21.7143 22.8571L21.7143 21.7143V20.5714L20.5714 20.5714L20.5714 19.4286ZM20.5714 19.4286H19.4286V20.5714L17.1429 20.5714V19.4286H18.2857L18.2857 18.2857L20.5714 18.2857V19.4286ZM14.8571 16H16V17.1429H11.4286V16H10.2857V17.1429H9.14286V16H8V14.8571H14.8571V16Z" fill="white"/>
</svg>
