<svg width="32" height="32" viewBox="0 0 32 32" fill="none" xmlns="http://www.w3.org/2000/svg">
<circle cx="16" cy="16" r="16" fill="black"/>
<path d="M13.5215 24.6192C20.597 24.6192 24.467 18.7572 24.467 13.6737C24.467 13.5072 24.467 13.3415 24.4557 13.1765C25.2086 12.6319 25.8585 11.9576 26.375 11.1852C25.6729 11.4963 24.9281 11.7004 24.1655 11.7905C24.9686 11.3097 25.5696 10.5536 25.8568 9.66274C25.1016 10.1108 24.2755 10.4266 23.414 10.5965C22.2216 9.32853 20.3268 9.01819 18.7922 9.8395C17.2575 10.6608 16.4647 12.4095 16.8582 14.105C13.7652 13.9499 10.8834 12.489 8.93 10.0857C7.90897 11.8435 8.43049 14.0921 10.121 15.221C9.50881 15.2028 8.90996 15.0377 8.375 14.7395C8.375 14.7552 8.375 14.7717 8.375 14.7882C8.3755 16.6194 9.66631 18.1966 11.4613 18.5592C10.8949 18.7137 10.3007 18.7363 9.72425 18.6252C10.2282 20.1923 11.6724 21.2658 13.3183 21.2967C11.9561 22.3673 10.2733 22.9485 8.54075 22.9467C8.23468 22.9461 7.9289 22.9276 7.625 22.8912C9.38423 24.0202 11.4312 24.619 13.5215 24.6162" fill="white"/>
</svg>
