<?xml version="1.0" encoding="UTF-8"?>
<svg width="20px" height="20px" viewBox="0 0 20 20" version="1.1" xmlns="http://www.w3.org/2000/svg" xmlns:xlink="http://www.w3.org/1999/xlink">
    <!-- Generator: Sketch 59.1 (86144) - https://sketch.com -->
    <title>widget-row</title>
    <desc>Created with Sketch.</desc>
    <g id="Style" stroke="none" stroke-width="1" fill="none" fill-rule="evenodd">
        <g id="$0-UI-icons" transform="translate(-80.000000, -1219.000000)">
            <g id="widget-row" transform="translate(80.000000, 1219.000000)">
                <path d="M18,3 C19.1045695,3 20,3.8954305 20,5 L20,15 C20,16.1045695 19.1045695,17 18,17 L2,17 C0.8954305,17 0,16.1045695 0,15 L0,5 C0,3.8954305 0.8954305,3 2,3 L18,3 Z M18,4 L2,4 C1.44771525,4 1,4.44771525 1,5 L1,15 C1,15.5522847 1.44771525,16 2,16 L18,16 C18.5522847,16 19,15.5522847 19,15 L19,5 C19,4.44771525 18.5522847,4 18,4 Z M9,7 L9,13 L3,13 L3,7 L9,7 Z M15,12 L15,13 L14,13 L14,12 L15,12 Z M17,11 L17,13 L16,13 L16,11 L17,11 Z M13,12 L13,13 L11,13 L11,12 L13,12 Z M12,10 L12,11 L11,11 L11,10 L12,10 Z M17,9 L17,10 L16,10 L16,9 L17,9 Z M12,7 L12,9 L11,9 L11,7 L12,7 Z M14,7 L14,8 L13,8 L13,7 L14,7 Z M17,7 L17,8 L15,8 L15,7 L17,7 Z" id="Combined-Shape" fill="#000000" fill-rule="nonzero"></path>
                <rect id="Rectangle" x="0" y="0" width="20" height="20"></rect>
            </g>
        </g>
    </g>
</svg>