<?xml version="1.0" encoding="UTF-8"?>
<svg width="20px" height="20px" viewBox="0 0 20 20" version="1.1" xmlns="http://www.w3.org/2000/svg" xmlns:xlink="http://www.w3.org/1999/xlink">
    <!-- Generator: Sketch 64 (93537) - https://sketch.com -->
    <title>widget-card</title>
    <desc>Created with Sketch.</desc>
    <g id="Icons" stroke="none" stroke-width="1" fill="none" fill-rule="evenodd">
        <g transform="translate(-80.000000, -1039.000000)" fill="#000000" fill-rule="nonzero" id="widget-card">
            <path d="M98,1039 C99.1045695,1039 100,1039.89543 100,1041 L100,1057 C100,1058.10457 99.1045695,1059 98,1059 L82,1059 C80.8954305,1059 80,1058.10457 80,1057 L80,1041 C80,1039.89543 80.8954305,1039 82,1039 L98,1039 Z M98,1040 L82,1040 C81.4477153,1040 81,1040.44772 81,1041 L81,1057 C81,1057.55228 81.4477153,1058 82,1058 L98,1058 C98.5522847,1058 99,1057.55228 99,1057 L99,1041 C99,1040.44772 98.5522847,1040 98,1040 Z M81,1053 L99,1053 L99,1054 L81,1054 L81,1053 Z M89.0458221,1046.73585 L91.7142857,1043 L96,1049 L84,1049 L87.4285714,1044.71429 L89.0458221,1046.73585 Z M83,1055 L89,1055 C89.5522847,1055 90,1055.44772 90,1056 C90,1056.55228 89.5522847,1057 89,1057 L83,1057 C82.4477153,1057 82,1056.55228 82,1056 C82,1055.44772 82.4477153,1055 83,1055 Z M97,1055 C97.5522847,1055 98,1055.44772 98,1056 C98,1056.55228 97.5522847,1057 97,1057 C96.4477153,1057 96,1056.55228 96,1056 C96,1055.44772 96.4477153,1055 97,1055 Z"></path>
        </g>
    </g>
</svg>