<?xml version="1.0" encoding="UTF-8"?>
<svg width="496px" height="41px" viewBox="0 0 496 41" version="1.1" xmlns="http://www.w3.org/2000/svg" xmlns:xlink="http://www.w3.org/1999/xlink">
    <!-- Generator: Sketch 55.2 (78181) - https://sketchapp.com -->
    <title>exb logo text</title>
    <desc>Created with Sketch.</desc>
    <g id="Builder" stroke="none" stroke-width="1" fill="none" fill-rule="evenodd">
        <g id="builder-loading-splash" transform="translate(-495.000000, -411.000000)" fill-rule="nonzero">
            <g id="exb-logo-text" transform="translate(495.566998, 411.088000)">
                <path d="M2.844,31.912 L-5.68434189e-14,31.912 L11.016,6.424 L13.536,6.424 L24.48,31.912 L21.6,31.912 L18.792,25.216 L5.616,25.216 L2.844,31.912 Z M6.588,22.84 L17.82,22.84 L12.204,9.304 L6.588,22.84 Z M28.8300002,18.772 C28.8300002,18.3159977 28.8180003,17.7280036 28.7940002,17.008 C28.7700001,16.2879964 28.7340004,15.6400029 28.6860002,15.064 L31.0260002,15.064 C31.0740004,15.5200023 31.1100001,16.0239972 31.1340002,16.576 C31.1580003,17.1280028 31.1700002,17.5839982 31.1700002,17.944 L31.2420002,17.944 C31.7220026,16.9599951 32.4419954,16.1620031 33.4020002,15.55 C34.362005,14.9379969 35.4419942,14.632 36.6420002,14.632 C36.9540017,14.632 37.2359989,14.6439999 37.4880002,14.668 C37.7400014,14.6920001 37.9979989,14.7399996 38.2620002,14.812 L37.9380002,17.116 C37.7939995,17.0679998 37.5540019,17.0200002 37.2180002,16.972 C36.8819985,16.9239998 36.5460019,16.9 36.2100002,16.9 C35.5619969,16.9 34.9380032,17.0199988 34.3380002,17.26 C33.7379972,17.5000012 33.2160024,17.8779974 32.7720002,18.394 C32.327998,18.9100026 31.9680016,19.569996 31.6920002,20.374 C31.4159988,21.178004 31.2780002,22.1439944 31.2780002,23.272 L31.2780002,31.912 L28.8300002,31.912 L28.8300002,18.772 Z M54.0240004,18.916 C53.6159983,18.2679968 53.0220043,17.7340021 52.2420004,17.314 C51.4619965,16.8939979 50.6160049,16.684 49.7040004,16.684 C48.7199954,16.684 47.8320043,16.8579983 47.0400004,17.206 C46.2479964,17.5540017 45.5700032,18.0339969 45.0060004,18.646 C44.4419975,19.2580031 44.0100019,19.9779959 43.7100004,20.806 C43.4099989,21.6340041 43.2600004,22.5279952 43.2600004,23.488 C43.2600004,24.4480048 43.4099989,25.3359959 43.7100004,26.152 C44.0100019,26.9680041 44.4359976,27.6819969 44.9880004,28.294 C45.5400031,28.9060031 46.2119964,29.3859983 47.0040004,29.734 C47.7960043,30.0820017 48.6839954,30.256 49.6680004,30.256 C50.7480058,30.256 51.6599966,30.052002 52.4040004,29.644 C53.1480041,29.235998 53.759998,28.7080032 54.2400004,28.06 L56.0760004,29.428 C55.3559968,30.3160044 54.4740056,31.0239974 53.4300004,31.552 C52.3859951,32.0800026 51.1320077,32.344 49.6680004,32.344 C48.2999935,32.344 47.0640059,32.1220022 45.9600004,31.678 C44.8559948,31.2339978 43.9140043,30.616004 43.1340004,29.824 C42.3539965,29.031996 41.7480025,28.0960054 41.3160004,27.016 C40.8839982,25.9359946 40.6680004,24.7600064 40.6680004,23.488 C40.6680004,22.2159936 40.8839982,21.0400054 41.3160004,19.96 C41.7480025,18.8799946 42.3539965,17.944004 43.1340004,17.152 C43.9140043,16.359996 44.8559948,15.7420022 45.9600004,15.298 C47.0640059,14.8539978 48.2999935,14.632 49.6680004,14.632 C50.796006,14.632 51.9419945,14.8779975 53.1060004,15.37 C54.2700062,15.8620025 55.2119968,16.5879952 55.9320004,17.548 L54.0240004,18.916 Z M80.1180006,10.996 C79.2299961,10.0599953 78.1740067,9.33400258 76.9500006,8.818 C75.7259944,8.30199742 74.3220085,8.044 72.7380006,8.044 C71.1059924,8.044 69.6360071,8.343997 68.3280006,8.944 C67.019994,9.544003 65.9100051,10.3539949 64.9980006,11.374 C64.085996,12.3940051 63.384003,13.5759933 62.8920006,14.92 C62.3999981,16.2640067 62.1540006,17.6799926 62.1540006,19.168 C62.1540006,20.6560074 62.3999981,22.0719933 62.8920006,23.416 C63.384003,24.7600067 64.085996,25.935995 64.9980006,26.944 C65.9100051,27.952005 67.019994,28.755997 68.3280006,29.356 C69.6360071,29.956003 71.1059924,30.256 72.7380006,30.256 C74.1780078,30.256 75.4979946,30.1000016 76.6980006,29.788 C77.8980066,29.4759984 78.8699968,29.0800024 79.6140006,28.6 L79.6140006,20.86 L73.6740006,20.86 L73.6740006,18.592 L82.2060006,18.592 L82.2060006,30.076 C80.8139936,30.9160042 79.3140086,31.539998 77.7060006,31.948 C76.0979925,32.356002 74.4300092,32.56 72.7020006,32.56 C70.781991,32.56 69.0060087,32.2240034 67.3740006,31.552 C65.7419924,30.8799966 64.3380064,29.9500059 63.1620006,28.762 C61.9859947,27.5739941 61.0680039,26.1640082 60.4080006,24.532 C59.7479973,22.8999918 59.4180006,21.1120097 59.4180006,19.168 C59.4180006,17.2239903 59.7539972,15.4360082 60.4260006,13.804 C61.0980039,12.1719918 62.0279946,10.7620059 63.2160006,9.574 C64.4040065,8.38599406 65.8079925,7.45600336 67.4280006,6.784 C69.0480087,6.11199664 70.8059911,5.776 72.7020006,5.776 C74.7420108,5.776 76.517993,6.075997 78.0300006,6.676 C79.5420081,7.276 80.8379952,8.1159946 81.9180006,9.196 L80.1180006,10.996 Z M92.1720007,31.912 L89.5800007,31.912 L89.5800007,6.424 L92.1720007,6.424 L92.1720007,31.912 Z M112.038001,10.528 C111.485998,9.75999616 110.778005,9.14200234 109.914001,8.674 C109.049997,8.20599766 108.006007,7.972 106.782001,7.972 C106.157998,7.972 105.522004,8.06799904 104.874001,8.26 C104.225998,8.45200096 103.638004,8.74599802 103.110001,9.142 C102.581998,9.53800198 102.156003,10.035997 101.832001,10.636 C101.507999,11.236003 101.346001,11.9439959 101.346001,12.76 C101.346001,13.5760041 101.501999,14.2479974 101.814001,14.776 C102.126002,15.3040026 102.539998,15.7539981 103.056001,16.126 C103.572004,16.4980019 104.159998,16.8039988 104.820001,17.044 C105.480004,17.2840012 106.169997,17.5239988 106.890001,17.764 C107.778005,18.0520014 108.671996,18.3639983 109.572001,18.7 C110.472005,19.0360017 111.281997,19.4739973 112.002001,20.014 C112.722005,20.5540027 113.309999,21.2379959 113.766001,22.066 C114.222003,22.8940041 114.450001,23.9439936 114.450001,25.216 C114.450001,26.4880064 114.204003,27.5859954 113.712001,28.51 C113.219998,29.4340046 112.584005,30.195997 111.804001,30.796 C111.023997,31.396003 110.136006,31.8399986 109.140001,32.128 C108.143996,32.4160014 107.142006,32.56 106.134001,32.56 C105.365997,32.56 104.598005,32.4820008 103.830001,32.326 C103.061997,32.1699992 102.330004,31.9360016 101.634001,31.624 C100.937997,31.3119984 100.290004,30.9160024 99.6900009,30.436 C99.0899979,29.9559976 98.5620032,29.4040031 98.1060009,28.78 L100.338001,27.124 C100.890004,28.0360046 101.663996,28.7979969 102.660001,29.41 C103.656006,30.0220031 104.825994,30.328 106.170001,30.328 C106.818004,30.328 107.477998,30.226001 108.150001,30.022 C108.822004,29.817999 109.427998,29.5060021 109.968001,29.086 C110.508004,28.6659979 110.951999,28.1500031 111.300001,27.538 C111.648003,26.9259969 111.822001,26.2120041 111.822001,25.396 C111.822001,24.5079956 111.648003,23.7700029 111.300001,23.182 C110.951999,22.5939971 110.490004,22.102002 109.914001,21.706 C109.337998,21.309998 108.678005,20.9800013 107.934001,20.716 C107.189997,20.4519987 106.410005,20.1880013 105.594001,19.924 C104.753997,19.6599987 103.926005,19.3600017 103.110001,19.024 C102.293997,18.6879983 101.562004,18.2500027 100.914001,17.71 C100.265998,17.1699973 99.7440029,16.504004 99.3480009,15.712 C98.9519989,14.919996 98.7540009,13.9480058 98.7540009,12.796 C98.7540009,11.5719939 98.9999985,10.5160044 99.4920009,9.628 C99.9840034,8.73999556 100.625997,8.00800288 101.418001,7.432 C102.210005,6.85599712 103.085996,6.43600132 104.046001,6.172 C105.006006,5.90799868 105.953996,5.776 106.890001,5.776 C108.61801,5.776 110.093995,6.08199694 111.318001,6.694 C112.542007,7.30600306 113.465998,8.0319958 114.090001,8.872 L112.038001,10.528 Z M133.086001,29.608 L146.730001,29.608 L146.730001,31.912 L130.494001,31.912 L130.494001,6.424 L146.298001,6.424 L146.298001,8.728 L133.086001,8.728 L133.086001,17.512 L145.434001,17.512 L145.434001,19.78 L133.086001,19.78 L133.086001,29.608 Z M156.372001,23.2 L150.144001,15.064 L153.276001,15.064 L157.884001,21.472 L162.492001,15.064 L165.444001,15.064 L159.324001,23.092 L166.020001,31.912 L162.852001,31.912 L157.848001,24.892 L152.700001,31.912 L149.748001,31.912 L156.372001,23.2 Z M173.034002,40.552 L170.586002,40.552 L170.586002,15.064 L173.034002,15.064 L173.034002,17.98 L173.142002,17.98 C173.838005,16.8759945 174.767996,16.0420028 175.932002,15.478 C177.096007,14.9139972 178.277996,14.632 179.478002,14.632 C180.798008,14.632 181.991996,14.8599977 183.060002,15.316 C184.128007,15.7720023 185.039998,16.395996 185.796002,17.188 C186.552005,17.980004 187.14,18.9159946 187.560002,19.996 C187.980004,21.0760054 188.190002,22.2399938 188.190002,23.488 C188.190002,24.7360062 187.980004,25.8999946 187.560002,26.98 C187.14,28.0600054 186.552005,28.995996 185.796002,29.788 C185.039998,30.580004 184.128007,31.2039977 183.060002,31.66 C181.991996,32.1160023 180.798008,32.344 179.478002,32.344 C178.277996,32.344 177.096007,32.0620028 175.932002,31.498 C174.767996,30.9339972 173.838005,30.1240053 173.142002,29.068 L173.034002,29.068 L173.034002,40.552 Z M185.598002,23.488 C185.598002,22.5519953 185.454003,21.6700041 185.166002,20.842 C184.878,20.0139959 184.464004,19.2940031 183.924002,18.682 C183.383999,18.0699969 182.718006,17.5840018 181.926002,17.224 C181.133998,16.8639982 180.234007,16.684 179.226002,16.684 C178.289997,16.684 177.426006,16.8579983 176.634002,17.206 C175.841998,17.5540017 175.158005,18.0339969 174.582002,18.646 C174.005999,19.2580031 173.556003,19.9779959 173.232002,20.806 C172.908,21.6340041 172.746002,22.5279952 172.746002,23.488 C172.746002,24.4480048 172.908,25.3419959 173.232002,26.17 C173.556003,26.9980041 174.005999,27.711997 174.582002,28.312 C175.158005,28.912003 175.841998,29.3859983 176.634002,29.734 C177.426006,30.0820017 178.289997,30.256 179.226002,30.256 C180.234007,30.256 181.133998,30.0820017 181.926002,29.734 C182.718006,29.3859983 183.383999,28.9060031 183.924002,28.294 C184.464004,27.6819969 184.878,26.9620041 185.166002,26.134 C185.454003,25.3059959 185.598002,24.4240047 185.598002,23.488 Z M207.048002,22.192 C206.976001,20.6079921 206.466007,19.2940052 205.518002,18.25 C204.569997,17.2059948 203.220011,16.684 201.468002,16.684 C200.651998,16.684 199.896005,16.8339985 199.200002,17.134 C198.503998,17.4340015 197.892004,17.8419974 197.364002,18.358 C196.835999,18.8740026 196.416003,19.4619967 196.104002,20.122 C195.792,20.7820033 195.612002,21.4719964 195.564002,22.192 L207.048002,22.192 Z M209.532002,22.984 L209.532002,23.524 C209.532002,23.716001 209.520002,23.9199989 209.496002,24.136 L195.528002,24.136 C195.552002,24.9760042 195.72,25.7679963 196.032002,26.512 C196.344003,27.2560037 196.775999,27.9039972 197.328002,28.456 C197.880005,29.0080028 198.527998,29.4459984 199.272002,29.77 C200.016006,30.0940016 200.819998,30.256 201.684002,30.256 C202.956008,30.256 204.053997,29.9620029 204.978002,29.374 C205.902006,28.7859971 206.603999,28.1080038 207.084002,27.34 L208.920002,28.78 C207.911997,30.0520064 206.802008,30.9639972 205.590002,31.516 C204.377996,32.0680028 203.076009,32.344 201.684002,32.344 C200.435996,32.344 199.278007,32.1220022 198.210002,31.678 C197.141997,31.2339978 196.224006,30.616004 195.456002,29.824 C194.687998,29.031996 194.082004,28.0960054 193.638002,27.016 C193.194,25.9359946 192.972002,24.7600064 192.972002,23.488 C192.972002,22.2159936 193.188,21.0400054 193.620002,19.96 C194.052004,18.8799946 194.651998,17.944004 195.420002,17.152 C196.188006,16.359996 197.087997,15.7420022 198.120002,15.298 C199.152007,14.8539978 200.267996,14.632 201.468002,14.632 C202.788008,14.632 203.951997,14.8539978 204.960002,15.298 C205.968007,15.7420022 206.807998,16.3419962 207.480002,17.098 C208.152005,17.8540038 208.662,18.735995 209.010002,19.744 C209.358004,20.752005 209.532002,21.8319942 209.532002,22.984 Z M215.538002,18.772 C215.538002,18.3159977 215.526002,17.7280036 215.502002,17.008 C215.478002,16.2879964 215.442002,15.6400029 215.394002,15.064 L217.734002,15.064 C217.782002,15.5200023 217.818002,16.0239972 217.842002,16.576 C217.866002,17.1280028 217.878002,17.5839982 217.878002,17.944 L217.950002,17.944 C218.430004,16.9599951 219.149997,16.1620031 220.110002,15.55 C221.070007,14.9379969 222.149996,14.632 223.350002,14.632 C223.662004,14.632 223.944001,14.6439999 224.196002,14.668 C224.448003,14.6920001 224.706001,14.7399996 224.970002,14.812 L224.646002,17.116 C224.502001,17.0679998 224.262004,17.0200002 223.926002,16.972 C223.59,16.9239998 223.254004,16.9 222.918002,16.9 C222.269999,16.9 221.646005,17.0199988 221.046002,17.26 C220.445999,17.5000012 219.924004,17.8779974 219.480002,18.394 C219.036,18.9100026 218.676003,19.569996 218.400002,20.374 C218.124001,21.178004 217.986002,22.1439944 217.986002,23.272 L217.986002,31.912 L215.538002,31.912 L215.538002,18.772 Z M231.732002,31.912 L229.284002,31.912 L229.284002,15.064 L231.732002,15.064 L231.732002,31.912 Z M232.236002,8.584 C232.236002,9.08800252 232.056004,9.50199838 231.696002,9.826 C231.336,10.1500016 230.940004,10.312 230.508002,10.312 C230.076,10.312 229.680004,10.1500016 229.320002,9.826 C228.96,9.50199838 228.780002,9.08800252 228.780002,8.584 C228.780002,8.07999748 228.96,7.66600162 229.320002,7.342 C229.680004,7.01799838 230.076,6.856 230.508002,6.856 C230.940004,6.856 231.336,7.01799838 231.696002,7.342 C232.056004,7.66600162 232.236002,8.07999748 232.236002,8.584 Z M251.850002,22.192 C251.778002,20.6079921 251.268007,19.2940052 250.320002,18.25 C249.371998,17.2059948 248.022011,16.684 246.270002,16.684 C245.453998,16.684 244.698006,16.8339985 244.002002,17.134 C243.305999,17.4340015 242.694005,17.8419974 242.166002,18.358 C241.638,18.8740026 241.218004,19.4619967 240.906002,20.122 C240.594001,20.7820033 240.414003,21.4719964 240.366002,22.192 L251.850002,22.192 Z M254.334002,22.984 L254.334002,23.524 C254.334002,23.716001 254.322003,23.9199989 254.298002,24.136 L240.330002,24.136 C240.354003,24.9760042 240.522001,25.7679963 240.834002,26.512 C241.146004,27.2560037 241.578,27.9039972 242.130002,28.456 C242.682005,29.0080028 243.329999,29.4459984 244.074002,29.77 C244.818006,30.0940016 245.621998,30.256 246.486002,30.256 C247.758009,30.256 248.855998,29.9620029 249.780002,29.374 C250.704007,28.7859971 251.406,28.1080038 251.886002,27.34 L253.722002,28.78 C252.713997,30.0520064 251.604008,30.9639972 250.392002,31.516 C249.179996,32.0680028 247.878009,32.344 246.486002,32.344 C245.237996,32.344 244.080008,32.1220022 243.012002,31.678 C241.943997,31.2339978 241.026006,30.616004 240.258002,29.824 C239.489999,29.031996 238.884005,28.0960054 238.440002,27.016 C237.996,25.9359946 237.774002,24.7600064 237.774002,23.488 C237.774002,22.2159936 237.99,21.0400054 238.422002,19.96 C238.854005,18.8799946 239.453999,17.944004 240.222002,17.152 C240.990006,16.359996 241.889997,15.7420022 242.922002,15.298 C243.954008,14.8539978 245.069996,14.632 246.270002,14.632 C247.590009,14.632 248.753997,14.8539978 249.762002,15.298 C250.770007,15.7420022 251.609999,16.3419962 252.282002,17.098 C252.954006,17.8540038 253.464001,18.735995 253.812002,19.744 C254.160004,20.752005 254.334002,21.8319942 254.334002,22.984 Z M262.536003,15.064 C262.584003,15.5200023 262.620002,16.0239972 262.644003,16.576 C262.668003,17.1280028 262.680003,17.5839982 262.680003,17.944 L262.752003,17.944 C263.232005,16.9599951 264.011997,16.1620031 265.092003,15.55 C266.172008,14.9379969 267.311997,14.632 268.512003,14.632 C270.648013,14.632 272.249997,15.2679936 273.318003,16.54 C274.386008,17.8120064 274.920003,19.4919896 274.920003,21.58 L274.920003,31.912 L272.472003,31.912 L272.472003,22.588 C272.472003,21.6999956 272.400003,20.8960036 272.256003,20.176 C272.112002,19.4559964 271.866004,18.8380026 271.518003,18.322 C271.170001,17.8059974 270.702006,17.4040014 270.114003,17.116 C269.526,16.8279986 268.788007,16.684 267.900003,16.684 C267.251999,16.684 266.622006,16.8159987 266.010003,17.08 C265.398,17.3440013 264.852005,17.7459973 264.372003,18.286 C263.892,18.8260027 263.508004,19.5099959 263.220003,20.338 C262.932001,21.1660041 262.788003,22.1439944 262.788003,23.272 L262.788003,31.912 L260.340003,31.912 L260.340003,18.772 C260.340003,18.3159977 260.328003,17.7280036 260.304003,17.008 C260.280002,16.2879964 260.244003,15.6400029 260.196003,15.064 L262.536003,15.064 Z M294.138003,18.916 C293.730001,18.2679968 293.136007,17.7340021 292.356003,17.314 C291.575999,16.8939979 290.730007,16.684 289.818003,16.684 C288.833998,16.684 287.946007,16.8579983 287.154003,17.206 C286.361999,17.5540017 285.684006,18.0339969 285.120003,18.646 C284.556,19.2580031 284.124004,19.9779959 283.824003,20.806 C283.524001,21.6340041 283.374003,22.5279952 283.374003,23.488 C283.374003,24.4480048 283.524001,25.3359959 283.824003,26.152 C284.124004,26.9680041 284.55,27.6819969 285.102003,28.294 C285.654006,28.9060031 286.325999,29.3859983 287.118003,29.734 C287.910007,30.0820017 288.797998,30.256 289.782003,30.256 C290.862008,30.256 291.773999,30.052002 292.518003,29.644 C293.262006,29.235998 293.874,28.7080032 294.354003,28.06 L296.190003,29.428 C295.469999,30.3160044 294.588008,31.0239974 293.544003,31.552 C292.499998,32.0800026 291.24601,32.344 289.782003,32.344 C288.413996,32.344 287.178008,32.1220022 286.074003,31.678 C284.969997,31.2339978 284.028007,30.616004 283.248003,29.824 C282.467999,29.031996 281.862005,28.0960054 281.430003,27.016 C280.998001,25.9359946 280.782003,24.7600064 280.782003,23.488 C280.782003,22.2159936 280.998001,21.0400054 281.430003,19.96 C281.862005,18.8799946 282.467999,17.944004 283.248003,17.152 C284.028007,16.359996 284.969997,15.7420022 286.074003,15.298 C287.178008,14.8539978 288.413996,14.632 289.782003,14.632 C290.910008,14.632 292.055997,14.8779975 293.220003,15.37 C294.384009,15.8620025 295.325999,16.5879952 296.046003,17.548 L294.138003,18.916 Z M313.608003,22.192 C313.536003,20.6079921 313.026008,19.2940052 312.078003,18.25 C311.129998,17.2059948 309.780012,16.684 308.028003,16.684 C307.211999,16.684 306.456006,16.8339985 305.760003,17.134 C305.063999,17.4340015 304.452006,17.8419974 303.924003,18.358 C303.396,18.8740026 302.976005,19.4619967 302.664003,20.122 C302.352001,20.7820033 302.172003,21.4719964 302.124003,22.192 L313.608003,22.192 Z M316.092003,22.984 L316.092003,23.524 C316.092003,23.716001 316.080003,23.9199989 316.056003,24.136 L302.088003,24.136 C302.112003,24.9760042 302.280001,25.7679963 302.592003,26.512 C302.904005,27.2560037 303.336,27.9039972 303.888003,28.456 C304.440006,29.0080028 305.087999,29.4459984 305.832003,29.77 C306.576007,30.0940016 307.379999,30.256 308.244003,30.256 C309.516009,30.256 310.613998,29.9620029 311.538003,29.374 C312.462008,28.7859971 313.164001,28.1080038 313.644003,27.34 L315.480003,28.78 C314.471998,30.0520064 313.362009,30.9639972 312.150003,31.516 C310.937997,32.0680028 309.63601,32.344 308.244003,32.344 C306.995997,32.344 305.838008,32.1220022 304.770003,31.678 C303.701998,31.2339978 302.784007,30.616004 302.016003,29.824 C301.247999,29.031996 300.642005,28.0960054 300.198003,27.016 C299.754001,25.9359946 299.532003,24.7600064 299.532003,23.488 C299.532003,22.2159936 299.748001,21.0400054 300.180003,19.96 C300.612005,18.8799946 301.211999,17.944004 301.980003,17.152 C302.748007,16.359996 303.647998,15.7420022 304.680003,15.298 C305.712008,14.8539978 306.827997,14.632 308.028003,14.632 C309.34801,14.632 310.511998,14.8539978 311.520003,15.298 C312.528008,15.7420022 313.368,16.3419962 314.040003,17.098 C314.712006,17.8540038 315.222001,18.735995 315.570003,19.744 C315.918005,20.752005 316.092003,21.8319942 316.092003,22.984 Z M331.992003,6.424 L339.588003,6.424 C340.548008,6.424 341.519998,6.52599898 342.504003,6.73 C343.488008,6.93400102 344.369999,7.28199754 345.150003,7.774 C345.930007,8.26600246 346.566001,8.9319958 347.058003,9.772 C347.550006,10.6120042 347.796003,11.6679936 347.796003,12.94 C347.796003,14.2840067 347.388007,15.453995 346.572003,16.45 C345.755999,17.446005 344.66401,18.0999984 343.296003,18.412 L343.296003,18.484 C344.952012,18.676001 346.325998,19.3179945 347.418003,20.41 C348.510009,21.5020055 349.056003,22.9839906 349.056003,24.856 C349.056003,25.9120053 348.834006,26.8779956 348.390003,27.754 C347.946001,28.6300044 347.316007,29.3739969 346.500003,29.986 C345.683999,30.5980031 344.688009,31.0719983 343.512003,31.408 C342.335997,31.7440017 341.016011,31.912 339.552003,31.912 L331.992003,31.912 L331.992003,6.424 Z M334.584003,17.584 L339.804003,17.584 C340.428006,17.584 341.058,17.5120007 341.694003,17.368 C342.330007,17.2239993 342.912001,16.9780017 343.440003,16.63 C343.968006,16.2819983 344.394002,15.8200029 344.718003,15.244 C345.042005,14.6679971 345.204003,13.9600042 345.204003,13.12 C345.204003,12.3039959 345.042005,11.6140028 344.718003,11.05 C344.394002,10.4859972 343.956006,10.0240018 343.404003,9.664 C342.852001,9.3039982 342.204007,9.04600078 341.460003,8.89 C340.716,8.73399922 339.924008,8.656 339.084003,8.656 L334.584003,8.656 L334.584003,17.584 Z M334.584003,29.68 L339.408003,29.68 C340.344008,29.68 341.237999,29.5900009 342.090003,29.41 C342.942008,29.2299991 343.686,28.942002 344.322003,28.546 C344.958007,28.149998 345.468001,27.6340032 345.852003,26.998 C346.236005,26.3619968 346.428003,25.6000044 346.428003,24.712 C346.428003,23.0319916 345.858009,21.7780041 344.718003,20.95 C343.577998,20.1219959 341.964014,19.708 339.876003,19.708 L334.584003,19.708 L334.584003,29.68 Z M367.734004,31.912 C367.686003,31.4559977 367.650004,30.9520028 367.626004,30.4 C367.602003,29.8479972 367.590004,29.3920018 367.590004,29.032 L367.518004,29.032 C367.038001,30.0160049 366.258009,30.8139969 365.178004,31.426 C364.097998,32.0380031 362.95801,32.344 361.758004,32.344 C359.621993,32.344 358.020009,31.7080064 356.952004,30.436 C355.883998,29.1639936 355.350004,27.4840104 355.350004,25.396 L355.350004,15.064 L357.798004,15.064 L357.798004,24.388 C357.798004,25.2760044 357.870003,26.0799964 358.014004,26.8 C358.158004,27.5200036 358.404002,28.1379974 358.752004,28.654 C359.100005,29.1700026 359.568001,29.5719986 360.156004,29.86 C360.744006,30.1480014 361.481999,30.292 362.370004,30.292 C363.018007,30.292 363.648,30.1600013 364.260004,29.896 C364.872007,29.6319987 365.418001,29.2300027 365.898004,28.69 C366.378006,28.1499973 366.762002,27.4660041 367.050004,26.638 C367.338005,25.8099959 367.482004,24.8320056 367.482004,23.704 L367.482004,15.064 L369.930004,15.064 L369.930004,28.204 C369.930004,28.6600023 369.942003,29.2479964 369.966004,29.968 C369.990004,30.6880036 370.026003,31.3359971 370.074004,31.912 L367.734004,31.912 Z M379.644004,31.912 L377.196004,31.912 L377.196004,15.064 L379.644004,15.064 L379.644004,31.912 Z M380.148004,8.584 C380.148004,9.08800252 379.968005,9.50199838 379.608004,9.826 C379.248002,10.1500016 378.852006,10.312 378.420004,10.312 C377.988002,10.312 377.592005,10.1500016 377.232004,9.826 C376.872002,9.50199838 376.692004,9.08800252 376.692004,8.584 C376.692004,8.07999748 376.872002,7.66600162 377.232004,7.342 C377.592005,7.01799838 377.988002,6.856 378.420004,6.856 C378.852006,6.856 379.248002,7.01799838 379.608004,7.342 C379.968005,7.66600162 380.148004,8.07999748 380.148004,8.584 Z M389.430004,31.912 L386.982004,31.912 L386.982004,4.696 L389.430004,4.696 L389.430004,31.912 Z M410.592004,29.068 C409.872,30.1480054 408.93601,30.9639972 407.784004,31.516 C406.631998,32.0680028 405.44401,32.344 404.220004,32.344 C402.899997,32.344 401.706009,32.1160023 400.638004,31.66 C399.569999,31.2039977 398.658008,30.580004 397.902004,29.788 C397.146,28.995996 396.558006,28.0600054 396.138004,26.98 C395.718002,25.8999946 395.508004,24.7360062 395.508004,23.488 C395.508004,22.2399938 395.718002,21.0760054 396.138004,19.996 C396.558006,18.9159946 397.146,17.980004 397.902004,17.188 C398.658008,16.395996 399.569999,15.7720023 400.638004,15.316 C401.706009,14.8599977 402.899997,14.632 404.220004,14.632 C405.44401,14.632 406.631998,14.9139972 407.784004,15.478 C408.93601,16.0420028 409.872,16.8759945 410.592004,17.98 L410.664004,17.98 L410.664004,4.696 L413.112004,4.696 L413.112004,31.912 L410.664004,31.912 L410.664004,29.068 L410.592004,29.068 Z M398.100004,23.488 C398.100004,24.4240047 398.244003,25.3059959 398.532004,26.134 C398.820006,26.9620041 399.234001,27.6819969 399.774004,28.294 C400.314007,28.9060031 400.98,29.3859983 401.772004,29.734 C402.564008,30.0820017 403.463999,30.256 404.472004,30.256 C405.408009,30.256 406.272,30.0820017 407.064004,29.734 C407.856008,29.3859983 408.540001,28.912003 409.116004,28.312 C409.692007,27.711997 410.142002,26.9980041 410.466004,26.17 C410.790006,25.3419959 410.952004,24.4480048 410.952004,23.488 C410.952004,22.5279952 410.790006,21.6340041 410.466004,20.806 C410.142002,19.9779959 409.692007,19.2580031 409.116004,18.646 C408.540001,18.0339969 407.856008,17.5540017 407.064004,17.206 C406.272,16.8579983 405.408009,16.684 404.472004,16.684 C403.463999,16.684 402.564008,16.8639982 401.772004,17.224 C400.98,17.5840018 400.314007,18.0699969 399.774004,18.682 C399.234001,19.2940031 398.820006,20.0139959 398.532004,20.842 C398.244003,21.6700041 398.100004,22.5519953 398.100004,23.488 Z M433.266004,22.192 C433.194004,20.6079921 432.684009,19.2940052 431.736004,18.25 C430.788,17.2059948 429.438013,16.684 427.686004,16.684 C426.87,16.684 426.114008,16.8339985 425.418004,17.134 C424.722001,17.4340015 424.110007,17.8419974 423.582004,18.358 C423.054002,18.8740026 422.634006,19.4619967 422.322004,20.122 C422.010003,20.7820033 421.830004,21.4719964 421.782004,22.192 L433.266004,22.192 Z M435.750004,22.984 L435.750004,23.524 C435.750004,23.716001 435.738004,23.9199989 435.714004,24.136 L421.746004,24.136 C421.770004,24.9760042 421.938003,25.7679963 422.250004,26.512 C422.562006,27.2560037 422.994001,27.9039972 423.546004,28.456 C424.098007,29.0080028 424.746001,29.4459984 425.490004,29.77 C426.234008,30.0940016 427.038,30.256 427.902004,30.256 C429.174011,30.256 430.272,29.9620029 431.196004,29.374 C432.120009,28.7859971 432.822002,28.1080038 433.302004,27.34 L435.138004,28.78 C434.129999,30.0520064 433.02001,30.9639972 431.808004,31.516 C430.595998,32.0680028 429.294011,32.344 427.902004,32.344 C426.653998,32.344 425.49601,32.1220022 424.428004,31.678 C423.359999,31.2339978 422.442008,30.616004 421.674004,29.824 C420.906,29.031996 420.300006,28.0960054 419.856004,27.016 C419.412002,25.9359946 419.190004,24.7600064 419.190004,23.488 C419.190004,22.2159936 419.406002,21.0400054 419.838004,19.96 C420.270006,18.8799946 420.87,17.944004 421.638004,17.152 C422.406008,16.359996 423.305999,15.7420022 424.338004,15.298 C425.370009,14.8539978 426.485998,14.632 427.686004,14.632 C429.006011,14.632 430.169999,14.8539978 431.178004,15.298 C432.186009,15.7420022 433.026001,16.3419962 433.698004,17.098 C434.370008,17.8540038 434.880003,18.735995 435.228004,19.744 C435.576006,20.752005 435.750004,21.8319942 435.750004,22.984 Z M441.756004,18.772 C441.756004,18.3159977 441.744005,17.7280036 441.720004,17.008 C441.696004,16.2879964 441.660005,15.6400029 441.612004,15.064 L443.952004,15.064 C444.000005,15.5200023 444.036004,16.0239972 444.060004,16.576 C444.084005,17.1280028 444.096004,17.5839982 444.096004,17.944 L444.168004,17.944 C444.648007,16.9599951 445.368,16.1620031 446.328004,15.55 C447.288009,14.9379969 448.367998,14.632 449.568004,14.632 C449.880006,14.632 450.162003,14.6439999 450.414004,14.668 C450.666006,14.6920001 450.924003,14.7399996 451.188004,14.812 L450.864004,17.116 C450.720004,17.0679998 450.480006,17.0200002 450.144004,16.972 C449.808003,16.9239998 449.472006,16.9 449.136004,16.9 C448.488001,16.9 447.864007,17.0199988 447.264004,17.26 C446.664001,17.5000012 446.142007,17.8779974 445.698004,18.394 C445.254002,18.9100026 444.894006,19.569996 444.618004,20.374 C444.342003,21.178004 444.204004,22.1439944 444.204004,23.272 L444.204004,31.912 L441.756004,31.912 L441.756004,18.772 Z" id="ArcGISExperienceBuilder" fill="#F4F7FF"></path>
            </g>
        </g>
    </g>
</svg>