<?xml version="1.0" encoding="UTF-8"?>
<svg width="18px" height="16px" viewBox="0 0 18 16" version="1.1" xmlns="http://www.w3.org/2000/svg" xmlns:xlink="http://www.w3.org/1999/xlink">
    <!-- Generator: Sketch 55.2 (78181) - https://sketchapp.com -->
    <desc>Created with Sketch.</desc>
    <g id="SQL-Expression-Builder" stroke="none" stroke-width="1" fill="none" fill-rule="evenodd">
        <g id="icons" transform="translate(-115.000000, -160.000000)">
            <g id="icon-case-checked" transform="translate(115.000000, 160.000000)">
                <path d="M1.5389466,15.5591837 L1.58362212e-12,15.5591837 L4.29506005,4 L5.55419818,4 L9.80728696,15.5591837 L8.24035951,15.5591837 L7.23304901,12.7183673 L2.53226668,12.7183673 L1.5389466,15.5591837 Z M3.0219315,11.2979592 L6.72939376,11.2979592 L4.88265784,5.87755102 L3.0219315,11.2979592 Z M14.6429289,10.7918367 C14.6429289,10.2149631 14.4936992,9.78775649 14.1952354,9.51020408 C13.8967715,9.23265167 13.5003801,9.09387755 13.0060493,9.09387755 C12.6329695,9.09387755 12.2808807,9.17823045 11.9497724,9.34693878 C11.618664,9.5156471 11.3411901,9.73061094 11.1173422,9.99183673 L10.417821,9.0122449 C10.7442658,8.65305943 11.1429889,8.37006906 11.6140022,8.16326531 C12.0850155,7.95646155 12.5909974,7.85306122 13.1319632,7.85306122 C13.6076399,7.85306122 14.0203533,7.931972 14.3701156,8.08979592 C14.719878,8.24761984 15.0066788,8.46258367 15.2305267,8.73469388 C15.4543746,9.00680408 15.622258,9.32788931 15.734182,9.69795918 C15.8461059,10.0680291 15.902067,10.465304 15.902067,10.8897959 L15.902067,14.2693878 C15.902067,14.5306136 15.9090622,14.8054407 15.9230527,15.0938776 C15.9370432,15.3823144 15.962692,15.6190467 16,15.8040816 L14.810814,15.8040816 C14.736198,15.4340118 14.6988906,15.0639474 14.6988906,14.6938776 L14.6569193,14.6938776 C14.4144174,15.1074851 14.1089629,15.4285703 13.7405466,15.6571429 C13.3721303,15.8857154 12.9360997,16 12.432442,16 C12.1712861,16 11.8984756,15.9591841 11.6140022,15.877551 C11.3295288,15.795918 11.0707086,15.662586 10.8375337,15.477551 C10.6043588,15.2925161 10.4108265,15.0476206 10.2569311,14.7428571 C10.1030357,14.4380937 10.0260891,14.0625873 10.0260891,13.6163265 C10.0260891,13.0285685 10.1613285,12.563267 10.4318114,12.2204082 C10.7022943,11.8775493 11.0567148,11.6163274 11.4950836,11.4367347 C11.9334524,11.257142 12.4277758,11.1401363 12.9780685,11.0857143 C13.5283612,11.0312922 14.0833092,11.0040816 14.6429289,11.0040816 L14.6429289,10.7918367 Z M14.3211492,12.1142857 C13.9947043,12.1142857 13.6566058,12.1306121 13.3068435,12.1632653 C12.9570811,12.1959185 12.639968,12.261224 12.3554946,12.3591837 C12.0710213,12.4571433 11.8355182,12.6040807 11.6489783,12.8 C11.4624383,12.9959193 11.3691698,13.2571412 11.3691698,13.5836735 C11.3691698,13.812246 11.4088089,14.0027203 11.4880884,14.155102 C11.5673678,14.3074838 11.672295,14.4326526 11.8028729,14.5306122 C11.9334509,14.6285719 12.0780171,14.6965984 12.236576,14.7346939 C12.395135,14.7727893 12.5583549,14.7918367 12.7262409,14.7918367 C13.3418226,14.7918367 13.8151605,14.5768729 14.1462689,14.1469388 C14.4773772,13.7170047 14.6429289,13.1755135 14.6429289,12.522449 L14.6429289,12.1142857 L14.3211492,12.1142857 Z" id="icon-case-Default-Copy" fill="#FFFFFF" fill-rule="nonzero"></path>
                <g id="Group" transform="translate(11.000000, 0.000000)">
                    <circle id="Oval-Copy-2" fill="#007F94" cx="3.5" cy="3.5" r="3.5"></circle>
                    <polygon id="Path-2" fill="#FFFFFF" fill-rule="nonzero" points="1.65153997 3.27395605 1 3.9479635 2.84020846 5.87753017 6 2.69617602 5.36899058 2 2.8608491 4.5"></polygon>
                </g>
            </g>
        </g>
    </g>
</svg>