<?xml version="1.0" encoding="UTF-8"?>
<svg width="16px" height="16px" viewBox="0 0 16 16" version="1.1" xmlns="http://www.w3.org/2000/svg" xmlns:xlink="http://www.w3.org/1999/xlink">
    <!-- Generator: Sketch 59.1 (86144) - https://sketch.com -->
    <desc>Created with Sketch.</desc>
    <g id="SQL-Expression-Builder" stroke="none" stroke-width="1" fill="none" fill-rule="evenodd">
        <g id="icons" transform="translate(-157.000000, -162.000000)" fill="#FFFFFF" fill-rule="nonzero">
            <g id="icon-case-default" transform="translate(157.000000, 162.000000)">
                <path d="M13.1319632,5.85306122 C13.6076399,5.85306122 14.0203533,5.931972 14.3701156,6.08979592 C14.719878,6.24761984 15.0066788,6.46258367 15.2305267,6.73469388 C15.4543746,7.00680408 15.622258,7.32788931 15.734182,7.69795918 C15.8461059,8.06802906 15.902067,8.465304 15.902067,8.88979592 L15.902067,12.2693878 C15.902067,12.5306136 15.9090622,12.8054407 15.9230527,13.0938776 C15.9370432,13.3823144 15.962692,13.6190467 16,13.8040816 L14.810814,13.8040816 C14.736198,13.4340118 14.6988906,13.0639474 14.6988906,12.6938776 L14.6569193,12.6938776 C14.4144174,13.1074851 14.1089629,13.4285703 13.7405466,13.6571429 C13.3721303,13.8857154 12.9360997,14 12.432442,14 C12.1712861,14 11.8984756,13.9591841 11.6140022,13.877551 C11.3295288,13.795918 11.0707086,13.662586 10.8375337,13.477551 C10.6043588,13.2925161 10.4108265,13.0476206 10.2569311,12.7428571 C10.1030357,12.4380937 10.0260891,12.0625873 10.0260891,11.6163265 C10.0260891,11.0285685 10.1613285,10.563267 10.4318114,10.2204082 C10.7022943,9.87754931 11.0567148,9.61632743 11.4950836,9.43673469 C11.9334524,9.25714196 12.4277758,9.14013633 12.9780685,9.08571429 C13.5283612,9.03129224 14.0833092,9.00408163 14.6429289,9.00408163 L14.6429289,8.79183673 C14.6429289,8.2149631 14.4936992,7.78775649 14.1952354,7.51020408 C13.8967715,7.23265167 13.5003801,7.09387755 13.0060493,7.09387755 C12.6329695,7.09387755 12.2808807,7.17823045 11.9497724,7.34693878 C11.618664,7.5156471 11.3411901,7.73061094 11.1173422,7.99183673 L10.417821,7.0122449 C10.7442658,6.65305943 11.1429889,6.37006906 11.6140022,6.16326531 C12.0850155,5.95646155 12.5909974,5.85306122 13.1319632,5.85306122 Z M5.55419818,2 L9.80728696,13.5591837 L8.24035951,13.5591837 L7.23304901,10.7183673 L2.53226668,10.7183673 L1.5389466,13.5591837 L1.58362212e-12,13.5591837 L4.29506005,2 L5.55419818,2 Z M14.6429289,10.1142857 L14.3211492,10.1142857 C13.9947043,10.1142857 13.6566058,10.1306121 13.3068435,10.1632653 C12.9570811,10.1959185 12.639968,10.261224 12.3554946,10.3591837 C12.0710213,10.4571433 11.8355182,10.6040807 11.6489783,10.8 C11.4624383,10.9959193 11.3691698,11.2571412 11.3691698,11.5836735 C11.3691698,11.812246 11.4088089,12.0027203 11.4880884,12.155102 C11.5673678,12.3074838 11.672295,12.4326526 11.8028729,12.5306122 C11.9334509,12.6285719 12.0780171,12.6965984 12.236576,12.7346939 C12.395135,12.7727893 12.5583549,12.7918367 12.7262409,12.7918367 C13.3418226,12.7918367 13.8151605,12.5768729 14.1462689,12.1469388 C14.4773772,11.7170047 14.6429289,11.1755135 14.6429289,10.522449 L14.6429289,10.1142857 Z M4.88265784,3.87755102 L3.0219315,9.29795918 L6.72939376,9.29795918 L4.88265784,3.87755102 Z" id="icon-case-Default-Copy"></path>
            </g>
        </g>
    </g>
</svg>