<?xml version="1.0" encoding="UTF-8"?>
<svg width="16px" height="16px" viewBox="0 0 16 16" version="1.1" xmlns="http://www.w3.org/2000/svg" xmlns:xlink="http://www.w3.org/1999/xlink">
    <!-- Generator: Sketch 59.1 (86144) - https://sketch.com -->
    <desc>Created with Sketch.</desc>
    <g id="SQL-Expression-Builder" stroke="none" stroke-width="1" fill="none" fill-rule="evenodd">
        <g id="icons" transform="translate(-290.000000, -162.000000)" fill="#FFFFFF">
            <g id="icon-dataSource" transform="translate(290.000000, 162.000000)">
                <path d="M16,9 L16,15 L0,15 L0,9 L16,9 Z M15,10 L1,10 L1,14 L15,14 L15,10 Z M4,11 L4,13 L2,13 L2,11 L4,11 Z M16,1 L16,7 L0,7 L0,1 L16,1 Z M15,2 L1,2 L1,6 L15,6 L15,2 Z M4,3 L4,5 L2,5 L2,3 L4,3 Z"></path>
            </g>
        </g>
    </g>
</svg>