<?xml version="1.0" encoding="UTF-8"?>
<svg width="16px" height="16px" viewBox="0 0 16 16" version="1.1" xmlns="http://www.w3.org/2000/svg" xmlns:xlink="http://www.w3.org/1999/xlink">
    <!-- Generator: Sketch 59.1 (86144) - https://sketch.com -->
    <desc>Created with Sketch.</desc>
    <g id="SQL-Expression-Builder" stroke="none" stroke-width="1" fill="none" fill-rule="evenodd">
        <g id="icons" transform="translate(-576.000000, -161.000000)" fill="#FFFFFF" fill-rule="nonzero">
            <g id="icon-ask-for-value-checked" transform="translate(576.000000, 161.000000)">
                <path d="M8,0 C12.418278,0 16,3.581722 16,8 C16,12.418278 12.418278,16 8,16 C3.581722,16 0,12.418278 0,8 C0,3.581722 3.581722,0 8,0 Z M8,0.941176471 C4.10151941,0.941176471 0.941176471,4.10151941 0.941176471,8 C0.941176471,11.8984806 4.10151941,15.0588235 8,15.0588235 C11.8984806,15.0588235 15.0588235,11.8984806 15.0588235,8 C15.0588235,4.10151941 11.8984806,0.941176471 8,0.941176471 Z M12.5,10.5 L12.5,11.5 L3.5,11.5 L3.5,10.5 L12.5,10.5 Z M9.5,7.5 L9.5,8.5 L3.5,8.5 L3.5,7.5 L9.5,7.5 Z M12.5,4.5 L12.5,5.5 L3.5,5.5 L3.5,4.5 L12.5,4.5 Z" id="icon-ask-for-value"></path>
            </g>
        </g>
    </g>
</svg>