<?xml version="1.0" encoding="UTF-8"?>
<svg width="12px" height="12px" viewBox="0 0 12 12" version="1.1" xmlns="http://www.w3.org/2000/svg" xmlns:xlink="http://www.w3.org/1999/xlink">
    <g id="SQL_Responsive" stroke="none" stroke-width="1" fill="none" fill-rule="evenodd">
        <g id="icons" transform="translate(-221.000000, -175.000000)">
            <g id="icons/wrap" transform="translate(221.000000, 175.000000)">
                <rect id="Rectangle" x="0" y="0" width="12" height="12"></rect>
                <path d="M11.5,10 C11.7761424,10 12,10.2238576 12,10.5 C12,10.7761424 11.7761424,11 11.5,11 L0.5,11 C0.223857625,11 3.38176876e-17,10.7761424 0,10.5 C-3.38176876e-17,10.2238576 0.223857625,10 0.5,10 L11.5,10 Z M3.5,7 C3.77614237,7 4,7.22385763 4,7.5 C4,7.77614237 3.77614237,8 3.5,8 L0.5,8 C0.223857625,8 3.38176876e-17,7.77614237 0,7.5 C-3.38176876e-17,7.22385763 0.223857625,7 0.5,7 L3.5,7 Z M11.5,4 C11.7761424,4 12,4.22385763 12,4.5 C12,4.77614237 11.7761424,5 11.5,5 L0.5,5 C0.223857625,5 3.38176876e-17,4.77614237 0,4.5 C-3.38176876e-17,4.22385763 0.223857625,4 0.5,4 L11.5,4 Z M3.5,1 C3.77614237,1 4,1.22385763 4,1.5 C4,1.77614237 3.77614237,2 3.5,2 L0.5,2 C0.223857625,2 3.38176876e-17,1.77614237 0,1.5 C-3.38176876e-17,1.22385763 0.223857625,1 0.5,1 L3.5,1 Z" fill="#000000"></path>
            </g>
        </g>
    </g>
</svg>