<?xml version="1.0" encoding="UTF-8"?>
<svg width="16px" height="16px" viewBox="0 0 16 16" version="1.1" xmlns="http://www.w3.org/2000/svg" xmlns:xlink="http://www.w3.org/1999/xlink">
    <g id="Filter_v3" stroke="none" stroke-width="1" fill="none" fill-rule="evenodd">
        <g id="SQL_Ask-for-Value" transform="translate(-328.000000, -525.000000)" fill="#FFFFFF">
            <g id="filter-item" transform="translate(270.000000, 362.000000)">
                <g id="Icon-group-Copy" transform="translate(53.000000, 158.000000)">
                    <path d="M11.7320005,14.4000607 L13.1619529,15.6145594 C14.3393407,16.6145479 14.482385,18.3787587 13.4814512,19.5550346 C13.2505871,19.8263411 12.971239,20.0520658 12.6546752,20.2171704 C10.4440721,21.3701154 8.0242265,21.2495245 5.39513844,19.8553975 L5.10212033,19.6953177 C5.0056465,19.6410189 4.97149842,19.5188675 5.02584848,19.4224847 C5.05930107,19.3631609 5.12062771,19.3248776 5.1886628,19.3208474 C7.03647266,19.2113892 7.9603776,18.4334707 7.9603776,16.9870919 C7.9603776,15.9244037 8.25854435,15.0277188 9.13970761,14.3966826 C10.0208709,13.7656464 10.9721504,13.9395349 11.7320005,14.4000607 Z M9.78679111,15.1611364 C9.22786951,15.6333509 8.96248146,16.2162782 8.96248146,16.9870919 C8.96248146,18.2078833 7.77118959,19.6995062 6.97538756,19.6995062 C8.27537018,20.2171704 10.7196419,20.498675 12.1872801,19.3315799 C12.3612357,19.1932469 12.569775,19.0807203 12.7179582,18.9065785 C13.360421,18.15157 13.2686061,17.0191875 12.5128839,16.3773314 L11.0829315,15.1628326 C10.7094537,14.8456275 10.1610926,14.8449138 9.78679111,15.1611364 Z M20.5509593,5.25053824 C21.0009379,5.60622016 21.1307967,6.23890068 20.8579943,6.74643234 L16.6956252,14.4902579 C16.1734409,15.4617488 14.9717006,15.8210228 14.0114632,15.2927188 C13.9156961,15.2400296 13.8243955,15.1794253 13.7384931,15.1115245 L12.7418055,14.3237008 C11.8804797,13.6428728 11.727764,12.384527 12.4007055,11.5131069 C12.4678198,11.4261978 12.5419167,11.3450473 12.6222401,11.2704835 L19.0420345,5.31102159 C19.4627889,4.92043743 20.1009807,4.89485631 20.5509593,5.25053824 Z M19.7110514,6.04870737 L13.291257,12.0081693 C13.2510953,12.0454512 13.2140468,12.0860264 13.1804897,12.129481 C12.8440189,12.5651911 12.9203768,13.194364 13.3510397,13.534778 L14.3477273,14.3226016 C14.3906785,14.3565521 14.4363288,14.3868542 14.4842123,14.4131988 C14.964331,14.6773508 15.5652012,14.4977138 15.8262933,14.0119683 L19.9886625,6.26814279 C20.0303666,6.19055495 20.0105147,6.09383524 19.9417251,6.03946111 C19.8729356,5.98508698 19.7753734,5.98899763 19.7110514,6.04870737 Z" id="design"></path>
                </g>
            </g>
        </g>
    </g>
</svg>