<?xml version="1.0" encoding="UTF-8"?>
<svg width="68px" height="48px" viewBox="0 0 68 48" version="1.1" xmlns="http://www.w3.org/2000/svg" xmlns:xlink="http://www.w3.org/1999/xlink">
    <g id="SQL_Responsive" stroke="none" stroke-width="1" fill="none" fill-rule="evenodd">
        <g id="SQL_Ask-for-Value_warning" transform="translate(-484.000000, -523.000000)">
            <g id="Group-7" transform="translate(388.000000, 498.000000)">
                <g id="thumbnail/style/select/multiple" transform="translate(96.000000, 25.000000)">
                    <g id="thumbnail/style/select/simple">
                        <path d="M63,14 C63.5522847,14 64,14.4477153 64,15 L64,43 C64,43.5522847 63.5522847,44 63,44 L5,44 C4.44771525,44 4,43.5522847 4,43 L4,15 C4,14.4477153 4.44771525,14 5,14 L63,14 Z M63,15 L5,15 L5,43 L63,43 L63,15 Z" id="Rectangle" fill="#363636" fill-rule="nonzero"></path>
                        <rect id="Rectangle" fill="#6A6A6A" fill-rule="nonzero" x="16" y="20" width="44" height="2"></rect>
                        <path d="M13.0546028,19.1598393 L10.3930643,21.7828631 L8.94539723,20.3504236 C8.73001261,20.1373046 8.37692308,20.1373046 8.16153846,20.3504236 C7.94615385,20.5635427 7.94615385,20.9129182 8.16153846,21.1260372 L9.89520807,22.8414709 C10.0117276,22.9567648 10.2200504,23.0091711 10.3930643,22.9986898 C10.5660782,23.0056774 10.774401,22.953271 10.8873897,22.8414709 L13.8384615,19.9354529 C14.0538462,19.7223338 14.0538462,19.3729583 13.8384615,19.1598393 C13.6230769,18.9467202 13.2735183,18.9467202 13.0546028,19.1598393 Z" id="Path" fill="#6A6A6A" fill-rule="nonzero"></path>
                        <path d="M13.0546028,27.1598393 L10.3930643,29.7828631 L8.94539723,28.3504236 C8.73001261,28.1373046 8.37692308,28.1373046 8.16153846,28.3504236 C7.94615385,28.5635427 7.94615385,28.9129182 8.16153846,29.1260372 L9.89520807,30.8414709 C10.0117276,30.9567648 10.2200504,31.0091711 10.3930643,30.9986898 C10.5660782,31.0056774 10.774401,30.953271 10.8873897,30.8414709 L13.8384615,27.9354529 C14.0538462,27.7223338 14.0538462,27.3729583 13.8384615,27.1598393 C13.6230769,26.9467202 13.2735183,26.9467202 13.0546028,27.1598393 Z" id="Path" fill="#6A6A6A" fill-rule="nonzero"></path>
                        <path d="M13.0546028,35.1598393 L10.3930643,37.7828631 L8.94539723,36.3504236 C8.73001261,36.1373046 8.37692308,36.1373046 8.16153846,36.3504236 C7.94615385,36.5635427 7.94615385,36.9129182 8.16153846,37.1260372 L9.89520807,38.8414709 C10.0117276,38.9567648 10.2200504,39.0091711 10.3930643,38.9986898 C10.5660782,39.0056774 10.774401,38.953271 10.8873897,38.8414709 L13.8384615,35.9354529 C14.0538462,35.7223338 14.0538462,35.3729583 13.8384615,35.1598393 C13.6230769,34.9467202 13.2735183,34.9467202 13.0546028,35.1598393 Z" id="Path" fill="#6A6A6A" fill-rule="nonzero"></path>
                        <rect id="Rectangle-Copy-2" fill="#6A6A6A" fill-rule="nonzero" x="16" y="28" width="44" height="2"></rect>
                        <rect id="Rectangle-Copy-62" fill="#6A6A6A" fill-rule="nonzero" x="16" y="36" width="44" height="2"></rect>
                        <rect id="Title-Copy-28" fill="#6A6A6A" fill-rule="nonzero" x="4" y="4" width="60" height="8" rx="2"></rect>
                        <polygon id="Rectangle-Copy-14" fill="#181818" points="55 6 61 6 58 10"></polygon>
                        <rect id="Rectangle-Copy-17" fill="#181818" x="7" y="7" width="46" height="2"></rect>
                    </g>
                </g>
            </g>
        </g>
    </g>
</svg>