<?xml version="1.0" encoding="UTF-8"?>
<svg width="20px" height="20px" viewBox="0 0 20 20" version="1.1" xmlns="http://www.w3.org/2000/svg" xmlns:xlink="http://www.w3.org/1999/xlink">
    <!-- Generator: Sketch 59.1 (86144) - https://sketch.com -->
    <title>widget-survey123</title>
    <desc>Created with Sketch.</desc>
    <g id="Style" stroke="none" stroke-width="1" fill="none" fill-rule="evenodd">
        <g id="$0-UI-icons" transform="translate(-440.000000, -1139.000000)" fill="#000000" fill-rule="nonzero">
            <path d="M457.882353,1139 C459.051897,1139 460,1139.89543 460,1141 L460,1157 C460,1158.10457 459.051897,1159 457.882353,1159 L444.117647,1159 C442.948103,1159 442,1158.10457 442,1157 L442,1155 L441,1155 C440.447715,1155 440,1154.55228 440,1154 C440,1153.44772 440.447715,1153 441,1153 L442,1153 L442,1150 L441,1150 C440.447715,1150 440,1149.55228 440,1149 C440,1148.44772 440.447715,1148 441,1148 L442,1148 L442,1145 L441,1145 C440.447715,1145 440,1144.55228 440,1144 C440,1143.44772 440.447715,1143 441,1143 L442,1143 L442,1141 C442,1139.89543 442.948103,1139 444.117647,1139 L457.882353,1139 Z M457.933333,1140 L444.066667,1140 C443.477563,1140 443,1140.44772 443,1141 L443,1143 L444,1143 C444.552285,1143 445,1143.44772 445,1144 C445,1144.55228 444.552285,1145 444,1145 L443,1145 L443,1148 L444,1148 C444.552285,1148 445,1148.44772 445,1149 C445,1149.55228 444.552285,1150 444,1150 L443,1150 L443,1153 L444,1153 C444.552285,1153 445,1153.44772 445,1154 C445,1154.55228 444.552285,1155 444,1155 L443,1155 L443,1157 C443,1157.55228 443.477563,1158 444.066667,1158 L457.933333,1158 C458.522437,1158 459,1157.55228 459,1157 L459,1141 C459,1140.44772 458.522437,1140 457.933333,1140 Z M456.788466,1146.22059 C457.08231,1146.52701 457.068297,1147.03843 456.757168,1147.36288 L451.645299,1152.69358 C451.253507,1153.10214 450.618286,1153.10214 450.226494,1152.69358 L447.211534,1149.54955 C446.91769,1149.24313 446.931703,1148.73171 447.242832,1148.40726 C447.553961,1148.08282 448.044388,1148.0682 448.338232,1148.37463 L450.998491,1151.14876 L455.693065,1146.25323 C456.004194,1145.92878 456.494622,1145.91417 456.788466,1146.22059 Z" id="widget-survey123"></path>
        </g>
    </g>
</svg>