<svg width="32" height="32" viewBox="0 0 32 32" fill="none" xmlns="http://www.w3.org/2000/svg">
<circle cx="16" cy="16" r="16" fill="white"/>
<path fill-rule="evenodd" clip-rule="evenodd" d="M10.2657 10.5315C9.00699 10.5315 8 9.52448 8 8.26573C8 7.00699 9.00699 6 10.2657 6C11.5245 6 12.5315 7.00699 12.5315 8.26573C12.5315 9.52448 11.5245 10.5315 10.2657 10.5315ZM8.37762 24V12.6713H12.1538V24H8.37762ZM22.2238 24H26V16.8252C26 14.4336 23.986 12.4196 21.5944 12.4196C20.4615 12.4196 19.0769 13.1748 18.4476 14.1818V12.6713H14.6713V24H18.4476V17.3287C18.4476 16.3217 19.3287 15.4406 20.3357 15.4406C21.3427 15.4406 22.2238 16.3217 22.2238 17.3287V24Z" fill="black"/>
</svg>
