<svg width="32" height="32" viewBox="0 0 32 32" fill="none" xmlns="http://www.w3.org/2000/svg">
<circle cx="16" cy="16" r="16" fill="white"/>
<path fill-rule="evenodd" clip-rule="evenodd" d="M20.9889 8.51662L23.4834 11.0111C24.1722 11.6999 24.1722 12.8167 23.4834 13.5055L20.3653 16.6236C19.6765 17.3124 18.5597 17.3124 17.8708 16.6236L17.2472 16L16 17.2472L16.6236 17.8708C17.3124 18.5597 17.3124 19.6765 16.6236 20.3653L13.5055 23.4834C12.8167 24.1722 11.6999 24.1722 11.0111 23.4834L8.51662 20.9889C7.82779 20.3001 7.82779 19.1833 8.51662 18.4945L11.6347 15.3764C12.3235 14.6876 13.4403 14.6876 14.1292 15.3764L14.7528 16L16 14.7528L15.3764 14.1292C14.6876 13.4403 14.6876 12.3235 15.3764 11.6347L18.4945 8.51662C19.1833 7.82779 20.3001 7.82779 20.9889 8.51662ZM15.3764 19.1181L14.7528 18.4945L14.1292 19.1181C13.7847 19.4625 13.2263 19.4625 12.8819 19.1181C12.5375 18.7737 12.5375 18.2153 12.8819 17.8708L13.5055 17.2472L12.8819 16.6236L9.76385 19.7417L12.2583 22.2362L15.3764 19.1181ZM19.7417 9.76385L22.2362 12.2583L19.1181 15.3764L18.4945 14.7528L19.1181 14.1292C19.4625 13.7847 19.4625 13.2263 19.1181 12.8819C18.7737 12.5375 18.2153 12.5375 17.8708 12.8819L17.2472 13.5055L16.6236 12.8819L19.7417 9.76385Z" fill="black"/>
</svg>
