<?xml version="1.0" encoding="UTF-8"?>
<svg width="20px" height="20px" viewBox="0 0 20 20" version="1.1" xmlns="http://www.w3.org/2000/svg" xmlns:xlink="http://www.w3.org/1999/xlink">
    <!-- Generator: Sketch 59.1 (86144) - https://sketch.com -->
    <title>widget-navigator</title>
    <desc>Created with Sketch.</desc>
    <g id="Style" stroke="none" stroke-width="1" fill="none" fill-rule="evenodd">
        <g id="$0-UI-icons" transform="translate(-360.000000, -1139.000000)" fill="#000000" fill-rule="nonzero">
            <path d="M378,1139 C379.104569,1139 380,1139.89543 380,1141 L380,1157 C380,1158.10457 379.104569,1159 378,1159 L362,1159 C360.895431,1159 360,1158.10457 360,1157 L360,1141 C360,1139.89543 360.895431,1139 362,1139 L378,1139 Z M378,1140 L362,1140 C361.447715,1140 361,1140.44772 361,1141 L361,1157 C361,1157.55228 361.447715,1158 362,1158 L378,1158 C378.552285,1158 379,1157.55228 379,1157 L379,1141 C379,1140.44772 378.552285,1140 378,1140 Z M367,1153 C367.552285,1153 368,1153.44772 368,1154 C368,1154.55228 367.552285,1155 367,1155 C366.447715,1155 366,1154.55228 366,1154 C366,1153.44772 366.447715,1153 367,1153 Z M370,1153 C370.552285,1153 371,1153.44772 371,1154 C371,1154.55228 370.552285,1155 370,1155 C369.447715,1155 369,1154.55228 369,1154 C369,1153.44772 369.447715,1153 370,1153 Z M373,1153 C373.552285,1153 374,1153.44772 374,1154 C374,1154.55228 373.552285,1155 373,1155 C372.447715,1155 372,1154.55228 372,1154 C372,1153.44772 372.447715,1153 373,1153 Z M366.074057,1144.1676 C366.308648,1144.39107 366.308648,1144.75339 366.074057,1144.97686 L363.950236,1147 L366.074057,1149.02314 C366.308648,1149.24661 366.308648,1149.60893 366.074057,1149.8324 C365.839466,1150.05587 365.459119,1150.05587 365.224528,1149.8324 L362.675943,1147.40463 C362.441352,1147.18116 362.441352,1146.81884 362.675943,1146.59537 L365.224528,1144.1676 C365.459119,1143.94413 365.839466,1143.94413 366.074057,1144.1676 Z M374.775472,1144.1676 L377.324057,1146.59537 C377.558648,1146.81884 377.558648,1147.18116 377.324057,1147.40463 L374.775472,1149.8324 C374.540881,1150.05587 374.160534,1150.05587 373.925943,1149.8324 C373.691352,1149.60893 373.691352,1149.24661 373.925943,1149.02314 L376.049764,1147 L373.925943,1144.97686 C373.691352,1144.75339 373.691352,1144.39107 373.925943,1144.1676 C374.160534,1143.94413 374.540881,1143.94413 374.775472,1144.1676 Z" id="widget-navigator"></path>
        </g>
    </g>
</svg>