<?xml version="1.0" encoding="UTF-8"?>
<svg width="16px" height="16px" viewBox="0 0 16 16" version="1.1" xmlns="http://www.w3.org/2000/svg" xmlns:xlink="http://www.w3.org/1999/xlink">
    <!-- Generator: Sketch 59 (86127) - https://sketch.com -->
    <title>share_1</title>
    <desc>Created with Sketch.</desc>
    <g id="Style" stroke="none" stroke-width="1" fill="none" fill-rule="evenodd">
        <g id="0-UI-icons" transform="translate(-41.000000, -1818.000000)" fill="#000000">
            <g id="Share" transform="translate(40.000000, 1575.000000)">
                <g id="Share-icons-16" transform="translate(1.000000, 243.000000)">
                    <path d="M8,0 L8,2 L2,2 L2,14 L14,14 L14,8 L16,8 L16,14 C16,15.1045695 15.1045695,16 14,16 L2,16 C0.8954305,16 1.8189894e-12,15.1045695 1.8189894e-12,14 L1.8189894e-12,2 C1.8189894e-12,0.8954305 0.8954305,0 2,0 L8,0 Z M10,0 L10,2 L12.5,2 L4.5,10 L6,11.5 L14,3.5 L14,6 L16,6 L16,0 L10,0 Z" id="share_1"></path>
                </g>
            </g>
        </g>
    </g>
</svg>