<svg width="40" height="16" xmlns="http://www.w3.org/2000/svg">
  <path d="M36 0a4 4 0 014 4v8a4 4 0 01-4 4H4a4 4 0 01-4-4V4a4 4 0 014-4h32zM7.88 3.288c-.352 0-.702.046-1.05.138-.348.092-.66.238-.936.438s-.5.452-.672.756c-.172.304-.258.668-.258 1.092 0 .392.064.72.192.984s.296.486.504.666c.208.18.444.328.708.444.264.116.532.214.804.294l.267.087.507.171c.244.084.458.186.642.306s.33.266.438.438c.108.172.162.386.162.642s-.052.474-.156.654c-.104.18-.238.33-.402.45-.164.12-.346.208-.546.264a2.237 2.237 0 01-1.692-.192 2.261 2.261 0 01-.804-.72l-.924.78c.328.408.742.716 1.242.924a4.008 4.008 0 002.652.156c.356-.104.67-.262.942-.474.272-.212.49-.48.654-.804.164-.324.246-.706.246-1.146 0-.424-.076-.774-.228-1.05a2.187 2.187 0 00-.588-.69 3.137 3.137 0 00-.804-.444 14.21 14.21 0 00-.876-.3l-.678-.234a2.371 2.371 0 01-.552-.276 1.252 1.252 0 01-.372-.396 1.13 1.13 0 01-.138-.582c0-.24.05-.446.15-.618.1-.172.23-.316.39-.432a1.6 1.6 0 01.534-.252c.196-.052.39-.078.582-.078.36 0 .684.074.972.222.288.148.516.338.684.57l.84-.816a2.771 2.771 0 00-1.044-.708 3.654 3.654 0 00-1.392-.264zm24.564 2.868c-.416 0-.804.074-1.164.222-.36.148-.672.354-.936.618s-.47.582-.618.954a3.266 3.266 0 00-.222 1.218c0 .448.076.856.228 1.224.152.368.36.682.624.942.264.26.58.462.948.606.368.144.768.216 1.2.216.504 0 .962-.094 1.374-.282.412-.188.77-.482 1.074-.882l-.792-.636c-.16.24-.38.444-.66.612-.28.168-.612.252-.996.252a1.872 1.872 0 01-1.284-.498 1.784 1.784 0 01-.402-.552 1.705 1.705 0 01-.162-.678h4.512c.008-.064.012-.128.012-.192v-.192c0-.456-.064-.866-.192-1.23a2.649 2.649 0 00-.546-.93 2.338 2.338 0 00-.864-.588 3.028 3.028 0 00-1.134-.204zm-11.172 0c-.464 0-.898.076-1.302.228a3.03 3.03 0 00-1.026.624l.6.72c.192-.192.43-.35.714-.474a2.24 2.24 0 01.906-.186c.424 0 .764.102 1.02.306.256.204.384.518.384.942v.156c-.48 0-.956.02-1.428.06a5.15 5.15 0 00-1.272.258c-.376.132-.68.324-.912.576-.232.252-.348.594-.348 1.026 0 .328.066.604.198.828.132.224.298.404.498.54s.422.234.666.294c.244.06.478.09.702.09.432 0 .806-.084 1.122-.252.316-.168.578-.404.786-.708h.036c0 .272.032.544.096.816h1.02a3.113 3.113 0 01-.066-.522l-.01-.209c-.005-.137-.008-.269-.008-.397V8.388c0-.312-.048-.604-.144-.876a1.942 1.942 0 00-.432-.708 2.009 2.009 0 00-.738-.474 2.94 2.94 0 00-1.062-.174zm-8.1-3.228h-1.128V12h1.128V8.988c0-.568.144-1.022.432-1.362.288-.34.656-.51 1.104-.51.264 0 .478.048.642.144.164.096.294.224.39.384.096.16.162.344.198.552.036.208.054.428.054.66V12h1.128V8.472c0-.32-.042-.62-.126-.9a1.92 1.92 0 00-1.05-1.23c-.264-.124-.58-.186-.948-.186-.408 0-.776.1-1.104.3-.328.2-.56.44-.696.72h-.024V2.928zm15.204 3.228c-.384 0-.73.102-1.038.306a1.968 1.968 0 00-.702.81H26.6l-.003-.205-.018-.438a6.513 6.513 0 00-.027-.317h-1.068c.016.184.028.396.036.636l.005.172.007.416V12h1.128V9.012c0-.24.032-.47.096-.69a1.7 1.7 0 01.294-.582c.132-.168.298-.302.498-.402.2-.1.436-.15.708-.15.184 0 .356.02.516.06l.048-1.044a1.75 1.75 0 00-.444-.048zm-5.808 3.132v.3c0 .48-.142.878-.426 1.194-.284.316-.69.474-1.218.474-.144 0-.284-.014-.42-.042a1.086 1.086 0 01-.372-.15.847.847 0 01-.27-.276.797.797 0 01-.102-.42c0-.24.08-.432.24-.576.16-.144.362-.252.606-.324.244-.072.516-.12.816-.144.3-.024.59-.036.87-.036h.276zm9.876-2.244c.264 0 .494.042.69.126.196.084.36.198.492.342.132.144.232.314.3.51.068.196.106.406.114.63h-3.384c.016-.224.074-.434.174-.63a1.76 1.76 0 01.936-.852c.212-.084.438-.126.678-.126z" fill="#000" fill-rule="evenodd"/>
</svg>