<svg width="40" height="16" xmlns="http://www.w3.org/2000/svg">
  <path d="M36 0a4 4 0 014 4v8a4 4 0 01-4 4H4a4 4 0 01-4-4V4a4 4 0 014-4h32zm0 1H4a3 3 0 00-3 3v8a3 3 0 003 3h32a3 3 0 003-3V4a3 3 0 00-3-3zM7.88 3.288c.496 0 .96.088 1.392.264.432.176.78.412 1.044.708l-.84.816a1.894 1.894 0 00-.684-.57 2.095 2.095 0 00-.972-.222c-.192 0-.386.026-.582.078a1.6 1.6 0 00-.534.252c-.16.116-.29.26-.39.432-.1.172-.15.378-.15.618 0 .232.046.426.138.582.092.156.216.288.372.396.156.108.34.2.552.276l.678.234c.288.088.58.188.876.3.296.112.564.26.804.444.24.184.436.414.588.69.152.276.228.626.228 1.05 0 .44-.082.822-.246 1.146a2.347 2.347 0 01-.654.804c-.272.212-.586.37-.942.474a4.008 4.008 0 01-2.652-.156 3.085 3.085 0 01-1.242-.924l.924-.78c.2.296.468.536.804.72a2.237 2.237 0 001.692.192c.2-.056.382-.144.546-.264.164-.12.298-.27.402-.45.104-.18.156-.398.156-.654s-.054-.47-.162-.642a1.43 1.43 0 00-.438-.438 2.897 2.897 0 00-.642-.306l-.507-.17-.267-.088a6.689 6.689 0 01-.804-.294 2.788 2.788 0 01-.708-.444 2.052 2.052 0 01-.504-.666c-.128-.264-.192-.592-.192-.984 0-.424.086-.788.258-1.092a2.35 2.35 0 01.672-.756c.276-.2.588-.346.936-.438a4.092 4.092 0 011.05-.138zm24.564 2.868c.416 0 .794.068 1.134.204.34.136.628.332.864.588.236.256.418.566.546.93.128.364.192.774.192 1.23V9.3c0 .064-.004.128-.012.192h-4.512c.008.24.062.466.162.678.1.212.234.396.402.552a1.864 1.864 0 001.284.498c.384 0 .716-.084.996-.252.28-.168.5-.372.66-.612l.792.636c-.304.4-.662.694-1.074.882-.412.188-.87.282-1.374.282-.432 0-.832-.072-1.2-.216a2.773 2.773 0 01-.948-.606 2.809 2.809 0 01-.624-.942 3.177 3.177 0 01-.228-1.224c0-.44.074-.846.222-1.218.148-.372.354-.69.618-.954s.576-.47.936-.618c.36-.148.748-.222 1.164-.222zm-11.172 0c.408 0 .762.058 1.062.174.3.116.546.274.738.474.192.2.336.436.432.708.096.272.144.564.144.876v2.484c0 .128.003.26.008.397l.01.209c.012.212.034.386.066.522h-1.02a3.552 3.552 0 01-.096-.816h-.036c-.208.304-.47.54-.786.708-.316.168-.69.252-1.122.252-.224 0-.458-.03-.702-.09a2.04 2.04 0 01-.666-.294 1.66 1.66 0 01-.498-.54c-.132-.224-.198-.5-.198-.828 0-.432.116-.774.348-1.026.232-.252.536-.444.912-.576a5.15 5.15 0 011.272-.258c.472-.04.948-.06 1.428-.06v-.156c0-.424-.128-.738-.384-.942-.256-.204-.596-.306-1.02-.306-.32 0-.622.062-.906.186a2.294 2.294 0 00-.714.474l-.6-.72a3.03 3.03 0 011.026-.624 3.667 3.667 0 011.302-.228zm-8.1-3.228v4.248h.024c.136-.28.368-.52.696-.72.328-.2.696-.3 1.104-.3.368 0 .684.062.948.186a1.92 1.92 0 011.05 1.23c.084.28.126.58.126.9V12h-1.128V8.856c0-.232-.018-.452-.054-.66a1.59 1.59 0 00-.198-.552 1.088 1.088 0 00-.39-.384c-.164-.096-.378-.144-.642-.144-.448 0-.816.17-1.104.51-.288.34-.432.794-.432 1.362V12h-1.128V2.928h1.128zm15.204 3.228c.176 0 .324.016.444.048l-.048 1.044c-.16-.04-.332-.06-.516-.06-.272 0-.508.05-.708.15-.2.1-.366.234-.498.402a1.7 1.7 0 00-.294.582c-.064.22-.096.45-.096.69V12h-1.128V7.536l-.007-.416-.005-.172a12.08 12.08 0 00-.036-.636h1.068c.01.096.02.202.027.317l.018.438.003.205h.036c.16-.336.394-.606.702-.81a1.838 1.838 0 011.038-.306zm-5.808 3.132h-.276c-.28 0-.57.012-.87.036-.3.024-.572.072-.816.144s-.446.18-.606.324a.737.737 0 00-.24.576c0 .168.034.308.102.42a.847.847 0 00.27.276c.112.072.236.122.372.15.136.028.276.042.42.042.528 0 .934-.158 1.218-.474.284-.316.426-.714.426-1.194v-.3zm9.876-2.244a1.824 1.824 0 00-1.23.468 1.801 1.801 0 00-.384.51c-.1.196-.158.406-.174.63h3.384a2.145 2.145 0 00-.114-.63 1.446 1.446 0 00-.3-.51 1.41 1.41 0 00-.492-.342 1.742 1.742 0 00-.69-.126z" fill="#000" fill-rule="nonzero"/>
</svg>