<?xml version="1.0" encoding="UTF-8"?>
<svg width="198px" height="148px" viewBox="0 0 198 148" version="1.1" xmlns="http://www.w3.org/2000/svg" xmlns:xlink="http://www.w3.org/1999/xlink">
    <!-- Generator: Sketch 55.2 (78181) - https://sketchapp.com -->
    <title>T2</title>
    <desc>Created with Sketch.</desc>
    <g id="Style" stroke="none" stroke-width="1" fill="none" fill-rule="evenodd">
        <g id="14-Pop-up-&amp;-Modal" transform="translate(-511.000000, -892.000000)">
            <g id="New-page" transform="translate(40.000000, 785.000000)">
                <g id="T3" transform="translate(474.000000, 110.000000)">
                    <rect id="Layout" stroke="#006071" fill-opacity="0.2" fill="#00424F" x="42.5" y="45.5" width="59" height="49"></rect>
                    <path id="Arrow" d="M72.5,8.5 L72.5,32.5 L76.5,32.5 L72,41.5 L67.5,32.5 L71.5,32.5 L71.5,8.5 L67.5,8.5 L72,-0.5 L76.5,8.5 L72.5,8.5 Z" fill="#4D545B" fill-rule="nonzero"></path>
                    <path d="M2,2 L2,20 L0,20 L0,2 L0,0 L20,0 L20,2 L2,2 Z M190,2 L172,2 L172,0 L192,0 L192,20 L190,20 L190,2 Z M2,140 L20,140 L20,142 L0,142 L0,122 L2,122 L2,140 Z M190,140 L190,122 L192,122 L192,142 L172,142 L172,140 L190,140 Z" id="Area" fill="#353B40"></path>
                    <path id="Arrow" d="M72.5,107.5 L72.5,133.5 L76.5,133.5 L72,142.5 L67.5,133.5 L71.5,133.5 L71.5,107.5 L67.5,107.5 L72,98.5 L76.5,107.5 L72.5,107.5 Z" fill="#4D545B" fill-rule="nonzero"></path>
                    <path id="Arrow" d="M31.5,70.5 L10.5,70.5 L10.5,74.5 L1.5,70 L10.5,65.5 L10.5,69.5 L31.5,69.5 L31.5,65.5 L40.5,70 L31.5,74.5 L31.5,70.5 Z" fill="#4D545B" fill-rule="nonzero"></path>
                    <path id="Arrow" d="M183.5,70.5 L114.5,70.5 L114.5,74.5 L105.5,70 L114.5,65.5 L114.5,69.5 L183.5,69.5 L183.5,65.5 L192.5,70 L183.5,74.5 L183.5,70.5 Z" fill="#4D545B" fill-rule="nonzero"></path>
                </g>
            </g>
        </g>
    </g>
</svg>