<?xml version="1.0" encoding="UTF-8"?>
<svg width="198px" height="148px" viewBox="0 0 198 148" version="1.1" xmlns="http://www.w3.org/2000/svg" xmlns:xlink="http://www.w3.org/1999/xlink">
    <!-- Generator: Sketch 55.2 (78181) - https://sketchapp.com -->
    <title>T1</title>
    <desc>Created with Sketch.</desc>
    <g id="Style" stroke="none" stroke-width="1" fill="none" fill-rule="evenodd">
        <g id="14-Pop-up-&amp;-Modal" transform="translate(-71.000000, -892.000000)">
            <g id="New-page" transform="translate(40.000000, 785.000000)">
                <g id="T1" transform="translate(31.000000, 107.000000)">
                    <rect id="Rectangle" fill="#353B40" opacity="0.4" x="3.55271368e-15" y="0" width="40" height="148"></rect>
                    <rect id="Rectangle" fill="#353B40" opacity="0.4" x="158" y="0" width="40" height="148"></rect>
                    <path d="M40,0 L40,148" id="Dash-line" stroke="#4D545B" stroke-linecap="square" stroke-dasharray="3,3"></path>
                    <path d="M158,0 L158,148" id="Dash-line" stroke="#4D545B" stroke-linecap="square" stroke-dasharray="3,3"></path>
                    <path d="M56.5,15.5 L56.5,74.5 L141.5,74.5 L141.5,15.5 L56.5,15.5 Z M56.5,81.5 L56.5,120.5 L95.5,120.5 L95.5,81.5 L56.5,81.5 Z M102.5,81.5 L102.5,120.5 L141.5,120.5 L141.5,81.5 L102.5,81.5 Z" id="Layout" stroke="#006071" fill-opacity="0.2" fill="#00424F"></path>
                    <rect id="Scroll-bar" fill="#4D545B" x="190" y="8" width="3" height="80" rx="1.5"></rect>
                </g>
            </g>
        </g>
    </g>
</svg>