<?xml version="1.0" encoding="UTF-8"?>
<svg width="16px" height="16px" viewBox="0 0 16 16" version="1.1" xmlns="http://www.w3.org/2000/svg" xmlns:xlink="http://www.w3.org/1999/xlink">
    <!-- Generator: Sketch 59.1 (86144) - https://sketch.com -->
    <title>Icon-filter-on</title>
    <desc>Created with Sketch.</desc>
    <g id="List" stroke="none" stroke-width="1" fill="none" fill-rule="evenodd">
        <g id="Rutime-v-light" transform="translate(-296.000000, -906.000000)">
            <g id="Icon-filter-on" transform="translate(296.000000, 906.000000)">
                <path d="M4.28610945,15.0988207 L4.28610945,9.77574316 L0.287801402,5.35504483 C0.179174271,5.24019892 0.0954281373,5.10416252 0.0418070625,4.95545403 C-0.0183266119,4.7884767 -0.0127502529,4.60488575 0.0574066992,4.44186584 C0.131129093,4.28090194 0.263233114,4.15394483 0.426998203,4.08667401 C0.572989738,4.02639509 0.729875588,3.99697899 0.887787609,4.00027599 L11.1127524,4.00027599 C11.2891484,4.00027599 11.4439448,4.02907532 11.5735418,4.08667401 C11.7451379,4.16227227 11.8735349,4.28466945 11.9431333,4.44186584 C12.0132903,4.60488575 12.0188666,4.7884767 11.958733,4.95545403 C11.9051119,5.10416252 11.8213658,5.24019892 11.7127386,5.35504483 L7.71683053,9.77574316 L7.71683053,12.9784695 C7.71683053,13.5832556 7.36523862,14.3296384 6.89844936,14.7148296 L5.65047806,15.7432059 C5.44408281,15.913602 5.23288767,16 5.0228925,16 C4.65570094,16 4.28610945,15.7216064 4.28610945,15.0988207 Z" id="Path" fill="#6A6A6A" fill-rule="nonzero"></path>
                <circle id="Oval" fill="#E02020" cx="13" cy="3" r="2"></circle>
                <path d="M13,0 C14.6568542,0 16,1.34314575 16,3 C16,4.65685425 14.6568542,6 13,6 C11.3431458,6 10,4.65685425 10,3 C10,1.34314575 11.3431458,0 13,0 Z M13,1 C11.8954305,1 11,1.8954305 11,3 C11,4.1045695 11.8954305,5 13,5 C14.1045695,5 15,4.1045695 15,3 C15,1.8954305 14.1045695,1 13,1 Z" id="Oval" fill="#FFFFFF" fill-rule="nonzero"></path>
            </g>
        </g>
    </g>
</svg>