<?xml version="1.0" encoding="UTF-8"?>
<svg width="26px" height="26px" viewBox="0 0 26 26" version="1.1" xmlns="http://www.w3.org/2000/svg" xmlns:xlink="http://www.w3.org/1999/xlink">
    <!-- Generator: Sketch 59.1 (86144) - https://sketch.com -->
    <title>Default user</title>
    <desc>Created with Sketch.</desc>
    <g id="$Builder" stroke="none" stroke-width="1" fill="none" fill-rule="evenodd">
        <g id="$B7-3-Account" transform="translate(-1398.000000, -12.000000)">
            <g id="Header">
                <g id="Default-user" transform="translate(1398.000000, 12.000000)">
                    <circle id="Oval" fill="#6A6A6A" cx="13" cy="13" r="13"></circle>
                    <path d="M13,17 C16.8891151,17 20.2596923,19.2201248 21.913497,22.4621397 C19.5857622,24.6562388 16.4498072,26 13,26 C9.54987831,26 6.41366608,24.6559938 4.08636423,22.4629824 C5.74030768,19.2201248 9.11088488,17 13,17 Z M13,5 C15.7614237,5 18,7.23857625 18,10 C18,12.7614237 15.7614237,15 13,15 C10.2385763,15 8,12.7614237 8,10 C8,7.23857625 10.2385763,5 13,5 Z" id="Shape" fill="#A8A8A8"></path>
                </g>
            </g>
        </g>
    </g>
</svg>