<?xml version="1.0" encoding="UTF-8"?>
<svg width="20px" height="20px" viewBox="0 0 20 20" version="1.1" xmlns="http://www.w3.org/2000/svg" xmlns:xlink="http://www.w3.org/1999/xlink">
    <!-- Generator: Sketch 59.1 (86144) - https://sketch.com -->
    <title>widget-filter</title>
    <desc>Created with Sketch.</desc>
    <g id="Style" stroke="none" stroke-width="1" fill="none" fill-rule="evenodd">
        <g id="$0-UI-icons" transform="translate(-160.000000, -1179.000000)">
            <g id="widget-filter" transform="translate(160.000000, 1179.000000)">
                <path d="M2.46073831,0.5 C2.35836007,0.5 2.2583443,0.536781512 2.17687836,0.605343358 C1.97182543,0.777916175 1.93976897,1.09889432 2.1085291,1.31403847 L6.89210181,7.41238446 C7.07584788,7.64663345 7.18615885,7.93181947 7.20923727,8.23063214 L8.04450715,19.0454668 C8.04817161,19.0929132 8.05819684,19.1395037 8.07423955,19.1838165 C8.16602307,19.437339 8.42765071,19.5605201 8.65992863,19.470296 L10.7723468,18.6497665 C10.9313238,18.5880149 11.0481116,18.436502 11.0722331,18.253276 L12.3968255,8.19168248 C12.4346933,7.90403953 12.5535778,7.63352183 12.7394815,7.41345067 L17.88034,1.32774921 C17.9570388,1.2369539 18,1.11851946 18,0.995117133 C18,0.717811048 17.7897205,0.5 17.5392926,0.5 L2.46073831,0.5 Z" id="Path-4" stroke="#000000"></path>
                <rect id="Rectangle" x="0" y="0" width="20" height="20"></rect>
            </g>
        </g>
    </g>
</svg>