<?xml version="1.0" encoding="UTF-8"?>
<svg width="16px" height="16px" viewBox="0 0 16 16" version="1.1" xmlns="http://www.w3.org/2000/svg" xmlns:xlink="http://www.w3.org/1999/xlink">
    <!-- Generator: Sketch 59.1 (86144) - https://sketch.com -->
    <title>invite</title>
    <desc>Created with Sketch.</desc>
    <g id="Style" stroke="none" stroke-width="1" fill="none" fill-rule="evenodd">
        <g id="0-UI-icons" transform="translate(-256.000000, -503.000000)">
            <g id="invite" transform="translate(256.000000, 503.000000)">
                <path d="M10.3125,9 C13.4536195,9 16,11.6862915 16,15 L3,15 C3,11.6862915 5.54638049,9 8.6875,9 L10.3125,9 Z M3,4.5 C3.41421356,4.5 3.75,4.83578644 3.75,5.25 L3.75,6.75 L5.25,6.75 C5.66421356,6.75 6,7.08578644 6,7.5 C6,7.91421356 5.66421356,8.25 5.25,8.25 L3.75,8.25 L3.75,9.75 C3.75,10.1642136 3.41421356,10.5 3,10.5 C2.58578644,10.5 2.25,10.1642136 2.25,9.75 L2.25,8.25 L0.75,8.25 C0.335786438,8.25 5.07265313e-17,7.91421356 0,7.5 C-5.07265313e-17,7.08578644 0.335786438,6.75 0.75,6.75 L2.25,6.75 L2.25,5.25 C2.25,4.83578644 2.58578644,4.5 3,4.5 Z M9.5,1 C11.4329966,1 13,2.56700338 13,4.5 C13,6.43299662 11.4329966,8 9.5,8 C7.56700338,8 6,6.43299662 6,4.5 C6,2.56700338 7.56700338,1 9.5,1 Z" fill="#000000" fill-rule="nonzero"></path>
                <rect id="Rectangle" x="0" y="0" width="16" height="16"></rect>
            </g>
        </g>
    </g>
</svg>