<?xml version="1.0" encoding="UTF-8"?>
<svg width="12px" height="12px" viewBox="0 0 12 12" version="1.1" xmlns="http://www.w3.org/2000/svg" xmlns:xlink="http://www.w3.org/1999/xlink">
    <!-- Generator: Sketch 52.6 (67491) - http://www.bohemiancoding.com/sketch -->
    <title>add-12</title>
    <desc>Created with Sketch.</desc>
    <g id="Style" stroke="none" stroke-width="1" fill="none" fill-rule="evenodd">
        <g id="0-UI-icons" transform="translate(-956.000000, -494.000000)" fill="#000000" fill-rule="nonzero">
            <path d="M961.5,499.5 L961.5,494.5 C961.5,494.223858 961.723858,494 962,494 C962.276142,494 962.5,494.223858 962.5,494.5 L962.5,499.5 L967.5,499.5 C967.776142,499.5 968,499.723858 968,500 C968,500.276142 967.776142,500.5 967.5,500.5 L962.5,500.5 L962.5,505.5 C962.5,505.776142 962.276142,506 962,506 C961.723858,506 961.5,505.776142 961.5,505.5 L961.5,500.5 L956.5,500.5 C956.223858,500.5 956,500.276142 956,500 C956,499.723858 956.223858,499.5 956.5,499.5 L961.5,499.5 Z" id="add-12"></path>
        </g>
    </g>
</svg>