<?xml version="1.0" encoding="UTF-8"?>
<svg width="8px" height="8px" viewBox="0 0 8 8" version="1.1" xmlns="http://www.w3.org/2000/svg" xmlns:xlink="http://www.w3.org/1999/xlink">
    <!-- Generator: Sketch 55.1 (78136) - https://sketchapp.com -->
    <title>add-8</title>
    <desc>Created with Sketch.</desc>
    <g id="Style" stroke="none" stroke-width="1" fill-rule="evenodd">
        <g id="0-UI-icons" transform="translate(-1025.000000, -723.000000)">
            <path d="M1028.5,726.5 L1028.5,723.5 C1028.5,723.223858 1028.72386,723 1029,723 C1029.27614,723 1029.5,723.223858 1029.5,723.5 L1029.5,726.5 L1032.5,726.5 C1032.77614,726.5 1033,726.723858 1033,727 C1033,727.276142 1032.77614,727.5 1032.5,727.5 L1029.5,727.5 L1029.5,730.5 C1029.5,730.776142 1029.27614,731 1029,731 C1028.72386,731 1028.5,730.776142 1028.5,730.5 L1028.5,727.5 L1025.5,727.5 C1025.22386,727.5 1025,727.276142 1025,727 C1025,726.723858 1025.22386,726.5 1025.5,726.5 L1028.5,726.5 Z" id="add-8"></path>
        </g>
    </g>
</svg>