<?xml version="1.0" encoding="UTF-8"?>
<svg width="15px" height="17px" viewBox="0 0 15 17" version="1.1" xmlns="http://www.w3.org/2000/svg" xmlns:xlink="http://www.w3.org/1999/xlink">
    <!-- Generator: Sketch 59.1 (86144) - https://sketch.com -->
    <title>add-page</title>
    <desc>Created with Sketch.</desc>
    <g id="Style" stroke="none" stroke-width="1" fill="none" fill-rule="evenodd">
        <g id="0-UI-icons" transform="translate(-179.000000, -1753.000000)" fill="#000000" fill-rule="nonzero">
            <g id="待定" transform="translate(40.000000, 1710.000000)">
                <path d="M149.085786,43 C149.351003,43 149.605357,43.1053568 149.792893,43.2928932 L153.707107,47.2071068 C153.894643,47.3946432 154,47.6489971 154,47.9142136 L154,58 C154,59.1045695 153.104569,60 152,60 L141,60 C139.895431,60 139,59.1045695 139,58 L139,45 C139,43.8954305 139.895431,43 141,43 L149.085786,43 Z M149,44 L141,44 C140.447715,44 140,44.4477153 140,45 L140,58 C140,58.5522847 140.447715,59 141,59 L152,59 C152.552285,59 153,58.5522847 153,58 L153,48 L149,48 L149,44 Z M146.5,48 C146.776142,48 147,48.2238576 147,48.5 L147,51 L149.5,51 C149.776142,51 150,51.2238576 150,51.5 C150,51.7761424 149.776142,52 149.5,52 L147,52 L147,54.5 C147,54.7761424 146.776142,55 146.5,55 C146.223858,55 146,54.7761424 146,54.5 L146,52 L143.5,52 C143.223858,52 143,51.7761424 143,51.5 C143,51.2238576 143.223858,51 143.5,51 L146,51 L146,48.5 C146,48.2238576 146.223858,48 146.5,48 Z" id="add-page"></path>
            </g>
        </g>
    </g>
</svg>