<?xml version="1.0" encoding="UTF-8"?>
<svg width="12px" height="12px" viewBox="0 0 12 12" version="1.1" xmlns="http://www.w3.org/2000/svg" xmlns:xlink="http://www.w3.org/1999/xlink">
    <g id="Icons" stroke="none" stroke-width="1" fill="none" fill-rule="evenodd">
        <g transform="translate(-200.000000, -283.000000)" fill="#000000" fill-rule="nonzero" id="add-circle-12">
            <path d="M206,283 C209.313708,283 212,285.686292 212,289 C212,292.313708 209.313708,295 206,295 C202.686292,295 200,292.313708 200,289 C200,285.686292 202.686292,283 206,283 Z M206,284 C203.238576,284 201,286.238576 201,289 C201,291.761424 203.238576,294 206,294 C208.761424,294 211,291.761424 211,289 C211,286.238576 208.761424,284 206,284 Z M206.5,285 L206.5,288.5 L210,288.5 L210,289.5 L206.5,289.5 L206.5,293 L205.5,293 L205.5,289.5 L202,289.5 L202,288.5 L205.5,288.5 L205.5,285 L206.5,285 Z"></path>
        </g>
    </g>
</svg>