<?xml version="1.0" encoding="UTF-8"?>
<svg width="15px" height="16px" viewBox="0 0 15 16" version="1.1" xmlns="http://www.w3.org/2000/svg" xmlns:xlink="http://www.w3.org/1999/xlink">
    <!-- Generator: Sketch 64 (93537) - https://sketch.com -->
    <title>add-dialog</title>
    <desc>Created with Sketch.</desc>
    <g id="Builder" stroke="none" stroke-width="1" fill="none" fill-rule="evenodd">
        <g id="B3-1-Dialog-Default" transform="translate(-279.000000, -70.000000)" fill="#C5C5C5" fill-rule="nonzero">
            <g id="Dialog" transform="translate(50.000000, 50.000000)">
                <path d="M242,20 C243.104569,20 244,20.8954305 244,22 L244,31 C244,32.1045695 243.104569,33 242,33 L234,33 L229,36 L229,22 C229,20.8954305 229.895431,20 231,20 L242,20 Z M242,21 L231,21 C230.487164,21 230.064493,21.3860402 230.006728,21.8833789 L230,22 L230,34.233 L233.723016,32 L242,32 C242.512836,32 242.935507,31.6139598 242.993272,31.1166211 L243,31 L243,22 C243,21.4871642 242.61396,21.0644928 242.116621,21.0067277 L242,21 Z M236.5,23 C236.776142,23 237,23.2238576 237,23.5 L237,26 L239.5,26 C239.776142,26 240,26.2238576 240,26.5 C240,26.7761424 239.776142,27 239.5,27 L237,27 L237,29.5 C237,29.7761424 236.776142,30 236.5,30 C236.223858,30 236,29.7761424 236,29.5 L236,27 L233.5,27 C233.223858,27 233,26.7761424 233,26.5 C233,26.2238576 233.223858,26 233.5,26 L236,26 L236,23.5 C236,23.2238576 236.223858,23 236.5,23 Z" id="add-dialog"></path>
            </g>
        </g>
    </g>
</svg>