<?xml version="1.0" encoding="UTF-8"?>
<svg width="24px" height="24px" viewBox="0 0 24 24" version="1.1" xmlns="http://www.w3.org/2000/svg" xmlns:xlink="http://www.w3.org/1999/xlink">
    <!-- Generator: Sketch 52.6 (67491) - http://www.bohemiancoding.com/sketch -->
    <title>add-24</title>
    <desc>Created with Sketch.</desc>
    <g id="Style" stroke="none" stroke-width="1" fill="none" fill-rule="evenodd">
        <g id="0-UI-icons" transform="translate(-857.000000, -222.000000)" fill="#000000" fill-rule="nonzero">
            <path d="M870,233 L880,233 C880.552285,233 881,233.447715 881,234 C881,234.552285 880.552285,235 880,235 L870,235 L870,245 C870,245.552285 869.552285,246 869,246 C868.447715,246 868,245.552285 868,245 L868,235 L858,235 C857.447715,235 857,234.552285 857,234 C857,233.447715 857.447715,233 858,233 L868,233 L868,223 C868,222.447715 868.447715,222 869,222 C869.552285,222 870,222.447715 870,223 L870,233 Z" id="add-24"></path>
        </g>
    </g>
</svg>