<?xml version="1.0" encoding="UTF-8"?>
<svg width="10px" height="10px" viewBox="0 0 10 10" version="1.1" xmlns="http://www.w3.org/2000/svg" xmlns:xlink="http://www.w3.org/1999/xlink">
    <!-- Generator: Sketch 52.6 (67491) - http://www.bohemiancoding.com/sketch -->
    <title>add-10</title>
    <desc>Created with Sketch.</desc>
    <g id="Style" stroke="none" stroke-width="1" fill="none" fill-rule="evenodd">
        <g id="0-UI-icons" transform="translate(-858.000000, -635.000000)" fill="#000000" fill-rule="nonzero">
            <path d="M863.5,639.5 L867.5,639.5 C867.776142,639.5 868,639.723858 868,640 C868,640.276142 867.776142,640.5 867.5,640.5 L863.5,640.5 L863.5,644.5 C863.5,644.776142 863.276142,645 863,645 C862.723858,645 862.5,644.776142 862.5,644.5 L862.5,640.5 L858.5,640.5 C858.223858,640.5 858,640.276142 858,640 C858,639.723858 858.223858,639.5 858.5,639.5 L862.5,639.5 L862.5,635.5 C862.5,635.223858 862.723858,635 863,635 C863.276142,635 863.5,635.223858 863.5,635.5 L863.5,639.5 Z" id="add-10"></path>
        </g>
    </g>
</svg>