<?xml version="1.0" encoding="UTF-8"?>
<svg width="12px" height="12px" viewBox="0 0 12 12" version="1.1" xmlns="http://www.w3.org/2000/svg" xmlns:xlink="http://www.w3.org/1999/xlink">
    <!-- Generator: Sketch 57.1 (83088) - https://sketch.com -->
    <title>align-v-m</title>
    <desc>Created with Sketch.</desc>
    <g id="Style" stroke="none" stroke-width="1" fill="none" fill-rule="evenodd">
        <g id="0-UI-icons" transform="translate(-1120.000000, -606.000000)">
            <g id="align-v-m" transform="translate(1120.000000, 606.000000)">
                <rect id="Rectangle" x="0" y="0" width="12" height="12"></rect>
                <path d="M6.5,-1.77635684e-15 C6.77614237,-1.77635684e-15 7,0.223857625 7,0.5 L7,3 L7.60002943,2.20002943 C7.74730536,2.00366151 8.01129458,1.94646783 8.22329552,2.05254858 L8.30002943,2.10002943 C8.52094333,2.26571485 8.56571485,2.57911553 8.40002943,2.80002943 L6.90002943,4.80002943 C6.70002943,5.06669609 6.30002943,5.06669609 6.10002943,4.80002943 L4.60002943,2.80002943 C4.434344,2.57911553 4.47911553,2.26571485 4.70002943,2.10002943 C4.92094333,1.934344 5.234344,1.97911553 5.40002943,2.20002943 L6,3 L6,0.5 C6,0.223857625 6.22385763,-1.77635684e-15 6.5,-1.77635684e-15 Z M11.5,5 C11.7761424,5 12,5.22385763 12,5.5 C12,5.77614237 11.7761424,6 11.5,6 L6.51115227,6.00012221 C6.6574146,6.00333662 6.80250134,6.06996255 6.90002943,6.2 L6.90002943,6.2 L8.40002943,8.2 C8.56571485,8.4209139 8.52094333,8.73431458 8.30002943,8.9 L8.30002943,8.9 L8.22329552,8.94748084 C8.01129458,9.0535616 7.74730536,8.99636791 7.60002943,8.8 L7.60002943,8.8 L7,8.00002943 L7,11.5000294 C7,11.7761718 6.77614237,12.0000294 6.5,12.0000294 C6.22385763,12.0000294 6,11.7761718 6,11.5000294 L6,11.5000294 L6,8.00002943 L5.40002943,8.8 C5.234344,9.0209139 4.92094333,9.06568542 4.70002943,8.9 C4.47911553,8.73431458 4.434344,8.4209139 4.60002943,8.2 L4.60002943,8.2 L6.10002943,6.2 C6.19758498,6.06992593 6.34272597,6.00329909 6.48903016,6.00011951 L1.5,6 C1.22385763,6 1,5.77614237 1,5.5 C1,5.22385763 1.22385763,5 1.5,5 L11.5,5 Z" fill="#000000" fill-rule="nonzero"></path>
            </g>
        </g>
    </g>
</svg>