<?xml version="1.0" encoding="UTF-8"?>
<svg width="10px" height="10px" viewBox="0 0 10 10" version="1.1" xmlns="http://www.w3.org/2000/svg" xmlns:xlink="http://www.w3.org/1999/xlink">
    <!-- Generator: Sketch 54.1 (76490) - https://sketchapp.com -->
    <title>align-h-right-10</title>
    <desc>Created with Sketch.</desc>
    <g id="Style" stroke="none" stroke-width="1" fill="none" fill-rule="evenodd">
        <g id="0-UI-icons" transform="translate(-1176.000000, -636.000000)" fill="#000000" fill-rule="nonzero">
            <path d="M1186,636.5 L1186,645.5 C1186,645.776142 1185.77614,646 1185.5,646 C1185.22386,646 1185,645.776142 1185,645.5 L1185,636.5 C1185,636.223858 1185.22386,636 1185.5,636 C1185.77614,636 1186,636.223858 1186,636.5 Z M1184,639 C1184,639.552285 1183.55228,640 1183,640 L1177,640 C1176.44772,640 1176,639.552285 1176,639 C1176,638.447715 1176.44772,638 1177,638 L1183,638 C1183.55228,638 1184,638.447715 1184,639 Z M1184,643 C1184,643.552285 1183.55228,644 1183,644 L1180,644 C1179.44772,644 1179,643.552285 1179,643 C1179,642.447715 1179.44772,642 1180,642 L1183,642 C1183.55228,642 1184,642.447715 1184,643 Z" id="align-h-right-10"></path>
        </g>
    </g>
</svg>