<?xml version="1.0" encoding="UTF-8"?>
<svg width="10px" height="10px" viewBox="0 0 10 10" version="1.1" xmlns="http://www.w3.org/2000/svg" xmlns:xlink="http://www.w3.org/1999/xlink">
    <!-- Generator: Sketch 54.1 (76490) - https://sketchapp.com -->
    <title>align-h-center-10</title>
    <desc>Created with Sketch.</desc>
    <g id="Style" stroke="none" stroke-width="1" fill="none" fill-rule="evenodd">
        <g id="0-UI-icons" transform="translate(-1146.000000, -636.000000)" fill="#000000" fill-rule="nonzero">
            <path d="M1150.5,642 L1150.5,640 L1147,640 C1146.44772,640 1146,639.552285 1146,639 C1146,638.447715 1146.44772,638 1147,638 L1150.5,638 L1150.5,636.5 C1150.5,636.223858 1150.72386,636 1151,636 C1151.27614,636 1151.5,636.223858 1151.5,636.5 L1151.5,638 L1155,638 C1155.55228,638 1156,638.447715 1156,639 C1156,639.552285 1155.55228,640 1155,640 L1151.5,640 L1151.5,642 L1153,642 C1153.55228,642 1154,642.447715 1154,643 C1154,643.552285 1153.55228,644 1153,644 L1151.5,644 L1151.5,645.5 C1151.5,645.776142 1151.27614,646 1151,646 C1150.72386,646 1150.5,645.776142 1150.5,645.5 L1150.5,644 L1149,644 C1148.44772,644 1148,643.552285 1148,643 C1148,642.447715 1148.44772,642 1149,642 L1150.5,642 Z" id="align-h-center-10"></path>
        </g>
    </g>
</svg>