<?xml version="1.0" encoding="UTF-8"?>
<svg width="10px" height="10px" viewBox="0 0 10 10" version="1.1" xmlns="http://www.w3.org/2000/svg" xmlns:xlink="http://www.w3.org/1999/xlink">
    <!-- Generator: Sketch 54.1 (76490) - https://sketchapp.com -->
    <title>align-v-bottom-10</title>
    <desc>Created with Sketch.</desc>
    <g id="Style" stroke="none" stroke-width="1" fill="none" fill-rule="evenodd">
        <g id="0-UI-icons" transform="translate(-1086.000000, -636.000000)" fill="#000000" fill-rule="nonzero">
            <path d="M1086.5,646 C1086.22386,646 1086,645.776142 1086,645.5 C1086,645.223858 1086.22386,645 1086.5,645 L1095.5,645 C1095.77614,645 1096,645.223858 1096,645.5 C1096,645.776142 1095.77614,646 1095.5,646 L1086.5,646 Z M1089,644 C1088.44772,644 1088,643.552285 1088,643 L1088,637 C1088,636.447715 1088.44772,636 1089,636 C1089.55228,636 1090,636.447715 1090,637 L1090,643 C1090,643.552285 1089.55228,644 1089,644 Z M1093,644 C1092.44772,644 1092,643.552285 1092,643 L1092,640 C1092,639.447715 1092.44772,639 1093,639 C1093.55228,639 1094,639.447715 1094,640 L1094,643 C1094,643.552285 1093.55228,644 1093,644 Z" id="align-v-bottom-10"></path>
        </g>
    </g>
</svg>