<?xml version="1.0" encoding="UTF-8"?>
<svg width="10px" height="10px" viewBox="0 0 10 10" version="1.1" xmlns="http://www.w3.org/2000/svg" xmlns:xlink="http://www.w3.org/1999/xlink">
    <!-- Generator: Sketch 54.1 (76490) - https://sketchapp.com -->
    <title>align-v-top-10</title>
    <desc>Created with Sketch.</desc>
    <g id="Style" stroke="none" stroke-width="1" fill="none" fill-rule="evenodd">
        <g id="0-UI-icons" transform="translate(-1026.000000, -636.000000)" fill="#000000" fill-rule="nonzero">
            <path d="M1026.5,636 L1035.5,636 C1035.77614,636 1036,636.223858 1036,636.5 L1036,636.5 C1036,636.776142 1035.77614,637 1035.5,637 L1026.5,637 C1026.22386,637 1026,636.776142 1026,636.5 L1026,636.5 C1026,636.223858 1026.22386,636 1026.5,636 Z M1029,638 L1029,638 C1029.55228,638 1030,638.447715 1030,639 L1030,645 C1030,645.552285 1029.55228,646 1029,646 L1029,646 C1028.44772,646 1028,645.552285 1028,645 L1028,639 C1028,638.447715 1028.44772,638 1029,638 Z M1033,638 L1033,638 C1033.55228,638 1034,638.447715 1034,639 L1034,642 C1034,642.552285 1033.55228,643 1033,643 L1033,643 C1032.44772,643 1032,642.552285 1032,642 L1032,639 C1032,638.447715 1032.44772,638 1033,638 Z" id="align-v-top-10"></path>
        </g>
    </g>
</svg>