<?xml version="1.0" encoding="UTF-8"?>
<svg width="10px" height="10px" viewBox="0 0 10 10" version="1.1" xmlns="http://www.w3.org/2000/svg" xmlns:xlink="http://www.w3.org/1999/xlink">
    <!-- Generator: Sketch 54.1 (76490) - https://sketchapp.com -->
    <title>align-v-center-10</title>
    <desc>Created with Sketch.</desc>
    <g id="Style" stroke="none" stroke-width="1" fill="none" fill-rule="evenodd">
        <g id="0-UI-icons" transform="translate(-1056.000000, -636.000000)" fill="#000000" fill-rule="nonzero">
            <path d="M1062,641.5 L1060,641.5 L1060,645 C1060,645.552285 1059.55228,646 1059,646 C1058.44772,646 1058,645.552285 1058,645 L1058,641.5 L1056.5,641.5 C1056.22386,641.5 1056,641.276142 1056,641 C1056,640.723858 1056.22386,640.5 1056.5,640.5 L1058,640.5 L1058,637 C1058,636.447715 1058.44772,636 1059,636 C1059.55228,636 1060,636.447715 1060,637 L1060,640.5 L1062,640.5 L1062,639 C1062,638.447715 1062.44772,638 1063,638 C1063.55228,638 1064,638.447715 1064,639 L1064,640.5 L1065.5,640.5 C1065.77614,640.5 1066,640.723858 1066,641 C1066,641.276142 1065.77614,641.5 1065.5,641.5 L1064,641.5 L1064,643 C1064,643.552285 1063.55228,644 1063,644 C1062.44772,644 1062,643.552285 1062,643 L1062,641.5 Z" id="align-v-center-10"></path>
        </g>
    </g>
</svg>