<?xml version="1.0" encoding="UTF-8"?>
<svg width="10px" height="10px" viewBox="0 0 10 10" version="1.1" xmlns="http://www.w3.org/2000/svg" xmlns:xlink="http://www.w3.org/1999/xlink">
    <!-- Generator: Sketch 54.1 (76490) - https://sketchapp.com -->
    <title>align-h-left-10</title>
    <desc>Created with Sketch.</desc>
    <g id="Style" stroke="none" stroke-width="1" fill="none" fill-rule="evenodd">
        <g id="0-UI-icons" transform="translate(-1116.000000, -636.000000)" fill="#000000" fill-rule="nonzero">
            <path d="M1116,636.5 C1116,636.223858 1116.22386,636 1116.5,636 C1116.77614,636 1117,636.223858 1117,636.5 L1117,645.5 C1117,645.776142 1116.77614,646 1116.5,646 C1116.22386,646 1116,645.776142 1116,645.5 L1116,636.5 Z M1118,639 C1118,638.447715 1118.44772,638 1119,638 L1125,638 C1125.55228,638 1126,638.447715 1126,639 C1126,639.552285 1125.55228,640 1125,640 L1119,640 C1118.44772,640 1118,639.552285 1118,639 Z M1118,643 C1118,642.447715 1118.44772,642 1119,642 L1122,642 C1122.55228,642 1123,642.447715 1123,643 C1123,643.552285 1122.55228,644 1122,644 L1119,644 C1118.44772,644 1118,643.552285 1118,643 Z" id="align-h-left-10"></path>
        </g>
    </g>
</svg>