<?xml version="1.0" encoding="UTF-8"?>
<svg width="12px" height="12px" viewBox="0 0 12 12" version="1.1" xmlns="http://www.w3.org/2000/svg" xmlns:xlink="http://www.w3.org/1999/xlink">
    <!-- Generator: Sketch 57.1 (83088) - https://sketch.com -->
    <title>align-v-t</title>
    <desc>Created with Sketch.</desc>
    <g id="Style" stroke="none" stroke-width="1" fill="none" fill-rule="evenodd">
        <g id="0-UI-icons" transform="translate(-1153.000000, -606.000000)">
            <g id="align-v-t" transform="translate(1153.000000, 606.000000)">
                <rect id="Rectangle" x="0" y="0" width="12" height="12"></rect>
                <path d="M11,11 C11.2761424,11 11.5,11.2238576 11.5,11.5 C11.5,11.7761424 11.2761424,12 11,12 L1,12 C0.723857625,12 0.5,11.7761424 0.5,11.5 C0.5,11.2238576 0.723857625,11 1,11 L11,11 Z M6,0 C6.27614237,0 6.5,0.223857625 6.5,0.5 L6.5,9 L7.10002943,8.20002943 C7.24730536,8.00366151 7.51129458,7.94646783 7.72329552,8.05254858 L7.80002943,8.10002943 C7.99639734,8.24730536 8.05359103,8.51129458 7.94751027,8.72329552 L7.90002943,8.80002943 L6.40002943,10.8000294 C6.22002943,11.0400294 5.87802943,11.0640294 5.66562943,10.8720294 L5.60002943,10.8000294 L4.10002943,8.80002943 C3.934344,8.57911553 3.97911553,8.26571485 4.20002943,8.10002943 C4.39639734,7.95275349 4.66584122,7.97176453 4.83965951,8.13296232 L4.90002943,8.20002943 L5.5,9 L5.5,0.5 C5.5,0.223857625 5.72385763,0 6,0 Z" fill="#000000" fill-rule="nonzero" transform="translate(6.000000, 6.000000) scale(1, -1) translate(-6.000000, -6.000000) "></path>
            </g>
        </g>
    </g>
</svg>