<?xml version="1.0" encoding="UTF-8"?>
<svg width="16px" height="4px" viewBox="0 0 16 4" version="1.1" xmlns="http://www.w3.org/2000/svg" xmlns:xlink="http://www.w3.org/1999/xlink">
    <!-- Generator: Sketch 52.6 (67491) - http://www.bohemiancoding.com/sketch -->
    <title>app-more</title>
    <desc>Created with Sketch.</desc>
    <g id="Style" stroke="none" stroke-width="1" fill="none" fill-rule="evenodd">
        <g id="0-UI-icons" transform="translate(-278.000000, -251.000000)" fill="#000000" fill-rule="nonzero">
            <path d="M280,254 C280.552285,254 281,253.552285 281,253 C281,252.447715 280.552285,252 280,252 C279.447715,252 279,252.447715 279,253 C279,253.552285 279.447715,254 280,254 Z M280,255 C278.895431,255 278,254.104569 278,253 C278,251.895431 278.895431,251 280,251 C281.104569,251 282,251.895431 282,253 C282,254.104569 281.104569,255 280,255 Z M286,254 C286.552285,254 287,253.552285 287,253 C287,252.447715 286.552285,252 286,252 C285.447715,252 285,252.447715 285,253 C285,253.552285 285.447715,254 286,254 Z M286,255 C284.895431,255 284,254.104569 284,253 C284,251.895431 284.895431,251 286,251 C287.104569,251 288,251.895431 288,253 C288,254.104569 287.104569,255 286,255 Z M292,254 C292.552285,254 293,253.552285 293,253 C293,252.447715 292.552285,252 292,252 C291.447715,252 291,252.447715 291,253 C291,253.552285 291.447715,254 292,254 Z M292,255 C290.895431,255 290,254.104569 290,253 C290,251.895431 290.895431,251 292,251 C293.104569,251 294,251.895431 294,253 C294,254.104569 293.104569,255 292,255 Z" id="app-more"></path>
        </g>
    </g>
</svg>