<?xml version="1.0" encoding="UTF-8"?>
<svg width="16px" height="16px" viewBox="0 0 16 16" version="1.1" xmlns="http://www.w3.org/2000/svg" xmlns:xlink="http://www.w3.org/1999/xlink">
    <!-- Generator: Sketch 52.6 (67491) - http://www.bohemiancoding.com/sketch -->
    <title>app-launch</title>
    <desc>Created with Sketch.</desc>
    <g id="Style" stroke="none" stroke-width="1" fill="none" fill-rule="evenodd">
        <g id="0-UI-icons" transform="translate(-244.000000, -245.000000)" fill="#000000" fill-rule="nonzero">
            <path d="M252,260 C255.865993,260 259,256.865993 259,253 C259,249.134007 255.865993,246 252,246 C248.134007,246 245,249.134007 245,253 C245,256.865993 248.134007,260 252,260 Z M252,261 C247.581722,261 244,257.418278 244,253 C244,248.581722 247.581722,245 252,245 C256.418278,245 260,248.581722 260,253 C260,257.418278 256.418278,261 252,261 Z M254.544453,252.999962 L250.455473,249.985987 L250.455473,256.013937 L254.544453,252.999962 Z M255.09981,253.802292 L251.01083,256.816267 C250.581429,257.132778 249.984688,257.030145 249.677973,256.58703 C249.562223,256.419806 249.5,256.219439 249.5,256.013937 L249.5,249.985987 C249.5,249.441441 249.92778,249 250.455473,249 C250.654615,249 250.848781,249.064211 251.01083,249.183656 L255.09981,252.197631 C255.529212,252.514142 255.628669,253.12994 255.321953,253.573055 C255.260669,253.661592 255.185607,253.739051 255.09981,253.802292 Z" id="app-launch"></path>
        </g>
    </g>
</svg>