<?xml version="1.0" encoding="UTF-8"?>
<svg width="16px" height="16px" viewBox="0 0 16 16" version="1.1" xmlns="http://www.w3.org/2000/svg" xmlns:xlink="http://www.w3.org/1999/xlink">
    <!-- Generator: Sketch 52.6 (67491) - http://www.bohemiancoding.com/sketch -->
    <title>app-sort</title>
    <desc>Created with Sketch.</desc>
    <g id="Style" stroke="none" stroke-width="1" fill="none" fill-rule="evenodd">
        <g id="0-UI-icons" transform="translate(-100.000000, -245.000000)" fill="#000000" fill-rule="nonzero">
            <path d="M105.173122,245 C105.449185,245 105.672978,245.224011 105.672978,245.500343 L105.672978,260.199451 C105.672978,260.641582 105.314909,261 104.873208,261 C104.639736,261 104.41792,260.89788 104.265978,260.720441 L100.120346,255.711687 C99.9406868,255.50188 99.9649606,255.186013 100.174563,255.006179 C100.384166,254.826344 100.699725,254.850642 100.879384,255.060449 L104.673266,259.658428 L104.673266,245.500343 C104.673266,245.224011 104.897059,245 105.173122,245 Z M110.826878,261 C110.550815,261 110.327022,260.775989 110.327022,260.499657 L110.327022,245.800549 C110.327022,245.358418 110.685091,245 111.126792,245 C111.360264,245 111.58208,245.10212 111.734022,245.279559 L115.879654,250.288313 C116.059313,250.49812 116.035039,250.813987 115.825437,250.993821 C115.615834,251.173656 115.300275,251.149358 115.120616,250.939551 L111.326734,246.341572 L111.326734,260.499657 C111.326734,260.775989 111.102941,261 110.826878,261 Z" id="app-sort"></path>
        </g>
    </g>
</svg>