<?xml version="1.0" encoding="UTF-8"?>
<svg width="16px" height="16px" viewBox="0 0 16 16" version="1.1" xmlns="http://www.w3.org/2000/svg" xmlns:xlink="http://www.w3.org/1999/xlink">
    <!-- Generator: Sketch 52.6 (67491) - http://www.bohemiancoding.com/sketch -->
    <title>app-access</title>
    <desc>Created with Sketch.</desc>
    <g id="Style" stroke="none" stroke-width="1" fill="none" fill-rule="evenodd">
        <g id="0-UI-icons" transform="translate(-208.000000, -245.000000)" fill="#000000" fill-rule="nonzero">
            <path d="M216,252 C217.656854,252 219,250.656854 219,249 C219,247.343146 217.656854,246 216,246 C214.343146,246 213,247.343146 213,249 C213,250.656854 214.343146,252 216,252 Z M216,253 C213.790861,253 212,251.209139 212,249 C212,246.790861 213.790861,245 216,245 C218.209139,245 220,246.790861 220,249 C220,251.209139 218.209139,253 216,253 Z M217,255 L215,255 C212.027004,255 209.559037,257.162287 209.082958,260 L222.917042,260 C222.440963,257.162287 219.972996,255 217,255 Z M215,254 L217,254 C220.865993,254 224,257.134007 224,261 L208,261 C208,257.134007 211.134007,254 215,254 Z M215.646447,257.72132 L217.414214,255.953553 C217.609476,255.758291 217.926058,255.758291 218.12132,255.953553 C218.316582,256.148816 218.316582,256.465398 218.12132,256.66066 L215.646447,259.135534 L213.87868,257.367767 C213.683418,257.172505 213.683418,256.855922 213.87868,256.66066 C214.073942,256.465398 214.390524,256.465398 214.585786,256.66066 L215.646447,257.72132 Z" id="app-access"></path>
        </g>
    </g>
</svg>