<?xml version="1.0" encoding="UTF-8"?>
<svg width="16px" height="16px" viewBox="0 0 16 16" version="1.1" xmlns="http://www.w3.org/2000/svg" xmlns:xlink="http://www.w3.org/1999/xlink">
    <!-- Generator: Sketch 59.1 (86144) - https://sketch.com -->
    <title>app-view-list</title>
    <desc>Created with Sketch.</desc>
    <g id="Style" stroke="none" stroke-width="1" fill="none" fill-rule="evenodd">
        <g id="0-UI-icons" transform="translate(-221.000000, -611.000000)" fill="#000000">
            <path d="M222.5,624 C223.328427,624 224,624.671573 224,625.5 C224,626.328427 223.328427,627 222.5,627 C221.671573,627 221,626.328427 221,625.5 C221,624.671573 221.671573,624 222.5,624 Z M236.5,625 C236.776142,625 237,625.223858 237,625.5 C237,625.776142 236.776142,626 236.5,626 L226.5,626 C226.223858,626 226,625.776142 226,625.5 C226,625.223858 226.223858,625 226.5,625 L236.5,625 Z M222.5,617.5 C223.328427,617.5 224,618.171573 224,619 C224,619.828427 223.328427,620.5 222.5,620.5 C221.671573,620.5 221,619.828427 221,619 C221,618.171573 221.671573,617.5 222.5,617.5 Z M236.5,618.5 C236.776142,618.5 237,618.723858 237,619 C237,619.276142 236.776142,619.5 236.5,619.5 L226.5,619.5 C226.223858,619.5 226,619.276142 226,619 C226,618.723858 226.223858,618.5 226.5,618.5 L236.5,618.5 Z M222.5,611 C223.328427,611 224,611.671573 224,612.5 C224,613.328427 223.328427,614 222.5,614 C221.671573,614 221,613.328427 221,612.5 C221,611.671573 221.671573,611 222.5,611 Z M236.5,612 C236.776142,612 237,612.223858 237,612.5 C237,612.776142 236.776142,613 236.5,613 L226.5,613 C226.223858,613 226,612.776142 226,612.5 C226,612.223858 226.223858,612 226.5,612 L236.5,612 Z" id="app-view-list"></path>
        </g>
    </g>
</svg>