<?xml version="1.0" encoding="UTF-8"?>
<svg width="16px" height="16px" viewBox="0 0 16 16" version="1.1" xmlns="http://www.w3.org/2000/svg" xmlns:xlink="http://www.w3.org/1999/xlink">
    <!-- Generator: Sketch 59.1 (86144) - https://sketch.com -->
    <title>app-preview</title>
    <desc>Created with Sketch.</desc>
    <g id="Style" stroke="none" stroke-width="1" fill="none" fill-rule="evenodd">
        <g id="0-UI-icons" transform="translate(-112.000000, -611.000000)" fill="#000000" fill-rule="nonzero">
            <path d="M126,611 C127.104569,611 128,611.895431 128,613 L128,621.5 C128,621.776142 127.776142,622 127.5,622 C127.223858,622 127,621.776142 127,621.5 L127,613 C127,612.447715 126.552285,612 126,612 L114,612 C113.447715,612 113,612.447715 113,613 L113,625 C113,625.552285 113.447715,626 114,626 L122.5,626 C122.776142,626 123,626.223858 123,626.5 C123,626.776142 122.776142,627 122.5,627 L114,627 C112.895431,627 112,626.104569 112,625 L112,613 C112,611.895431 112.895431,611 114,611 L126,611 Z M124.926244,623.195633 L127.848686,626.118075 C128.050438,626.319828 128.050438,626.646933 127.848686,626.848686 C127.646933,627.050438 127.319828,627.050438 127.118075,626.848686 L124.195633,623.926244 C123.993881,623.724491 123.993881,623.397386 124.195633,623.195633 C124.397386,622.993881 124.724491,622.993881 124.926244,623.195633 Z M120,614 C122.761424,614 125,616.238576 125,619 C125,621.761424 122.761424,624 120,624 C117.238576,624 115,621.761424 115,619 C115,616.238576 117.238576,614 120,614 Z M120,615 C117.790861,615 116,616.790861 116,619 C116,621.209139 117.790861,623 120,623 C122.209139,623 124,621.209139 124,619 C124,616.790861 122.209139,615 120,615 Z" id="app-preview"></path>
        </g>
    </g>
</svg>