<!-- Generated by IcoMoon.io -->
<svg version="1.1" xmlns="http://www.w3.org/2000/svg" width="18" height="32" viewBox="0 0 18 32">
<title>arrow-up-down</title>
<path d="M3.478 8.441c-0.447 0.427-1.172 0.427-1.619 0s-0.447-1.12 0-1.548l6.474-6.192c0.447-0.427 1.172-0.427 1.619 0l6.475 6.192c0.447 0.427 0.447 1.121 0 1.548s-1.172 0.427-1.619 0l-5.665-5.418-5.665 5.418z"></path>
<path d="M3.478 23.559c-0.447-0.427-1.172-0.427-1.619 0s-0.447 1.12 0 1.548l6.474 6.192c0.447 0.427 1.172 0.427 1.619 0l6.475-6.192c0.447-0.427 0.447-1.12 0-1.548s-1.172-0.427-1.619 0l-5.665 5.418-5.665-5.418z"></path>
</svg>
