<?xml version="1.0" encoding="UTF-8"?>
<svg width="20px" height="6px" viewBox="0 0 20 6" version="1.1" xmlns="http://www.w3.org/2000/svg" xmlns:xlink="http://www.w3.org/1999/xlink">
    <!-- Generator: Sketch 64 (93537) - https://sketch.com -->
    <title>arrow_stretched</title>
    <desc>Created with Sketch.</desc>
    <g id="Symbols" stroke="none" stroke-width="1" fill="none" fill-rule="evenodd">
        <g id="Tools/Position-3/state-3" transform="translate(-104.000000, -65.000000)" fill="#8B8B8B">
            <path d="M108,65.5 L108,67.5 L109,67.5 L109,68.5 L108,68.5 L108,70.5 L104,68 L108,65.5 Z M120,65.5 L124,68 L120,70.5 L120,68.5 L119,68.5 L119,67.5 L120,67.5 L120,65.5 Z M112,67.5 L112,68.5 L110,68.5 L110,67.5 L112,67.5 Z M115,67.5 L115,68.5 L113,68.5 L113,67.5 L115,67.5 Z M118,67.5 L118,68.5 L116,68.5 L116,67.5 L118,67.5 Z" id="arrow_stretched"></path>
        </g>
    </g>
</svg>