<!-- Generated by IcoMoon.io -->
<svg version="1.1" xmlns="http://www.w3.org/2000/svg" width="32" height="32" viewBox="0 0 32 32">
<title>authority</title>
<path d="M28 23.438v-1.712c0-1.892-0.963-2.854-2.857-2.854s-2.857 0.962-2.857 2.854v1.712h5.714zM20 29.713c-0.002 0.315 0.252 0.572 0.567 0.574h9.152c0.314-0.004 0.567-0.26 0.567-0.574v-4.559l-10.286-0.003v4.563zM18.286 30.862v-6.853c0-0.315 0.256-0.571 0.571-0.571h1.714v-1.712c0-2.522 2.047-4.566 4.571-4.566s4.571 2.044 4.571 4.566v1.712h1.714c0.315 0 0.571 0.253 0.571 0.571v6.853c-0.002 0.63-0.514 1.139-1.145 1.138h-11.424c-0.631 0.001-1.143-0.508-1.145-1.138zM25.714 28.695c0 0.315-0.256 0.571-0.571 0.571s-0.571-0.256-0.571-0.571v-1.261h-0.577c-0.316 0-0.571-0.256-0.571-0.571s0.256-0.571 0.571-0.571h2.297c0.316 0 0.571 0.256 0.571 0.571s-0.256 0.571-0.571 0.571h-0.577v1.261zM10.995 16.815c-3.662-2.389-5.118-7.034-3.472-11.082s5.931-6.365 10.224-5.528c4.293 0.837 7.391 4.595 7.39 8.964 0 5.043-4.092 9.131-9.141 9.133-7.573 0-13.711 6.134-13.711 13.699h-2.286c0-7.082 4.61-13.088 10.995-15.185zM15.997 16.018c3.787-0.001 6.856-3.067 6.856-6.849 0-2.77-1.671-5.268-4.233-6.328s-5.512-0.474-7.473 1.485c-1.961 1.959-2.547 4.905-1.486 7.465s3.562 4.228 6.336 4.228z"></path>
</svg>
