<?xml version="1.0" encoding="UTF-8"?>
<svg width="20px" height="20px" viewBox="0 0 20 20" version="1.1" xmlns="http://www.w3.org/2000/svg" xmlns:xlink="http://www.w3.org/1999/xlink">
    <!-- Generator: Sketch 61.2 (89653) - https://sketch.com -->
    <title>Block</title>
    <desc>Created with Sketch.</desc>
    <g id="Icons" stroke="none" stroke-width="1" fill="none" fill-rule="evenodd">
        <g transform="translate(-240.000000, -1173.000000)" fill="#000000" fill-rule="nonzero" id="Block">
            <g transform="translate(240.000000, 1173.000000)">
                <path d="M20,18 C20,19.1045695 19.1045695,20 18,20 L2,20 C0.8954305,20 0,19.1045695 0,18 L0,2 C0,0.8954305 0.8954305,0 2,0 L18,0 C19.1045695,0 20,0.8954305 20,2 L20,18 Z M19,15 L1,15 L1,18 C1,18.5522847 1.44771525,19 2,19 L18,19 C18.5522847,19 19,18.5522847 19,18 L19,15 Z M19,6 L1,6 L1,14 L19,14 L19,6 Z M18,1 L2,1 C1.44771525,1 1,1.44771525 1,2 L1,5 L19,5 L19,2 C19,1.44771525 18.5522847,1 18,1 Z" id="Combined-Shape"></path>
            </g>
        </g>
    </g>
</svg>