<?xml version="1.0" encoding="UTF-8"?>
<svg width="12px" height="12px" viewBox="0 0 12 12" version="1.1" xmlns="http://www.w3.org/2000/svg" xmlns:xlink="http://www.w3.org/1999/xlink">
    <!-- Generator: Sketch 61.2 (89653) - https://sketch.com -->
    <g id="Button" stroke="none" stroke-width="1" fill="none" fill-rule="evenodd">
        <g id="dropdown" transform="translate(-1211.000000, -434.000000)" fill-rule="nonzero">
            <g id="Select_Pop-up" transform="translate(1197.000000, 397.000000)">
                <g id="code-braces" transform="translate(12.000000, 35.000000)">
                    <rect id="Rectangle" fill="#000000" opacity="0" x="0" y="0" width="16" height="16"></rect>
                    <path d="M5.33333333,2 C4.59695366,2 4,2.59695366 4,3.33333333 L4,6 C4,6.73637966 3.40304634,7.33333333 2.66666667,7.33333333 L2,7.33333333 L2,8.66666667 L2.66666667,8.66666667 C3.02028866,8.66666667 3.35942721,8.80714246 3.60947571,9.05719096 C3.85952421,9.30723947 4,9.64637801 4,10 L4,12.6666667 C4,13.4030463 4.59695366,14 5.33333333,14 L6.66666667,14 L6.66666667,12.6666667 L5.33333333,12.6666667 L5.33333333,9.33333333 C5.33333333,8.59695366 4.73637966,8 4,8 C4.73637966,8 5.33333333,7.40304634 5.33333333,6.66666667 L5.33333333,3.33333333 L6.66666667,3.33333333 L6.66666667,2 M10.6666667,2 C11.4030463,2 12,2.59695366 12,3.33333333 L12,6 C12,6.35362199 12.1404758,6.69276053 12.3905243,6.94280904 C12.6405728,7.19285754 12.9797113,7.33333333 13.3333333,7.33333333 L14,7.33333333 L14,8.66666667 L13.3333333,8.66666667 C12.9797113,8.66666667 12.6405728,8.80714246 12.3905243,9.05719096 C12.1404758,9.30723947 12,9.64637801 12,10 L12,12.6666667 C12,13.4030463 11.4030463,14 10.6666667,14 L9.33333333,14 L9.33333333,12.6666667 L10.6666667,12.6666667 L10.6666667,9.33333333 C10.6666667,8.59695366 11.2636203,8 12,8 C11.2636203,8 10.6666667,7.40304634 10.6666667,6.66666667 L10.6666667,3.33333333 L9.33333333,3.33333333 L9.33333333,2 L10.6666667,2 L10.6666667,2 Z" id="Shape" fill="#FFFFFF"></path>
                </g>
            </g>
        </g>
    </g>
</svg>