<!-- Generated by IcoMoon.io -->
<svg version="1.1" xmlns="http://www.w3.org/2000/svg" width="37" height="32" viewBox="0 0 37 32">
<title>chart</title>
<path d="M35.583 32h-33.833c-0.966 0-1.75-0.796-1.75-1.778v-28.444c0-0.982 0.784-1.778 1.75-1.778s1.75 0.796 1.75 1.778v26.667h32.083c0.966 0 1.75 0.796 1.75 1.778s-0.784 1.778-1.75 1.778zM30.463 26.666h-2.808c-0.775 0-1.404-0.796-1.404-1.778v-12.444c0-0.982 0.629-1.778 1.404-1.778h2.808c0.775 0 1.404 0.796 1.404 1.778v12.444c0 0.982-0.629 1.778-1.404 1.778zM19.994 26.666h-2.847c-0.786 0-1.423-0.796-1.423-1.778v-19.555c0-0.982 0.637-1.778 1.423-1.778h2.847c0.786 0 1.423 0.796 1.423 1.778v19.555c0 0.982-0.637 1.778-1.423 1.778zM10.533 26.666h-2.744c-0.758 0-1.372-0.796-1.372-1.778v-3.556c0-0.982 0.614-1.778 1.372-1.778h2.744c0.758 0 1.372 0.796 1.372 1.778v3.556c-0 0.982-0.614 1.778-1.372 1.778z"></path>
</svg>
