<?xml version="1.0" encoding="UTF-8"?>
<svg width="16px" height="16px" viewBox="0 0 16 16" version="1.1" xmlns="http://www.w3.org/2000/svg" xmlns:xlink="http://www.w3.org/1999/xlink">
    <!-- Generator: Sketch 52.6 (67491) - http://www.bohemiancoding.com/sketch -->
    <title>choose-shape</title>
    <desc>Created with Sketch.</desc>
    <g id="Style" stroke="none" stroke-width="1" fill="none" fill-rule="evenodd">
        <g id="0-UI-icons" transform="translate(-492.000000, -1083.000000)" fill="#000000" fill-rule="nonzero">
            <path d="M497.022422,1094 L493,1094 C492.447715,1094 492,1093.55228 492,1093 L492,1084 C492,1083.44772 492.447715,1083 493,1083 L502,1083 C502.552285,1083 503,1083.44772 503,1084 L503,1088.02242 C505.80325,1088.27504 508,1090.63098 508,1093.5 C508,1096.53757 505.537566,1099 502.5,1099 C499.630979,1099 497.275036,1096.80325 497.022422,1094 Z M497.022422,1093 C497.260196,1090.36143 499.361431,1088.2602 502,1088.02242 L502,1084 L493,1084 L493,1093 L497.022422,1093 Z M502.5,1098 C504.985281,1098 507,1095.98528 507,1093.5 C507,1091.01472 504.985281,1089 502.5,1089 C500.014719,1089 498,1091.01472 498,1093.5 C498,1095.98528 500.014719,1098 502.5,1098 Z" id="choose-shape"></path>
        </g>
    </g>
</svg>