<?xml version="1.0" encoding="UTF-8"?>
<svg width="16px" height="16px" viewBox="0 0 16 16" version="1.1" xmlns="http://www.w3.org/2000/svg" xmlns:xlink="http://www.w3.org/1999/xlink">
    <!-- Generator: Sketch 64 (93537) - https://sketch.com -->
    <title>ClearSelection-16</title>
    <desc>Created with Sketch.</desc>
    <g id="List" stroke="none" stroke-width="1" fill="none" fill-rule="evenodd">
        <g id="Placeholder" transform="translate(-1304.000000, -951.000000)" fill="#C5C5C5" fill-rule="nonzero">
            <g id="Group-8-Copy-2" transform="translate(979.000000, 928.000000)">
                <g id="Group-5-Copy" transform="translate(20.000000, 18.000000)">
                    <g id="Group-4" transform="translate(178.000000, 0.000000)">
                        <path d="M133.3,14 C133.686599,14 134,14.3134007 134,14.7 L134,20.3 C134,20.6865993 133.686599,21 133.3,21 L127.7,21 C127.313401,21 127,20.6865993 127,20.3 L127,14.7 C127,14.3134007 127.313401,14 127.7,14 L133.3,14 Z M142.3,14 C142.686599,14 143,14.3134007 143,14.7 L143,20.3 C143,20.6865993 142.686599,21 142.3,21 L136.7,21 C136.313401,21 136,20.6865993 136,20.3 L136,14.7 C136,14.3134007 136.313401,14 136.7,14 L142.3,14 Z M133,15 L128,15 L128,20 L133,20 L133,15 Z M142,15 L137,15 L137,20 L142,20 L142,15 Z M133.3,5 C133.686599,5 134,5.31340068 134,5.7 L134,11.3 C134,11.6865993 133.686599,12 133.3,12 L127.7,12 C127.313401,12 127,11.6865993 127,11.3 L127,5.7 C127,5.31340068 127.313401,5 127.7,5 L133.3,5 Z M136.916448,5.1572377 L139.5,7.74078923 L142.083552,5.1572377 C142.293202,4.94758743 142.633112,4.94758743 142.842762,5.1572377 C143.052413,5.36688796 143.052413,5.7067982 142.842762,5.91644847 L140.259211,8.5 L142.842762,11.0835515 C143.052413,11.2932018 143.052413,11.633112 142.842762,11.8427623 C142.633112,12.0524126 142.293202,12.0524126 142.083552,11.8427623 L139.5,9.25921077 L136.916448,11.8427623 C136.706798,12.0524126 136.366888,12.0524126 136.157238,11.8427623 C135.947587,11.633112 135.947587,11.2932018 136.157238,11.0835515 L138.740789,8.5 L136.157238,5.91644847 C135.947587,5.7067982 135.947587,5.36688796 136.157238,5.1572377 C136.366888,4.94758743 136.706798,4.94758743 136.916448,5.1572377 Z M133,6 L128,6 L128,11 L133,11 L133,6 Z" id="ClearSelection-16"></path>
                    </g>
                </g>
            </g>
        </g>
    </g>
</svg>