<?xml version="1.0" encoding="UTF-8"?>
<svg width="12px" height="12px" viewBox="0 0 12 12" version="1.1" xmlns="http://www.w3.org/2000/svg" xmlns:xlink="http://www.w3.org/1999/xlink">
    <!-- Generator: Sketch 57.1 (83088) - https://sketch.com -->
    <title>clear-formatting</title>
    <desc>Created with Sketch.</desc>
    <g id="Style" stroke="none" stroke-width="1" fill="none" fill-rule="evenodd">
        <g id="0-UI-icons" transform="translate(-1444.000000, -606.000000)" fill="#000000">
            <path d="M1455.86033,613.139669 C1456.04656,613.325894 1456.04656,613.627824 1455.86033,613.814049 L1454.175,615.5 L1455.86033,617.185951 C1456.04656,617.372176 1456.04656,617.674106 1455.86033,617.860331 C1455.67411,618.046556 1455.37218,618.046556 1455.18595,617.860331 L1453.5,616.175 L1451.81405,617.860331 C1451.62782,618.046556 1451.32589,618.046556 1451.13967,617.860331 C1450.95344,617.674106 1450.95344,617.372176 1451.13967,617.185951 L1452.825,615.5 L1451.13967,613.814049 C1450.95344,613.627824 1450.95344,613.325894 1451.13967,613.139669 C1451.32589,612.953444 1451.62782,612.953444 1451.81405,613.139669 L1453.5,614.825 L1455.18595,613.139669 C1455.37218,612.953444 1455.67411,612.953444 1455.86033,613.139669 Z M1449.5,617 C1449.77614,617 1450,617.223858 1450,617.5 C1450,617.776142 1449.77614,618 1449.5,618 L1444.5,618 C1444.22386,618 1444,617.776142 1444,617.5 C1444,617.223858 1444.22386,617 1444.5,617 L1449.5,617 Z M1453.5,606 C1453.77614,606 1454,606.223858 1454,606.5 C1454,606.776142 1453.77614,607 1453.5,607 L1450,607 L1448.10847,615.511906 C1448.04509,615.797093 1447.79214,616 1447.5,616 C1447.27849,616 1447.09891,615.820428 1447.09891,615.598914 C1447.09891,615.56965 1447.10212,615.540474 1447.10847,615.511906 L1449,607 L1445.5,607 C1445.22386,607 1445,606.776142 1445,606.5 C1445,606.223858 1445.22386,606 1445.5,606 L1453.5,606 Z" id="clear-formatting"></path>
        </g>
    </g>
</svg>