<?xml version="1.0" encoding="UTF-8"?>
<svg width="10px" height="10px" viewBox="0 0 10 10" version="1.1" xmlns="http://www.w3.org/2000/svg" xmlns:xlink="http://www.w3.org/1999/xlink">
    <!-- Generator: Sketch 55.2 (78181) - https://sketchapp.com -->
    <title>clear-formatting</title>
    <desc>Created with Sketch.</desc>
    <g id="Style" stroke="none" stroke-width="1" fill="none" fill-rule="evenodd">
        <g id="0-UI-icons" transform="translate(-1431.000000, -607.000000)" fill="#000000" fill-rule="nonzero">
            <path d="M1435.375,608 L1434.56202,614.503861 C1434.52659,614.787299 1434.28564,615 1434,615 C1433.75623,615 1433.55861,614.802382 1433.55861,614.558609 C1433.55861,614.540307 1433.55975,614.522022 1433.56202,614.503861 L1434.375,608 L1432,608 C1431.72386,608 1431.5,607.776142 1431.5,607.5 C1431.5,607.223858 1431.72386,607 1432,607 L1438,607 C1438.27614,607 1438.5,607.223858 1438.5,607.5 C1438.5,607.776142 1438.27614,608 1438,608 L1435.375,608 Z M1431.5,616 L1435.5,616 C1435.77614,616 1436,616.223858 1436,616.5 C1436,616.776142 1435.77614,617 1435.5,617 L1431.5,617 C1431.22386,617 1431,616.776142 1431,616.5 C1431,616.223858 1431.22386,616 1431.5,616 Z M1438.75,614.048433 L1440.15313,612.645299 C1440.34687,612.451567 1440.66097,612.451567 1440.8547,612.645299 C1441.04843,612.839032 1441.04843,613.153134 1440.8547,613.346866 L1439.45157,614.75 L1440.8547,616.153134 C1441.04843,616.346866 1441.04843,616.660968 1440.8547,616.854701 C1440.66097,617.048433 1440.34687,617.048433 1440.15313,616.854701 L1438.75,615.451567 L1437.34687,616.854701 C1437.15313,617.048433 1436.83903,617.048433 1436.6453,616.854701 C1436.45157,616.660968 1436.45157,616.346866 1436.6453,616.153134 L1438.04843,614.75 L1436.6453,613.346866 C1436.45157,613.153134 1436.45157,612.839032 1436.6453,612.645299 C1436.83903,612.451567 1437.15313,612.451567 1437.34687,612.645299 L1438.75,614.048433 Z" id="clear-formatting"></path>
        </g>
    </g>
</svg>