<?xml version="1.0" encoding="UTF-8"?>
<svg width="16px" height="16px" viewBox="0 0 16 16" version="1.1" xmlns="http://www.w3.org/2000/svg" xmlns:xlink="http://www.w3.org/1999/xlink">
    <!-- Generator: Sketch 52.6 (67491) - http://www.bohemiancoding.com/sketch -->
    <title>close-16</title>
    <desc>Created with Sketch.</desc>
    <g id="Style" stroke="none" stroke-width="1" fill="none" fill-rule="evenodd">
        <g id="0-UI-icons" transform="translate(-946.000000, -301.000000)" fill="#000000" fill-rule="nonzero">
            <path d="M954,307.598239 L960.307925,301.290314 C960.69501,300.903229 961.3226,300.903229 961.709686,301.290314 C962.096771,301.6774 962.096771,302.30499 961.709686,302.692075 L955.401761,309 L961.709686,315.307925 C962.096771,315.69501 962.096771,316.3226 961.709686,316.709686 C961.3226,317.096771 960.69501,317.096771 960.307925,316.709686 L954,310.401761 L947.692075,316.709686 C947.30499,317.096771 946.6774,317.096771 946.290314,316.709686 C945.903229,316.3226 945.903229,315.69501 946.290314,315.307925 L952.598239,309 L946.290314,302.692075 C945.903229,302.30499 945.903229,301.6774 946.290314,301.290314 C946.6774,300.903229 947.30499,300.903229 947.692075,301.290314 L954,307.598239 Z" id="close-16"></path>
        </g>
    </g>
</svg>