<!-- Generated by IcoMoon.io -->
<svg version="1.1" xmlns="http://www.w3.org/2000/svg" width="32" height="32" viewBox="0 0 32 32">
<title>close</title>
<path d="M19.637 15.866l11.314 11.314c1.041 1.041 1.041 2.73 0 3.771s-2.73 1.041-3.771 0l-11.314-11.314-11.314 11.314c-1.041 1.041-2.73 1.041-3.771 0s-1.041-2.73 0-3.771l11.314-11.314-11.314-11.314c-1.041-1.041-1.041-2.73 0-3.771s2.73-1.041 3.771 0l11.314 11.314 11.314-11.314c1.041-1.041 2.73-1.041 3.771 0s1.041 2.73 0 3.771l-11.314 11.314z"></path>
</svg>
