<?xml version="1.0" encoding="UTF-8"?>
<svg width="24px" height="24px" viewBox="0 0 24 24" version="1.1" xmlns="http://www.w3.org/2000/svg" xmlns:xlink="http://www.w3.org/1999/xlink">
    <!-- Generator: Sketch 52.6 (67491) - http://www.bohemiancoding.com/sketch -->
    <title>close-24</title>
    <desc>Created with Sketch.</desc>
    <g id="Style" stroke="none" stroke-width="1" fill="none" fill-rule="evenodd">
        <g id="0-UI-icons" transform="translate(-945.000000, -222.000000)" fill="#000000" fill-rule="nonzero">
            <path d="M958.462147,234 L968.697179,244.235032 C969.10094,244.638793 969.10094,245.293418 968.697179,245.697179 C968.293418,246.10094 967.638793,246.10094 967.235032,245.697179 L957,235.462147 L946.764968,245.697179 C946.361207,246.10094 945.706582,246.10094 945.302821,245.697179 C944.89906,245.293418 944.89906,244.638793 945.302821,244.235032 L955.537853,234 L945.302821,223.764968 C944.89906,223.361207 944.89906,222.706582 945.302821,222.302821 C945.706582,221.89906 946.361207,221.89906 946.764968,222.302821 L957,232.537853 L967.235032,222.302821 C967.638793,221.89906 968.293418,221.89906 968.697179,222.302821 C969.10094,222.706582 969.10094,223.361207 968.697179,223.764968 L958.462147,234 Z" id="close-24"></path>
        </g>
    </g>
</svg>