<!-- Generated by IcoMoon.io -->
<svg version="1.1" xmlns="http://www.w3.org/2000/svg" width="32" height="32" viewBox="0 0 32 32">
<title>controler</title>
<path d="M3.94 1.435c2.426-0.143 4.852 0 7.279 0 1.427 0 2.712 1.288 2.712 2.719 0 2.29 0 4.722 0 7.012-0.143 1.431-1.57 2.719-2.997 2.576-2.141 0-4.424 0-6.565 0-1.427 0-2.712-1.288-2.712-2.719 0-2.29 0-4.579 0-6.869-0.143-1.288 0.999-2.576 2.283-2.719zM4.369 4.154c0 2.29 0 4.436 0 6.726 2.283 0 4.424 0 6.708 0 0-2.29 0-4.436 0-6.726-2.141 0-4.567 0-6.708 0zM20.638 1.435c2.283-0.143 4.71 0 7.136 0 1.427 0 2.854 1.288 2.854 2.719 0 2.29 0 4.436 0 6.726 0 1.574-1.427 3.005-2.997 2.862-2.141 0-4.282 0-6.565 0-1.427 0-2.712-1.288-2.712-2.719 0-2.29 0-4.579 0-6.869 0-1.288 0.999-2.576 2.283-2.719zM21.209 4.154c0 2.29 0 4.436 0 6.726 2.283 0 4.424 0 6.708 0 0-2.29 0-4.436 0-6.726-2.141 0-4.567 0-6.708 0zM3.94 18.322c1.998 0 3.996 0 5.994 0 0.571 0 1.284 0 1.855 0.143 1.142 0.429 1.855 1.431 1.855 2.576 0 2.29 0 4.436 0 6.726 0 1.002-0.571 2.147-1.57 2.576-0.428 0.143-0.856 0.286-1.427 0.286-2.141 0-4.424 0-6.565 0-1.427 0-2.712-1.288-2.712-2.719 0-2.29 0-4.579 0-6.869 0.143-1.431 1.284-2.576 2.569-2.719zM4.369 21.041c0 2.29 0 4.436 0 6.726 2.283 0 4.424 0 6.708 0 0-2.29 0-4.436 0-6.726-2.141 0-4.567 0-6.708 0zM20.781 18.322c1.998 0 3.996 0 5.851 0 0.714 0 1.427-0.143 2.141 0.143 0.999 0.429 1.713 1.431 1.713 2.576 0 2.29 0 4.579 0 6.869 0 1.431-1.284 2.576-2.712 2.576-2.283 0-4.567 0-6.85 0-1.427 0-2.712-1.288-2.712-2.576 0-2.29 0-4.579 0-6.869 0.143-1.431 1.427-2.576 2.569-2.719zM21.209 21.041c0 2.29 0 4.436 0 6.726 2.283 0 4.424 0 6.708 0 0-2.29 0-4.436 0-6.726-2.141 0-4.567 0-6.708 0z"></path>
</svg>
