<?xml version="1.0" encoding="UTF-8"?>
<svg width="14px" height="16px" viewBox="0 0 14 16" version="1.1" xmlns="http://www.w3.org/2000/svg" xmlns:xlink="http://www.w3.org/1999/xlink">
    <!-- Generator: Sketch 55.2 (78181) - https://sketchapp.com -->
    <title>data-16</title>
    <desc>Created with Sketch.</desc>
    <g id="Style" stroke="none" stroke-width="1" fill="none" fill-rule="evenodd">
        <g id="0-UI-icons" transform="translate(-316.000000, -1051.000000)" fill="#000000" fill-rule="nonzero">
            <path d="M317,1056.30379 L317,1057.5 C317,1058.69228 319.615431,1060 323,1060 C326.384569,1060 329,1058.69228 329,1057.5 L329,1056.30379 C327.775103,1057.32021 325.546325,1058 323,1058 C320.453675,1058 318.224897,1057.32021 317,1056.30379 Z M330,1054.5 L330,1063.5 C330,1065.433 326.865993,1067 323,1067 C319.134007,1067 316,1065.433 316,1063.5 L316,1054.5 C316,1052.567 319.134007,1051 323,1051 C326.865993,1051 330,1052.567 330,1054.5 Z M329,1059.30379 C327.775103,1060.32021 325.546325,1061 323,1061 C320.453675,1061 318.224897,1060.32021 317,1059.30379 L317,1060.5 C317,1061.69228 319.615431,1063 323,1063 C326.384569,1063 329,1061.69228 329,1060.5 L329,1059.30379 Z M329,1062.30379 C327.775103,1063.32021 325.546325,1064 323,1064 C320.453675,1064 318.224897,1063.32021 317,1062.30379 L317,1063.5 C317,1064.69228 319.615431,1066 323,1066 C326.384569,1066 329,1064.69228 329,1063.5 L329,1062.30379 Z M323,1057 C326.384569,1057 329,1055.69228 329,1054.5 C329,1053.30772 326.384569,1052 323,1052 C319.615431,1052 317,1053.30772 317,1054.5 C317,1055.69228 319.615431,1057 323,1057 Z" id="data-16"></path>
        </g>
    </g>
</svg>