<?xml version="1.0" encoding="UTF-8"?>
<svg width="18px" height="18px" viewBox="0 0 18 18" version="1.1" xmlns="http://www.w3.org/2000/svg" xmlns:xlink="http://www.w3.org/1999/xlink">
    <!-- Generator: Sketch 52.6 (67491) - http://www.bohemiancoding.com/sketch -->
    <title>datasource</title>
    <desc>Created with Sketch.</desc>
    <g id="Style" stroke="none" stroke-width="1" fill="none" fill-rule="evenodd">
        <g id="0-UI-icons" transform="translate(-133.000000, -481.000000)" fill="#000000" fill-rule="nonzero">
            <path d="M136.8,481 L147.2,481 C148.304569,481 149.2,481.895431 149.2,483 L149.2,486.25 L134.8,486.25 L134.8,483 C134.8,481.895431 135.695431,481 136.8,481 Z M137.425,484.75 C138.04632,484.75 138.55,484.24632 138.55,483.625 C138.55,483.00368 138.04632,482.5 137.425,482.5 C136.80368,482.5 136.3,483.00368 136.3,483.625 C136.3,484.24632 136.80368,484.75 137.425,484.75 Z M134.8,487.375 L149.2,487.375 L149.2,492.625 L134.8,492.625 L134.8,487.375 Z M137.425,491.125 C138.04632,491.125 138.55,490.62132 138.55,490 C138.55,489.37868 138.04632,488.875 137.425,488.875 C136.80368,488.875 136.3,489.37868 136.3,490 C136.3,490.62132 136.80368,491.125 137.425,491.125 Z M134.8,493.75 L149.2,493.75 L149.2,497 C149.2,498.104569 148.304569,499 147.2,499 L136.8,499 C135.695431,499 134.8,498.104569 134.8,497 L134.8,493.75 Z M137.425,497.5 C138.04632,497.5 138.55,496.99632 138.55,496.375 C138.55,495.75368 138.04632,495.25 137.425,495.25 C136.80368,495.25 136.3,495.75368 136.3,496.375 C136.3,496.99632 136.80368,497.5 137.425,497.5 Z" id="nav-data"></path>
        </g>
    </g>
</svg>