<?xml version="1.0" encoding="UTF-8"?>
<svg width="16px" height="16px" viewBox="0 0 16 16" version="1.1" xmlns="http://www.w3.org/2000/svg" xmlns:xlink="http://www.w3.org/1999/xlink">
    <!-- Generator: Sketch 55.1 (78136) - https://sketchapp.com -->
    <title>data-polygon</title>
    <desc>Created with Sketch.</desc>
    <g id="Style" stroke="none" stroke-width="1" fill-rule="evenodd">
        <g id="0-UI-icons" transform="translate(-172.000000, -1051.000000)" fill-rule="nonzero">
            <path d="M174.914647,1065 L185.085353,1065 C185.134979,1064.85959 185.204917,1064.72878 185.291636,1064.61109 L183.087682,1060.49748 C183.058668,1060.49915 183.029433,1060.5 183,1060.5 C182.171573,1060.5 181.5,1059.82843 181.5,1059 C181.5,1058.17157 182.171573,1057.5 183,1057.5 C183.029433,1057.5 183.058668,1057.50085 183.087682,1057.50252 L185.291636,1053.38891 C185.204917,1053.27122 185.134979,1053.14041 185.085353,1053 L174.914647,1053 C174.764005,1053.42621 174.426207,1053.764 174,1053.91465 L174,1064.08535 C174.426207,1064.236 174.764005,1064.57379 174.914647,1065 Z M174.914647,1066 C174.708729,1066.5826 174.153109,1067 173.5,1067 C172.671573,1067 172,1066.32843 172,1065.5 C172,1064.84689 172.417404,1064.29127 173,1064.08535 L173,1053.91465 C172.417404,1053.70873 172,1053.15311 172,1052.5 C172,1051.67157 172.671573,1051 173.5,1051 C174.153109,1051 174.708729,1051.4174 174.914647,1052 L185.085353,1052 C185.291271,1051.4174 185.846891,1051 186.5,1051 C187.328427,1051 188,1051.67157 188,1052.5 C188,1053.32843 187.328427,1054 186.5,1054 C186.45306,1054 186.406624,1053.99784 186.360785,1053.99363 L184.089284,1057.96875 C184.34386,1058.23756 184.5,1058.60055 184.5,1059 C184.5,1059.39945 184.34386,1059.76244 184.089284,1060.03125 L186.360785,1064.00637 C186.406624,1064.00216 186.45306,1064 186.5,1064 C187.328427,1064 188,1064.67157 188,1065.5 C188,1066.32843 187.328427,1067 186.5,1067 C185.846891,1067 185.291271,1066.5826 185.085353,1066 L174.914647,1066 Z" id="data-polygon"></path>
        </g>
    </g>
</svg>