<?xml version="1.0" encoding="UTF-8"?>
<svg width="16px" height="16px" viewBox="0 0 16 16" version="1.1" xmlns="http://www.w3.org/2000/svg" xmlns:xlink="http://www.w3.org/1999/xlink">
    <!-- Generator: Sketch 52.6 (67491) - http://www.bohemiancoding.com/sketch -->
    <title>data-comments</title>
    <desc>Created with Sketch.</desc>
    <g id="Style" stroke="none" stroke-width="1" fill="none" fill-rule="evenodd">
        <g id="0-UI-icons" transform="translate(-352.000000, -933.000000)" fill="#000000" fill-rule="nonzero">
            <path d="M357.161902,945.96898 C358.047045,946.292043 359.008063,946.461447 360,946.461447 C363.900563,946.461447 367,943.853765 367,940.730724 C367,937.607682 363.900563,935 360,935 C356.099437,935 353,937.607682 353,940.730724 C353,941.822548 353.375014,942.871143 354.078187,943.781706 C354.486993,944.311081 354.543375,945.12332 354.320789,946.378116 C355.68975,945.895739 356.572235,945.753761 357.161902,945.96898 Z M360,947.461447 C358.869597,947.461447 357.793952,947.264194 356.819041,946.908367 C356.359328,946.740579 355.058911,947.104457 352.91779,948 C353.462246,945.981819 353.585222,944.779456 353.286716,944.392912 C352.47279,943.338932 352,942.081281 352,940.730724 C352,937.013448 355.581722,934 360,934 C364.418278,934 368,937.013448 368,940.730724 C368,944.448 364.418278,947.461447 360,947.461447 Z M356,942 C355.447715,942 355,941.552285 355,941 C355,940.447715 355.447715,940 356,940 C356.552285,940 357,940.447715 357,941 C357,941.552285 356.552285,942 356,942 Z M360,942 C359.447715,942 359,941.552285 359,941 C359,940.447715 359.447715,940 360,940 C360.552285,940 361,940.447715 361,941 C361,941.552285 360.552285,942 360,942 Z M364,942 C363.447715,942 363,941.552285 363,941 C363,940.447715 363.447715,940 364,940 C364.552285,940 365,940.447715 365,941 C365,941.552285 364.552285,942 364,942 Z" id="data-comments"></path>
        </g>
    </g>
</svg>