<?xml version="1.0" encoding="UTF-8"?>
<svg width="12px" height="12px" viewBox="0 0 12 12" version="1.1" xmlns="http://www.w3.org/2000/svg" xmlns:xlink="http://www.w3.org/1999/xlink">
    <!-- Generator: Sketch 55.1 (78136) - https://sketchapp.com -->
    <title>data-date</title>
    <desc>Created with Sketch.</desc>
    <g id="Style" stroke="none" stroke-width="1" fill-rule="evenodd">
        <g id="0-UI-icons" transform="translate(-164.000000, -1136.000000)" fill-rule="nonzero">
            <path d="M165,1138 L165,1147 L175,1147 L175,1138 L165,1138 Z M167.5,1136 C167.776142,1136 168,1136.22386 168,1136.5 L168,1138.5 C168,1138.77614 167.776142,1139 167.5,1139 C167.223858,1139 167,1138.77614 167,1138.5 L167,1136.5 C167,1136.22386 167.223858,1136 167.5,1136 Z M172.5,1136 C172.776142,1136 173,1136.22386 173,1136.5 L173,1138.5 C173,1138.77614 172.776142,1139 172.5,1139 C172.223858,1139 172,1138.77614 172,1138.5 L172,1136.5 C172,1136.22386 172.223858,1136 172.5,1136 Z M165,1137 L175,1137 C175.552285,1137 176,1137.44772 176,1138 L176,1147 C176,1147.55228 175.552285,1148 175,1148 L165,1148 C164.447715,1148 164,1147.55228 164,1147 L164,1138 C164,1137.44772 164.447715,1137 165,1137 Z M165,1140 L175,1140 L175,1141 L165,1141 L165,1140 Z M167.5,1142.5 L172.5,1142.5 C172.776142,1142.5 173,1142.72386 173,1143 C173,1143.27614 172.776142,1143.5 172.5,1143.5 L167.5,1143.5 C167.223858,1143.5 167,1143.27614 167,1143 C167,1142.72386 167.223858,1142.5 167.5,1142.5 Z M167.5,1144.5 L172.5,1144.5 C172.776142,1144.5 173,1144.72386 173,1145 C173,1145.27614 172.776142,1145.5 172.5,1145.5 L167.5,1145.5 C167.223858,1145.5 167,1145.27614 167,1145 C167,1144.72386 167.223858,1144.5 167.5,1144.5 Z" id="data-date"></path>
        </g>
    </g>
</svg>