<?xml version="1.0" encoding="UTF-8"?>
<svg width="16px" height="16px" viewBox="0 0 16 16" version="1.1" xmlns="http://www.w3.org/2000/svg" xmlns:xlink="http://www.w3.org/1999/xlink">
    <!-- Generator: Sketch 55.1 (78136) - https://sketchapp.com -->
    <title>data-dot</title>
    <desc>Created with Sketch.</desc>
    <g id="Style" stroke="none" stroke-width="1" fill-rule="evenodd">
        <g id="0-UI-icons" transform="translate(-100.000000, -1051.000000)" fill-rule="nonzero">
            <path d="M101.5,1067 C100.671573,1067 100,1066.32843 100,1065.5 C100,1064.67157 100.671573,1064 101.5,1064 C102.328427,1064 103,1064.67157 103,1065.5 C103,1066.32843 102.328427,1067 101.5,1067 Z M101.5,1054 C100.671573,1054 100,1053.32843 100,1052.5 C100,1051.67157 100.671573,1051 101.5,1051 C102.328427,1051 103,1051.67157 103,1052.5 C103,1053.32843 102.328427,1054 101.5,1054 Z M114.5,1067 C113.671573,1067 113,1066.32843 113,1065.5 C113,1064.67157 113.671573,1064 114.5,1064 C115.328427,1064 116,1064.67157 116,1065.5 C116,1066.32843 115.328427,1067 114.5,1067 Z M114.5,1054 C113.671573,1054 113,1053.32843 113,1052.5 C113,1051.67157 113.671573,1051 114.5,1051 C115.328427,1051 116,1051.67157 116,1052.5 C116,1053.32843 115.328427,1054 114.5,1054 Z M108,1060.5 C107.171573,1060.5 106.5,1059.82843 106.5,1059 C106.5,1058.17157 107.171573,1057.5 108,1057.5 C108.828427,1057.5 109.5,1058.17157 109.5,1059 C109.5,1059.82843 108.828427,1060.5 108,1060.5 Z" id="data-dot"></path>
        </g>
    </g>
</svg>