<?xml version="1.0" encoding="UTF-8"?>
<svg width="16px" height="16px" viewBox="0 0 16 16" version="1.1" xmlns="http://www.w3.org/2000/svg" xmlns:xlink="http://www.w3.org/1999/xlink">
    <!-- Generator: Sketch 55.1 (78136) - https://sketchapp.com -->
    <title>data-line</title>
    <desc>Created with Sketch.</desc>
    <g id="Style" stroke="none" stroke-width="1" fill-rule="evenodd">
        <g id="0-UI-icons" transform="translate(-136.000000, -1051.000000)" fill-rule="nonzero">
            <path d="M138.146708,1064.14619 L149.146185,1053.14671 C149.052476,1052.95089 149,1052.73157 149,1052.5 C149,1051.67157 149.671573,1051 150.5,1051 C151.328427,1051 152,1051.67157 152,1052.5 C152,1053.32843 151.328427,1054 150.5,1054 C150.268427,1054 150.04911,1053.94752 149.853292,1053.85381 L138.853815,1064.85329 C138.947524,1065.04911 139,1065.26843 139,1065.5 C139,1066.32843 138.328427,1067 137.5,1067 C136.671573,1067 136,1066.32843 136,1065.5 C136,1064.67157 136.671573,1064 137.5,1064 C137.731573,1064 137.95089,1064.05248 138.146708,1064.14619 Z" id="data-line"></path>
        </g>
    </g>
</svg>