<?xml version="1.0" encoding="UTF-8"?>
<svg width="16px" height="16px" viewBox="0 0 16 16" version="1.1" xmlns="http://www.w3.org/2000/svg" xmlns:xlink="http://www.w3.org/1999/xlink">
    <!-- Generator: Sketch 52.6 (67491) - http://www.bohemiancoding.com/sketch -->
    <title>data-scene</title>
    <desc>Created with Sketch.</desc>
    <g id="Style" stroke="none" stroke-width="1" fill="none" fill-rule="evenodd">
        <g id="0-UI-icons" transform="translate(-244.000000, -933.000000)" fill="#000000" fill-rule="nonzero">
            <path d="M251.5,937.00036 L251.5,934.389313 C250.401966,935.120368 249.564614,935.989118 248.984672,937.00036 L251.5,937.00036 Z M251.5,940.500045 L251.5,938.00027 L248.512497,938.00027 C248.222899,938.763817 248.056462,939.596542 248.012098,940.500045 L251.5,940.500045 Z M251.5,943.99973 L251.5,941.499955 L248.012098,941.499955 C248.056462,942.403458 248.222899,943.236183 248.512497,943.99973 L251.5,943.99973 Z M251.5,947.610687 L251.5,944.99964 L248.984672,944.99964 C249.564614,946.010882 250.401966,946.879632 251.5,947.610687 Z M254.042519,947.696717 C255.559612,947.234669 256.858207,946.271318 257.745311,944.99964 L256.145142,944.99964 C255.654224,946.016368 254.952663,946.916401 254.042519,947.696717 Z M255.015328,944.99964 L252.5,944.99964 L252.5,947.610687 C253.598034,946.879632 254.435386,946.010882 255.015328,944.99964 Z M256.988969,941.499955 C256.94919,942.390989 256.801872,943.22461 256.547756,943.99973 L258.326369,943.99973 C258.690671,943.232926 258.919641,942.389381 258.982418,941.499955 L256.988969,941.499955 Z M255.987902,941.499955 L252.5,941.499955 L252.5,943.99973 L255.487503,943.99973 C255.777101,943.236183 255.943538,942.403458 255.987902,941.499955 Z M256.547756,938.00027 C256.801872,938.77539 256.94919,939.609011 256.988969,940.500045 L258.982418,940.500045 C258.919641,939.610619 258.690671,938.767074 258.326369,938.00027 L256.547756,938.00027 Z M255.487503,938.00027 L252.5,938.00027 L252.5,940.500045 L255.987902,940.500045 C255.943538,939.596542 255.777101,938.763817 255.487503,938.00027 Z M254.042519,934.303283 C254.952663,935.083599 255.654224,935.983632 256.145142,937.00036 L257.745311,937.00036 C256.858207,935.728682 255.559612,934.765331 254.042519,934.303283 Z M252.5,937.00036 L255.015328,937.00036 C254.435386,935.989118 253.598034,935.120368 252.5,934.389313 L252.5,937.00036 Z M251.973257,948.999237 C247.567278,948.98482 244,945.408964 244,941 C244,936.591036 247.567278,933.01518 251.973257,933.000763 C251.991379,932.999752 252.009648,932.999738 252.027989,933.000767 C256.433395,933.015854 260,936.591452 260,941 C260,945.408548 256.433395,948.984146 252.027989,948.999233 C252.009648,949.000262 251.991379,949.000248 251.973257,948.999237 Z M249.957481,934.303283 C248.440388,934.765331 247.141793,935.728682 246.254689,937.00036 L247.854858,937.00036 C248.345776,935.983632 249.047337,935.083599 249.957481,934.303283 Z M247.011031,940.500045 C247.05081,939.609011 247.198128,938.77539 247.452244,938.00027 L245.673631,938.00027 C245.309329,938.767074 245.080359,939.610619 245.017582,940.500045 L247.011031,940.500045 Z M247.452244,943.99973 C247.198128,943.22461 247.05081,942.390989 247.011031,941.499955 L245.017582,941.499955 C245.080359,942.389381 245.309329,943.232926 245.673631,943.99973 L247.452244,943.99973 Z M249.957481,947.696717 C249.047337,946.916401 248.345776,946.016368 247.854858,944.99964 L246.254689,944.99964 C247.141793,946.271318 248.440388,947.234669 249.957481,947.696717 Z" id="data-scene"></path>
        </g>
    </g>
</svg>