<?xml version="1.0" encoding="UTF-8"?>
<svg width="12px" height="14px" viewBox="0 0 12 14" version="1.1" xmlns="http://www.w3.org/2000/svg" xmlns:xlink="http://www.w3.org/1999/xlink">
    <!-- Generator: Sketch 55.1 (78136) - https://sketchapp.com -->
    <title>data-data</title>
    <desc>Created with Sketch.</desc>
    <g id="Style" stroke="none" stroke-width="1" fill-rule="evenodd">
        <g id="0-UI-icons" transform="translate(-102.000000, -1101.000000)" fill-rule="nonzero">
            <path d="M108,1107 C110.3515,1107 112.711,1106.578 114,1105.672 L114,1107 C114,1108.1015 111.3125,1109 108,1109 C104.6875,1109 102,1108.1015 102,1107 L102,1105.672 C103.289,1106.5785 105.6485,1107 108,1107 Z M108,1113 C110.3515,1113 112.711,1112.578 114,1111.672 L114,1113 C114,1114.1015 111.3125,1115 108,1115 C104.6875,1115 102,1114.1015 102,1113 L102,1111.672 C103.289,1112.5785 105.6485,1113 108,1113 Z M108,1110 C110.3515,1110 112.711,1109.578 114,1108.672 L114,1110 C114,1111.1015 111.3125,1112 108,1112 C104.6875,1112 102,1111.1015 102,1110 L102,1108.672 C103.289,1109.5785 105.6485,1110 108,1110 Z M108,1101 C111.3125,1101 114,1101.8985 114,1103 L114,1104 C114,1105.1015 111.3125,1106 108,1106 C104.6875,1106 102,1105.1015 102,1104 L102,1103 C102,1101.8985 104.6875,1101 108,1101 Z" id="data-data"></path>
        </g>
    </g>
</svg>