<?xml version="1.0" encoding="UTF-8"?>
<svg width="16px" height="16px" viewBox="0 0 16 16" version="1.1" xmlns="http://www.w3.org/2000/svg" xmlns:xlink="http://www.w3.org/1999/xlink">
    <!-- Generator: Sketch 52.6 (67491) - http://www.bohemiancoding.com/sketch -->
    <title>data-event</title>
    <desc>Created with Sketch.</desc>
    <g id="Style" stroke="none" stroke-width="1" fill="none" fill-rule="evenodd">
        <g id="0-UI-icons" transform="translate(-316.000000, -933.000000)" fill="#000000" fill-rule="nonzero">
            <path d="M317.142857,938 L330.857143,938 L330.857143,935.153846 L328,935.153846 L328,936 L327,936 L327,935.153846 L321,935.153846 L321,936 L320,936 L320,935.153846 L317.142857,935.153846 L317.142857,938 Z M317.142857,939 L317.142857,947.846154 L330.857143,947.846154 L330.857143,939 L317.142857,939 Z M328,934 L332,934 L332,949 L316,949 L316,934 L320,934 L320,933 L321,933 L321,934 L327,934 L327,933 L328,933 L328,934 Z M319,941.5 L321,941.5 L321,942.5 L319,942.5 L319,941.5 Z M323,941.5 L325,941.5 L325,942.5 L323,942.5 L323,941.5 Z M327,941.5 L329,941.5 L329,942.5 L327,942.5 L327,941.5 Z M319,944.5 L321,944.5 L321,945.5 L319,945.5 L319,944.5 Z M323,944.5 L325,944.5 L325,945.5 L323,945.5 L323,944.5 Z M327,944.5 L329,944.5 L329,945.5 L327,945.5 L327,944.5 Z" id="data-event"></path>
        </g>
    </g>
</svg>