<?xml version="1.0" encoding="UTF-8"?>
<svg width="14px" height="7px" viewBox="0 0 14 7" version="1.1" xmlns="http://www.w3.org/2000/svg" xmlns:xlink="http://www.w3.org/1999/xlink">
    <!-- Generator: Sketch 55.1 (78136) - https://sketchapp.com -->
    <title>data-123</title>
    <desc>Created with Sketch.</desc>
    <g id="Style" stroke="none" stroke-width="1" fill-rule="evenodd">
        <g id="0-UI-icons" transform="translate(-103.000000, -1139.000000)">
            <path d="M105,1140.54301 L103.637467,1141.625 L103,1140.84409 L105,1139.16935 L106.005204,1139.16935 L106.005204,1145.83065 L105,1145.83065 L105,1140.54301 Z M107.447095,1144.7957 L109.933218,1142.27419 C110.133566,1142.07348 110.292931,1141.87119 110.411318,1141.66734 C110.529706,1141.46348 110.588899,1141.22984 110.588899,1140.9664 C110.588899,1140.65278 110.490244,1140.40345 110.292931,1140.21841 C110.095619,1140.03338 109.851259,1139.94086 109.559844,1139.94086 C109.250215,1139.94086 109.001302,1140.04906 108.813096,1140.26546 C108.624891,1140.48186 108.509541,1140.75313 108.467042,1141.0793 L107.401561,1140.90995 C107.431917,1140.63396 107.507805,1140.37993 107.629228,1140.14785 C107.750651,1139.91577 107.905463,1139.71505 108.093669,1139.5457 C108.281874,1139.37634 108.50195,1139.24306 108.753903,1139.14583 C109.005856,1139.04861 109.280571,1139 109.578057,1139 C109.85733,1139 110.125974,1139.04077 110.383998,1139.12231 C110.642022,1139.20385 110.871205,1139.32773 111.071552,1139.49395 C111.2719,1139.66017 111.431266,1139.86402 111.549653,1140.10551 C111.66804,1140.347 111.727233,1140.62769 111.727233,1140.94758 C111.727233,1141.16084 111.699914,1141.35999 111.645273,1141.54503 C111.590633,1141.73006 111.516262,1141.90412 111.42216,1142.0672 C111.328057,1142.23029 111.218778,1142.38553 111.094319,1142.53293 C110.969861,1142.68033 110.83478,1142.82303 110.689072,1142.96102 L108.83131,1144.7957 L111.73634,1144.7957 L111.73634,1145.83065 L107.447095,1145.83065 L107.447095,1144.7957 Z M114.058543,1142 L114.349957,1142 C114.513878,1142 114.676278,1142.02823 114.837164,1142 C114.998049,1141.97177 115.145273,1141.87527 115.278838,1141.8 C115.412403,1141.72473 115.520164,1141.53248 115.602125,1141.4039 C115.684085,1141.27531 115.725065,1141.10753 115.725065,1140.90054 C115.725065,1140.75 115.697745,1140.61514 115.643105,1140.49597 C115.588465,1140.37679 115.514094,1140.27643 115.419991,1140.19489 C115.325889,1140.11335 115.216609,1140.05063 115.092151,1140.00672 C114.967692,1139.96281 114.838682,1139.94086 114.705117,1139.94086 C114.437987,1139.94086 114.216393,1140.01926 114.04033,1140.17608 C113.864266,1140.33289 113.742845,1140.53987 113.676062,1140.79704 L112.647008,1140.52419 C112.701648,1140.29839 112.794232,1140.09297 112.924761,1139.90793 C113.055291,1139.72289 113.213139,1139.56295 113.398309,1139.42809 C113.583479,1139.29323 113.791413,1139.18817 114.022116,1139.1129 C114.25282,1139.03763 114.495662,1139 114.75065,1139 C115.029923,1139 115.295532,1139.0392 115.547485,1139.11761 C115.799438,1139.19601 116.021031,1139.31205 116.212272,1139.46573 C116.403514,1139.6194 116.553772,1139.80914 116.663053,1140.03495 C116.772334,1140.26075 116.826973,1140.52419 116.826973,1140.82527 C116.826973,1141.1828 116.722247,1141.50112 116.512793,1141.78024 C116.303338,1142.05937 116.022552,1142.24283 115.670425,1142.33065 L115.670425,1142.34946 C116.06505,1142.431 116.385298,1142.61447 116.63118,1142.89987 C116.877061,1143.18526 117,1143.53494 117,1143.94892 C117,1144.29391 116.934736,1144.59498 116.804206,1144.85215 C116.673677,1145.10932 116.500652,1145.32258 116.285126,1145.49194 C116.0696,1145.66129 115.828275,1145.78831 115.561145,1145.87298 C115.294014,1145.95766 115.023852,1146 114.75065,1146 C114.477449,1146 114.219429,1145.97021 113.976583,1145.91062 C113.733737,1145.85103 113.510625,1145.75851 113.307242,1145.63306 C113.103858,1145.50762 112.924762,1145.34454 112.769948,1145.14382 C112.615134,1144.9431 112.49523,1144.70475 112.410234,1144.42876 L113.430182,1144.09946 C113.509107,1144.3629 113.65633,1144.58557 113.871856,1144.76747 C114.087382,1144.94937 114.368168,1145.04032 114.714224,1145.04032 C114.85386,1145.04032 114.995012,1145.01994 115.137684,1144.97917 C115.280356,1144.9384 115.407849,1144.8741 115.520165,1144.78629 C115.632481,1144.69848 115.723547,1144.58557 115.793365,1144.44758 C115.863183,1144.30959 115.898092,1144.14023 115.898092,1143.93952 C115.898092,1143.72625 115.848006,1143.54592 115.747832,1143.39852 C115.647658,1143.25112 115.521683,1143.13508 115.369905,1143.0504 C115.218126,1142.96573 115.049654,1142.90457 114.864484,1142.86694 C114.679314,1142.8293 114.501735,1142.81048 114.331743,1142.81048 L114.058543,1142.81048 L114.058543,1142 Z" id="data-123"></path>
        </g>
    </g>
</svg>