<?xml version="1.0" encoding="UTF-8"?>
<svg width="14px" height="8px" viewBox="0 0 14 8" version="1.1" xmlns="http://www.w3.org/2000/svg" xmlns:xlink="http://www.w3.org/1999/xlink">
    <!-- Generator: Sketch 55.1 (78136) - https://sketchapp.com -->
    <title>data-text</title>
    <desc>Created with Sketch.</desc>
    <g id="Style" stroke="none" stroke-width="1" fill-rule="evenodd">
        <g id="0-UI-icons" transform="translate(-134.000000, -1138.000000)" fill-rule="nonzero">
            <path d="M137,1145.3321 C136.896869,1145.52208 136.558217,1145.67792 136.329036,1145.79963 C136.099856,1145.92134 135.839167,1145.98219 135.546961,1145.98219 C135.380805,1145.98219 135.20749,1145.95993 135.02701,1145.9154 C134.846531,1145.87087 134.680377,1145.79666 134.528545,1145.69276 C134.376713,1145.58887 134.250666,1145.45232 134.150399,1145.28312 C134.050133,1145.11391 134,1144.90464 134,1144.65529 C134,1144.33469 134.087374,1144.07941 134.262124,1143.88942 C134.436874,1143.69944 134.661754,1143.55399 134.936771,1143.45306 C135.211788,1143.35213 135.51688,1143.28534 135.852056,1143.25269 C136.187233,1143.22004 136.679147,1143.20371 137,1143.20371 L137,1143.09685 C137,1142.82968 136.742993,1142.63228 136.556783,1142.50464 C136.370574,1142.37699 136.148557,1142.31317 135.890731,1142.31317 C135.673009,1142.31317 135.463885,1142.36067 135.263352,1142.45566 C135.062819,1142.55065 134.896665,1142.66642 134.764886,1142.80297 L134.232044,1142.15288 C134.466954,1141.92727 134.73767,1141.75807 135.044199,1141.64527 C135.350728,1141.53247 135.661549,1141.47607 135.976673,1141.47607 C136.343362,1141.47607 136.645589,1141.5295 136.883364,1141.63636 C137.121139,1141.74323 137.308778,1141.88274 137.446286,1142.05492 C137.583794,1142.22709 137.679762,1142.42004 137.734193,1142.63377 C137.788623,1142.8475 137.815838,1143.06122 137.815838,1143.27495 L137.815838,1146 L137,1146 L137,1145.3321 Z M137,1143.92505 L136.604052,1143.92505 C136.437896,1143.92505 136.263148,1143.93247 136.079804,1143.94731 C135.896459,1143.96215 135.727441,1143.9948 135.572744,1144.04527 C135.418047,1144.09573 135.289135,1144.16698 135.186004,1144.259 C135.082872,1144.35102 135.031308,1144.47718 135.031308,1144.63748 C135.031308,1144.7384 135.052793,1144.82301 135.095764,1144.89128 C135.138736,1144.95956 135.194598,1145.01447 135.263352,1145.05603 C135.332106,1145.09759 135.409453,1145.12727 135.495396,1145.14508 C135.581339,1145.16289 135.66728,1145.1718 135.753223,1145.1718 C136.108453,1145.1718 136.377736,1145.07384 136.56108,1144.87792 C136.744425,1144.682 137,1144.41484 137,1144.07644 L137,1143.92505 Z M140,1138 L140,1142.14397 C140.051566,1142.07273 140.210763,1141.99852 140.290976,1141.92134 C140.371189,1141.84416 140.467157,1141.77291 140.578883,1141.70761 C140.690608,1141.6423 140.820953,1141.58738 140.96992,1141.54286 C141.118888,1141.49833 141.287906,1141.47607 141.47698,1141.47607 C141.769185,1141.47607 142.038468,1141.53395 142.284837,1141.64972 C142.531206,1141.76549 142.743195,1141.9243 142.92081,1142.12616 C143.098425,1142.32802 143.235932,1142.56549 143.333333,1142.83859 C143.430735,1143.11169 143.479435,1143.40556 143.479435,1143.72022 C143.479435,1144.03488 143.432167,1144.33024 143.33763,1144.60631 C143.243093,1144.88238 143.108452,1145.12282 142.933702,1145.32764 C142.758951,1145.53247 142.546963,1145.69573 142.297729,1145.81744 C142.048495,1145.93915 141.76632,1146 141.451197,1146 C141.158992,1146 140.885412,1145.93469 140.630448,1145.80408 C140.375485,1145.67347 140.143238,1145.48349 140,1145.23414 L140,1146 L139.036219,1146 L139.036219,1138 L140,1138 Z M142.430939,1143.72022 C142.430939,1143.55399 142.406589,1143.38924 142.357888,1143.22597 C142.309187,1143.06271 142.236137,1142.91577 142.138735,1142.78516 C142.041334,1142.65454 141.918151,1142.54917 141.769184,1142.46902 C141.620216,1142.38887 141.445469,1142.34879 141.244936,1142.34879 C141.055862,1142.34879 140.886843,1142.39035 140.737876,1142.47347 C140.588909,1142.55659 140.461429,1142.66345 140.355433,1142.79406 C140.249437,1142.92468 140.169225,1143.0731 140.114794,1143.23933 C140.060364,1143.40557 140,1143.5718 140,1143.73803 C140,1143.90427 140.060364,1144.06902 140.114794,1144.23228 C140.169225,1144.39555 140.249437,1144.54249 140.355433,1144.6731 C140.461429,1144.80371 140.588909,1144.90909 140.737876,1144.98924 C140.886843,1145.06939 141.055862,1145.10946 141.244936,1145.10946 C141.445469,1145.10946 141.620216,1145.0679 141.769184,1144.98479 C141.918151,1144.90167 142.041334,1144.79481 142.138735,1144.66419 C142.236137,1144.53358 142.309187,1144.38516 142.357888,1144.21892 C142.406589,1144.05269 142.430939,1143.88646 142.430939,1143.72022 Z M147.295273,1142.78516 C147.21506,1142.66642 147.094742,1142.56698 146.934316,1142.48683 C146.773889,1142.40668 146.6106,1142.3666 146.444444,1142.3666 C146.25537,1142.3666 146.089217,1142.40668 145.945979,1142.48683 C145.802741,1142.56698 145.683856,1142.67236 145.589319,1142.80297 C145.494782,1142.93358 145.424596,1143.08052 145.37876,1143.24378 C145.332924,1143.40705 145.310006,1143.5718 145.310006,1143.73803 C145.310006,1143.90427 145.334356,1144.06902 145.383057,1144.23228 C145.431758,1144.39555 145.504808,1144.54249 145.60221,1144.6731 C145.699612,1144.80371 145.821362,1144.90909 145.967465,1144.98924 C146.113567,1145.06939 146.284018,1145.10946 146.478821,1145.10946 C146.639248,1145.10946 146.799672,1145.07681 146.960098,1145.0115 C147.120525,1144.9462 147.249437,1144.85121 147.346839,1144.72653 L147.991406,1145.40334 C147.81952,1145.59332 147.60037,1145.74026 147.333947,1145.84416 C147.067525,1145.94805 146.779621,1146 146.470227,1146 C146.166563,1146 145.878659,1145.94954 145.606507,1145.84861 C145.334355,1145.74768 145.096584,1145.59926 144.893186,1145.40334 C144.689788,1145.20742 144.529364,1144.96995 144.411909,1144.69091 C144.294454,1144.41187 144.235727,1144.09425 144.235727,1143.73803 C144.235727,1143.39369 144.294454,1143.08201 144.411909,1142.80297 C144.529364,1142.52393 144.688356,1142.28646 144.888889,1142.09054 C145.089422,1141.89462 145.322896,1141.74323 145.589319,1141.63636 C145.855741,1141.5295 146.14078,1141.47607 146.444444,1141.47607 C146.748109,1141.47607 147.041742,1141.53544 147.325353,1141.65417 C147.608964,1141.77291 147.833844,1141.93618 148,1142.14397 L147.295273,1142.78516 Z" id="data-text"></path>
        </g>
    </g>
</svg>