<svg width="20" height="20" viewBox="0 0 20 20" xmlns="http://www.w3.org/2000/svg">
  <path d="M10 12.222222c4.427368 0 8.235789-.918889 10-2.241111v7.027778C20 18.022222 16.469474 20 10 20S0 18.023333 0 17.008889V9.981111c1.764211 1.322222 5.572632 2.241111 10 2.241111zm0-5.555555c-4.427368 0-8.235789-.918889-10-2.241111v3.907777c0 .831111 3.402105 2.777778 10 2.777778 6.597895 0 10-1.946667 10-2.777778V4.425556c-1.764211 1.322222-5.572632 2.241111-10 2.241111zm10-3.888889C20 1.946667 16.597895 0 10 0 3.402105 0 0 1.946667 0 2.777778c0 .831111 3.402105 2.777778 10 2.777778 6.597895 0 10-1.946667 10-2.777778z"/>
</svg>