<?xml version="1.0" encoding="UTF-8"?>
<svg width="14px" height="18px" viewBox="0 0 14 18" version="1.1" xmlns="http://www.w3.org/2000/svg" xmlns:xlink="http://www.w3.org/1999/xlink">
    <!-- Generator: Sketch 55.1 (78136) - https://sketchapp.com -->
    <title>data-18</title>
    <desc>Created with Sketch.</desc>
    <g id="Style" stroke="none" stroke-width="1" fill-rule="evenodd">
        <g id="0-UI-icons" transform="translate(-141.000000, -519.000000)" fill-rule="nonzero">
            <g id="Left-navigation" transform="translate(42.000000, 424.000000)">
                <g id="data-18" transform="translate(97.000000, 95.000000)">
                    <path d="M4,0 L14,0 C15.1045695,-2.02906125e-16 16,0.8954305 16,2 L16,5.25 L2,5.25 L2,2 C2,0.8954305 2.8954305,2.02906125e-16 4,0 Z M4.625,3.75 C5.24632034,3.75 5.75,3.24632034 5.75,2.625 C5.75,2.00367966 5.24632034,1.5 4.625,1.5 C4.00367966,1.5 3.5,2.00367966 3.5,2.625 C3.5,3.24632034 4.00367966,3.75 4.625,3.75 Z M2,6.375 L16,6.375 L16,11.625 L2,11.625 L2,6.375 Z M4.625,10.125 C5.24632034,10.125 5.75,9.62132034 5.75,9 C5.75,8.37867966 5.24632034,7.875 4.625,7.875 C4.00367966,7.875 3.5,8.37867966 3.5,9 C3.5,9.62132034 4.00367966,10.125 4.625,10.125 Z M2,12.75 L16,12.75 L16,16 C16,17.1045695 15.1045695,18 14,18 L4,18 C2.8954305,18 2,17.1045695 2,16 L2,12.75 Z M4.625,16.5 C5.24632034,16.5 5.75,15.9963203 5.75,15.375 C5.75,14.7536797 5.24632034,14.25 4.625,14.25 C4.00367966,14.25 3.5,14.7536797 3.5,15.375 C3.5,15.9963203 4.00367966,16.5 4.625,16.5 Z" id="Combined-Shape"></path>
                    <rect id="Rectangle-2" x="0" y="0" width="18" height="18"></rect>
                </g>
            </g>
        </g>
    </g>
</svg>