<?xml version="1.0" encoding="UTF-8"?>
<svg width="16px" height="16px" viewBox="0 0 16 16" version="1.1" xmlns="http://www.w3.org/2000/svg" xmlns:xlink="http://www.w3.org/1999/xlink">
    <!-- Generator: Sketch 52.6 (67491) - http://www.bohemiancoding.com/sketch -->
    <title>data-hub</title>
    <desc>Created with Sketch.</desc>
    <g id="Style" stroke="none" stroke-width="1" fill="none" fill-rule="evenodd">
        <g id="0-UI-icons" transform="translate(-280.000000, -933.000000)" fill="#000000" fill-rule="nonzero">
            <path d="M285.603289,943.12038 L282.339513,945.004722 C283.499065,946.640719 285.35004,947.752111 287.466667,947.913126 L287.466667,944.155755 C286.729552,944.032091 286.077888,943.656427 285.603289,943.12038 Z M285.038608,942.214719 C284.884807,941.840163 284.8,941.429986 284.8,941 C284.8,939.414402 285.95322,938.098153 287.466667,937.844245 L287.466667,934.086864 C286.404438,934.167615 285.389295,934.488975 284.483105,935.023463 L283.941203,934.104703 C285.161098,933.385186 286.553019,933 288,933 C290.827473,933 293.400163,934.479306 294.841417,936.851207 L293.929843,937.405112 C292.771403,935.498643 290.771498,934.258076 288.533333,934.086991 L288.533333,937.844245 C290.04678,938.098153 291.2,939.414402 291.2,941 C291.2,942.585598 290.04678,943.901847 288.533333,944.155755 L288.533333,947.913011 C290.756186,947.74311 292.744482,946.518347 293.906898,944.632381 L294.814942,945.192054 C293.368031,947.5396 290.809434,949 288,949 C283.581722,949 280,945.418278 280,941 C280,940.167623 280.127323,939.351775 280.374721,938.573643 L281.391247,938.896835 C281.17698,939.570761 281.066667,940.277615 281.066667,941 C281.066667,942.110095 281.327555,943.159256 281.791363,944.089517 L285.038608,942.214719 Z M288,943.133333 C289.178207,943.133333 290.133333,942.178207 290.133333,941 C290.133333,939.821793 289.178207,938.866667 288,938.866667 C286.821793,938.866667 285.866667,939.821793 285.866667,941 C285.866667,942.178207 286.821793,943.133333 288,943.133333 Z M295.532365,943.701115 L294.528319,943.34102 C294.795222,942.596819 294.933333,941.808245 294.933333,941 C294.933333,940.242318 294.811971,939.501805 294.576723,938.79865 L295.588278,938.460223 C295.859911,939.272131 296,940.126906 296,941 C296,941.931423 295.840558,942.841786 295.532365,943.701115 Z M282.133333,937.8 C281.249678,937.8 280.533333,937.083656 280.533333,936.2 C280.533333,935.316344 281.249678,934.6 282.133333,934.6 C283.016989,934.6 283.733333,935.316344 283.733333,936.2 C283.733333,937.083656 283.016989,937.8 282.133333,937.8 Z" id="data-hub"></path>
        </g>
    </g>
</svg>