<?xml version="1.0" encoding="UTF-8"?>
<svg width="16px" height="16px" viewBox="0 0 16 16" version="1.1" xmlns="http://www.w3.org/2000/svg" xmlns:xlink="http://www.w3.org/1999/xlink">
    <!-- Generator: Sketch 64 (93537) - https://sketch.com -->
    <title>icons/empty</title>
    <desc>Created with Sketch.</desc>
    <g id="SQL" stroke="none" stroke-width="1" fill="none" fill-rule="evenodd">
        <g id="DatePicker-2" transform="translate(-72.000000, -616.000000)" fill-rule="nonzero">
            <g id="icons/empty" transform="translate(72.000000, 616.000000)">
                <rect id="Rectangle" fill="#000000" opacity="0" x="0" y="0" width="16" height="16"></rect>
                <path d="M4.66666667,15.3333333 C3.53333334,15.3333333 2.66666667,14.4666667 2.66666667,13.3333333 L2.66666667,6.06666667 L2.26666667,6.13333333 C1.93333334,6.2 1.6,5.93333333 1.53333333,5.6 C1.46666666,5.2 1.66666666,4.86666667 2.06666667,4.8 L2.66666667,4.66666667 L2.73333333,4.66666667 L4.66666667,4.26666667 L4.53333333,3.6 C4.33333333,2.53333333 5,1.53333333 6.13333333,1.26666667 L8.73333333,0.733333328 C9.8,0.533333328 10.8666667,1.2 11.0666667,2.33333333 L11.2,3 L13.8,2.46666667 C14.1333333,2.4 14.5333333,2.6 14.6,3 C14.6666667,3.33333333 14.4666667,3.73333333 14.0666667,3.8 L4,5.8 L4,13.3333333 C4,13.7333333 4.26666667,14 4.66666667,14 L11.3333333,14 C11.7333333,14 12,13.7333333 12,13.3333333 L12,6 C12,5.6 12.2666667,5.33333333 12.6666667,5.33333333 C13.0666667,5.33333333 13.3333333,5.6 13.3333333,6 L13.3333333,13.3333333 C13.3333333,14.4666667 12.4666667,15.3333333 11.3333333,15.3333333 L4.66666667,15.3333333 Z M9,2.06666667 L6.33333333,2.6 C6,2.66666667 5.73333333,3 5.86666667,3.4 L6,4.06666667 L9.93333333,3.33333333 L9.8,2.66666667 C9.73333333,2.33333334 9.46666667,2.13333334 9.13333333,2.13333333 C9.06666666,2.06666667 9,2.06666667 9,2.06666667 L9,2.06666667 Z M8.66666667,12 L8.66666667,8 C8.66666667,7.6 8.93333334,7.33333333 9.33333333,7.33333333 C9.73333331,7.33333333 10,7.6 10,8 L10,12 C10,12.4 9.73333333,12.6666667 9.33333333,12.6666667 C8.93333333,12.6666667 8.66666667,12.4 8.66666667,12 Z M6,12 L6,8 C6,7.6 6.26666667,7.33333333 6.66666667,7.33333333 C7.06666667,7.33333333 7.33333333,7.6 7.33333333,8 L7.33333333,12 C7.33333333,12.4 7.06666666,12.6666667 6.66666667,12.6666667 C6.26666669,12.6666667 6,12.4 6,12 Z" id="Shape" fill="#FFFFFF"></path>
            </g>
        </g>
    </g>
</svg>