<?xml version="1.0" encoding="UTF-8"?>
<svg width="16px" height="16px" viewBox="0 0 16 16" version="1.1" xmlns="http://www.w3.org/2000/svg" xmlns:xlink="http://www.w3.org/1999/xlink">
    <!-- Generator: Sketch 64 (93537) - https://sketch.com -->
    <title>icons/custom</title>
    <desc>Created with Sketch.</desc>
    <g id="SQL" stroke="none" stroke-width="1" fill="none" fill-rule="evenodd">
        <g id="DatePicker-2" transform="translate(-249.000000, -615.000000)" fill-rule="nonzero">
            <g id="icons/custom" transform="translate(249.000000, 615.000000)">
                <rect id="Rectangle" fill="#000000" opacity="0" x="0" y="0" width="16" height="16"></rect>
                <path d="M13.0627222,5.33244481 C13.0294027,5.21582674 12.8794652,5.18250729 12.7795069,5.26580591 L11.0968746,6.94843815 C10.9635968,7.08171595 10.7636801,7.08171595 10.6304023,6.94843815 L9.44756185,5.76559767 C9.31428405,5.63231987 9.31428405,5.43240317 9.44756185,5.29912536 L11.1468538,3.5998334 C11.2301524,3.51653478 11.196833,3.36659725 11.0802149,3.31661808 C10.7969996,3.24997918 10.4971245,3.2 10.1972495,3.2 C8.43131862,3.2 7.01524198,4.73269471 7.21515868,6.53194502 C7.24847813,6.81516035 7.31511703,7.06505623 7.41507539,7.3149521 L3.53335943,11.2133278 C3.08354686,11.6631404 3.08354686,12.412828 3.53335943,12.8626406 C3.76659559,13.0958767 4.06647064,13.2124948 4.36634569,13.2124948 C4.66622074,13.2124948 4.96609579,13.0958767 5.19933195,12.8626406 L9.0810479,8.98092461 C9.33094377,9.08088297 9.59749938,9.14752187 9.86405498,9.18084132 C11.679965,9.38075802 13.196,7.96468138 13.196,6.19875052 C13.196,5.89887547 13.1460208,5.59900042 13.0627222,5.33244481 Z" id="Path" fill="#FFFFFF"></path>
            </g>
        </g>
    </g>
</svg>