<?xml version="1.0" encoding="UTF-8"?>
<svg width="12px" height="12px" viewBox="0 0 12 12" version="1.1" xmlns="http://www.w3.org/2000/svg" xmlns:xlink="http://www.w3.org/1999/xlink">
    <!-- Generator: Sketch 59.1 (86144) - https://sketch.com -->
    <title>data-date</title>
    <desc>Created with Sketch.</desc>
    <g id="Style" stroke="none" stroke-width="1" fill="none" fill-rule="evenodd">
        <g id="0-UI-icons" transform="translate(-104.000000, -219.000000)" fill="#000000" fill-rule="nonzero">
            <path d="M112.5,219 C112.776142,219 113,219.223858 113,219.5 L113,220 L115,220 C115.552285,220 116,220.447715 116,221 L116,230 C116,230.552285 115.552285,231 115,231 L105,231 C104.447715,231 104,230.552285 104,230 L104,221 C104,220.447715 104.447715,220 105,220 L107,220 L107,219.5 C107,219.223858 107.223858,219 107.5,219 C107.776142,219 108,219.223858 108,219.5 L108,220 L112,220 L112,219.5 C112,219.223858 112.223858,219 112.5,219 Z M115,224 L105,224 L105,230 L115,230 L115,224 Z M112.5,227.5 C112.776142,227.5 113,227.723858 113,228 C113,228.276142 112.776142,228.5 112.5,228.5 L107.5,228.5 C107.223858,228.5 107,228.276142 107,228 C107,227.723858 107.223858,227.5 107.5,227.5 L112.5,227.5 Z M112.5,225.5 C112.776142,225.5 113,225.723858 113,226 C113,226.276142 112.776142,226.5 112.5,226.5 L107.5,226.5 C107.223858,226.5 107,226.276142 107,226 C107,225.723858 107.223858,225.5 107.5,225.5 L112.5,225.5 Z M107,221 L105,221 L105,223 L115,223 L115,221 L113,221 L113,221.5 C113,221.776142 112.776142,222 112.5,222 C112.223858,222 112,221.776142 112,221.5 L112,221 L108,221 L108,221.5 C108,221.776142 107.776142,222 107.5,222 C107.223858,222 107,221.776142 107,221.5 L107,221 Z" id="data-date"></path>
        </g>
    </g>
</svg>