<?xml version="1.0" encoding="UTF-8"?>
<svg width="12px" height="12px" viewBox="0 0 12 12" version="1.1" xmlns="http://www.w3.org/2000/svg" xmlns:xlink="http://www.w3.org/1999/xlink">
    <!-- Generator: Sketch 55.1 (78136) - https://sketchapp.com -->
    <title>delete-12</title>
    <desc>Created with Sketch.</desc>
    <g id="Style" stroke="none" stroke-width="1" fill-rule="evenodd">
        <g id="0-UI-icons" transform="translate(-993.000000, -528.000000)">
            <path d="M994.1,531 L993.5,531 C993.223858,531 993,530.776142 993,530.5 C993,530.223858 993.223858,530 993.5,530 L996,530 L996,529 C996,528.447715 996.447715,528 997,528 L1001,528 C1001.55228,528 1002,528.447715 1002,529 L1002,530 L1004.5,530 C1004.77614,530 1005,530.223858 1005,530.5 C1005,530.776142 1004.77614,531 1004.5,531 L1003.9,531 L1003.09005,539.099504 C1003.03893,539.610706 1002.60876,540 1002.09501,540 L995.904988,540 C995.391236,540 994.961071,539.610706 994.90995,539.099504 L994.1,531 Z M995.104988,531 L995.904988,539 L1002.09501,539 L1002.89501,531 L995.104988,531 Z M997,530 L1001,530 L1001,529 L997,529 L997,530 Z M997.5,532 C997.776142,532 998,532.223858 998,532.5 L998,537.5 C998,537.776142 997.776142,538 997.5,538 C997.223858,538 997,537.776142 997,537.5 L997,532.5 C997,532.223858 997.223858,532 997.5,532 Z M1000.5,532 C1000.77614,532 1001,532.223858 1001,532.5 L1001,537.5 C1001,537.776142 1000.77614,538 1000.5,538 C1000.22386,538 1000,537.776142 1000,537.5 L1000,532.5 C1000,532.223858 1000.22386,532 1000.5,532 Z" id="delete-12"></path>
        </g>
    </g>
</svg>