<!-- Generated by IcoMoon.io -->
<svg version="1.1" xmlns="http://www.w3.org/2000/svg" width="32" height="32" viewBox="0 0 32 32">
<title>delete</title>
<path d="M2.561 7.876l1.138 20.023c0 2.265 2.131 4.101 4.76 4.101h15.724c2.629 0 4.76-1.836 4.76-4.101l1.095-20.023h-27.476zM31.367 6.456c0.005-0.844 0.008-0.901 0.008-0.957 0-2.202-1.483-3.411-3.472-3.411l-5.537 0.005c0-1.156-1.284-2.093-2.598-2.093h-6.893c-1.314 0-2.64 0.937-2.64 2.093l-5.543-0.005c-2.197 0-3.472 1.473-3.472 3.411 0 0.057 0.003 0.113 0.008 0.957h30.139zM21.061 13.138c0-0.638 0.588-1.156 1.314-1.156s1.314 0.517 1.314 1.156v13.24c0 0.638-0.588 1.156-1.314 1.156s-1.314-0.517-1.314-1.156v-13.24zM14.984 13.138c0-0.638 0.589-1.156 1.315-1.156s1.314 0.517 1.314 1.156v13.24c0 0.638-0.588 1.156-1.314 1.156s-1.315-0.517-1.315-1.156v-13.24zM8.91 13.138c0-0.638 0.588-1.156 1.315-1.156s1.314 0.517 1.314 1.156v13.24c0 0.638-0.589 1.156-1.314 1.156s-1.315-0.517-1.315-1.156v-13.24z"></path>
</svg>
