<?xml version="1.0" encoding="UTF-8"?>
<svg width="16px" height="16px" viewBox="0 0 16 16" version="1.1" xmlns="http://www.w3.org/2000/svg" xmlns:xlink="http://www.w3.org/1999/xlink">
    <!-- Generator: Sketch 59.1 (86144) - https://sketch.com -->
    <title>design</title>
    <desc>Created with Sketch.</desc>
    <g id="Style" stroke="none" stroke-width="1" fill="none" fill-rule="evenodd">
        <g id="$0-UI-icons" transform="translate(-609.000000, -722.000000)" fill="#000000" fill-rule="nonzero">
            <path d="M615.732,731.400061 L617.161953,732.614559 C618.339341,733.614548 618.482385,735.378759 617.481451,736.555035 C617.250587,736.826341 616.971239,737.052066 616.654675,737.21717 C614.444072,738.370115 612.024227,738.249524 609.395138,736.855397 L609.10212,736.695318 C609.005646,736.641019 608.971498,736.518867 609.025848,736.422485 C609.059301,736.363161 609.120628,736.324878 609.188663,736.320847 C611.036473,736.211389 611.960378,735.433471 611.960378,733.987092 C611.960378,732.924404 612.258544,732.027719 613.139708,731.396683 C614.020871,730.765646 614.97215,730.939535 615.732,731.400061 Z M613.786791,732.161136 C613.22787,732.633351 612.962481,733.216278 612.962481,733.987092 C612.962481,735.207883 611.77119,736.699506 610.975388,736.699506 C612.27537,737.21717 614.719642,737.498675 616.18728,736.33158 C616.361236,736.193247 616.569775,736.08072 616.717958,735.906579 C617.360421,735.15157 617.268606,734.019187 616.512884,733.377331 L615.082931,732.162833 C614.709454,731.845627 614.161093,731.844914 613.786791,732.161136 Z M624.550959,722.250538 C625.000938,722.60622 625.130797,723.238901 624.857994,723.746432 L620.695625,731.490258 C620.173441,732.461749 618.971701,732.821023 618.011463,732.292719 C617.915696,732.24003 617.824395,732.179425 617.738493,732.111525 L616.741806,731.323701 C615.88048,730.642873 615.727764,729.384527 616.400705,728.513107 C616.46782,728.426198 616.541917,728.345047 616.62224,728.270484 L623.042035,722.311022 C623.462789,721.920437 624.100981,721.894856 624.550959,722.250538 Z M623.711051,723.048707 L617.291257,729.008169 C617.251095,729.045451 617.214047,729.086026 617.18049,729.129481 C616.844019,729.565191 616.920377,730.194364 617.35104,730.534778 L618.347727,731.322602 C618.390678,731.356552 618.436329,731.386854 618.484212,731.413199 C618.964331,731.677351 619.565201,731.497714 619.826293,731.011968 L623.988662,723.268143 C624.030367,723.190555 624.010515,723.093835 623.941725,723.039461 C623.872936,722.985087 623.775373,722.988998 623.711051,723.048707 Z" id="design"></path>
        </g>
    </g>
</svg>