<!-- Generated by IcoMoon.io -->
<svg version="1.1" xmlns="http://www.w3.org/2000/svg" width="32" height="32" viewBox="0 0 32 32">
<title>design-mode-open</title>
<path d="M23.080 2.765c0.953 0.559 1.272 1.784 0.713 2.737s-1.784 1.272-2.737 0.713c-1.721-1.009-3.681-1.549-5.723-1.549-6.259 0-11.333 5.074-11.333 11.333s5.074 11.333 11.333 11.333c5.808 0 10.66-4.391 11.269-10.119 0.117-1.098 1.102-1.894 2.2-1.777s1.894 1.102 1.777 2.2c-0.825 7.757-7.388 13.696-15.247 13.696-8.468 0-15.333-6.865-15.333-15.333s6.865-15.333 15.333-15.333c2.759 0 5.416 0.732 7.747 2.099zM15.832 18.237l12.097-12.097c0.781-0.781 2.047-0.781 2.828 0s0.781 2.047 0 2.828l-13.511 13.511c-0.781 0.781-2.047 0.781-2.828 0l-6.782-6.782c-0.781-0.781-0.781-2.047 0-2.828s2.047-0.781 2.828 0l5.368 5.368z"></path>
</svg>
