<?xml version="1.0" encoding="UTF-8"?>
<svg width="16px" height="16px" viewBox="0 0 16 16" version="1.1" xmlns="http://www.w3.org/2000/svg" xmlns:xlink="http://www.w3.org/1999/xlink">
    <!-- Generator: Sketch 59.1 (86144) - https://sketch.com -->
    <title>desktop</title>
    <desc>Created with Sketch.</desc>
    <g id="Style" stroke="none" stroke-width="1" fill="none" fill-rule="evenodd">
        <g id="0-UI-icons" transform="translate(-328.000000, -503.000000)">
            <g id="desktop" transform="translate(328.000000, 503.000000)">
                <path d="M2,1 L14,1 C15.1045695,1 16,1.8954305 16,3 L16,10 C16,11.1045695 15.1045695,12 14,12 L2,12 C0.8954305,12 0,11.1045695 0,10 L0,3 C0,1.8954305 0.8954305,1 2,1 Z M2.5,2.5 C1.94771525,2.5 1.5,2.94771525 1.5,3.5 L1.5,9.5 C1.5,10.0522847 1.94771525,10.5 2.5,10.5 L13.5,10.5 C14.0522847,10.5 14.5,10.0522847 14.5,9.5 L14.5,3.5 C14.5,2.94771525 14.0522847,2.5 13.5,2.5 L2.5,2.5 Z M10,12 L10.6490059,13.9470178 C10.7887241,14.3661724 10.5621962,14.8192284 10.1430415,14.9589466 C10.0614683,14.9861377 9.97604497,15 9.89005929,15 L6.10994071,15 C5.66811291,15 5.30994071,14.6418278 5.30994071,14.2 C5.30994071,14.1140143 5.32380301,14.028591 5.35099407,13.9470178 L6,12 L10,12 Z M15,9 L15,11 L1,11 L1,9 L15,9 Z" fill="#000000" fill-rule="nonzero"></path>
                <rect id="Rectangle" x="0" y="0" width="16" height="16"></rect>
            </g>
        </g>
    </g>
</svg>