<?xml version="1.0" encoding="UTF-8"?>
<svg width="16px" height="16px" viewBox="0 0 16 16" version="1.1" xmlns="http://www.w3.org/2000/svg" xmlns:xlink="http://www.w3.org/1999/xlink">
    <!-- Generator: Sketch 64 (93537) - https://sketch.com -->
    <title>close-16</title>
    <desc>Created with Sketch.</desc>
    <g id="Icons" stroke="none" stroke-width="1" fill="none" fill-rule="evenodd">
        <g transform="translate(-328.000000, -426.000000)" id="16*16">
            <g transform="translate(40.000000, 343.000000)">
                <g id="close-16" transform="translate(288.000000, 83.000000)">
                    <path d="M14.8034852,1.19220377 C15.0597569,1.44847547 15.0597569,1.86397399 14.8034852,2.12024569 L8.92588642,7.9978445 L14.8034852,13.8754433 C15.0597569,14.131715 15.0597569,14.5472135 14.8034852,14.8034852 C14.5472135,15.0597569 14.131715,15.0597569 13.8754433,14.8034852 L7.9978445,8.92588642 L2.12024569,14.8034852 C1.86397399,15.0597569 1.44847547,15.0597569 1.19220377,14.8034852 C0.935932075,14.5472135 0.935932075,14.131715 1.19220377,13.8754433 L7.06980258,7.9978445 L1.19220377,2.12024569 C0.935932075,1.86397399 0.935932075,1.44847547 1.19220377,1.19220377 C1.44847547,0.935932075 1.86397399,0.935932075 2.12024569,1.19220377 L7.9978445,7.06980258 L13.8754433,1.19220377 C14.131715,0.935932075 14.5472135,0.935932075 14.8034852,1.19220377 Z" fill="#000000"></path>
                    <rect id="Rectangle" x="0" y="0" width="16" height="16"></rect>
                </g>
            </g>
        </g>
    </g>
</svg>