<?xml version="1.0" encoding="UTF-8"?>
<svg width="17px" height="8px" viewBox="0 0 17 8" version="1.1" xmlns="http://www.w3.org/2000/svg" xmlns:xlink="http://www.w3.org/1999/xlink">
    <!-- Generator: Sketch 55.2 (78181) - https://sketchapp.com -->
    <title>drag-m</title>
    <desc>Created with Sketch.</desc>
    <g id="Style" stroke="none" stroke-width="1" fill="none" fill-rule="evenodd">
        <g id="0-UI-icons" transform="translate(-1054.000000, -822.000000)" fill="#000000" fill-rule="nonzero">
            <path d="M1066,822 L1066,824 L1064,824 L1064,822 L1066,822 Z M1071,822 L1071,824 L1069,824 L1069,822 L1071,822 Z M1061,822 L1061,824 L1059,824 L1059,822 L1061,822 Z M1056,822 L1056,824 L1054,824 L1054,822 L1056,822 Z M1071,828 L1071,830 L1069,830 L1069,828 L1071,828 Z M1061,828 L1061,830 L1059,830 L1059,828 L1061,828 Z M1066,828 L1066,830 L1064,830 L1064,828 L1066,828 Z M1056,828 L1056,830 L1054,830 L1054,828 L1056,828 Z" id="drag-m"></path>
        </g>
    </g>
</svg>