<?xml version="1.0" encoding="UTF-8"?>
<svg width="6px" height="12px" viewBox="0 0 6 12" version="1.1" xmlns="http://www.w3.org/2000/svg" xmlns:xlink="http://www.w3.org/1999/xlink">
    <!-- Generator: Sketch 52.6 (67491) - http://www.bohemiancoding.com/sketch -->
    <title>drag</title>
    <desc>Created with Sketch.</desc>
    <g id="Style" stroke="none" stroke-width="1" fill="none" fill-rule="evenodd">
        <g id="0-UI-icons" transform="translate(-1002.000000, -721.000000)" fill="#000000" fill-rule="nonzero">
            <path d="M1002,721 L1004,721 L1004,723 L1002,723 L1002,721 Z M1002,726 L1004,726 L1004,728 L1002,728 L1002,726 Z M1002,731 L1004,731 L1004,733 L1002,733 L1002,731 Z M1006,721 L1008,721 L1008,723 L1006,723 L1006,721 Z M1006,726 L1008,726 L1008,728 L1006,728 L1006,726 Z M1006,731 L1008,731 L1008,733 L1006,733 L1006,731 Z" id="drag"></path>
        </g>
    </g>
</svg>