<!-- Generated by IcoMoon.io -->
<svg version="1.1" xmlns="http://www.w3.org/2000/svg" width="35" height="32" viewBox="0 0 35 32">
<title>ds-featureLayer-view</title>
<path d="M32.593 29.452c0.85-0.842 1.53-1.856 1.981-2.986l0.626 3.906c0 0-0.925-0.481-2.608-0.92zM20.322 29.564c-0.878 0.217-1.786 0.484-2.722 0.808-10.56 3.661-17.601 0-17.601 0l4.692-29.288c0 0 7.041 2.44 12.907 0s12.907 0 12.907 0l2.638 16.463c-1.614-1.924-4.037-3.147-6.745-3.147-4.86 0-8.8 3.94-8.8 8.8 0 2.503 1.045 4.762 2.722 6.364zM26.4 28.8c3.093 0 5.6-2.507 5.6-5.6s-2.507-5.6-5.6-5.6c-3.093 0-5.6 2.507-5.6 5.6s2.507 5.6 5.6 5.6zM26.4 30.4c-3.976 0-7.2-3.224-7.2-7.2s3.224-7.2 7.2-7.2c3.976 0 7.2 3.224 7.2 7.2s-3.224 7.2-7.2 7.2zM25.6 22.4v-3.2h1.6v3.2h3.2v1.6h-3.2v3.2h-1.6v-3.2h-3.2v-1.6h3.2z"></path>
</svg>
