<!-- Generated by IcoMoon.io -->
<svg version="1.1" xmlns="http://www.w3.org/2000/svg" width="33" height="32" viewBox="0 0 33 32">
<title>ds-map</title>
<path d="M28.397 0h-26.954v32h32v-32h-5.046zM14.234 30.545c-0.014-0.139-0.023-0.278-0.028-0.417 0.027-0.567 0.157-1.125 0.384-1.645 0.148-0.388 0.227-0.799 0.233-1.215 0-1.193-2.278-0.857-2.636-1.572-0.889-1.773 1.513-2.228 1.513-3.648 0-0.349-0.179-1.065-0.729-1.12-0.768-0.077-0.967 0.336-1.74 0.336-0.478 0.040-0.901-0.308-0.954-0.784 0-0.844 0.673-1.236 0.673-2.080 0-0.545-0.224-0.857-0.224-1.402-0.029-0.742 0.548-1.368 1.29-1.401 0.703 0 1.009 0.575 1.345 1.175 0.28 0.467 0.805 0.73 1.347 0.673 1.068 0 1.741-1.329 1.741-2.131-0.021-0.554 0.401-1.025 0.954-1.065 0.756 0 1.039 0.784 1.796 0.784 1.247 0 1.201-1.649 2.298-2.246 1.347-0.724 0.956-2.298 0.787-3.142-0.073-0.369 0.633-1.091 1.009-1.065 1.572 0.112 0.9-1.175 0.9-1.793-0.001-0.106 0.015-0.211 0.048-0.311 0.243-0.724 1.297-0.954 1.297-1.824 0-0.614-0.506-0.895-0.506-1.513 0-0.608 0.607-1.175 1.427-1.686h5.526v20.106c-0.128 0.153-0.23 0.257-0.288 0.257h-1.377c-0.75-0.072-1.45-0.406-1.977-0.944-0.575-0.503-0.563-1.706-1.347-1.706-1.052 0-1.135 1.476-2.188 1.476-0.477 0-0.829-0.385-1.306-0.385-0.422 0-0.972 0.221-0.972 0.64v1.094c0 0.925-1.104 1.108-1.104 2.036 0 0.375 0.401 0.516 0.401 0.896 0 1.265-1.949 1.095-1.949 2.356 0 0.417 0.47 0.665 0.47 1.062v0.063c0 0.473-0.673 1.318-0.908 2.14h-5.21z"></path>
</svg>
