<!-- Generated by IcoMoon.io -->
<svg version="1.1" xmlns="http://www.w3.org/2000/svg" width="32" height="32" viewBox="0 0 32 32">
<title>ds-scene-view</title>
<path d="M31.283 20.699c-0.27-0.595-0.611-1.151-1.011-1.658 0.020-0.091 0.038-0.183 0.056-0.275-0.23-0.912-0.628-1.773-1.173-2.54 0.117 1.012 0.719 1.62 1.066 2.75-1.467-1.816-3.711-2.977-6.227-2.977-4.418 0-8 3.582-8 8 0 0.142 0.004 0.283 0.011 0.424-0.869-0.261-1.554-0.963-1.777-1.868-0.167-0.554-0.696-0.765-0.993-1.201-0.338-0.434-0.342-1.043-0.008-1.481 0.286-0.303 0.443-0.705 0.438-1.122-0.010-0.447 0.108-0.887 0.339-1.269 0.383-0.823 1.078-1.461 1.931-1.772 0.227-0.071 0.4-0.258 0.454-0.49 0.32-0.818 0.666-0.749 1.227-1.301 0.469-0.53 0.641-0.779 1.35-0.376 0 0 0.392 0.231 0.518 0.278l0.103-0.003c0.104-0.030 0.204-0.069 0.301-0.118 0.925-0.525 3.564-0.605 3.399 0.533l-0.028 0.185c-0.015 0.117 0.025 0.234 0.109 0.317 0.584 0.447 1.261 0.757 1.981 0.905 0.079 0 0.103-0.025 0.121-0.056 0.042-0.081 0.073-0.168 0.092-0.257 0.082-0.352 0.428-0.575 0.782-0.504 0.262 0.065 0.517 0.157 0.761 0.273 0.237 0.065 0.49 0.041 0.71-0.070 0.785-0.303 1.21-0.246 0.696-1.392-0.064-0.167-0.255-0.278-0.543-0.317-0.515-0.056-0.907 0.134-1.144-0.44-0.040-0.123-0.119-0.229-0.224-0.303 0.010 0.014-0.031 0.047-0.058 0.095-0.348 0.625-1.322 0.501-1.429-0.454-0.042-0.315-0.918-1.090-1.226-1.258-0.072 0.232-0.25 0.417-0.48 0.496s-0.484 0.045-0.684-0.093c-0.491-0.39-0.769-0.573-1.386-0.175-0.378 0.281-0.273 0.53-0.787 0.782-0.112 0.058-0.202 0.152-0.255 0.267-0.589 1.278-0.967 1.126-1.983 0.853-0.882-0.206-0.774-2.868 0.476-2.582 1.205 0.312 1.213 0.082 0.963-0.621-0.509-1.131 0.55-0.85 1.28-1.745 0.348-0.469 0.989-1.155 1.564-0.909 0.632 0.278 1.248 0.36 1.587-0.241 0.324-0.47 0.215-1.113-0.246-1.45 0 0-0.228-0.139-0.259-0.164-0.138-0.102-0.23-0.31-0.362-0.205-0.198 0.199-0.139 0.507-0.121 0.803 0.068 0.831-0.623 1.076-1.062 0.765-0.565-0.384-1.429-1.058-1.138-1.656 0.808-1.392 0.682-1.699 1.617-2.102-1.325-0.676-2.746-1.143-4.213-1.386-1.377 1.392-0.118 1.45-2.717 1.376-0.665 0.096-1.301 0.335-1.866 0.7-0.217 0.126-0.486 0.124-0.701-0.006s-0.342-0.367-0.331-0.618c0.115-0.599 0.46-1.129 0.96-1.477-0.892 0.138-1.77 0.359-2.621 0.661-0.386 0.788-0.874 1.523-1.45 2.185-0.271 0.338-0.633 0.262-1.041 0.143-0.748-0.237-0.85-0.195-1.078 0.412-0.39 0.98-0.865 0.71-1.88 0.686-2.806 2.788-4.351 6.602-4.278 10.558 0.085 0.143 0.57 1.253 0.818 1.742 2.165 4.499-0.874 2.655 2.382 4.764 2.829 1.801 2.084 2.139 1.139 2.827-0.184 0.11-0.295 0.309-0.292 0.523 2.747 2.893 6.561 4.532 10.55 4.533 1.026-0.002 2.047-0.113 3.046-0.329 0.508 0.402 1.066 0.743 1.662 1.013-1.511 0.465-3.096 0.708-4.709 0.708-7.366-0.002-13.778-5.035-15.534-12.191s1.6-14.586 8.128-17.999h0.007c3.18-1.654 6.822-2.196 10.346-1.539l0.003 0.003c6.995 1.315 12.282 7.093 12.974 14.179v0.006c0.206 2.124-0.017 4.243-0.631 6.24zM20.156 6.712c0.034 0.106 0.042 0.219 0.022 0.328 1.005 0.348 0.345 2.086-0.648 1.344-0.239-0.2-0.341-0.519-0.264-0.821l-0.008-0.001c-1.773-0.397 0.267-2.838 0.899-0.849v-0.001zM23.994 29.091c2.812 0 5.091-2.279 5.091-5.091s-2.279-5.091-5.091-5.091c-2.812 0-5.091 2.279-5.091 5.091s2.279 5.091 5.091 5.091zM23.994 30.545c-3.615 0-6.545-2.93-6.545-6.545s2.93-6.545 6.545-6.545c3.615 0 6.545 2.93 6.545 6.545s-2.93 6.545-6.545 6.545zM23.267 23.273v-2.909h1.455v2.909h2.909v1.455h-2.909v2.909h-1.455v-2.909h-2.909v-1.455h2.909z"></path>
</svg>
