<!-- Generated by IcoMoon.io -->
<svg version="1.1" xmlns="http://www.w3.org/2000/svg" width="32" height="32" viewBox="0 0 32 32">
<title>ds-web-scene</title>
<path d="M31.551 19.694c-0.612-1.936-1.83-3.603-3.432-4.778 0.575-0.199 0.825-0.297 0.384-1.279-0.064-0.167-0.255-0.278-0.543-0.317-0.515-0.056-0.907 0.134-1.144-0.44-0.040-0.123-0.119-0.229-0.224-0.303 0.010 0.014-0.031 0.047-0.058 0.095-0.348 0.625-1.322 0.501-1.429-0.454-0.042-0.315-0.918-1.090-1.226-1.258-0.072 0.232-0.25 0.417-0.48 0.496s-0.484 0.045-0.684-0.093c-0.491-0.39-0.769-0.573-1.386-0.175-0.378 0.281-0.273 0.53-0.787 0.782-0.112 0.058-0.202 0.152-0.255 0.267-0.589 1.278-0.967 1.126-1.983 0.853-0.882-0.206-0.774-2.868 0.476-2.582 1.205 0.312 1.213 0.082 0.963-0.621-0.509-1.131 0.55-0.85 1.28-1.745 0.348-0.469 0.989-1.155 1.564-0.909 0.632 0.278 1.248 0.36 1.587-0.241 0.324-0.47 0.215-1.113-0.246-1.45 0 0-0.228-0.139-0.259-0.164-0.138-0.102-0.23-0.31-0.362-0.205-0.198 0.199-0.139 0.507-0.121 0.803 0.068 0.831-0.623 1.076-1.062 0.765-0.565-0.384-1.429-1.058-1.138-1.656 0.808-1.392 0.682-1.699 1.617-2.102-1.325-0.676-2.746-1.143-4.213-1.386-1.377 1.392-0.118 1.45-2.717 1.376-0.665 0.096-1.301 0.335-1.866 0.7-0.217 0.126-0.486 0.124-0.701-0.006s-0.342-0.367-0.331-0.618c0.115-0.599 0.46-1.129 0.96-1.477-0.892 0.138-1.77 0.359-2.621 0.661-0.386 0.788-0.874 1.523-1.45 2.185-0.271 0.338-0.633 0.262-1.041 0.143-0.748-0.237-0.85-0.195-1.078 0.412-0.39 0.98-0.865 0.71-1.88 0.686-2.806 2.788-4.351 6.602-4.278 10.558 0.085 0.143 0.57 1.253 0.818 1.742 2.165 4.499-0.874 2.655 2.382 4.764 2.829 1.801 2.084 2.139 1.139 2.827-0.184 0.11-0.295 0.309-0.292 0.523 2.747 2.893 6.561 4.532 10.55 4.533 0.496-0.001 0.991-0.027 1.483-0.079 0.686 0.436 1.433 0.787 2.224 1.036-1.204 0.287-2.447 0.435-3.707 0.435-7.366-0.002-13.778-5.035-15.534-12.191s1.6-14.586 8.128-17.999h0.007c3.18-1.654 6.822-2.196 10.346-1.539l0.003 0.003c6.995 1.315 12.282 7.093 12.974 14.179v0.006c0.171 1.771 0.045 3.539-0.357 5.235zM19.215 13.69c-1.089 0.408-2.082 1.011-2.937 1.767 0.049-0.070 0.085-0.15 0.105-0.236 0.32-0.818 0.666-0.749 1.227-1.301 0.469-0.53 0.641-0.779 1.35-0.376 0 0 0.124 0.073 0.255 0.146zM16.062 15.653c-1.543 1.449-2.599 3.41-2.897 5.612-0.274-0.426-0.256-0.982 0.055-1.391 0.286-0.303 0.443-0.705 0.438-1.122-0.010-0.447 0.108-0.887 0.339-1.269 0.383-0.823 1.078-1.461 1.931-1.772 0.047-0.015 0.091-0.034 0.133-0.058zM20.15 6.712c0.034 0.106 0.042 0.219 0.022 0.328 1.005 0.348 0.345 2.086-0.648 1.344-0.239-0.2-0.341-0.519-0.264-0.821l-0.008-0.001c-1.773-0.397 0.267-2.838 0.899-0.849v-0.001zM22.534 29.091c3.615 0 6.545-2.93 6.545-6.545s-2.93-6.545-6.545-6.545c-3.615 0-6.545 2.93-6.545 6.545s2.93 6.545 6.545 6.545zM22.534 30.545c-4.418 0-8-3.582-8-8s3.582-8 8-8c4.418 0 8 3.582 8 8s-3.582 8-8 8zM19.503 24.324c0.223 0.334 0.133 0.786-0.202 1.009s-0.786 0.133-1.009-0.202l-1.455-2.182c-0.163-0.244-0.163-0.563 0-0.807l1.455-2.182c0.223-0.334 0.674-0.424 1.009-0.202s0.424 0.674 0.202 1.009l-1.186 1.778 1.186 1.778zM25.565 24.324l1.186-1.778-1.186-1.778c-0.223-0.334-0.133-0.786 0.202-1.009s0.786-0.133 1.009 0.202l1.455 2.182c0.163 0.244 0.163 0.563 0 0.807l-1.455 2.182c-0.223 0.334-0.674 0.424-1.009 0.202s-0.424-0.674-0.202-1.009zM24.017 19.745c0.39 0.223 0.523 0.718 0.298 1.104l-2.443 4.201c-0.225 0.387-0.723 0.519-1.113 0.296s-0.523-0.718-0.298-1.104l2.443-4.201c0.225-0.387 0.723-0.519 1.113-0.296z"></path>
</svg>
