<!-- Generated by IcoMoon.io -->
<svg version="1.1" xmlns="http://www.w3.org/2000/svg" width="33" height="32" viewBox="0 0 33 32">
<title>ds-web-map</title>
<path d="M18.543 14.815c-0.353-0.232-0.645-0.565-1.138-0.565-0.553 0.040-0.975 0.511-0.954 1.065 0 0.801-0.673 2.131-1.741 2.131-0.542 0.056-1.067-0.206-1.347-0.673-0.336-0.601-0.643-1.175-1.345-1.175-0.742 0.032-1.319 0.658-1.29 1.401 0 0.545 0.224 0.857 0.224 1.402 0 0.844-0.673 1.236-0.673 2.080 0.053 0.477 0.476 0.824 0.954 0.784 0.772 0 0.972-0.413 1.74-0.336 0.55 0.055 0.729 0.771 0.729 1.12 0 1.42-2.401 1.875-1.513 3.648 0.358 0.716 2.636 0.38 2.636 1.572-0.006 0.415-0.085 0.826-0.233 1.215-0.227 0.52-0.357 1.078-0.384 1.645 0.004 0.139 0.013 0.279 0.028 0.417h4.713c1.459 0.921 3.188 1.455 5.041 1.455 5.222 0 9.455-4.233 9.455-9.455 0-1.853-0.533-3.582-1.455-5.041v-16.050h-5.526c-0.82 0.511-1.427 1.078-1.427 1.686 0 0.618 0.506 0.899 0.506 1.513 0 0.87-1.055 1.1-1.297 1.824-0.033 0.1-0.049 0.206-0.048 0.311 0 0.618 0.672 1.905-0.9 1.793-0.377-0.026-1.082 0.695-1.009 1.065 0.169 0.844 0.56 2.417-0.787 3.142-0.387 0.21-0.632 0.552-0.841 0.906-0.756 0.285-1.466 0.663-2.115 1.121zM28.397 0h5.046v32h-32v-32h26.954zM23.988 29.091c3.615 0 6.545-2.93 6.545-6.545s-2.93-6.545-6.545-6.545c-3.615 0-6.545 2.93-6.545 6.545s2.93 6.545 6.545 6.545zM23.988 30.545c-4.418 0-8-3.582-8-8s3.582-8 8-8c4.418 0 8 3.582 8 8s-3.582 8-8 8zM20.957 24.324c0.223 0.334 0.133 0.786-0.202 1.009s-0.786 0.133-1.009-0.202l-1.455-2.182c-0.163-0.244-0.163-0.563 0-0.807l1.455-2.182c0.223-0.334 0.674-0.424 1.009-0.202s0.424 0.674 0.202 1.009l-1.186 1.778 1.186 1.778zM27.020 24.324l1.186-1.778-1.186-1.778c-0.223-0.334-0.133-0.786 0.202-1.009s0.786-0.133 1.009 0.202l1.455 2.182c0.163 0.244 0.163 0.563 0 0.807l-1.455 2.182c-0.223 0.334-0.674 0.424-1.009 0.202s-0.424-0.674-0.202-1.009zM25.472 19.745c0.39 0.223 0.523 0.718 0.298 1.104l-2.443 4.201c-0.225 0.387-0.723 0.519-1.113 0.296s-0.523-0.718-0.298-1.104l2.443-4.201c0.225-0.387 0.723-0.519 1.113-0.296z"></path>
</svg>
