<?xml version="1.0" encoding="UTF-8"?>
<svg width="16px" height="16px" viewBox="0 0 16 16" version="1.1" xmlns="http://www.w3.org/2000/svg" xmlns:xlink="http://www.w3.org/1999/xlink">
    <title>Dupilate view</title>
    <g id="Section" stroke="none" stroke-width="1" fill="none" fill-rule="evenodd">
        <g id="W-section-tools" transform="translate(-498.000000, -124.000000)" fill="#C5C5C5" fill-rule="nonzero">
            <path d="M507.625,129 C508.384392,129 509,129.615608 509,130.375 L509,130.375 L509,138.625 C509,139.384392 508.384392,140 507.625,140 L507.625,140 L499.375,140 C498.615608,140 498,139.384392 498,138.625 L498,138.625 L498,130.375 C498,129.615608 498.615608,129 499.375,129 L499.375,129 Z M507.55,130 L499.45,130 C499.201472,130 499,130.201472 499,130.45 L499,130.45 L499,138.55 C499,138.798528 499.201472,139 499.45,139 L499.45,139 L507.55,139 C507.798528,139 508,138.798528 508,138.55 L508,138.55 L508,130.45 C508,130.201472 507.798528,130 507.55,130 L507.55,130 Z M506,136 L506,137 L501,137 L501,136 L506,136 Z M512.625,124 C513.339721,124 513.927078,124.545314 513.993706,125.242578 L514,125.375 L514,133.625 C514,134.339721 513.454686,134.927078 512.757422,134.993706 L512.625,135 L509.887148,135 L509.887148,134.083333 L512.625,134.083333 C512.850005,134.083333 513.037141,133.921198 513.075949,133.707386 L513.083333,133.625 L513.083333,125.375 C513.083333,125.149995 512.921198,124.962859 512.707386,124.924051 L512.625,124.916667 L504.375,124.916667 C504.149995,124.916667 503.962859,125.078802 503.924051,125.292614 L503.916667,125.375 L503.916667,128.125 L503,128.125 L503,125.375 C503,124.660279 503.545314,124.072922 504.242578,124.006294 L504.375,124 L512.625,124 Z M506,134 L506,135 L501,135 L501,134 L506,134 Z M506,132 L506,133 L501,133 L501,132 L506,132 Z" id="Dupilate-view"></path>
        </g>
    </g>
</svg>