<!-- Generated by IcoMoon.io -->
<svg version="1.1" xmlns="http://www.w3.org/2000/svg" width="32" height="32" viewBox="0 0 32 32">
<title>edit</title>
<path d="M2 28h28c1.105 0 2 0.895 2 2s-0.895 2-2 2h-28c-1.105 0-2-0.895-2-2s0.895-2 2-2zM10.025 24.761l-2.278 0.253c-1.756 0.195-3.339-1.071-3.534-2.827-0.026-0.235-0.026-0.472 0-0.707l0.253-2.278c0.16-1.444 0.808-2.791 1.835-3.819l11.612-11.612c2.083-2.083 5.46-2.083 7.542 0s2.083 5.46 0 7.542l-11.612 11.612c-1.028 1.028-2.374 1.675-3.819 1.835z"></path>
</svg>
