<?xml version="1.0" encoding="UTF-8"?>
<svg width="16px" height="16px" viewBox="0 0 16 16" version="1.1" xmlns="http://www.w3.org/2000/svg" xmlns:xlink="http://www.w3.org/1999/xlink">
    <!-- Generator: Sketch 52.6 (67491) - http://www.bohemiancoding.com/sketch -->
    <title>section</title>
    <desc>Created with Sketch.</desc>
    <g id="Style" stroke="none" stroke-width="1" fill="none" fill-rule="evenodd">
        <g id="0-UI-icons" transform="translate(-389.000000, -772.000000)" fill="#000000" fill-rule="nonzero">
            <path d="M394,782 L394,779 C394,777.895431 394.895431,777 396,777 L399,777 L399,774 C399,773.447715 398.552285,773 398,773 L391,773 C390.447715,773 390,773.447715 390,774 L390,781 C390,781.552285 390.447715,782 391,782 L394,782 Z M395,782 L398,782 C398.552285,782 399,781.552285 399,781 L399,778 L396,778 C395.447715,778 395,778.447715 395,779 L395,782 Z M400,777 L403,777 C404.104569,777 405,777.895431 405,779 L405,786 C405,787.104569 404.104569,788 403,788 L396,788 C394.895431,788 394,787.104569 394,786 L394,783 L391,783 C389.895431,783 389,782.104569 389,781 L389,774 C389,772.895431 389.895431,772 391,772 L398,772 C399.104569,772 400,772.895431 400,774 L400,777 Z M400,778 L400,781 C400,782.104569 399.104569,783 398,783 L395,783 L395,786 C395,786.552285 395.447715,787 396,787 L403,787 C403.552285,787 404,786.552285 404,786 L404,779 C404,778.447715 403.552285,778 403,778 L400,778 Z" id="section"></path>
        </g>
    </g>
</svg>