<?xml version="1.0" encoding="UTF-8"?>
<svg width="18px" height="18px" viewBox="0 0 18 18" version="1.1" xmlns="http://www.w3.org/2000/svg" xmlns:xlink="http://www.w3.org/1999/xlink">
    <!-- Generator: Sketch 55.1 (78136) - https://sketchapp.com -->
    <title>elements</title>
    <desc>Created with Sketch.</desc>
    <g id="Style" stroke="none" stroke-width="1" fill="none" fill-rule="evenodd">
        <g id="0-UI-icons" transform="translate(-912.000000, -818.000000)" fill="#000000" fill-rule="nonzero">
            <path d="M925,821 L925,819 C925,818.447715 925.447715,818 926,818 C926.552285,818 927,818.447715 927,819 L927,821 L929,821 C929.552285,821 930,821.447715 930,822 C930,822.552285 929.552285,823 929,823 L927,823 L927,825 C927,825.552285 926.552285,826 926,826 C925.447715,826 925,825.552285 925,825 L925,823 L923,823 C922.447715,823 922,822.552285 922,822 C922,821.447715 922.447715,821 923,821 L925,821 Z M913,818 L919,818 C919.552285,818 920,818.447715 920,819 L920,825 C920,825.552285 919.552285,826 919,826 L913,826 C912.447715,826 912,825.552285 912,825 L912,819 C912,818.447715 912.447715,818 913,818 Z M914,820 L914,824 L918,824 L918,820 L914,820 Z M913,828 L919,828 C919.552285,828 920,828.447715 920,829 L920,835 C920,835.552285 919.552285,836 919,836 L913,836 C912.447715,836 912,835.552285 912,835 L912,829 C912,828.447715 912.447715,828 913,828 Z M914,830 L914,834 L918,834 L918,830 L914,830 Z M923,828 L929,828 C929.552285,828 930,828.447715 930,829 L930,835 C930,835.552285 929.552285,836 929,836 L923,836 C922.447715,836 922,835.552285 922,835 L922,829 C922,828.447715 922.447715,828 923,828 Z M924,830 L924,834 L928,834 L928,830 L924,830 Z" id="elements"></path>
        </g>
    </g>
</svg>