<?xml version="1.0" encoding="UTF-8"?>
<svg width="80px" height="71px" viewBox="0 0 80 71" version="1.1" xmlns="http://www.w3.org/2000/svg" xmlns:xlink="http://www.w3.org/1999/xlink">
    <g id="$Builder" stroke="none" stroke-width="1" fill="none" fill-rule="evenodd">
        <g id="$B3-9-AddData-Empty" transform="translate(-1270.000000, -489.000000)" fill="#6A6A6A">
            <g id="Right-panel" transform="translate(1180.000000, 60.000000)">
                <g id="Empty-state" transform="translate(73.000000, 429.000000)">
                    <path d="M80.859265,24 C82.1966777,24 83.445603,24.6684045 84.1874661,25.7811992 L96.3282012,43.9923018 C96.7662479,44.6493718 97,45.4214026 97,46.2111026 L97,67 C97,69.209139 95.209139,71 93,71 L21,71 C18.790861,71 17,69.209139 17,67 L17,46.2111026 C17,45.4214026 17.2337521,44.6493718 17.6717988,43.9923018 L29.8125339,25.7811992 C30.554397,24.6684045 31.8033223,24 33.140735,24 L80.859265,24 Z M80.859265,28 L33.140735,28 L21.807,44.999 L39.0975694,44.9990062 L39.3706117,44.9989936 L39.3706117,44.9989936 L45.9999229,44.9986901 C47.1044851,44.9986532 47.9999502,45.8940374 48.0000001,46.9985997 L48,47 C48,47.6873578 48.0770547,48.3567186 48.2229972,48.9999154 L20.999,48.999 L21,67 L93,67 L92.999,48.999 L65.7770028,48.9999154 C65.9229453,48.3567186 66,47.6873578 66,47 L65.9999999,46.9991264 C65.999748,45.8945435 66.8950049,44.9989176 67.9995879,44.9986901 L74.3121978,44.998979 C79.0743234,44.9991992 84.8317951,44.9994695 91.5846128,44.99979 L80.859265,28 Z M48.2231662,49.0006599 C49.1328682,53.0083058 52.7170603,56 57,56 C61.2829397,56 64.8671318,53.0083058 65.7768338,49.0006599 L69.8469746,49.0008357 C68.8846117,55.2306067 63.4992816,60 57,60 C50.5007184,60 45.1153883,55.2306067 44.1530254,49.0008357 L48.2231662,49.0006599 Z M84.6423009,6.87164446 C85.6999875,7.75914894 85.8379474,9.33603793 84.950443,10.3937246 L77.8797793,18.8202135 C76.9922748,19.8779001 75.4153858,20.01586 74.3576991,19.1283555 C73.3000125,18.2408511 73.1620526,16.6639621 74.049557,15.6062754 L81.1202207,7.17978654 C82.0077252,6.12209988 83.5846142,5.98413997 84.6423009,6.87164446 Z M32.8797793,7.17978654 L39.950443,15.6062754 C40.8379474,16.6639621 40.6999875,18.2408511 39.6423009,19.1283555 C38.5846142,20.01586 37.0077252,19.8779001 36.1202207,18.8202135 L29.049557,10.3937246 C28.1620526,9.33603793 28.3000125,7.75914894 29.3576991,6.87164446 C30.4153858,5.98413997 31.9922748,6.12209988 32.8797793,7.17978654 Z M57,2.27373675e-13 C58.3807119,2.27120043e-13 59.5,1.11928813 59.5,2.5 L59.5,16.5 C59.5,17.8807119 58.3807119,19 57,19 C55.6192881,19 54.5,17.8807119 54.5,16.5 L54.5,2.5 C54.5,1.11928813 55.6192881,2.27183219e-13 57,2.27373675e-13 Z"></path>
                </g>
            </g>
        </g>
    </g>
</svg>