<?xml version="1.0" encoding="UTF-8"?>
<svg width="16px" height="16px" viewBox="0 0 16 16" version="1.1" xmlns="http://www.w3.org/2000/svg" xmlns:xlink="http://www.w3.org/1999/xlink">
    <!-- Generator: Sketch 59.1 (86144) - https://sketch.com -->
    <title>expand</title>
    <desc>Created with Sketch.</desc>
    <g id="Style" stroke="none" stroke-width="1" fill="none" fill-rule="evenodd">
        <g id="0-UI-icons" transform="translate(-295.000000, -503.000000)" fill="#000000">
            <g id="expand" transform="translate(295.000000, 503.000000)">
                <path d="M4,12 L4,15 L1,15 L1,12 L4,12 Z M9.5,12 L9.5,15 L6.5,15 L6.5,12 L9.5,12 Z M15,12 L15,15 L12,15 L12,12 L15,12 Z M4,6.5 L4,9.5 L1,9.5 L1,6.5 L4,6.5 Z M9.5,6.5 L9.5,9.5 L6.5,9.5 L6.5,6.5 L9.5,6.5 Z M15,6.5 L15,9.5 L12,9.5 L12,6.5 L15,6.5 Z M4,1 L4,4 L1,4 L1,1 L4,1 Z M9.5,1 L9.5,4 L6.5,4 L6.5,1 L9.5,1 Z M15,1 L15,4 L12,4 L12,1 L15,1 Z" id="Combined-Shape"></path>
            </g>
        </g>
    </g>
</svg>