<svg width="12" height="12" viewBox="0 0 12 12" fill="none" xmlns="http://www.w3.org/2000/svg">
<path id="icon_featureService" fill-rule="evenodd" clip-rule="evenodd" d="M12 9L10 0H2L0 9L0.359504 9.08678C2.5395 9.59375 4.253 9.63423 5.5 9.2082V11H2V12H5.5H6.5H10V11H6.5V8.7918C7.81476 8.34262 9.64809 8.41202 12 9ZM2.802 1H9.197L10.686 7.701L10.459 7.66361C8.42928 7.34832 6.79684 7.48355 5.55279 8.10557L5.39417 8.17883C4.4684 8.57312 3.085 8.61214 1.25379 8.25572L1.192 8.243L2.802 1ZM6 2H5V5H3V6H5V7H6V4H9V3H6V2Z" fill="black"/>
</svg>
