<?xml version="1.0" encoding="UTF-8"?>
<svg width="12px" height="12px" viewBox="0 0 12 12" version="1.1" xmlns="http://www.w3.org/2000/svg" xmlns:xlink="http://www.w3.org/1999/xlink">
    <!-- Generator: Sketch 57.1 (83088) - https://sketch.com -->
    <title>fill</title>
    <desc>Created with Sketch.</desc>
    <g id="Style" stroke="none" stroke-width="1" fill="none" fill-rule="evenodd">
        <g id="0-UI-icons" transform="translate(-997.000000, -642.000000)" fill="#000000">
            <g id="color-fill" transform="translate(995.000000, 642.000000)">
                <path d="M12.8929967,11.9948747 C12.3337036,11.9504557 12.0540571,11.6173128 12.0540571,10.995446 C12.0540571,10.3257433 12.3783809,9.65604061 13.0270285,8.98633793 C13.6756762,9.65604061 14,10.3257433 14,10.995446 C14,11.6651487 13.6756762,12 13.0270285,12 L12.8929967,11.9948747 Z M11.5181139,4.17976012 C11.9883659,4.45565965 12.1405236,5.05155443 11.8579677,5.51072835 L8.76965267,10.529466 C8.4870968,10.9886399 7.87682551,11.1372132 7.40657358,10.8613137 L2.48188606,7.97197096 C2.01163413,7.69607143 1.85947641,7.10017666 2.14203227,6.64100273 L5.22801744,1.62605132 L3.99878436,0.90485315 C3.76258762,0.766275159 3.6861623,0.466970912 3.82808361,0.236338404 C3.97000493,0.00570589616 4.27653017,-0.0689190339 4.5127269,0.0696589575 L11.5181139,4.17976012 Z M6.05646999,2.11210923 L3.68362699,5.96643043 L11.0271853,5.0284567 L6.05646999,2.11210923 Z" id="fill"></path>
            </g>
        </g>
    </g>
</svg>