<?xml version="1.0" encoding="UTF-8"?>
<svg width="20px" height="20px" viewBox="0 0 20 20" version="1.1" xmlns="http://www.w3.org/2000/svg" xmlns:xlink="http://www.w3.org/1999/xlink">
    <!-- Generator: Sketch 59.1 (86144) - https://sketch.com -->
    <title> widget-filter</title>
    <desc>Created with Sketch.</desc>
    <g id="Filter" stroke="none" stroke-width="1" fill="none" fill-rule="evenodd">
        <g id="icons" transform="translate(-57.000000, -45.000000)" fill="#FFFFFF" fill-rule="nonzero">
            <g id="icon-widget-filter" transform="translate(57.000000, 45.000000)">
                <path d="M2.34151347,0 L17.1586077,0 C17.8994382,0 18.5,0.611164258 18.5,1.36507358 C18.5,1.64279007 18.4167636,1.91390045 18.2614007,2.1422183 L12.861288,8.24113189 C12.7270761,8.43836667 12.6463129,8.66811339 12.6271347,8.90722654 L11.8864072,18.1425907 C11.8422417,18.693244 11.4762708,19.1625099 10.959336,19.3313268 L9.11283116,19.9343451 C8.40743233,20.1647092 7.65208627,19.7695221 7.42571851,19.05167 C7.39034642,18.9394989 7.36939148,18.82314 7.36337603,18.7054937 L6.86351579,8.92955344 C6.85056852,8.67633928 6.76857595,8.43179898 6.62672876,8.22334349 L1.23872046,2.1422183 C0.816961115,1.52241013 0.968794863,0.672016781 1.57785063,0.2428116 C1.80220763,0.0847059031 2.0686148,0 2.34151347,0 Z M7.72952177,7.44619877 C8.01321615,7.86310973 8.17720131,8.35219035 8.20309584,8.85861867 L8.70295608,18.6345589 L10.5494609,18.0315406 L11.2901884,8.79617646 C11.3285448,8.31795016 11.4900712,7.85845672 11.7584949,7.46398716 L17.1586077,1.36507358 L2.34151347,1.36507358 L7.72952177,7.44619877 Z" id="-widget-filter"></path>
            </g>
        </g>
    </g>
</svg>