<?xml version="1.0" encoding="UTF-8"?>
<svg width="20px" height="20px" viewBox="0 0 20 20" version="1.1" xmlns="http://www.w3.org/2000/svg" xmlns:xlink="http://www.w3.org/1999/xlink">
    <!-- Generator: Sketch 61.2 (89653) - https://sketch.com -->
    <title>framework</title>
    <desc>Created with Sketch.</desc>
    <g id="Components" stroke="none" stroke-width="1" fill="none" fill-rule="evenodd">
        <g id="$0-UI-icons" transform="translate(-40.000000, -1259.000000)" fill="#000000" fill-rule="nonzero">
            <path d="M58,1259 C59.1045695,1259 60,1259.89543 60,1261 L60,1277 C60,1278.10457 59.1045695,1279 58,1279 L42,1279 C40.8954305,1279 40,1278.10457 40,1277 L40,1261 C40,1259.89543 40.8954305,1259 42,1259 L58,1259 Z M59,1264 L41,1264 L41,1277 C41,1277.51284 41.3860402,1277.93551 41.8833789,1277.99327 L42,1278 L58,1278 C58.5128358,1278 58.9355072,1277.61396 58.9932723,1277.11662 L59,1277 L59,1264 Z M50.5,1273 C50.7761424,1273 51,1273.22386 51,1273.5 C51,1273.77614 50.7761424,1274 50.5,1274 L43.5,1274 C43.2238576,1274 43,1273.77614 43,1273.5 C43,1273.22386 43.2238576,1273 43.5,1273 L50.5,1273 Z M56.5,1269 C56.7761424,1269 57,1269.22386 57,1269.5 C57,1269.77614 56.7761424,1270 56.5,1270 L43.5,1270 C43.2238576,1270 43,1269.77614 43,1269.5 C43,1269.22386 43.2238576,1269 43.5,1269 L56.5,1269 Z M58,1260 L42,1260 C41.4871642,1260 41.0644928,1260.38604 41.0067277,1260.88338 L41,1261 L41,1263 L59,1263 L59,1261 C59,1260.48716 58.6139598,1260.06449 58.1166211,1260.00673 L58,1260 Z M42.5,1261 C42.7761424,1261 43,1261.22386 43,1261.5 C43,1261.77614 42.7761424,1262 42.5,1262 C42.2238576,1262 42,1261.77614 42,1261.5 C42,1261.22386 42.2238576,1261 42.5,1261 Z M44.5,1261 C44.7761424,1261 45,1261.22386 45,1261.5 C45,1261.77614 44.7761424,1262 44.5,1262 C44.2238576,1262 44,1261.77614 44,1261.5 C44,1261.22386 44.2238576,1261 44.5,1261 Z M46.5,1261 C46.7761424,1261 47,1261.22386 47,1261.5 C47,1261.77614 46.7761424,1262 46.5,1262 C46.2238576,1262 46,1261.77614 46,1261.5 C46,1261.22386 46.2238576,1261 46.5,1261 Z" id="framework"></path>
        </g>
    </g>
</svg>