<!-- Generated by IcoMoon.io -->
<svg version="1.1" xmlns="http://www.w3.org/2000/svg" width="32" height="32" viewBox="0 0 32 32">
<title>general-settings</title>
<path d="M10.541 4.772c2.88-2.88 6.337-3.951 10.371-3.213v0c0.801 0.147 1.332 0.915 1.186 1.716-0.054 0.295-0.196 0.566-0.408 0.778l-5.934 5.934c-0.576 0.576-0.576 1.51 0 2.086l4.172 4.172c0.576 0.576 1.51 0.576 2.086 0l5.934-5.934c0.576-0.576 1.51-0.576 2.086 0 0.212 0.212 0.354 0.483 0.408 0.778 0.738 4.034-0.333 7.491-3.213 10.371-3.502 3.502-8.656 4.342-12.952 2.522l-5.821 5.821c-1.152 1.152-3.020 1.152-4.172 0l-2.086-2.086c-1.152-1.152-1.152-3.020 0-4.172l5.821-5.821c-1.82-4.295-0.979-9.45 2.522-12.952z"></path>
</svg>
