<?xml version="1.0" encoding="UTF-8"?>
<svg width="16px" height="16px" viewBox="0 0 16 16" version="1.1" xmlns="http://www.w3.org/2000/svg" xmlns:xlink="http://www.w3.org/1999/xlink">
    <!-- Generator: Sketch 61.2 (89653) - https://sketch.com -->
    <title>help</title>
    <desc>Created with Sketch.</desc>
    <g id="Components" stroke="none" stroke-width="1" fill="none" fill-rule="evenodd">
        <g id="$0-UI-icons" transform="translate(-76.000000, -473.000000)" fill="#000000">
            <path d="M84,473 C88.4,473 92,476.6 92,481 C92,485.4 88.4,489 84,489 C79.6,489 76,485.4 76,481 C76,476.6 79.6,473 84,473 Z M84,485 C83.4477153,485 83,485.447715 83,486 C83,486.552285 83.4477153,487 84,487 C84.5522847,487 85,486.552285 85,486 C85,485.447715 84.5522847,485 84,485 Z M83.9375403,475 C82.3868449,475 81.0570971,476.06018 80.5707831,477.464989 C80.500896,477.638611 80.500896,477.806907 80.500896,477.806907 C80.480618,478.254253 80.806614,478.6 81.2656955,478.6 L81.2656955,478.6 L81.3801129,478.593293 C81.8375504,478.540172 82.1554135,478.278828 82.3266166,477.85065 C82.4164445,477.662386 82.4498449,477.612733 82.4662261,477.588524 C82.7877354,477.113376 83.3281814,476.8 83.9375403,476.8 C84.9172167,476.8 85.7187701,477.61 85.7187701,478.6 C85.7187701,479.14 85.5406471,479.59 85.1844012,479.86 L85.1844012,479.86 L84.1156633,481.03 C83.5382565,481.540555 83.1948163,482.228434 83.0853426,482.997834 C83.0819641,483.021579 83.0804504,483.049109 83.0797815,483.070703 L83.0797815,483.070703 L83.0808747,483.20443 C83.112561,483.64848 83.4784588,484 83.9375403,484 L83.9375403,484 L84.0424604,483.994273 C84.491344,483.945096 84.858711,483.585268 84.890877,483.148681 L84.890877,483.148681 L84.9278361,482.964136 C85.0789778,482.311773 85.4019968,481.917597 85.8968931,481.48 C86.3917894,481.042403 86.6984466,480.67 86.6984466,480.67 C87.143754,480.13 87.5,479.41 87.5,478.6 C87.5,476.62 85.8968931,475 83.9375403,475 Z" id="help"></path>
        </g>
    </g>
</svg>