<?xml version="1.0" encoding="UTF-8"?>
<svg width="12px" height="12px" viewBox="0 0 12 12" version="1.1" xmlns="http://www.w3.org/2000/svg" xmlns:xlink="http://www.w3.org/1999/xlink">
    <!-- Generator: Sketch 52.6 (67491) - http://www.bohemiancoding.com/sketch -->
    <title>home</title>
    <desc>Created with Sketch.</desc>
    <g id="Style" stroke="none" stroke-width="1" fill="none" fill-rule="evenodd">
        <g id="*UI-icons" transform="translate(-374.000000, -1317.000000)" fill="#000000" fill-rule="nonzero">
            <path d="M376,1322.05474 L376,1328 L378,1328 L378,1325 C378,1324.44772 378.447715,1324 379,1324 L381,1324 C381.552285,1324 382,1324.44772 382,1325 L382,1328 L384,1328 L384,1321.96895 L380.042767,1318 L376,1322.05474 Z M375,1323.0577 L374.851033,1323.20711 C374.656348,1323.40237 374.3407,1323.40237 374.146014,1323.20711 C373.951329,1323.01184 373.951329,1322.69526 374.146014,1322.5 L379.337747,1317.29289 C379.727119,1316.90237 380.358414,1316.90237 380.747786,1317.29289 L385.853986,1322.41421 C386.048671,1322.60948 386.048671,1322.92606 385.853986,1323.12132 C385.6593,1323.31658 385.343652,1323.31658 385.148967,1323.12132 L385,1322.97191 L385,1328 C385,1328.55228 384.552285,1329 384,1329 L376,1329 C375.447715,1329 375,1328.55228 375,1328 L375,1323.0577 Z M379,1328 L381,1328 L381,1325 L379,1325 L379,1328 Z" id="home"></path>
        </g>
    </g>
</svg>