<?xml version="1.0" encoding="UTF-8"?>
<svg width="16px" height="16px" viewBox="0 0 16 16" version="1.1" xmlns="http://www.w3.org/2000/svg" xmlns:xlink="http://www.w3.org/1999/xlink">
    <!-- Generator: Sketch 52.6 (67491) - http://www.bohemiancoding.com/sketch -->
    <title>info-16</title>
    <desc>Created with Sketch.</desc>
    <g id="Style" stroke="none" stroke-width="1" fill="none" fill-rule="evenodd">
        <g id="0-UI-icons" transform="translate(-982.000000, -301.000000)" fill="#000000" fill-rule="nonzero">
            <path d="M990,316 C993.865993,316 997,312.865993 997,309 C997,305.134007 993.865993,302 990,302 C986.134007,302 983,305.134007 983,309 C983,312.865993 986.134007,316 990,316 Z M990,317 C985.581722,317 982,313.418278 982,309 C982,304.581722 985.581722,301 990,301 C994.418278,301 998,304.581722 998,309 C998,313.418278 994.418278,317 990,317 Z M989.5,312.5 L989.5,307.5 L989,307.5 C988.723858,307.5 988.5,307.276142 988.5,307 C988.5,306.723858 988.723858,306.5 989,306.5 L990.5,306.5 L990.5,307.5 L990.5,312.5 L991,312.5 C991.276142,312.5 991.5,312.723858 991.5,313 C991.5,313.276142 991.276142,313.5 991,313.5 L989,313.5 C988.723858,313.5 988.5,313.276142 988.5,313 C988.5,312.723858 988.723858,312.5 989,312.5 L989.5,312.5 Z M990,305.5 C989.723858,305.5 989.5,305.276142 989.5,305 C989.5,304.723858 989.723858,304.5 990,304.5 C990.276142,304.5 990.5,304.723858 990.5,305 C990.5,305.276142 990.276142,305.5 990,305.5 Z" id="info-16"></path>
        </g>
    </g>
</svg>