<?xml version="1.0" encoding="UTF-8"?>
<svg width="12px" height="12px" viewBox="0 0 12 12" version="1.1" xmlns="http://www.w3.org/2000/svg" xmlns:xlink="http://www.w3.org/1999/xlink">
    <!-- Generator: Sketch 52.6 (67491) - http://www.bohemiancoding.com/sketch -->
    <title>info-12</title>
    <desc>Created with Sketch.</desc>
    <g id="Style" stroke="none" stroke-width="1" fill="none" fill-rule="evenodd">
        <g id="0-UI-icons" transform="translate(-1021.000000, -494.000000)" fill="#000000" fill-rule="nonzero">
            <path d="M1027,505 C1029.76142,505 1032,502.761424 1032,500 C1032,497.238576 1029.76142,495 1027,495 C1024.23858,495 1022,497.238576 1022,500 C1022,502.761424 1024.23858,505 1027,505 Z M1027,506 C1023.68629,506 1021,503.313708 1021,500 C1021,496.686292 1023.68629,494 1027,494 C1030.31371,494 1033,496.686292 1033,500 C1033,503.313708 1030.31371,506 1027,506 Z M1026.5,498.5 L1027.5,498.5 L1027.5,502.5 L1028,502.5 C1028.27614,502.5 1028.5,502.723858 1028.5,503 C1028.5,503.276142 1028.27614,503.5 1028,503.5 L1026,503.5 C1025.72386,503.5 1025.5,503.276142 1025.5,503 C1025.5,502.723858 1025.72386,502.5 1026,502.5 L1026.5,502.5 L1026.5,499.5 L1026,499.5 C1025.72386,499.5 1025.5,499.276142 1025.5,499 C1025.5,498.723858 1025.72386,498.5 1026,498.5 L1026.5,498.5 Z M1027,497.5 C1026.72386,497.5 1026.5,497.276142 1026.5,497 C1026.5,496.723858 1026.72386,496.5 1027,496.5 C1027.27614,496.5 1027.5,496.723858 1027.5,497 C1027.5,497.276142 1027.27614,497.5 1027,497.5 Z" id="info-12"></path>
        </g>
    </g>
</svg>