<svg width="12" height="10" viewBox="0 0 12 10" xmlns="http://www.w3.org/2000/svg">
  <path d="M6.620547 6.36602L4.633975 4.37945C4.54793 4.56857 4.5 4.77869 4.5 5c0 .82843.671573 1.5 1.5 1.5.221315 0 .431435-.04793.620547-.13398zm.745478-.74547C7.45207 5.43143 7.5 5.22131 7.5 5c0-.82843-.671573-1.5-1.5-1.5-.221315 0-.431435.04793-.620547.13398l1.986572 1.98657zM3.899021 3.6445l-.825177-.82518C2.322118 3.3144 1.678442 4.03776 1.13254 5 2.28611 7.03336 3.876277 8 6 8c.701838 0 1.345404-.10557 1.934198-.32032l-.578697-.5787C6.964994 7.35344 6.499612 7.5 6 7.5 4.619288 7.5 3.5 6.38071 3.5 5c0-.49961.146555-.96499.399021-1.3555zm.745478-.74548C5.035006 2.64656 5.500388 2.5 6 2.5c1.380712 0 2.5 1.11929 2.5 2.5 0 .49961-.146555.96499-.399021 1.3555l.825177.82518C9.677882 6.6856 10.321558 5.96224 10.86746 5 9.71389 2.96664 8.123723 2 6 2c-.701838 0-1.345404.10557-1.934198.32032l.578697.5787zM2.354623 2.1001L1.154394.89987c-.205859-.20586-.205859-.53962 0-.74548.205858-.20585.539619-.20585.745477 0l1.399693 1.3997C4.107362 1.1847 5.007507 1 6 1c2.666667 0 4.666667 1.33333 6 4-.634095 1.26819-1.41897 2.23482-2.354623 2.8999l1.200229 1.20023c.205859.20586.205859.53962 0 .74548-.205858.20585-.539619.20585-.745477 0l-1.399693-1.3997C7.892638 8.8153 6.992493 9 6 9 3.333333 9 1.333333 7.66667 0 5c.634095-1.26819 1.41897-2.23482 2.354623-2.8999z"/>
</svg>