<?xml version="1.0" encoding="UTF-8"?>
<svg width="12px" height="12px" viewBox="0 0 12 12" version="1.1" xmlns="http://www.w3.org/2000/svg" xmlns:xlink="http://www.w3.org/1999/xlink">
    <g id="Icons" stroke="none" stroke-width="1" fill="none" fill-rule="evenodd">
        <g transform="translate(-136.000000, -283.000000)" fill="#000000" fill-rule="nonzero" id="layer-group">
            <path d="M148,283 L148,295 L136,295 L136,283 L148,283 Z M147,284 L137,284 L137,294 L140,294 L137,292 L140,290 L143,292 L140,294 L147,294 L147,284 Z M140,291.202 L138.803,292 L140,292.797 L141.196,292 L140,291.202 Z M144,287 L147,289 L144,291 L141,289 L144,287 Z M144,288.202 L142.803,289 L144,289.797 L145.196,289 L144,288.202 Z M140,284 L143,286 L140,288 L137,286 L140,284 Z M140,285.202 L138.803,286 L140,286.797 L141.196,286 L140,285.202 Z"></path>
        </g>
    </g>
</svg>