<?xml version="1.0" encoding="UTF-8"?>
<svg width="12px" height="12px" viewBox="0 0 12 12" version="1.1" xmlns="http://www.w3.org/2000/svg" xmlns:xlink="http://www.w3.org/1999/xlink">
    <!-- Generator: Sketch 55.1 (78136) - https://sketchapp.com -->
    <title>layout-12</title>
    <desc>Created with Sketch.</desc>
    <g id="Style" stroke="none" stroke-width="1" fill="none" fill-rule="evenodd">
        <g id="0-UI-icons" transform="translate(-100.000000, -974.000000)" fill="#000000" fill-rule="nonzero">
            <path d="M101,974 L111,974 C111.552285,974 112,974.447715 112,975 L112,977 C112,977.552285 111.552285,978 111,978 L101,978 C100.447715,978 100,977.552285 100,977 L100,975 C100,974.447715 100.447715,974 101,974 Z M101,975 L101,977 L111,977 L111,975 L101,975 Z M101,979 L103,979 C103.552285,979 104,979.447715 104,980 L104,985 C104,985.552285 103.552285,986 103,986 L101,986 C100.447715,986 100,985.552285 100,985 L100,980 C100,979.447715 100.447715,979 101,979 Z M101,980 L101,985 L103,985 L103,980 L101,980 Z M106,979 L111,979 C111.552285,979 112,979.447715 112,980 L112,985 C112,985.552285 111.552285,986 111,986 L106,986 C105.447715,986 105,985.552285 105,985 L105,980 C105,979.447715 105.447715,979 106,979 Z M106,980 L106,985 L111,985 L111,980 L106,980 Z" id="layout-12"></path>
        </g>
    </g>
</svg>