<?xml version="1.0" encoding="UTF-8"?>
<svg width="10px" height="10px" viewBox="0 0 10 10" version="1.1" xmlns="http://www.w3.org/2000/svg" xmlns:xlink="http://www.w3.org/1999/xlink">
    <!-- Generator: Sketch 55.1 (78136) - https://sketchapp.com -->
    <title>line-space</title>
    <desc>Created with Sketch.</desc>
    <g id="Style" stroke="none" stroke-width="1" fill="none" fill-rule="evenodd">
        <g id="0-UI-icons" transform="translate(-1266.000000, -607.000000)" fill="#000000" fill-rule="nonzero">
            <path d="M1275.75,607 C1275.88807,607 1276,607.223858 1276,607.5 C1276,607.776142 1275.88807,608 1275.75,608 L1271.25,608 C1271.11193,608 1271,607.776142 1271,607.5 C1271,607.223858 1271.11193,607 1271.25,607 L1275.75,607 Z M1275.58333,613 C1275.81345,613 1276,613.223858 1276,613.5 C1276,613.776142 1275.81345,614 1275.58333,614 L1271.41667,614 C1271.18655,614 1271,613.776142 1271,613.5 C1271,613.223858 1271.18655,613 1271.41667,613 L1275.58333,613 Z M1270,615 L1268,617 L1266,615 L1270,615 Z M1270,609 L1266,609 L1268,607 L1270,609 Z M1267.5,609 L1268.5,609 L1268.5,611 L1267.5,611 L1267.5,609 Z M1267.5,613 L1268.5,613 L1268.5,615 L1267.5,615 L1267.5,613 Z M1275.58333,610 C1275.81345,610 1276,610.223858 1276,610.5 C1276,610.776142 1275.81345,611 1275.58333,611 L1271.41667,611 C1271.18655,611 1271,610.776142 1271,610.5 C1271,610.223858 1271.18655,610 1271.41667,610 L1275.58333,610 Z M1275.75,616 C1275.88807,616 1276,616.223858 1276,616.5 C1276,616.776142 1275.88807,617 1275.75,617 L1271.25,617 C1271.11193,617 1271,616.776142 1271,616.5 C1271,616.223858 1271.11193,616 1271.25,616 L1275.75,616 Z" id="line-space"></path>
        </g>
    </g>
</svg>