<?xml version="1.0" encoding="UTF-8"?>
<svg width="12px" height="12px" viewBox="0 0 12 12" version="1.1" xmlns="http://www.w3.org/2000/svg" xmlns:xlink="http://www.w3.org/1999/xlink">
    <!-- Generator: Sketch 52.6 (67491) - http://www.bohemiancoding.com/sketch -->
    <title>link-12</title>
    <desc>Created with Sketch.</desc>
    <g id="Style" stroke="none" stroke-width="1" fill="none" fill-rule="evenodd">
        <g id="0-UI-icons" transform="translate(-1052.000000, -494.000000)" fill="#000000" fill-rule="nonzero">
            <path d="M1059.42016,502.840322 C1059.61624,503.036405 1059.61624,503.354319 1059.42016,503.550402 L1058,504.970563 C1056.62742,506.343146 1054.40202,506.343146 1053.02944,504.970563 C1051.65685,503.59798 1051.65685,501.372583 1053.02944,500 L1054.4496,498.579839 C1054.64568,498.383756 1054.9636,498.383756 1055.15968,498.579839 C1055.35576,498.775923 1055.35576,499.093836 1055.15968,499.28992 L1053.73952,500.71008 C1052.7591,501.690497 1052.7591,503.280066 1053.73952,504.260482 C1054.71993,505.240899 1056.3095,505.240899 1057.28992,504.260482 L1058.71008,502.840322 C1058.90616,502.644238 1059.22408,502.644238 1059.42016,502.840322 Z M1060.84032,500.71008 L1062.26048,499.28992 C1063.2409,498.309503 1063.2409,496.719934 1062.26048,495.739518 C1061.28007,494.759101 1059.6905,494.759101 1058.71008,495.739518 L1057.28992,497.159678 C1057.09384,497.355762 1056.77592,497.355762 1056.57984,497.159678 C1056.38376,496.963595 1056.38376,496.645681 1056.57984,496.449598 L1058,495.029437 C1059.37258,493.656854 1061.59798,493.656854 1062.97056,495.029437 C1064.34315,496.40202 1064.34315,498.627417 1062.97056,500 L1061.5504,501.420161 C1061.35432,501.616244 1061.0364,501.616244 1060.84032,501.420161 C1060.64424,501.224077 1060.64424,500.906164 1060.84032,500.71008 Z M1055.86976,501.420161 L1059.42016,497.869759 C1059.61624,497.673676 1059.93416,497.673676 1060.13024,497.869759 C1060.32632,498.065842 1060.32632,498.383756 1060.13024,498.579839 L1056.57984,502.130241 C1056.38376,502.326324 1056.06584,502.326324 1055.86976,502.130241 C1055.67368,501.934158 1055.67368,501.616244 1055.86976,501.420161 Z" id="link-12"></path>
        </g>
    </g>
</svg>