<!-- Generated by IcoMoon.io -->
<svg version="1.1" xmlns="http://www.w3.org/2000/svg" width="45" height="32" viewBox="0 0 45 32">
<title>link</title>
<path d="M19.6 26.267v0c0 1.546-1.254 2.8-2.8 2.8h-3.733c-7.217 0-13.067-5.85-13.067-13.067s5.85-13.067 13.067-13.067h3.733c1.546 0 2.8 1.254 2.8 2.8v0c0 1.546-1.254 2.8-2.8 2.8h-3.733c-4.124 0-7.467 3.343-7.467 7.467s3.343 7.467 7.467 7.467h3.733c1.546 0 2.8 1.254 2.8 2.8zM28 23.467h3.733c4.124 0 7.467-3.343 7.467-7.467s-3.343-7.467-7.467-7.467h-3.733c-1.546 0-2.8-1.254-2.8-2.8s1.254-2.8 2.8-2.8h3.733c7.217 0 13.067 5.85 13.067 13.067s-5.85 13.067-13.067 13.067h-3.733c-1.546 0-2.8-1.254-2.8-2.8s1.254-2.8 2.8-2.8zM15.867 13.2h13.067c1.546 0 2.8 1.254 2.8 2.8s-1.254 2.8-2.8 2.8h-13.067c-1.546 0-2.8-1.254-2.8-2.8s1.254-2.8 2.8-2.8z"></path>
</svg>
