<!-- Generated by IcoMoon.io -->
<svg version="1.1" xmlns="http://www.w3.org/2000/svg" width="29" height="32" viewBox="0 0 29 32">
<title>links</title>
<path d="M11.742 1.623c-0.87 1.544-0.333 3.501 1.204 4.384 1.536 0.885 3.499 0.356 4.384-1.18s0.356-3.499-1.18-4.384c-0.74-0.434-1.622-0.554-2.451-0.332s-1.533 0.767-1.957 1.512zM28.602 24.552c0.744-1.247 0.557-2.838-0.456-3.878s-2.599-1.268-3.864-0.557c-1.265 0.712-1.894 2.185-1.532 3.591 0.216 0.824 0.754 1.527 1.493 1.951 1.512 0.885 3.454 0.391 4.36-1.108zM24.652 17.471c0.793-0.179 1.616-0.179 2.409 0v-8.406l-7.226-4.143c-0.237 0.781-0.649 1.498-1.204 2.095l6.021 3.444v7.009zM0.446 21.301c-0.427 0.737-0.542 1.614-0.32 2.437s0.761 1.523 1.501 1.947c0.737 0.427 1.614 0.542 2.437 0.32s1.523-0.761 1.947-1.501c0.578-0.991 0.582-2.216 0.010-3.211s-1.632-1.608-2.78-1.607c-1.153 0-2.218 0.616-2.794 1.614zM4.516 17.495v-7.033l5.901-3.468c-0.546-0.595-0.957-1.302-1.204-2.071l-7.105 4.143v8.43c0.793-0.178 1.616-0.178 2.409 0zM20.461 24.528l-5.925 3.42-5.925-3.42c-0.119 0.428-0.289 0.84-0.506 1.228-0.18 0.316-0.389 0.615-0.626 0.891l7.081 4.095 7.105-4.095c-0.552-0.61-0.963-1.333-1.204-2.12z"></path>
</svg>
