<?xml version="1.0" encoding="UTF-8"?>
<svg width="12px" height="40px" viewBox="0 0 12 40" version="1.1" xmlns="http://www.w3.org/2000/svg" xmlns:xlink="http://www.w3.org/1999/xlink">
    <!-- Generator: Sketch 61.2 (89653) - https://sketch.com -->
    <title>link-combined</title>
    <desc>Created with Sketch.</desc>
    <g id="$Others" stroke="none" stroke-width="1" fill="none" fill-rule="evenodd">
        <g id="Action-6-Conditons" transform="translate(-1152.000000, -473.000000)" fill="#A8A8A8">
            <g id="SettingPanel-L2" transform="translate(920.000000, 50.000000)">
                <g id="Relate-message" transform="translate(16.000000, 351.000000)">
                    <path d="M222,102 L222,112 L216,112 L216,111 L221,111 L221,102 L222,102 Z M219.161726,90.5817862 C219.358492,90.7785276 219.358492,91.0945249 219.161726,91.2912664 L217.745573,92.7132102 C216.761744,93.6969174 216.75876,95.2739202 217.742589,96.2576274 C218.726419,97.2413345 220.303618,97.2383509 221.287448,96.2546438 L222.706584,94.8356835 C222.90335,94.6389421 223.222371,94.6419256 223.419137,94.8386671 C223.615903,95.0354085 223.615903,95.3514058 223.419137,95.5481472 L222,96.9671075 C220.622639,98.3442975 218.410382,98.3442975 217.033021,96.9671075 C215.65566,95.5899175 215.65566,93.3779365 217.033021,92.0007465 L218.449174,90.5788026 C218.64594,90.3820612 218.96496,90.3850448 219.161726,90.5817862 Z M224.128705,89.8723061 C224.325471,90.0690475 224.325471,90.3850448 224.128705,90.5817862 L220.580863,94.1291869 C220.384097,94.3259284 220.068061,94.3259284 219.871295,94.1291869 C219.674529,93.9324455 219.671545,93.6134646 219.868311,93.4167232 L223.416153,89.8693225 C223.612919,89.6725811 223.931939,89.6755646 224.128705,89.8723061 Z M226.966979,87.0343855 C228.34434,88.4115755 228.34434,90.6235565 226.966979,92.0007465 L225.547842,93.4197068 C225.351076,93.6164482 225.03504,93.6164482 224.838274,93.4197068 C224.641508,93.2229654 224.638524,92.9039845 224.83529,92.7072431 L226.257411,91.2912664 C227.24124,90.3075592 227.24124,88.7275728 226.257411,87.7438656 C225.273581,86.7601585 223.693398,86.7601585 222.709568,87.7438656 L221.290432,89.1628259 C221.093666,89.3595674 220.777629,89.3595674 220.580863,89.1628259 C220.384097,88.9660845 220.381113,88.6471036 220.577879,88.4503622 L221.997016,87.0314019 C223.374377,85.6542119 225.589618,85.6571955 226.966979,87.0343855 Z M222,72 L222,82 L221,82 L221,73 L216,73 L216,72 L222,72 Z" id="link-combined"></path>
                </g>
            </g>
        </g>
    </g>
</svg>