<svg width="12" height="12" viewBox="0 0 12 12" fill="none" xmlns="http://www.w3.org/2000/svg">
<path fill-rule="evenodd" clip-rule="evenodd" d="M3.00318 2.40387L3.78122 3.18191C3.97648 3.37717 4.29306 3.37717 4.48832 3.18191C4.68358 2.98664 4.68358 2.67006 4.48832 2.4748L2.367 0.353478C2.17174 0.158216 1.85516 0.158216 1.6599 0.353478C1.46463 0.54874 1.46463 0.865322 1.6599 1.06058L2.29043 1.69112C1.67459 2.46096 1.30634 3.43747 1.30634 4.5C1.30634 5.01478 1.39278 5.50938 1.55194 5.97006C1.86315 5.94297 2.20346 5.89651 2.56627 5.82605C2.39872 5.41707 2.30634 4.96932 2.30634 4.5C2.30634 3.71381 2.56556 2.98817 3.00318 2.40387ZM5.80634 1C5.40942 1 5.02792 1.06607 4.67226 1.18782L3.90477 0.420332C4.4824 0.150633 5.12678 0 5.80634 0C7.28279 0 8.59317 0.711053 9.41371 1.8094C9.18357 2.07064 8.94923 2.31656 8.71186 2.54796C8.08331 1.61423 7.01656 1 5.80634 1ZM4.045 7.52517C3.60298 7.65104 3.17591 7.74832 2.7698 7.82109C3.45458 8.44755 4.33375 8.86502 5.30634 8.97254V11H3.80634C3.5302 11 3.30634 11.2239 3.30634 11.5C3.30634 11.7761 3.5302 12 3.80634 12H5.30634H6.30634H7.80634C8.08248 12 8.30634 11.7761 8.30634 11.5C8.30634 11.2239 8.08248 11 7.80634 11H6.30634V8.97254C8.55632 8.72381 10.3063 6.81628 10.3063 4.5C10.3063 4.27363 10.2896 4.05116 10.2574 3.83376C9.94309 4.14893 9.62327 4.44204 9.29988 4.7144C9.18911 6.54755 7.66734 8 5.80634 8C5.16415 8 4.56235 7.82704 4.045 7.52517ZM11.3938 1.21754C11.6216 1.37354 11.6799 1.68615 11.517 1.90913C8.06087 6.63991 3.26757 7.81169 0.80481 7.78056C0.52869 7.77707 0.326834 7.53271 0.352113 7.25773C0.377391 6.98275 0.619272 6.78107 0.895414 6.7815C3.09291 6.78494 7.48792 5.7096 10.6916 1.34363C10.855 1.121 11.1659 1.06154 11.3938 1.21754Z" fill="black"/>
</svg>
