<?xml version="1.0" encoding="UTF-8"?>
<svg width="16px" height="16px" viewBox="0 0 16 16" version="1.1" xmlns="http://www.w3.org/2000/svg" xmlns:xlink="http://www.w3.org/1999/xlink">
    <title>load-more-service</title>
    <g id="Icons" stroke="none" stroke-width="1" fill="none" fill-rule="evenodd">
        <g transform="translate(-220.000000, -462.000000)" fill="#000000" fill-rule="nonzero" id="load-more-service">
            <g transform="translate(220.000000, 462.000000)">
                <path d="M8.5,8 L8.499,12.999 L10.5,13 L8,16 L5.5,13 L7.499,12.999 L7.5,8 L8.5,8 Z M12.4602984,4.77766674 C17.9089321,5.41382049 16.5237002,12 11.9846764,12 L9.98839774,11.999 L9.98839774,10.968 L11.9846764,10.9682381 C13.6062721,10.9682381 14.8138377,9.9032092 15.0102386,8.56066779 C15.1982306,7.27560724 13.9572998,5.79750623 11.6197274,5.60960344 C12.151959,1.8237393 7.61599234,0.989707582 6.21818425,3.34761223 C4.68453081,2.42826688 2.65110506,3.62050686 2.87996337,5.79750623 C0.938799202,6.5 0.725850005,8.41515625 1.28614578,9.40938609 C1.8604618,10.4284945 3.16710715,10.9682381 4.92397267,10.9682381 L5.9806629,10.968 L5.9806629,11.999 L4.92397267,12 C3.26770016,12 1.82468581,11.5978053 0.920150789,10.5994115 C-0.378765873,9.16571323 -0.511796216,6.81408559 1.89795679,5.29354768 C1.55173335,2.9422507 4.03628459,1.3107196 5.93264463,2.198262 C7.44565257,-0.101715753 12.8801814,0.990524408 12.4602984,4.77766674 Z"></path>
            </g>
        </g>
    </g>
</svg>