<!-- Generated by IcoMoon.io -->
<svg version="1.1" xmlns="http://www.w3.org/2000/svg" width="1229" height="1024" viewBox="0 0 1229 1024">
<title></title>
<path d="M1093.803 463.531h-39.718c-10.675-98.284-53.758-190.413-122.518-261.001-68.664-70.588-158.389-114.825-254.269-125.884v-28.177c0-26.735-21.446-48.469-47.796-48.469s-47.796 21.734-47.796 48.469v28.273c-95.88 11.059-185.605 55.297-254.365 125.884s-111.844 162.621-122.518 260.905h-39.718c-26.35 0-47.796 21.734-47.796 48.469s21.446 48.469 47.796 48.469h39.718c10.675 98.284 53.758 190.317 122.518 260.905s158.485 114.921 254.365 125.884v28.273c0 26.735 21.446 48.469 47.796 48.469s47.796-21.734 47.796-48.469v-28.273c95.88-11.059 185.605-55.297 254.365-125.884s111.844-162.621 122.518-260.905h39.718c26.35 0 47.796-21.734 47.796-48.469s-21.542-48.469-47.892-48.469zM629.502 638.461c-26.35 0-47.796 21.734-47.796 48.469v162.428c-70.203-10.482-135.693-44.237-186.374-96.264-50.969-52.316-83.955-120.114-94.053-192.625h145.214c26.35 0 47.796-21.734 47.796-48.469s-21.446-48.469-47.796-48.469h-145.214c10.098-72.607 43.083-140.31 94.053-192.625 50.681-52.027 116.267-85.782 186.47-96.264v162.428c0 26.735 21.446 48.469 47.796 48.469s47.796-21.734 47.796-48.469v-162.524c70.203 10.482 135.693 44.237 186.374 96.264 50.969 52.316 83.955 120.114 94.053 192.625h-145.118c-26.35 0-47.796 21.734-47.796 48.469s21.446 48.469 47.796 48.469h145.214c-10.194 72.607-43.18 140.31-94.149 192.625-50.681 52.027-116.267 85.782-186.47 96.264v-162.332c0-26.735-21.446-48.469-47.796-48.469z"></path>
</svg>
