<?xml version="1.0" encoding="UTF-8"?>
<svg width="9px" height="12px" viewBox="0 0 9 12" version="1.1" xmlns="http://www.w3.org/2000/svg" xmlns:xlink="http://www.w3.org/1999/xlink">
    <!-- Generator: Sketch 63.1 (92452) - https://sketch.com -->
    <title>lock-12</title>
    <desc>Created with Sketch.</desc>
    <g id="Icons" stroke="none" stroke-width="1" fill="none" fill-rule="evenodd">
        <g transform="translate(-72.000000, -251.000000)" fill="#000000" fill-rule="nonzero" id="12*12">
            <g transform="translate(40.000000, 140.000000)">
                <g id="lock-12" transform="translate(32.000000, 111.000000)">
                    <path d="M4.5,0 C5.88071187,0 7,1.11928813 7,2.5 L7,4 L8,4 C8.55228475,4 9,4.44771525 9,5 L9,11 C9,11.5522847 8.55228475,12 8,12 L1,12 C0.44771525,12 0,11.5522847 0,11 L0,5 C0,4.44771525 0.44771525,4 1,4 L2,4 L2,2.5 C2,1.11928813 3.11928813,0 4.5,0 Z M8,5 L1,5 L1,11 L8,11 L8,5 Z M4.5,7 C5.05228475,7 5.5,7.44771525 5.5,8 C5.5,8.55228475 5.05228475,9 4.5,9 C3.94771525,9 3.5,8.55228475 3.5,8 C3.5,7.44771525 3.94771525,7 4.5,7 Z M4.5,1 C3.72030388,1 3.07955132,1.59488808 3.00686658,2.35553999 L3,2.5 L3,4 L6,4 L6,2.5 C6,1.72030388 5.40511192,1.07955132 4.64446001,1.00686658 L4.5,1 Z" id="lock"></path>
                </g>
            </g>
        </g>
    </g>
</svg>