<!-- Generated by IcoMoon.io -->
<svg version="1.1" xmlns="http://www.w3.org/2000/svg" width="24" height="32" viewBox="0 0 24 32">
<title>map-pin</title>
<path d="M10.942 1.099c2.56-0.213 5.227 0.64 7.36 2.133 3.2 2.24 5.12 6.187 4.587 10.027-0.32 2.24-1.28 4.373-2.347 6.4-2.027 3.733-4.693 7.040-7.467 10.24-0.32 0.32-0.533 0.64-0.853 0.853-0.427 0.427-1.173 0.32-1.493-0.107-2.027-2.24-3.947-4.587-5.653-7.040-1.493-2.133-2.88-4.373-3.84-6.827-0.533-1.28-0.96-2.667-0.96-4.053-0.107-2.667 0.747-5.44 2.56-7.573 1.92-2.453 4.907-3.84 8.107-4.053zM9.556 3.232c-2.027 0.427-3.947 1.6-5.227 3.2-1.28 1.493-2.027 3.413-2.027 5.44 0 1.813 0.64 3.52 1.28 5.12 1.067 2.24 2.347 4.267 3.84 6.187 1.28 1.813 2.667 3.52 4.16 5.12 2.56-2.88 5.013-5.973 6.933-9.387 0.96-1.707 1.813-3.413 2.24-5.333s0-3.84-0.853-5.547c-0.96-1.813-2.56-3.307-4.373-4.16-1.92-0.853-4.053-0.96-5.973-0.64zM11.049 5.579c1.6-0.213 3.2 0.32 4.373 1.387 1.173 0.96 1.813 2.453 1.92 3.947s-0.533 2.88-1.493 3.947c-1.067 1.173-2.56 1.813-4.16 1.813-1.493 0-3.093-0.64-4.16-1.707-0.96-0.853-1.6-2.347-1.6-3.733 0-1.493 0.533-2.987 1.6-3.947 0.96-1.067 2.133-1.6 3.52-1.707zM10.836 7.712c-1.28 0.213-2.347 1.28-2.667 2.56-0.32 1.173 0 2.347 0.747 3.2 1.173 1.28 3.2 1.6 4.693 0.64 1.387-0.853 2.027-2.667 1.387-4.16-0.533-1.707-2.453-2.667-4.16-2.24z"></path>
</svg>
