<svg width="13" height="12" viewBox="0 0 13 12" fill="none" xmlns="http://www.w3.org/2000/svg">
<path id="icon_mapService" fill-rule="evenodd" clip-rule="evenodd" d="M10.5 0L12.5 9C10.1481 8.41202 8.31476 8.34262 7 8.7918V11H10.5V12H7H6H2.5V11H6V9.2082C4.753 9.63423 3.0395 9.59375 0.859504 9.08678L0.5 9L2.5 0H10.5ZM8.87031 1H3.50512C3.58882 1.58006 3.71193 2.32475 4.11525 2.9911C4.40922 3.47679 4.86498 3.94051 5.618 4.24355C5.87536 3.4164 6.51725 2.70109 7.1784 2.14572C7.71929 1.69137 8.32284 1.30216 8.87031 1ZM9.8359 1.62507L10.9801 6.77433C10.7254 6.46118 10.3874 6.15591 9.99229 5.87591C9.12389 5.26055 7.92894 4.73159 6.58424 4.50714C6.76052 3.97642 7.20376 3.43041 7.8216 2.91142C8.47051 2.36634 9.23334 1.91781 9.8359 1.62507ZM3.25975 3.5089C3.11477 3.26938 2.99913 3.02392 2.90593 2.78183L1.692 8.243L1.75379 8.25572C3.585 8.61214 4.9684 8.57312 5.89417 8.17883L6.05279 8.10557C7.16616 7.54889 8.5906 7.3821 10.3325 7.57921C10.3098 7.54469 10.2843 7.5085 10.2556 7.47069C10.0706 7.22619 9.78727 6.95625 9.41412 6.69182C8.66842 6.16341 7.61414 5.69259 6.4178 5.4932C4.77583 5.21954 3.8154 4.42693 3.25975 3.5089Z" fill="black"/>
</svg>
