<svg xmlns="http://www.w3.org/2000/svg" xmlns:xlink="http://www.w3.org/1999/xlink" width="16px" height="16px" viewBox="0 0 16 16" version="1.1">
    <title>menu</title>
    <g id="List" stroke="none" stroke-width="1" fill="none" fill-rule="evenodd">
        <g id="Tools" transform="translate(-919.000000, -965.000000)">
            <g id="Group-7-Copy-10" transform="translate(795.000000, 945.000000)">
                <g id="menu" transform="translate(124.000000, 20.000000)">
                    <rect id="Rectangle" fill="#D8D8D8" opacity="0" x="0" y="0" width="16" height="16"/>
                    <path d="M15.5,12 C15.7761424,12 16,12.2238576 16,12.5 C16,12.7761424 15.7761424,13 15.5,13 L0.5,13 C0.223857625,13 -1.1365302e-13,12.7761424 -1.13686838e-13,12.5 C-1.13720655e-13,12.2238576 0.223857625,12 0.5,12 L15.5,12 Z M15.5,7 C15.7761424,7 16,7.22385763 16,7.5 C16,7.77614237 15.7761424,8 15.5,8 L0.5,8 C0.223857625,8 -1.1365302e-13,7.77614237 -1.13686838e-13,7.5 C-1.13720655e-13,7.22385763 0.223857625,7 0.5,7 L15.5,7 Z M15.5,2 C15.7761424,2 16,2.22385763 16,2.5 C16,2.77614237 15.7761424,3 15.5,3 L0.5,3 C0.223857625,3 -1.1365302e-13,2.77614237 -1.13686838e-13,2.5 C-1.13720655e-13,2.22385763 0.223857625,2 0.5,2 L15.5,2 Z" id="Combined-Shape" fill="#076FE5" fill-rule="nonzero"/>
                </g>
            </g>
        </g>
    </g>
</svg>