<?xml version="1.0" encoding="UTF-8"?>
<svg width="16px" height="16px" viewBox="0 0 16 16" version="1.1" xmlns="http://www.w3.org/2000/svg" xmlns:xlink="http://www.w3.org/1999/xlink">
    <!-- Generator: Sketch 55.1 (78136) - https://sketchapp.com -->
    <title>mode-edit</title>
    <desc>Created with Sketch.</desc>
    <g id="Style" stroke="none" stroke-width="1" fill-rule="evenodd">
        <g id="0-UI-icons" transform="translate(-403.000000, -356.000000)" fill-rule="nonzero">
            <g id="Top-navigation" transform="translate(43.000000, 309.000000)">
                <path d="M374.582655,54.3333333 L375.333333,54.3333333 C375.701523,54.3333333 376,54.6318102 376,55 C376,55.3681898 375.701523,55.6666667 375.333333,55.6666667 L374.582655,55.6666667 C374.286626,56.8168181 373.24256,57.6666667 372,57.6666667 C370.75744,57.6666667 369.713374,56.8168181 369.417345,55.6666667 L360.666667,55.6666667 C360.298477,55.6666667 360,55.3681898 360,55 C360,54.6318102 360.298477,54.3333333 360.666667,54.3333333 L369.417345,54.3333333 C369.713374,53.1831819 370.75744,52.3333333 372,52.3333333 C373.24256,52.3333333 374.286626,53.1831819 374.582655,54.3333333 Z M366.582655,59.6666667 L375.333333,59.6666667 C375.701523,59.6666667 376,59.9651435 376,60.3333333 C376,60.7015232 375.701523,61 375.333333,61 L366.582655,61 C366.286626,62.1501515 365.24256,63 364,63 C362.75744,63 361.713374,62.1501515 361.417345,61 L360.666667,61 C360.298477,61 360,60.7015232 360,60.3333333 C360,59.9651435 360.298477,59.6666667 360.666667,59.6666667 L361.417345,59.6666667 C361.713374,58.5165152 362.75744,57.6666667 364,57.6666667 C365.24256,57.6666667 366.286626,58.5165152 366.582655,59.6666667 Z M369.249322,49 L375.333333,49 C375.701523,49 376,49.2984768 376,49.6666667 C376,50.0348565 375.701523,50.3333333 375.333333,50.3333333 L369.249322,50.3333333 C368.953293,51.4834848 367.909226,52.3333333 366.666667,52.3333333 C365.424107,52.3333333 364.38004,51.4834848 364.084012,50.3333333 L360.666667,50.3333333 C360.298477,50.3333333 360,50.0348565 360,49.6666667 C360,49.2984768 360.298477,49 360.666667,49 L364.084012,49 C364.38004,47.8498485 365.424107,47 366.666667,47 C367.909226,47 368.953293,47.8498485 369.249322,49 Z M364,61.6666667 C364.73638,61.6666667 365.333333,61.069713 365.333333,60.3333333 C365.333333,59.5969537 364.73638,59 364,59 C363.26362,59 362.666667,59.5969537 362.666667,60.3333333 C362.666667,61.069713 363.26362,61.6666667 364,61.6666667 Z M372,56.3333333 C372.73638,56.3333333 373.333333,55.7363797 373.333333,55 C373.333333,54.2636203 372.73638,53.6666667 372,53.6666667 C371.26362,53.6666667 370.666667,54.2636203 370.666667,55 C370.666667,55.7363797 371.26362,56.3333333 372,56.3333333 Z M366.666667,51 C367.403046,51 368,50.4030463 368,49.6666667 C368,48.930287 367.403046,48.3333333 366.666667,48.3333333 C365.930287,48.3333333 365.333333,48.930287 365.333333,49.6666667 C365.333333,50.4030463 365.930287,51 366.666667,51 Z" id="mode-edit"></path>
            </g>
        </g>
    </g>
</svg>