<?xml version="1.0" encoding="UTF-8"?>
<svg width="16px" height="16px" viewBox="0 0 16 16" version="1.1" xmlns="http://www.w3.org/2000/svg" xmlns:xlink="http://www.w3.org/1999/xlink">
    <!-- Generator: Sketch 55.1 (78136) - https://sketchapp.com -->
    <title>mode-live</title>
    <desc>Created with Sketch.</desc>
    <g id="Style" stroke="none" stroke-width="1" fill-rule="evenodd">
        <g id="0-UI-icons" transform="translate(-437.000000, -356.000000)" fill-rule="nonzero">
            <g id="Top-navigation" transform="translate(43.000000, 309.000000)">
                <path d="M408.000459,51.0001311 C407.632257,51.0001311 407.33377,50.7016444 407.33377,50.3334425 L407.33377,49.666754 C407.33377,48.9303502 406.736797,48.333377 406.000393,48.333377 L396.666754,48.333377 C395.93035,48.333377 395.333377,48.9303502 395.333377,49.666754 L395.333377,59.0003932 C395.333377,59.736797 395.93035,60.3337702 396.666754,60.3337702 L397.333443,60.3337702 C397.701644,60.3337702 398.000131,60.6322568 398.000131,61.0004587 C398.000131,61.3686606 397.701644,61.6671472 397.333443,61.6671472 L396.666754,61.6671472 C395.193946,61.6671472 394,60.4732008 394,59.0003932 L394,49.666754 C394,48.1939465 395.193946,47 396.666754,47 L406.000393,47 C407.473201,47 408.667147,48.1939465 408.667147,49.666754 L408.667147,50.3334425 C408.667147,50.7016444 408.368661,51.0001311 408.000459,51.0001311 Z M406.128511,60.0713514 C405.349432,60.654845 404.381897,61.0004587 403.333639,61.0004587 C400.756226,61.0004587 398.66682,58.9110524 398.66682,56.3336391 C398.66682,53.7562259 400.756226,51.6668196 403.333639,51.6668196 C405.911052,51.6668196 408.000459,53.7562259 408.000459,56.3336391 C408.000459,57.3818969 407.654845,58.3494322 407.071351,59.1285114 L409.803158,61.8603185 C410.063517,62.1206766 410.063517,62.5428004 409.803158,62.8031585 C409.5428,63.0635165 409.120677,63.0635165 408.860319,62.8031585 L406.128511,60.0713514 Z M403.333639,59.6670817 C405.174649,59.6670817 406.667082,58.1746486 406.667082,56.3336391 C406.667082,54.4926297 405.174649,53.0001966 403.333639,53.0001966 C401.49263,53.0001966 400.000197,54.4926297 400.000197,56.3336391 C400.000197,58.1746486 401.49263,59.6670817 403.333639,59.6670817 Z" id="mode-live"></path>
            </g>
        </g>
    </g>
</svg>