<?xml version="1.0" encoding="UTF-8"?>
<svg width="12px" height="12px" viewBox="0 0 12 12" version="1.1" xmlns="http://www.w3.org/2000/svg" xmlns:xlink="http://www.w3.org/1999/xlink">
    <!-- Generator: Sketch 59.1 (86144) - https://sketch.com -->
    <title>more-12</title>
    <desc>Created with Sketch.</desc>
    <g id="Style" stroke="none" stroke-width="1" fill="none" fill-rule="evenodd">
        <g id="0-UI-icons" transform="translate(-136.000000, -251.000000)" fill-rule="nonzero">
            <g id="more-12" transform="translate(136.000000, 251.000000)">
                <path d="M9.5,6.25 C9.5,5.55964406 10.0596441,5 10.75,5 C11.4403559,5 12,5.55964406 12,6.25 C12,6.94035594 11.4403559,7.5 10.75,7.5 C10.0596441,7.5 9.5,6.94035594 9.5,6.25 Z M4.75,6.25 C4.75,5.55964406 5.30964406,5 6,5 C6.69035594,5 7.25,5.55964406 7.25,6.25 C7.25,6.94035594 6.69035594,7.5 6,7.5 C5.30964406,7.5 4.75,6.94035594 4.75,6.25 Z M0,6.25 C0,5.55964406 0.559644063,5 1.25,5 C1.94035594,5 2.5,5.55964406 2.5,6.25 C2.5,6.94035594 1.94035594,7.5 1.25,7.5 C0.559644063,7.5 0,6.94035594 0,6.25 Z" fill="#000000"></path>
                <rect id="Rectangle" x="0" y="0" width="12" height="12"></rect>
            </g>
        </g>
    </g>
</svg>