<?xml version="1.0" encoding="UTF-8"?>
<svg width="16px" height="16px" viewBox="0 0 16 16" version="1.1" xmlns="http://www.w3.org/2000/svg" xmlns:xlink="http://www.w3.org/1999/xlink">
    <g id="Style" stroke="none" stroke-width="1" fill-rule="evenodd">
        <g id="0-UI-icons" transform="translate(-460.000000, -802.000000)" fill-rule="nonzero">
            <path d="M462,803 C461.447715,803 461,803.447715 461,804 L461,816 C461,816.552285 461.447715,817 462,817 L474,817 C474.552285,817 475,816.552285 475,816 L475,804 C475,803.447715 474.552285,803 474,803 L462,803 Z M462,802 L474,802 C475.104569,802 476,802.895431 476,804 L476,816 C476,817.104569 475.104569,818 474,818 L462,818 C460.895431,818 460,817.104569 460,816 L460,804 C460,802.895431 460.895431,802 462,802 Z M468,814.9 C467.558172,814.9 467.2,814.541828 467.2,814.1 C467.2,813.658172 467.558172,813.3 468,813.3 C468.441828,813.3 468.8,813.658172 468.8,814.1 C468.8,814.541828 468.441828,814.9 468,814.9 Z M463.160189,809 L464.859246,810.685951 C465.046918,810.872176 465.046918,811.174106 464.859246,811.360331 C464.671573,811.546556 464.367295,811.546556 464.179623,811.360331 L462.140754,809.33719 C461.953082,809.150965 461.953082,808.849035 462.140754,808.66281 L464.179623,806.639669 C464.367295,806.453444 464.671573,806.453444 464.859246,806.639669 C465.046918,806.825894 465.046918,807.127824 464.859246,807.314049 L463.160189,809 Z M472.839811,809 L471.140754,807.314049 C470.953082,807.127824 470.953082,806.825894 471.140754,806.639669 C471.328427,806.453444 471.632705,806.453444 471.820377,806.639669 L473.859246,808.66281 C474.046918,808.849035 474.046918,809.150965 473.859246,809.33719 L471.820377,811.360331 C471.632705,811.546556 471.328427,811.546556 471.140754,811.360331 C470.953082,811.174106 470.953082,810.872176 471.140754,810.685951 L472.839811,809 Z M465.4,814.9 C464.958172,814.9 464.6,814.541828 464.6,814.1 C464.6,813.658172 464.958172,813.3 465.4,813.3 C465.841828,813.3 466.2,813.658172 466.2,814.1 C466.2,814.541828 465.841828,814.9 465.4,814.9 Z M470.6,814.9 C470.158172,814.9 469.8,814.541828 469.8,814.1 C469.8,813.658172 470.158172,813.3 470.6,813.3 C471.041828,813.3 471.4,813.658172 471.4,814.1 C471.4,814.541828 471.041828,814.9 470.6,814.9 Z" id="widget-navigator"></path>
        </g>
    </g>
</svg>