<?xml version="1.0" encoding="UTF-8"?>
<svg width="384px" height="292px" viewBox="0 0 384 292" version="1.1" xmlns="http://www.w3.org/2000/svg" xmlns:xlink="http://www.w3.org/1999/xlink">
    <!-- Generator: Sketch 61.2 (89653) - https://sketch.com -->
    <title>No item</title>
    <desc>Created with Sketch.</desc>
    <g id="$App-list+Template" stroke="none" stroke-width="1" fill="none" fill-rule="evenodd">
        <g id="A6-4-CreateNew-Empty" transform="translate(-528.000000, -361.000000)">
            <g id="No-item" transform="translate(528.000000, 361.000000)">
                <ellipse id="shadow" fill="#434343" cx="191.69928" cy="286" rx="90" ry="6"></ellipse>
                <path d="M351.69928,100 L342.69928,119 L356.69928,119 L343.69928,151 L361.69928,220 L21.6992796,220 L39.6992796,151 L26.6992796,119 L40.6992796,119 L31.6992796,100 L351.69928,100 Z" id="coat" fill="#6A6A6A"></path>
                <polygon id="page" fill="#525252" points="281.69928 260 101.69928 260 101.69928 0 211.69928 0 281.69928 70"></polygon>
                <path d="M39.6992796,140 C46.3266966,140 51.6992796,145.372583 51.6992796,152 C51.6992796,158.627417 46.3266966,164 39.6992796,164 C33.0718626,164 27.6992796,158.627417 27.6992796,152 C27.6992796,145.372583 33.0718626,140 39.6992796,140 Z M343.69928,140 C350.326697,140 355.69928,145.372583 355.69928,152 C355.69928,158.627417 350.326697,164 343.69928,164 C337.071863,164 331.69928,158.627417 331.69928,152 C331.69928,145.372583 337.071863,140 343.69928,140 Z" id="hands" fill="#A8A8A8"></path>
                <path d="M202.69928,114 C203.803849,114 204.69928,114.895431 204.69928,116 C204.69928,117.104569 203.803849,118 202.69928,118 L180.69928,118 C179.59471,118 178.69928,117.104569 178.69928,116 C178.69928,114.895431 179.59471,114 180.69928,114 L202.69928,114 Z M168.69928,90 C170.908419,90 172.69928,91.790861 172.69928,94 C172.69928,96.209139 170.908419,98 168.69928,98 C166.490141,98 164.69928,96.209139 164.69928,94 C164.69928,91.790861 166.490141,90 168.69928,90 Z M214.69928,90 C216.908419,90 218.69928,91.790861 218.69928,94 C218.69928,96.209139 216.908419,98 214.69928,98 C212.490141,98 210.69928,96.209139 210.69928,94 C210.69928,91.790861 212.490141,90 214.69928,90 Z" id="face" fill="#A8A8A8"></path>
                <polygon id="Path" fill="#6A6A6A" points="281.69928 70 211.69928 70 211.69928 0"></polygon>
                <path d="M15.2168205,114.263839 C15.7834981,115.820773 14.9807368,117.5423 13.4238031,118.108977 L4.02687689,121.529179 C2.46994317,122.095856 0.748416122,121.293095 0.181738594,119.736161 C-0.384938934,118.179227 0.417822314,116.4577 1.97475603,115.891023 L11.3716822,112.470821 C12.9286159,111.904144 14.650143,112.706905 15.2168205,114.263839 Z M368.181739,114.263839 C368.748416,112.706905 370.469943,111.904144 372.026877,112.470821 L372.026877,112.470821 L381.423803,115.891023 C382.980737,116.4577 383.783498,118.179227 383.216821,119.736161 C382.650143,121.293095 380.928616,122.095856 379.371682,121.529179 L379.371682,121.529179 L369.974756,118.108977 C368.417822,117.5423 367.615061,115.820773 368.181739,114.263839 Z M5.32424865,89.6746617 L13.5157691,95.410426 C14.8729846,96.3607586 15.2028285,98.2313959 14.2524959,99.5886115 C13.3021634,100.945827 11.431526,101.275671 10.0743105,100.325338 L1.88279003,94.589574 C0.525574484,93.6392414 0.19573065,91.7686041 1.14606321,90.4113885 C2.09639576,89.054173 3.9670331,88.7243291 5.32424865,89.6746617 Z M378.07431,89.6746617 C379.431526,88.7243291 381.302163,89.054173 382.252496,90.4113885 C383.202828,91.7686041 382.872985,93.6392414 381.515769,94.589574 L381.515769,94.589574 L373.324249,100.325338 C371.967033,101.275671 370.096396,100.945827 369.146063,99.5886115 C368.195731,98.2313959 368.525574,96.3607586 369.88279,95.410426 L369.88279,95.410426 Z M26.6992796,76 C28.3561338,76 29.6992796,77.3431458 29.6992796,79 L29.6992796,89 C29.6992796,90.6568542 28.3561338,92 26.6992796,92 C25.0424253,92 23.6992796,90.6568542 23.6992796,89 L23.6992796,79 C23.6992796,77.3431458 25.0424253,76 26.6992796,76 Z M356.69928,76 C358.356134,76 359.69928,77.3431458 359.69928,79 L359.69928,79 L359.69928,89 C359.69928,90.6568542 358.356134,92 356.69928,92 C355.042425,92 353.69928,90.6568542 353.69928,89 L353.69928,89 L353.69928,79 C353.69928,77.3431458 355.042425,76 356.69928,76 Z" id="Combined-Shape" fill="#6A6A6A"></path>
            </g>
        </g>
    </g>
</svg>