<?xml version="1.0" encoding="UTF-8"?>
<svg width="12px" height="12px" viewBox="0 0 12 12" version="1.1" xmlns="http://www.w3.org/2000/svg" xmlns:xlink="http://www.w3.org/1999/xlink">
    <!-- Generator: Sketch 59.1 (86144) - https://sketch.com -->
    <title>data-number</title>
    <desc>Created with Sketch.</desc>
    <g id="Style" stroke="none" stroke-width="1" fill="none" fill-rule="evenodd">
        <g id="0-UI-icons" transform="translate(-40.000000, -219.000000)" fill="#000000" fill-rule="nonzero">
            <g id="data-number" transform="translate(40.000000, 219.000000)">
                <path d="M1.60052562,4.2295082 L0.551905388,5.23770492 L0,4.55737705 L1.68725361,3.09836066 L2.54664915,3.09836066 L2.54664915,8.90163934 L1.60052562,8.90163934 L1.60052562,4.2295082 Z M3.6346912,7.86065574 L5.80289093,5.68032787 L6,5.47131148 L6,5.47131148 C6.06833148,5.39754061 6.13009171,5.31967254 6.18528252,5.23770492 C6.24047334,5.1557373 6.28646499,5.06967258 6.32325887,4.9795082 C6.36005275,4.88934381 6.37844941,4.79508246 6.37844941,4.69672131 C6.37844941,4.57650213 6.3561106,4.46994582 6.31143233,4.37704918 C6.26675405,4.28415254 6.20762192,4.20491836 6.13403417,4.13934426 C6.06044641,4.07377016 5.97503334,4.02322422 5.87779238,3.98770492 C5.78055142,3.95218561 5.67674168,3.93442623 5.56636005,3.93442623 C5.32982799,3.93442623 5.13534899,4.00546377 4.98291721,4.14754098 C4.83048544,4.2896182 4.73850213,4.48087311 4.70696452,4.72131148 L3.71353482,4.63934426 C3.73455989,4.37158336 3.79632012,4.13524693 3.89881735,3.93032787 C4.00131457,3.72540881 4.13403335,3.55464549 4.29697766,3.41803279 C4.45992197,3.28142008 4.64914478,3.17759598 4.86465177,3.10655738 C5.08015876,3.03551877 5.31405919,3 5.56636005,3 C5.81866092,3 6.05387539,3.03415266 6.27201051,3.10245902 C6.49014564,3.17076537 6.6806825,3.27185725 6.84362681,3.4057377 C7.00657112,3.53961816 7.13534775,3.71038148 7.22996058,3.91803279 C7.3245734,4.1256841 7.37187911,4.36885107 7.37187911,4.64754098 C7.37187911,5.01366303 7.29172222,5.32923365 7.13140604,5.5942623 C6.97108987,5.85929094 6.76478444,6.11202066 6.51248357,6.35245902 L4.78580815,8.01639344 L7.37187911,8.01639344 L7.37187911,8.90163934 L3.6346912,8.90163934 L3.6346912,7.86065574 Z M9.58738502,5.43442623 L9.83180026,5.43442623 C9.96846323,5.43442623 10.101182,5.42622959 10.2299606,5.40983607 C10.3587391,5.39344254 10.4743753,5.35792377 10.5768725,5.30327869 C10.6793698,5.24863361 10.7621547,5.16939943 10.82523,5.06557377 C10.8883052,4.96174811 10.9198423,4.82240525 10.9198423,4.64754098 C10.9198423,4.42349615 10.8462557,4.24043787 10.6990802,4.09836066 C10.5519047,3.95628344 10.3600537,3.8852459 10.1235217,3.8852459 C9.93429603,3.8852459 9.76478393,3.94125627 9.61498029,4.05327869 C9.46517665,4.16530111 9.35611072,4.32240336 9.28777924,4.52459016 L8.28646518,4.24590164 C8.34954039,4.03278582 8.43889561,3.84699533 8.55453351,3.68852459 C8.67017141,3.53005385 8.80683233,3.40027373 8.96452037,3.29918033 C9.12220841,3.19808693 9.29566265,3.12295107 9.4848883,3.07377049 C9.67411396,3.02458992 9.87122105,3 10.0762155,3 C10.3180038,3 10.5466481,3.03278656 10.7621551,3.09836066 C10.977662,3.16393475 11.1668849,3.26092832 11.3298292,3.38934426 C11.4927735,3.5177602 11.6228642,3.67896078 11.7201051,3.87295082 C11.8173461,4.06694086 11.8659658,4.29234844 11.8659658,4.54918033 C11.8659658,4.8606573 11.7818668,5.13797693 11.6136662,5.38114754 C11.4454657,5.62431816 11.2115652,5.78415262 10.911958,5.86065574 L10.911958,5.87704918 C11.2693842,5.93169426 11.5400779,6.09016262 11.7240473,6.35245902 C11.9080167,6.61475541 12,6.9262277 12,7.28688525 C12,7.56557516 11.9487522,7.81147434 11.8462549,8.02459016 C11.7437577,8.23770598 11.6057827,8.41666594 11.4323259,8.56147541 C11.258869,8.70628488 11.0578198,8.8155734 10.8291721,8.88934426 C10.6005245,8.96311512 10.3626819,9 10.1156373,9 C9.88436152,9 9.66622967,8.97404398 9.46123522,8.92213115 C9.25624076,8.87021832 9.07096009,8.78961803 8.90538765,8.68032787 C8.7398152,8.5710377 8.59658405,8.43032873 8.47568988,8.25819672 C8.35479572,8.08606471 8.2628124,7.87978262 8.19973719,7.63934426 L9.20893561,7.36065574 C9.26675456,7.6010941 9.36925025,7.78688459 9.51642576,7.91803279 C9.66360126,8.04918098 9.86333645,8.1147541 10.1156373,8.1147541 C10.2417878,8.1147541 10.3613661,8.09289639 10.4743758,8.04918033 C10.5873856,8.00546426 10.6872532,7.94398947 10.7739816,7.8647541 C10.86071,7.78551873 10.9290405,7.68989127 10.978975,7.57786885 C11.0289096,7.46584643 11.0538765,7.34153074 11.0538765,7.20491803 C11.0538765,7.01912475 11.0157691,6.86748693 10.9395532,6.75 C10.8633373,6.63251307 10.7660978,6.54235004 10.6478318,6.4795082 C10.5295658,6.41666635 10.396847,6.37431705 10.2496715,6.35245902 C10.102496,6.33060098 9.95795078,6.31967213 9.81603154,6.31967213 L9.58738502,6.31967213 L9.58738502,5.43442623 Z" id="123"></path>
            </g>
        </g>
    </g>
</svg>