<?xml version="1.0" encoding="UTF-8"?>
<svg width="14px" height="18px" viewBox="0 0 14 18" version="1.1" xmlns="http://www.w3.org/2000/svg" xmlns:xlink="http://www.w3.org/1999/xlink">
    <!-- Generator: Sketch 55.1 (78136) - https://sketchapp.com -->
    <title>page-toc-18</title>
    <desc>Created with Sketch.</desc>
    <g id="Style" stroke="none" stroke-width="1" fill-rule="evenodd">
        <g id="0-UI-icons" transform="translate(-103.000000, -519.000000)" fill-rule="nonzero">
            <g id="Left-navigation" transform="translate(42.000000, 424.000000)">
                <g id="page-toc-18" transform="translate(59.000000, 95.000000)">
                    <path d="M15.75,5.32842712 L15.75,16 C15.75,17.1045695 14.8545695,18 13.75,18 L4.25,18 C3.1454305,18 2.25,17.1045695 2.25,16 L2.25,2 C2.25,0.8954305 3.1454305,-5.12616439e-15 4.25,-5.32907052e-15 L10.4215729,-5.32907052e-15 C10.9520059,-5.8976286e-15 11.4607137,0.210713681 11.8357864,0.585786438 L15.1642136,3.91421356 C15.5392863,4.28928632 15.75,4.79799415 15.75,5.32842712 Z M10.5,1.5 L10.5,5.25 L14.25,5.25 L10.5,1.5 Z M8.25,7.5 C7.83578644,7.5 7.5,7.83578644 7.5,8.25 C7.5,8.66421356 7.83578644,9 8.25,9 L12.75,9 C13.1642136,9 13.5,8.66421356 13.5,8.25 C13.5,7.83578644 13.1642136,7.5 12.75,7.5 L8.25,7.5 Z M8.25,10.5 C7.83578644,10.5 7.5,10.8357864 7.5,11.25 C7.5,11.6642136 7.83578644,12 8.25,12 L12.75,12 C13.1642136,12 13.5,11.6642136 13.5,11.25 C13.5,10.8357864 13.1642136,10.5 12.75,10.5 L8.25,10.5 Z M8.25,13.5 C7.83578644,13.5 7.5,13.8357864 7.5,14.25 C7.5,14.6642136 7.83578644,15 8.25,15 L12.75,15 C13.1642136,15 13.5,14.6642136 13.5,14.25 C13.5,13.8357864 13.1642136,13.5 12.75,13.5 L8.25,13.5 Z M5.25,15 C5.66421356,15 6,14.6642136 6,14.25 C6,13.8357864 5.66421356,13.5 5.25,13.5 C4.83578644,13.5 4.5,13.8357864 4.5,14.25 C4.5,14.6642136 4.83578644,15 5.25,15 Z M5.25,12 C5.66421356,12 6,11.6642136 6,11.25 C6,10.8357864 5.66421356,10.5 5.25,10.5 C4.83578644,10.5 4.5,10.8357864 4.5,11.25 C4.5,11.6642136 4.83578644,12 5.25,12 Z M5.25,9 C5.66421356,9 6,8.66421356 6,8.25 C6,7.83578644 5.66421356,7.5 5.25,7.5 C4.83578644,7.5 4.5,7.83578644 4.5,8.25 C4.5,8.66421356 4.83578644,9 5.25,9 Z" id="Combined-Shape"></path>
                    <rect id="Rectangle-12" x="0" y="0" width="18" height="18"></rect>
                </g>
            </g>
        </g>
    </g>
</svg>