<?xml version="1.0" encoding="UTF-8"?>
<svg width="18px" height="18px" viewBox="0 0 18 18" version="1.1" xmlns="http://www.w3.org/2000/svg" xmlns:xlink="http://www.w3.org/1999/xlink">
    <!-- Generator: Sketch 52.6 (67491) - http://www.bohemiancoding.com/sketch -->
    <title>page</title>
    <desc>Created with Sketch.</desc>
    <g id="Style" stroke="none" stroke-width="1" fill="none" fill-rule="evenodd">
        <g id="0-UI-icons" transform="translate(-100.000000, -481.000000)" fill="#000000" fill-rule="nonzero">
            <path d="M115.85,486.328427 L115.85,497 C115.85,498.104569 114.954569,499 113.85,499 L104.35,499 C103.245431,499 102.35,498.104569 102.35,497 L102.35,483 C102.35,481.895431 103.245431,481 104.35,481 L110.521573,481 C111.052006,481 111.560714,481.210714 111.935786,481.585786 L115.264214,484.914214 C115.639286,485.289286 115.85,485.797994 115.85,486.328427 Z M110.6,482.5 L110.6,486.25 L114.35,486.25 L110.6,482.5 Z M108.35,488.5 C107.935786,488.5 107.6,488.835786 107.6,489.25 C107.6,489.664214 107.935786,490 108.35,490 L112.85,490 C113.264214,490 113.6,489.664214 113.6,489.25 C113.6,488.835786 113.264214,488.5 112.85,488.5 L108.35,488.5 Z M108.35,491.5 C107.935786,491.5 107.6,491.835786 107.6,492.25 C107.6,492.664214 107.935786,493 108.35,493 L112.85,493 C113.264214,493 113.6,492.664214 113.6,492.25 C113.6,491.835786 113.264214,491.5 112.85,491.5 L108.35,491.5 Z M108.35,494.5 C107.935786,494.5 107.6,494.835786 107.6,495.25 C107.6,495.664214 107.935786,496 108.35,496 L112.85,496 C113.264214,496 113.6,495.664214 113.6,495.25 C113.6,494.835786 113.264214,494.5 112.85,494.5 L108.35,494.5 Z M105.35,496 C105.764214,496 106.1,495.664214 106.1,495.25 C106.1,494.835786 105.764214,494.5 105.35,494.5 C104.935786,494.5 104.6,494.835786 104.6,495.25 C104.6,495.664214 104.935786,496 105.35,496 Z M105.35,493 C105.764214,493 106.1,492.664214 106.1,492.25 C106.1,491.835786 105.764214,491.5 105.35,491.5 C104.935786,491.5 104.6,491.835786 104.6,492.25 C104.6,492.664214 104.935786,493 105.35,493 Z M105.35,490 C105.764214,490 106.1,489.664214 106.1,489.25 C106.1,488.835786 105.764214,488.5 105.35,488.5 C104.935786,488.5 104.6,488.835786 104.6,489.25 C104.6,489.664214 104.935786,490 105.35,490 Z" id="page"></path>
        </g>
    </g>
</svg>