<?xml version="1.0" encoding="UTF-8"?>
<svg width="16px" height="16px" viewBox="0 0 16 16" version="1.1" xmlns="http://www.w3.org/2000/svg" xmlns:xlink="http://www.w3.org/1999/xlink">
    <!-- Generator: Sketch 55.2 (78181) - https://sketchapp.com -->
    <title>pending</title>
    <desc>Created with Sketch.</desc>
    <g id="Style" stroke="none" stroke-width="1" fill="none" fill-rule="evenodd">
        <g id="0-UI-icons" transform="translate(-697.000000, -1303.000000)" fill="#000000" fill-rule="nonzero">
            <path d="M700,1306.5 L706,1306.5 C706.276142,1306.5 706.5,1306.72386 706.5,1307 C706.5,1307.27614 706.276142,1307.5 706,1307.5 L700,1307.5 C699.723858,1307.5 699.5,1307.27614 699.5,1307 C699.5,1306.72386 699.723858,1306.5 700,1306.5 Z M700,1309.5 L706,1309.5 C706.276142,1309.5 706.5,1309.72386 706.5,1310 C706.5,1310.27614 706.276142,1310.5 706,1310.5 L700,1310.5 C699.723858,1310.5 699.5,1310.27614 699.5,1310 C699.5,1309.72386 699.723858,1309.5 700,1309.5 Z M700,1312.5 L702,1312.5 C702.276142,1312.5 702.5,1312.72386 702.5,1313 C702.5,1313.27614 702.276142,1313.5 702,1313.5 L700,1313.5 C699.723858,1313.5 699.5,1313.27614 699.5,1313 C699.5,1312.72386 699.723858,1312.5 700,1312.5 Z M708.5,1311.5 C708.223858,1311.5 708,1311.27614 708,1311 L708,1304 L698,1304 L698,1316 L701.5,1316 C701.776142,1316 702,1316.22386 702,1316.5 C702,1316.77614 701.776142,1317 701.5,1317 L698,1317 C697.447715,1317 697,1316.55228 697,1316 L697,1304 C697,1303.44772 697.447715,1303 698,1303 L708,1303 C708.552285,1303 709,1303.44772 709,1304 L709,1311 C709,1311.27614 708.776142,1311.5 708.5,1311.5 Z M711.196021,1313.92926 C711.86301,1314.3897 712.491991,1315.03677 713,1315.92579 C711.666667,1318.25912 709.5,1318.92579 708,1318.92579 C707.527122,1318.92579 706.987987,1318.85953 706.429594,1318.69569 L707.253634,1317.87165 C707.527873,1317.9116 707.781407,1317.92579 708,1317.92579 C709,1317.92579 710.731259,1317.62896 711.830723,1315.92579 C711.448542,1315.33375 710.990021,1314.91165 710.512411,1314.61287 L711.196021,1313.92926 Z M709.229723,1313.06713 L708.358552,1313.9383 C708.231253,1313.92945 708.111112,1313.92579 708,1313.92579 C707,1313.92579 705.268741,1314.22261 704.169277,1315.92579 C704.482647,1316.41123 704.847342,1316.78242 705.231801,1317.06505 L704.555949,1317.74091 C703.981727,1317.29643 703.444546,1316.70374 703,1315.92579 C704.333333,1313.59245 706.5,1312.92579 708,1312.92579 C708.375908,1312.92579 708.793685,1312.96766 709.229723,1313.06713 Z M711.217514,1312.48645 C711.412777,1312.68171 711.412777,1312.99829 711.217514,1313.19355 L705.56066,1318.85041 C705.365398,1319.04567 705.048816,1319.04567 704.853553,1318.85041 C704.658291,1318.65515 704.658291,1318.33856 704.853553,1318.1433 L710.510408,1312.48645 C710.70567,1312.29118 711.022252,1312.29118 711.217514,1312.48645 Z" id="pending"></path>
        </g>
    </g>
</svg>