<svg width="12" height="12" viewBox="0 0 12 12" fill="none" xmlns="http://www.w3.org/2000/svg">
<path fill-rule="evenodd" clip-rule="evenodd" d="M11 2C11 2 8.73352 1.83179 8 1.5C7.61523 1.32593 7.37177 1.02173 7.14032 0.732666C6.83679 0.353271 6.55396 0 6 0C5.44604 0 5.16321 0.353271 4.85968 0.732666C4.62823 1.02173 4.38477 1.32593 4 1.5C3.26648 1.83179 1 2 1 2C1 2 1.07697 5.84619 2 8C2.87024 10.0305 6 12 6 12C6 12 6.09943 11.9375 6.2677 11.8232C6.38574 11.7429 6.53766 11.6375 6.71295 11.51C7.23602 11.8213 7.84717 12 8.5 12C10.433 12 12 10.4331 12 8.5C12 7.36792 11.4625 6.36133 10.6289 5.72168C10.9627 3.86279 11 2 11 2ZM9.70123 5.21167C9.72467 5.06567 9.74646 4.91943 9.76666 4.77393C9.79901 4.54102 9.82733 4.30957 9.85205 4.08374C9.86993 3.92017 9.88574 3.76147 9.89966 3.60938C9.90845 3.51318 9.9165 3.41968 9.92389 3.3291C9.93622 3.17773 9.94666 3.03516 9.95538 2.90332C9.85687 2.89209 9.75421 2.87988 9.64923 2.86646C9.30811 2.82324 8.93103 2.76782 8.58417 2.69922C8.25806 2.63452 7.88269 2.54443 7.58783 2.41113C6.96179 2.12793 6.55597 1.61035 6.33875 1.33325C6.3089 1.29517 6.28265 1.26172 6.25989 1.23389C6.21118 1.17456 6.17181 1.12988 6.13989 1.09619C6.10529 1.05957 6.07947 1.03589 6.06018 1.021C6.01923 0.989258 6.00739 0.996094 6.00232 0.999023L6 1L5.99768 0.999023C5.99561 0.997803 5.99249 0.996094 5.98676 0.996338C5.97443 0.99707 5.95007 1.00781 5.89874 1.05713C5.86176 1.09253 5.81073 1.14795 5.74011 1.23389C5.71735 1.26172 5.6911 1.29517 5.66125 1.33325C5.44403 1.61035 5.03821 2.12793 4.41217 2.41113C4.11731 2.54443 3.74194 2.63452 3.41583 2.69922C3.27014 2.72803 3.1192 2.75439 2.96777 2.77856C2.85468 2.79663 2.74133 2.81348 2.62982 2.8291C2.5351 2.84253 2.44165 2.85498 2.35077 2.86646C2.24579 2.87988 2.14313 2.89209 2.04462 2.90332C2.06689 3.23853 2.09979 3.64355 2.14795 4.08374C2.28101 5.30029 2.51978 6.67432 2.91913 7.6062C3.25482 8.3894 4.09265 9.26147 4.96832 9.99463C5.16553 10.1597 5.35742 10.312 5.53564 10.4482L5.6543 10.5381C5.24249 9.96411 5 9.26025 5 8.5C5 6.56689 6.56702 5 8.5 5C8.92206 5 9.3266 5.07471 9.70123 5.21167ZM11 8.5C11 9.88062 9.88074 11 8.5 11C7.11926 11 6 9.88062 6 8.5C6 7.11938 7.11926 6 8.5 6C9.88074 6 11 7.11938 11 8.5Z" fill="black"/>
</svg>
