<?xml version="1.0" encoding="UTF-8"?>
<svg width="20px" height="20px" viewBox="0 0 20 20" version="1.1" xmlns="http://www.w3.org/2000/svg" xmlns:xlink="http://www.w3.org/1999/xlink">
    <!-- Generator: Sketch 52.6 (67491) - http://www.bohemiancoding.com/sketch -->
    <title>preview-20</title>
    <desc>Created with Sketch.</desc>
    <g id="Style" stroke="none" stroke-width="1" fill="none" fill-rule="evenodd">
        <g id="0-UI-icons" transform="translate(-208.000000, -392.000000)" fill="#000000" fill-rule="nonzero">
            <path d="M210,393 C209.447715,393 209,393.447715 209,394 L209,410 C209,410.552285 209.447715,411 210,411 L226,411 C226.552285,411 227,410.552285 227,410 L227,394 C227,393.447715 226.552285,393 226,393 L210,393 Z M210,392 L226,392 C227.104569,392 228,392.895431 228,394 L228,410 C228,411.104569 227.104569,412 226,412 L210,412 C208.895431,412 208,411.104569 208,410 L208,394 C208,392.895431 208.895431,392 210,392 Z M221.443926,402.272731 C221.602983,402.0719 221.560003,401.78699 221.347927,401.636367 L216.227982,398.000001 C216.144896,397.940991 216.043841,397.909092 215.939985,397.909092 C215.674891,397.909092 215.45999,398.112599 215.45999,398.363637 L215.45999,405.63637 C215.45999,405.734721 215.493675,405.830418 215.555989,405.909098 C215.715045,406.109929 216.015907,406.15063 216.227982,406.000007 L221.347927,402.363641 C221.384314,402.337798 221.416637,402.307189 221.443926,402.272731 Z M216.803976,406.72728 C216.16775,407.17915 215.265166,407.057046 214.787997,406.454553 C214.601055,406.218512 214.5,405.931421 214.5,405.63637 L214.5,398.363637 C214.5,397.610521 215.144703,397 215.939985,397 C216.251555,397 216.55472,397.095697 216.803976,397.272727 L221.923921,400.909094 C222.560147,401.360964 222.689087,402.215693 222.211918,402.818186 C222.130049,402.921558 222.03308,403.013385 221.923921,403.090914 L216.803976,406.72728 Z" id="preview-20"></path>
        </g>
    </g>
</svg>