<?xml version="1.0" encoding="UTF-8"?>
<svg width="16px" height="16px" viewBox="0 0 16 16" version="1.1" xmlns="http://www.w3.org/2000/svg" xmlns:xlink="http://www.w3.org/1999/xlink">
    <!-- Generator: Sketch 59.1 (86144) - https://sketch.com -->
    <title>preview</title>
    <desc>Created with Sketch.</desc>
    <g id="Style" stroke="none" stroke-width="1" fill="none" fill-rule="evenodd">
        <g id="0-UI-icons" transform="translate(-220.000000, -503.000000)" fill="#000000">
            <path d="M228,503 C232.418278,503 236,506.581722 236,511 C236,515.418278 232.418278,519 228,519 C223.581722,519 220,515.418278 220,511 C220,506.581722 223.581722,503 228,503 Z M226.10077,507.78829 C226.035063,507.886851 226,508.002655 226,508.12111 L226,513.87889 C226,514.210261 226.268629,514.47889 226.6,514.47889 C226.718455,514.47889 226.83426,514.443827 226.93282,514.37812 L231.251155,511.49923 C231.526872,511.315419 231.601376,510.942897 231.417565,510.66718 C231.373624,510.601269 231.317066,510.544711 231.251155,510.50077 L226.93282,507.62188 C226.657103,507.438069 226.284581,507.512573 226.10077,507.78829 Z" id="preview"></path>
        </g>
    </g>
</svg>