<?xml version="1.0" encoding="UTF-8"?>
<svg width="18px" height="16px" viewBox="0 0 18 16" version="1.1" xmlns="http://www.w3.org/2000/svg" xmlns:xlink="http://www.w3.org/1999/xlink">
    <defs>
        <path d="M7.08535285,1 C7.29127106,0.417403814 7.84689059,0 8.5,0 C9.15310941,0 9.70872894,0.417403814 9.91464715,1 L14,1 L14,2 L9.91464715,2 C9.70872894,2.58259619 9.15310941,3 8.5,3 C7.84689059,3 7.29127106,2.58259619 7.08535285,2 L0,2 L0,1 L7.08535285,1 Z" id="path-1"></path>
        <mask id="mask-2" maskContentUnits="userSpaceOnUse" maskUnits="objectBoundingBox" x="0" y="0" width="14" height="3" fill="white">
            <use xlink:href="#path-1"></use>
        </mask>
        <path d="M1.08535285,7 C1.29127106,6.41740381 1.84689059,6 2.5,6 C3.15310941,6 3.70872894,6.41740381 3.91464715,7 L8,7 L8,8 L3.91464715,8 C3.70872894,8.58259619 3.15310941,9 2.5,9 C1.84689059,9 1.29127106,8.58259619 1.08535285,8 L0,8 L0,7 L1.08535285,7 Z" id="path-3"></path>
        <mask id="mask-4" maskContentUnits="userSpaceOnUse" maskUnits="objectBoundingBox" x="0" y="0" width="8" height="3" fill="white">
            <use xlink:href="#path-3"></use>
        </mask>
        <path d="M3.08535285,14 L0,14 L0,13 L3.08535285,13 C3.29127106,12.4174038 3.84689059,12 4.5,12 C5.15310941,12 5.70872894,12.4174038 5.91464715,13 L8,13 L8,14 L5.91464715,14 C5.70872894,14.5825962 5.15310941,15 4.5,15 C3.84689059,15 3.29127106,14.5825962 3.08535285,14 Z" id="path-5"></path>
        <mask id="mask-6" maskContentUnits="userSpaceOnUse" maskUnits="objectBoundingBox" x="0" y="0" width="8" height="3" fill="white">
            <use xlink:href="#path-5"></use>
        </mask>
        <path d="M13.9870848,15.130101 C14.1260188,15.3600162 14.3848282,15.5 14.6565229,15.5 C14.7917912,15.5 14.9290426,15.4627827 15.0464502,15.3968485 L16.4906719,14.5516853 C16.6757096,14.4448302 16.8074274,14.2626647 16.8589172,14.0544278 C16.9121096,13.8393524 16.8724032,13.609554 16.7473189,13.4269756 L15.8019223,11.9210091 L16.9311035,11.5998651 C17.2371583,11.5017652 17.4538651,11.2493514 17.4933517,10.9434387 C17.5327834,10.6379054 17.3955973,10.3268833 17.1261114,10.1634853 L11.7185173,6.62869438 C11.4780037,6.46659134 11.155217,6.4550778 10.8974582,6.60586749 C10.6525679,6.74917499 10.5,7.01093747 10.5,7.29651291 L10.5,13.5629271 C10.5,13.8585646 10.6623668,14.122534 10.9166857,14.2639007 C11.2040634,14.4095264 11.5333481,14.3792822 11.7733245,14.190637 L12.8700796,13.3611655 L13.9870848,15.130101 Z M14.8873261,11.1414676 L14.2461773,11.3238131 L15.7996174,13.7974659 L14.7252241,14.4262656 L13.4251495,12.3672529 L13.1346703,11.9072381 L11.5,13.143649 L11.5,7.6804713 L16.2169334,10.7635492 L14.8873261,11.1414676 Z" id="path-7"></path>
        <mask id="mask-8" maskContentUnits="userSpaceOnUse" maskUnits="objectBoundingBox" x="0" y="0" width="7.00001735" height="9.00040694" fill="white">
            <use xlink:href="#path-7"></use>
        </mask>
    </defs>
    <g id="Builder" stroke="none" stroke-width="1" fill="none" fill-rule="evenodd" stroke-dasharray="4,4">
        <g id="icons" transform="translate(-169.000000, -61.000000)" fill="#F9F9F9" fill-rule="nonzero" stroke="#EBEDF0" stroke-width="2">
            <g id="property-setting-selected" transform="translate(169.000000, 61.000000)">
                <use id="Combined-Shape" mask="url(#mask-2)" xlink:href="#path-1"></use>
                <use id="Combined-Shape" mask="url(#mask-4)" xlink:href="#path-3"></use>
                <use id="Combined-Shape" mask="url(#mask-6)" xlink:href="#path-5"></use>
                <use id="Shape" mask="url(#mask-8)" xlink:href="#path-7"></use>
            </g>
        </g>
    </g>
</svg>