<?xml version="1.0" encoding="UTF-8"?>
<svg width="20px" height="20px" viewBox="0 0 20 20" version="1.1" xmlns="http://www.w3.org/2000/svg" xmlns:xlink="http://www.w3.org/1999/xlink">
    <!-- Generator: Sketch 52.6 (67491) - http://www.bohemiancoding.com/sketch -->
    <title>redo-20</title>
    <desc>Created with Sketch.</desc>
    <g id="Style" stroke="none" stroke-width="1" fill="none" fill-rule="evenodd">
        <g id="0-UI-icons" transform="translate(-135.000000, -392.000000)" fill="#000000" fill-rule="nonzero">
            <path d="M145.02366,402.104017 L145.02366,406.05423 C145.048658,406.075085 145.110005,406.080372 145.145007,406.054561 L153.977859,399.541139 L145.145007,393.027716 C145.131196,393.017532 145.109307,393.010402 145.084821,393.010402 C145.038208,393.010402 145.02366,393.024285 145.02366,393.010402 L145.02366,397.052009 L144.026026,397.052009 C140.94104,397.01188 138.505952,398.165999 136.875035,400.643684 C135.134809,403.287429 136.264304,407.366577 138.70204,410.122085 C137.170679,405.030216 139.277656,402.410611 144.026026,402.104017 L145.02366,402.104017 Z M144.026026,403.137779 C140.906963,403.314329 138.783232,404.528784 139.241597,408.033375 C139.325124,408.672007 139.646331,409.71886 140.205219,411.173933 C140.283846,411.378639 140.246999,411.610407 140.108902,411.77977 C139.898391,412.037941 139.521094,412.074394 139.266195,411.861177 C138.2515,411.012491 137.498114,410.229467 137.00604,409.512105 C135.060797,406.676268 134.143493,402.971907 136.044953,400.083214 C137.890103,397.280068 140.55046,395.917058 144.026026,395.994185 L144.026026,393.010402 C144.026026,392.452372 144.500064,392 145.084821,392 C145.319127,392 145.546816,392.074168 145.732219,392.210886 L154.588551,398.741623 C155.05126,399.082829 155.13651,399.717386 154.778963,400.158946 C154.723855,400.227003 154.659867,400.288066 154.588551,400.340654 L145.732219,406.871392 C145.26951,407.212597 144.60456,407.131244 144.247012,406.689683 C144.103746,406.512754 144.026026,406.295473 144.026026,406.071876 L144.026026,403.137779 Z" id="redo-20"></path>
        </g>
    </g>
</svg>