<?xml version="1.0" encoding="UTF-8"?>
<svg width="16px" height="16px" viewBox="0 0 16 16" version="1.1" xmlns="http://www.w3.org/2000/svg" xmlns:xlink="http://www.w3.org/1999/xlink">
    <!-- Generator: Sketch 59.1 (86144) - https://sketch.com -->
    <title>redo</title>
    <desc>Created with Sketch.</desc>
    <g id="Style" stroke="none" stroke-width="1" fill="none" fill-rule="evenodd">
        <g id="0-UI-icons" transform="translate(-148.000000, -503.000000)" fill="#000000">
            <path d="M157.518744,503 C157.005922,503 156.583261,503.386002 156.525497,503.883291 L156.51877,503.999901 L156.518027,506.033364 C150.944242,506.504234 148.113159,509.657778 148.024779,515.493998 L148.000409,515.99871 L148,516.731362 L148.007222,517.129929 C148.011125,517.272076 148.016751,517.423298 148.024779,517.582945 L148.063609,518.157828 C148.165657,518.757855 148.559243,519.023222 149.000384,518.998413 C149.349902,518.978756 149.609353,518.653537 149.694664,518.314046 L149.81282,517.858019 L149.936598,517.414432 C150.076397,516.935664 150.200062,516.592526 150.307594,516.385016 C151.790584,513.523216 154.127908,512.173284 156.5189,512.014976 L156.51877,513.591413 C156.51877,513.833612 156.606686,514.067579 156.766187,514.249852 C157.101885,514.633478 157.666001,514.698872 158.077702,514.420645 L158.177232,514.343915 L163.6585,509.548159 C163.69191,509.518927 163.723336,509.487503 163.752569,509.454096 C164.088267,509.070469 164.078204,508.502707 163.747768,508.131611 L163.6585,508.043155 L158.177232,503.247399 C157.994945,503.08791 157.760961,503 157.518744,503 Z" id="redo"></path>
        </g>
    </g>
</svg>