<?xml version="1.0" encoding="UTF-8"?>
<svg width="16px" height="16px" viewBox="0 0 16 16" version="1.1" xmlns="http://www.w3.org/2000/svg" xmlns:xlink="http://www.w3.org/1999/xlink">
    <!-- Generator: Sketch 52.6 (67491) - http://www.bohemiancoding.com/sketch -->
    <title>reset</title>
    <desc>Created with Sketch.</desc>
    <g id="Style" stroke="none" stroke-width="1" fill="none" fill-rule="evenodd">
        <g id="0-UI-icons" transform="translate(-524.000000, -1083.000000)" fill="#000000" fill-rule="nonzero">
            <path d="M537.443945,1086.58181 C536.157091,1085.00628 534.19646,1084 532.000196,1084 C528.454155,1084 525.522375,1086.62323 525.049003,1090.03026 C525.03208,1090.15206 525.017514,1090.31104 525.005305,1090.50722 L525.005318,1090.50722 C524.98808,1090.78419 524.758423,1091 524.480918,1091 C524.215373,1091 524.000106,1090.78473 524.000106,1090.51919 C524.000106,1090.51027 524.000354,1090.50135 524.00085,1090.49244 C524.011697,1090.29718 524.024647,1090.13846 524.03967,1090.01626 C524.525782,1086.06208 527.904476,1083 532.000196,1083 C534.481888,1083 536.700329,1084.12422 538.171544,1085.88993 L538.362898,1084.53352 C538.401579,1084.25933 538.655072,1084.06831 538.929303,1084.1067 C539.203165,1084.14505 539.39409,1084.39814 539.355747,1084.672 C539.355723,1084.67217 539.355698,1084.67234 539.355674,1084.67252 L538.914806,1087.7976 L535.885425,1087.37346 C535.612205,1087.33521 535.421727,1087.08271 535.45998,1086.80949 C535.460004,1086.80932 535.460029,1086.80915 535.460053,1086.80897 C535.498644,1086.53543 535.751542,1086.34485 536.025131,1086.38316 L537.443945,1086.58181 Z M525.935582,1096.23554 L525.772558,1097.558 C525.738679,1097.83282 525.488557,1098.02824 525.213701,1097.99462 C524.939186,1097.96105 524.743863,1097.7113 524.777436,1097.43678 C524.777455,1097.43662 524.777475,1097.43646 524.777494,1097.4363 L525.163617,1094.30406 L528.199994,1094.6754 C528.473856,1094.70889 528.668714,1094.95805 528.635222,1095.23191 C528.635202,1095.23207 528.635183,1095.23223 528.635163,1095.23239 C528.601365,1095.50656 528.351838,1095.70151 528.077635,1095.66798 L526.615153,1095.48912 C527.902519,1097.02386 529.83707,1098 532.000196,1098 C535.535497,1098 538.46025,1095.39264 538.947021,1092.00068 C538.965508,1091.87185 538.981358,1091.70258 538.994571,1091.49287 C539.012033,1091.21579 539.241847,1091 539.519474,1091 C539.784808,1091 539.999904,1091.2151 539.999904,1091.48043 C539.999904,1091.48944 539.999651,1091.49844 539.999144,1091.50743 L539.999162,1091.50743 C539.987465,1091.71521 539.973466,1091.88348 539.957167,1092.01224 C539.458362,1095.95262 536.08607,1099 532.000196,1099 C529.577802,1099 527.406229,1097.92886 525.935582,1096.23554 Z" id="reset"></path>
        </g>
    </g>
</svg>