<!-- Generated by IcoMoon.io -->
<svg version="1.1" xmlns="http://www.w3.org/2000/svg" width="35" height="32" viewBox="0 0 35 32">
<title>rss</title>
<path d="M34.892 31.969c0-17.619-14.333-31.952-31.95-31.952v4.26c15.268 0 27.69 12.422 27.69 27.692h4.26z"></path>
<path d="M19.982 31.969h4.26c0-11.747-9.555-21.302-21.3-21.302v4.26c9.395 0 17.040 7.645 17.040 17.042z"></path>
<path d="M2.942 27.707c0 1.522 0.812 2.928 2.13 3.689s2.942 0.761 4.26 0c1.318-0.761 2.13-2.167 2.13-3.689s-0.812-2.928-2.13-3.689c-1.318-0.761-2.942-0.761-4.26 0s-2.13 2.167-2.13 3.689z"></path>
</svg>
