<?xml version="1.0" encoding="UTF-8"?>
<svg width="16px" height="16px" viewBox="0 0 16 16" version="1.1" xmlns="http://www.w3.org/2000/svg" xmlns:xlink="http://www.w3.org/1999/xlink">
    <!-- Generator: Sketch 59.1 (86144) - https://sketch.com -->
    <title>save</title>
    <desc>Created with Sketch.</desc>
    <g id="Style" stroke="none" stroke-width="1" fill="none" fill-rule="evenodd">
        <g id="0-UI-icons" transform="translate(-184.000000, -503.000000)" fill="#000000">
            <path d="M195.585786,503 C195.851003,503 196.105357,503.105357 196.292893,503.292893 L199.707107,506.707107 C199.894643,506.894643 200,507.148997 200,507.414214 L200,517 C200,518.104569 199.104569,519 198,519 L186,519 C184.895431,519 184,518.104569 184,517 L184,505 C184,503.895431 184.895431,503 186,503 L195.585786,503 Z M192,511 C190.343146,511 189,512.343146 189,514 C189,515.656854 190.343146,517 192,517 C193.656854,517 195,515.656854 195,514 C195,512.343146 193.656854,511 192,511 Z M194,505 L187,505 C186.447715,505 186,505.447715 186,506 L186,506 L186,508 C186,508.552285 186.447715,509 187,509 L187,509 L194,509 C194.552285,509 195,508.552285 195,508 L195,508 L195,506 C195,505.447715 194.552285,505 194,505 L194,505 Z" id="save"></path>
        </g>
    </g>
</svg>