<?xml version="1.0" encoding="UTF-8"?>
<svg width="20px" height="20px" viewBox="0 0 20 20" version="1.1" xmlns="http://www.w3.org/2000/svg" xmlns:xlink="http://www.w3.org/1999/xlink">
    <!-- Generator: Sketch 52.6 (67491) - http://www.bohemiancoding.com/sketch -->
    <title>save-20</title>
    <desc>Created with Sketch.</desc>
    <g id="Style" stroke="none" stroke-width="1" fill="none" fill-rule="evenodd">
        <g id="0-UI-icons" transform="translate(-170.000000, -392.000000)" fill="#000000" fill-rule="nonzero">
            <path d="M186,393 L186,399 C186,400.104569 185.104569,401 184,401 L176,401 C174.895431,401 174,400.104569 174,399 L174,393 L172,393 C171.447715,393 171,393.447715 171,394 L171,410 C171,410.552285 171.447715,411 172,411 L188,411 C188.552285,411 189,410.552285 189,410 L189,394 C189,393.447715 188.552285,393 188,393 L186,393 Z M172,392 L188,392 C189.104569,392 190,392.895431 190,394 L190,410 C190,411.104569 189.104569,412 188,412 L172,412 C170.895431,412 170,411.104569 170,410 L170,394 C170,392.895431 170.895431,392 172,392 Z M175,393 L175,399 C175,399.552285 175.447715,400 176,400 L184,400 C184.552285,400 185,399.552285 185,399 L185,393 L175,393 Z M182,393 L183,393 L183,397.5 C183,397.776142 182.776142,398 182.5,398 C182.223858,398 182,397.776142 182,397.5 L182,393 Z" id="save-20"></path>
        </g>
    </g>
</svg>