<?xml version="1.0" encoding="UTF-8"?>
<svg width="24px" height="24px" viewBox="0 0 24 24" version="1.1" xmlns="http://www.w3.org/2000/svg" xmlns:xlink="http://www.w3.org/1999/xlink">
    <!-- Generator: Sketch 52.6 (67491) - http://www.bohemiancoding.com/sketch -->
    <title>search-24</title>
    <desc>Created with Sketch.</desc>
    <g id="Style" stroke="none" stroke-width="1" fill="none" fill-rule="evenodd">
        <g id="0-UI-icons" transform="translate(-901.000000, -222.000000)" fill="#000000" fill-rule="nonzero">
            <path d="M911,240 C915.418278,240 919,236.418278 919,232 C919,227.581722 915.418278,224 911,224 C906.581722,224 903,227.581722 903,232 C903,236.418278 906.581722,240 911,240 Z M911,242 C905.477153,242 901,237.522847 901,232 C901,226.477153 905.477153,222 911,222 C916.522847,222 921,226.477153 921,232 C921,237.522847 916.522847,242 911,242 Z M919.281509,240.281509 C919.656854,239.906164 920.265409,239.906164 920.640754,240.281509 L924.718491,244.359246 C925.093836,244.734591 925.093836,245.343146 924.718491,245.718491 C924.343146,246.093836 923.734591,246.093836 923.359246,245.718491 L919.281509,241.640754 C918.906164,241.265409 918.906164,240.656854 919.281509,240.281509 Z" id="search-24"></path>
        </g>
    </g>
</svg>