<?xml version="1.0" encoding="UTF-8"?>
<svg width="16px" height="16px" viewBox="0 0 16 16" version="1.1" xmlns="http://www.w3.org/2000/svg" xmlns:xlink="http://www.w3.org/1999/xlink">
    <!-- Generator: Sketch 59.1 (86144) - https://sketch.com -->
    <title>search-16</title>
    <desc>Created with Sketch.</desc>
    <g id="Style" stroke="none" stroke-width="1" fill="none" fill-rule="evenodd">
        <g id="0-UI-icons" transform="translate(-40.000000, -539.000000)" fill="#000000">
            <path d="M47,540 C43.6862915,540 41,542.686292 41,546 C41,549.313708 43.6862915,552 47,552 C50.3137085,552 53,549.313708 53,546 C53,542.686292 50.3137085,540 47,540 Z M47,553 C43.1340068,553 40,549.865993 40,546 C40,542.134007 43.1340068,539 47,539 C50.8659932,539 54,542.134007 54,546 C54,547.563453 53.4874367,549.007191 52.6211824,550.172341 L52.3990367,550.455682 L55.8044638,553.860331 C56.0651787,554.121046 56.0651787,554.543749 55.8044638,554.804464 C55.5437488,555.065179 55.1210462,555.065179 54.8603313,554.804464 L51.4556819,551.399037 C50.2426373,552.400132 48.691372,553 47,553 Z" id="search-16"></path>
        </g>
    </g>
</svg>