<!-- Generated by IcoMoon.io -->
<svg version="1.1" xmlns="http://www.w3.org/2000/svg" width="32" height="32" viewBox="0 0 32 32">
<title>search</title>
<path d="M24.132 22.112h2.020l4.041 4.041c1.116 1.116 1.116 2.925 0 4.041s-2.925 1.116-4.041 0l-4.041-4.041v-2.020l-1.066-1.066c-5.048 4.043-12.438 3.725-17.117-0.955-5.021-5.021-5.021-13.162 0-18.183s13.162-5.021 18.183 0c4.68 4.68 4.998 12.069 0.955 17.117l1.066 1.066zM19.081 19.081c3.347-3.347 3.347-8.774 0-12.122s-8.774-3.347-12.122 0c-3.347 3.347-3.347 8.774 0 12.122s8.774 3.347 12.122 0z"></path>
</svg>
