<?xml version="1.0" encoding="UTF-8"?>
<svg width="16px" height="16px" viewBox="0 0 16 16" version="1.1" xmlns="http://www.w3.org/2000/svg" xmlns:xlink="http://www.w3.org/1999/xlink">
    <!-- Generator: Sketch 55.2 (78181) - https://sketchapp.com -->
    <title>setting-live-view</title>
    <desc>Created with Sketch.</desc>
    <g id="Style" stroke="none" stroke-width="1" fill="none" fill-rule="evenodd">
        <g id="0-UI-icons" transform="translate(-478.000000, -356.000000)" fill="#000000">
            <g id="Top-navigation" transform="translate(43.000000, 309.000000)">
                <path d="M438.085353,61 C438.291271,60.4174038 438.846891,60 439.5,60 C440.153109,60 440.708729,60.4174038 440.914647,61 L441.5,61 C441.776142,61 442,61.2238576 442,61.5 C442,61.7761424 441.776142,62 441.5,62 L440.914647,62 C440.708729,62.5825962 440.153109,63 439.5,63 C438.846891,63 438.291271,62.5825962 438.085353,62 L435.5,62 C435.223858,62 435,61.7761424 435,61.5 C435,61.2238576 435.223858,61 435.5,61 L438.085353,61 Z M436.085353,54.5 C436.291271,53.9174038 436.846891,53.5 437.5,53.5 C438.153109,53.5 438.708729,53.9174038 438.914647,54.5 L441.5,54.5 C441.776142,54.5 442,54.7238576 442,55 C442,55.2761424 441.776142,55.5 441.5,55.5 L438.914647,55.5 C438.708729,56.0825962 438.153109,56.5 437.5,56.5 C436.846891,56.5 436.291271,56.0825962 436.085353,55.5 L435.5,55.5 C435.223858,55.5 435,55.2761424 435,55 C435,54.7238576 435.223858,54.5 435.5,54.5 L436.085353,54.5 Z M441.085353,48 C441.291271,47.4174038 441.846891,47 442.5,47 C443.153109,47 443.708729,47.4174038 443.914647,48 L448.5,48 C448.776142,48 449,48.2238576 449,48.5 C449,48.7761424 448.776142,49 448.5,49 L443.914647,49 C443.708729,49.5825962 443.153109,50 442.5,50 C441.846891,50 441.291271,49.5825962 441.085353,49 L435.5,49 C435.223858,49 435,48.7761424 435,48.5 C435,48.2238576 435.223858,48 435.5,48 L441.085353,48 Z M448.020935,61.8195569 L449.734829,60.8268261 L447.988824,57.7957498 L449.52289,56.9071801 L444.90887,54.4294297 L444.740865,59.6770504 L446.274931,58.7884807 L448.020935,61.8195569 Z M449.344173,58.1654048 L450.840977,60.7634709 C450.978607,61.0026158 450.898344,61.3075962 450.661704,61.4446637 L448.090864,62.9337604 C447.854225,63.0708274 447.550819,62.9880774 447.41319,62.7489325 L445.916386,60.1508664 L444.506643,60.9674253 C444.270003,61.1044928 443.966598,61.0217428 443.828966,60.7825993 C443.786171,60.7082341 443.763046,60.6241467 443.761821,60.538437 L443.904947,53.5502283 C443.901007,53.2745965 444.11971,53.0493522 444.393434,53.0470847 C444.484204,53.0463944 444.57359,53.0707733 444.651841,53.1176083 L450.755989,56.4872376 C450.991959,56.6284716 451.070751,56.9348542 450.931977,57.1715624 C450.888824,57.2451685 450.827501,57.3062237 450.753916,57.3488458 L449.344173,58.1654048 Z" id="setting-live-view"></path>
            </g>
        </g>
    </g>
</svg>