<?xml version="1.0" encoding="UTF-8"?>
<svg width="12px" height="12px" viewBox="0 0 12 12" version="1.1" xmlns="http://www.w3.org/2000/svg" xmlns:xlink="http://www.w3.org/1999/xlink">
    <!-- Generator: Sketch 61 (89581) - https://sketch.com -->
    <title>settings-12</title>
    <desc>Created with Sketch.</desc>
    <g id="Components" stroke="none" stroke-width="1" fill="none" fill-rule="evenodd">
        <g id="$0-UI-icons" transform="translate(-232.000000, -219.000000)" fill="#000000" fill-rule="nonzero">
            <path d="M239.185482,219 C239.290412,219 239.380344,219.118133 239.416753,219.240499 L239.430318,219.301508 L239.675155,220.869347 C239.968959,221.01407 240.262763,221.158794 240.525227,221.334392 L240.71571,221.472362 L242.245939,220.869347 C242.398962,220.819095 242.509478,220.852596 242.577488,220.900056 L242.613193,220.929648 L243.837376,223.040201 C243.888384,223.140704 243.896885,223.241206 243.827458,223.341709 L243.776167,223.40201 L242.490775,224.427136 C242.551984,224.60804 242.551984,224.788945 242.551984,225.030151 C242.551984,225.211055 242.517554,225.35804 242.500339,225.496545 L242.490775,225.633166 L243.898585,226.59799 C244.003515,226.649677 244.018505,226.78997 243.982101,226.904947 L243.959795,226.959799 L242.735612,229.070352 C242.683147,229.173726 242.540742,229.232797 242.424034,229.20959 L242.368357,229.190955 L240.838128,228.58794 C240.593292,228.780905 240.309282,228.935276 240.017436,229.08193 L239.797573,229.190955 L239.552737,230.758794 C239.552737,230.862168 239.417827,230.965542 239.30219,230.992968 L239.246691,231 L236.798325,231 C236.64093,231 236.528506,230.911394 236.499596,230.810129 L236.247443,229.190955 C235.953639,229.046231 235.659835,228.901508 235.397371,228.72591 L235.206888,228.58794 L233.676659,229.190955 C233.523637,229.241206 233.41312,229.207705 233.34511,229.160246 L233.309405,229.130653 L232.085222,227.020101 C232.034214,226.919598 232.025713,226.819095 232.09514,226.718593 L232.146431,226.658291 L233.431823,225.633166 C233.370614,225.452261 233.370614,225.271357 233.370614,225.030151 C233.370614,224.849246 233.405044,224.702261 233.422259,224.563756 L233.431823,224.427136 L232.146431,223.462312 C232.041501,223.358938 231.981541,223.21126 232.005097,223.133202 L233.248195,220.98995 C233.350211,220.889447 233.452226,220.830821 233.589663,220.848967 L233.676659,220.869347 L235.145679,221.472362 L235.564839,221.190633 C235.699989,221.101869 235.83318,221.020824 235.972247,220.955216 L236.186234,220.869347 L236.431071,219.241206 C236.431071,219.137832 236.565981,219.034458 236.681618,219.007032 L236.737116,219 L239.185482,219 Z M238.527,220 L237.327,220 L237.083509,221.62723 L236.498232,221.819429 C236.418347,221.845663 236.325484,221.892422 236.197129,221.972892 L235.694645,222.308206 L235.253827,222.597727 L233.815,222.005 L233.225,223.022 L234.431823,223.927378 L234.431823,224.427136 C234.431823,224.515339 234.428859,224.574468 234.419069,224.655165 L234.374562,224.96544 C234.371693,224.991721 234.370614,225.011268 234.370614,225.030151 L234.375862,225.29071 L234.380506,225.316938 L234.60399,225.977416 L233.258,227.05 L233.839,228.051 L235.374713,227.446961 L235.825885,227.802547 C235.986608,227.929218 236.159133,228.029417 236.537438,228.21856 L237.15532,228.523424 L237.385,229.999 L238.659,229.999 L238.889696,228.523424 L239.640175,228.151575 C239.846357,228.046131 239.981628,227.969796 240.093345,227.89439 L240.219131,227.802547 L240.670303,227.446961 L242.176,228.042 L242.763,227.032 L241.490775,226.160135 L241.491906,225.552778 L241.499968,225.436385 L241.548036,225.094861 L241.551086,225.059732 L241.551086,225.059732 L241.55113,224.880144 L241.548074,224.781912 L241.543527,224.747637 L241.318608,224.082885 L242.664,223.01 L242.083,222.008 L240.547885,222.613341 L240.096713,222.257755 L239.970868,222.165882 C239.836632,222.075309 239.667953,221.983134 239.381417,221.839884 L238.767278,221.536877 L238.527,220 Z M238,222.75 C239.242641,222.75 240.25,223.757359 240.25,225 C240.25,226.242641 239.242641,227.25 238,227.25 C236.757359,227.25 235.75,226.242641 235.75,225 C235.75,223.757359 236.757359,222.75 238,222.75 Z M238,223.75 C237.309644,223.75 236.75,224.309644 236.75,225 C236.75,225.690356 237.309644,226.25 238,226.25 C238.690356,226.25 239.25,225.690356 239.25,225 C239.25,224.309644 238.690356,223.75 238,223.75 Z" id="settings-12"></path>
        </g>
    </g>
</svg>