<?xml version="1.0" encoding="UTF-8"?>
<svg width="18px" height="18px" viewBox="0 0 18 18" version="1.1" xmlns="http://www.w3.org/2000/svg" xmlns:xlink="http://www.w3.org/1999/xlink">
    <!-- Generator: Sketch 55.1 (78136) - https://sketchapp.com -->
    <title>setting-18</title>
    <desc>Created with Sketch.</desc>
    <g id="Style" stroke="none" stroke-width="1" fill-rule="evenodd">
        <g id="0-UI-icons" transform="translate(-215.000000, -519.000000)" fill-rule="nonzero">
            <g id="Left-navigation" transform="translate(42.000000, 424.000000)">
                <path d="M178.650009,97.1103265 C180.417315,95.3430204 182.538718,94.6857454 185.014218,95.1385017 L185.014215,95.1385154 C185.505906,95.2284432 185.8316,95.6999383 185.741672,96.1916294 C185.70861,96.3724009 185.621301,96.5388248 185.491356,96.6687699 L181.849904,100.310222 C181.496453,100.663673 181.496453,101.236729 181.849904,101.59018 L184.40982,104.150096 C184.763271,104.503547 185.336327,104.503547 185.689778,104.150096 L189.331213,100.508652 C189.684666,100.155199 190.257727,100.155199 190.61118,100.508652 C190.741129,100.638601 190.82844,100.805029 190.861503,100.985806 C191.31425,103.461296 190.656974,105.582691 188.889673,107.349991 C186.741022,109.498643 183.577925,110.014569 180.942104,108.89777 L177.37005,112.469824 C176.663149,113.176725 175.517035,113.176725 174.810134,112.469824 L173.530176,111.189866 C172.823275,110.482965 172.823275,109.336851 173.530176,108.62995 L177.10223,105.057896 C175.985431,102.422075 176.501357,99.2589779 178.650009,97.1103265 Z" id="setting-18"></path>
            </g>
        </g>
    </g>
</svg>