<?xml version="1.0" encoding="UTF-8"?>
<svg width="16px" height="16px" viewBox="0 0 16 16" version="1.1" xmlns="http://www.w3.org/2000/svg" xmlns:xlink="http://www.w3.org/1999/xlink">
    <!-- Generator: Sketch 59.1 (86144) - https://sketch.com -->
    <title>shared-group</title>
    <desc>Created with Sketch.</desc>
    <g id="Style" stroke="none" stroke-width="1" fill="none" fill-rule="evenodd">
        <g id="$0-UI-icons" transform="translate(-293.000000, -611.000000)">
            <g id="shared-group" transform="translate(293.000000, 611.000000)">
                <path d="M8,2 C8,0.8954305 7.1045695,0 6,0 C4.8954305,0 4,0.8954305 4,2 C4,3.1045695 4.8954305,4 6,4 C7.1045695,4 8,3.1045695 8,2 Z M6,3 C5.44771525,3 5,2.55228475 5,2 C5,1.44771525 5.44771525,1 6,1 C6.55228475,1 7,1.44771525 7,2 C6.99944877,2.55205626 6.55205626,2.99944877 6,3 L6,3 Z M4,7 L5,7 L5,12 C4.44771525,12 4,11.5522847 4,11 L3,11 C2.44771525,11 2,10.5522847 2,10 L2,6 C2,4.8954305 2.8954305,4 4,4 L7.78,4 C7.51897186,4.29197608 7.31661998,4.63149266 7.184,5 L4,5 C3.44771525,5 3,5.44771525 3,6 L3,10 L4,10 L4,7 Z M12,6 C12,4.8954305 11.1045695,4 10,4 C8.8954305,4 8,4.8954305 8,6 C8,7.1045695 8.8954305,8 10,8 C11.1045695,8 12,7.1045695 12,6 Z M10,7 C9.44771525,7 9,6.55228475 9,6 C9,5.44771525 9.44771525,5 10,5 C10.5522847,5 11,5.44771525 11,6 C10.9994488,6.55205626 10.5520563,6.99944877 10,7 Z M12,8 L8,8 C6.8954305,8 6,8.8954305 6,10 L6,14 C6,14.5522847 6.44771525,15 7,15 L8,15 C8,15.5522847 8.44771525,16 9,16 L11,16 C11.5522847,16 12,15.5522847 12,15 L13,15 C13.5522847,15 14,14.5522847 14,14 L14,10 C14,8.8954305 13.1045695,8 12,8 Z M13,11 L13,14 L12,14 L12,11 L11,11 L11,15 L9,15 L9,11 L8,11 L8,14 L7,14 L7,10 C7,9.44771525 7.44771525,9 8,9 L12,9 C12.5522847,9 13,9.44771525 13,10 L13,11 Z" id="Shape" fill="#000000" fill-rule="nonzero"></path>
                <rect id="Rectangle" x="0" y="0" width="16" height="16"></rect>
            </g>
        </g>
    </g>
</svg>