<?xml version="1.0" encoding="UTF-8"?>
<svg width="16px" height="16px" viewBox="0 0 16 16" version="1.1" xmlns="http://www.w3.org/2000/svg" xmlns:xlink="http://www.w3.org/1999/xlink">
    <!-- Generator: Sketch 59.1 (86144) - https://sketch.com -->
    <title>shared-organization</title>
    <desc>Created with Sketch.</desc>
    <g id="Style" stroke="none" stroke-width="1" fill="none" fill-rule="evenodd">
        <g id="$0-UI-icons" transform="translate(-329.000000, -610.000000)">
            <g id="shared-organization" transform="translate(329.000000, 610.000000)">
                <path d="M9,3 L9,2 C9,1.44771525 8.55228475,1 8,1 L4,1 C3.44771525,1 3,1.44771525 3,2 L3,3 L3,3 C1.8954305,3 1,3.8954305 1,5 L1,14 C1,15.1045695 1.8954305,16 3,16 L8,16 L8,16 L8,12 L9,12 L9,16 L14,16 C15.1045695,16 16,15.1045695 16,14 L16,5 C16,3.8954305 15.1045695,3 14,3 L9,3 L9,3 Z M10,15 L10,12 C10,11.4477153 9.55228475,11 9,11 L8,11 C7.44771525,11 7,11.4477153 7,12 L7,15 L7,15 L3,15 C2.44771525,15 2,14.5522847 2,14 L2,5 C2,4.44771525 2.44771525,4 3,4 L4,4 L4,4 L4,2 L8,2 L8,4 L14,4 C14.5522847,4 15,4.44771525 15,5 L15,14 C15,14.5522847 14.5522847,15 14,15 L10,15 L10,15 Z M7,9 L10,9 L10,6 L7,6 L7,9 Z M8,7 L9,7 L9,8 L8,8 L8,7 Z M11,6 L11,9 L14,9 L14,6 L11,6 Z M13,8 L12,8 L12,7 L13,7 L13,8 Z M3,9 L6,9 L6,6 L3,6 L3,9 Z M4,7 L5,7 L5,8 L4,8 L4,7 Z" id="Shape" fill="#000000" fill-rule="nonzero"></path>
                <rect id="Rectangle" x="0" y="0" width="16" height="16"></rect>
            </g>
        </g>
    </g>
</svg>