<?xml version="1.0" encoding="UTF-8"?>
<svg width="16px" height="16px" viewBox="0 0 16 16" version="1.1" xmlns="http://www.w3.org/2000/svg" xmlns:xlink="http://www.w3.org/1999/xlink">
    <!-- Generator: Sketch 59.1 (86144) - https://sketch.com -->
    <title>shared-everyone</title>
    <desc>Created with Sketch.</desc>
    <g id="Style" stroke="none" stroke-width="1" fill="none" fill-rule="evenodd">
        <g id="$0-UI-icons" transform="translate(-257.000000, -611.000000)" fill="#000000" fill-rule="nonzero">
            <path d="M265,611 C260.581722,611 257,614.581722 257,619 C257,623.418278 260.581722,627 265,627 C269.418278,627 273,623.418278 273,619 C273.000265,616.878187 272.157496,614.843201 270.657147,613.342853 C269.156799,611.842504 267.121813,610.999735 265,611 Z M268.83,614.162 C268.897,614.402 268.84,614.632 268.557,614.632 C268.690091,614.481924 268.748818,614.280049 268.717,614.082 C268.756,614.109 268.797,614.137 268.829,614.162 L268.83,614.162 Z M268.458,613.212 L268.665,613.284 C268.510058,613.294178 268.36139,613.34906 268.237,613.442 C268.276435,613.338201 268.356662,613.255084 268.459,613.212 L268.458,613.212 Z M264.792,612.01 C265.004479,611.991022 265.218385,611.995045 265.43,612.022 L265.376,612.105 C265.253,612.101 264.836,612.078 264.723,612.095 C264.796,612.021 264.738,612.074 264.793,612.01 L264.792,612.01 Z M259.527,623.357 C259.379267,623.170802 259.241089,622.977219 259.113,622.777 C259.31327,622.901783 259.506869,623.036968 259.693,623.182 C259.630211,623.232778 259.574395,623.291619 259.527,623.357 L259.527,623.357 Z M267.133,625.667 C264.648409,626.464512 261.926465,625.810829 260.075,623.972 C260.072,623.902 260.075,623.892 260.134,623.85 C261.134,623.158 260.646,622.817 259.079,621.803 C258.956,621.719 258.9,621.671 258.889,621.638 C258.814,619.976 258.807,620.788 258.227,619.325 C258.169424,619.174712 258.094946,619.031459 258.005,618.898 C258.028377,617.146483 258.710678,615.468045 259.916,614.197 C260.532,614.205 260.85,614.343 261.092,613.724 C261.107,613.684 261.152,613.564 261.165,613.603 C261.865,613.643 261.758,614.078 262.683,612.703 C262.755484,612.592833 262.808584,612.471077 262.84,612.343 C263.04,612.278 263.245,612.224 263.453,612.177 C262.988,612.8 263.316,613.272 263.772,613.272 C263.913,613.272 264.503,612.942 264.842,612.885 C265.45,612.915 265.695,613.003 266.043,612.548 C266.125729,612.397661 266.226472,612.257964 266.343,612.132 C266.876742,612.236729 267.396311,612.403877 267.891,612.63 C267.383,613.018 267.669,613.026 267.331,613.468 C266.997,613.912 267.314,614.271 267.756,614.606 C267.655582,614.678085 267.561869,614.75908 267.476,614.848 C267.440297,614.718771 267.361646,614.605555 267.253,614.527 C267.234598,614.350486 267.146814,614.188516 267.008967,614.076738 C266.87112,613.96496 266.694508,613.912535 266.518,613.931 C266.268288,613.982726 266.078704,614.186882 266.045576,614.439735 C266.012448,614.692587 266.143041,614.938691 266.371,615.053 C266.380218,615.250482 266.490586,615.429264 266.663,615.526 C266.499,615.768 266.582,615.94 266.653,616.189 C266.601,616.189 266.363,616.12 266.279,616.12 C265.559,616.12 265.494,617.335 265.819,617.663 C265.029,618.343 265.01,618.458 264.902,618.68 C264.188796,618.945228 263.699365,619.606429 263.654,620.366 C263.654,620.776 263.404,620.726 263.337,621.048 C263.235,621.533 263.483,621.776 263.772,622.054 C264.092,622.365 263.924,622.641 264.4,623.027 C264.972,623.504 265.263,623.401 266.003,623.295 C266.426357,623.223449 266.861241,623.269809 267.26,623.429 C267.35,623.45 267.441,623.486 267.36,623.727 C267.224081,623.973804 267.279561,624.282071 267.493,624.466 C267.554454,624.511316 267.594301,624.580142 267.603,624.656 C267.653,625.295 267.406,625.13 267.133,625.666 L267.133,625.667 Z M267.516,616.757 L267.716,616.855 C267.789423,616.801476 267.882482,616.782499 267.971,616.803 C268.341,617.036 268.541,617.227 268.901,616.869 C269.021932,616.96921 269.130977,617.082952 269.226,617.208 C269.228036,617.423989 269.347351,617.621787 269.537458,617.724328 C269.727565,617.82687 269.958391,617.817933 270.14,617.701 C270.354,617.977 270.587,617.878 270.897,617.956 C270.937098,618.04699 270.966624,618.142279 270.985,618.24 C270.821374,618.316565 270.645159,618.362652 270.465,618.376 C270.351,618.346 270.234,618.251 270.115,618.251 C269.835872,618.171214 269.544227,618.329485 269.459,618.607 C269.190277,618.5405 268.947347,618.395716 268.761,618.191 C268.861,617.498 267.813,617.424 267.131,617.575 C267.151,617.55 267.239,617.415 267.22,617.39 C267.257147,617.347511 267.288734,617.300466 267.314,617.25 C267.441615,617.18391 267.550089,617.086111 267.629,616.966 L267.516,616.757 Z M266.52,616.979 C266.493932,617.022652 266.472483,617.068902 266.456,617.117 C266.456,617.062 266.458,617.015 266.461,616.97 L266.52,616.98 L266.52,616.979 Z M268.364,625.139 C268.488753,624.732476 268.397927,624.290407 268.123,623.966 C268.237685,623.702605 268.227706,623.401577 268.095828,623.146356 C267.963951,622.891135 267.724189,622.70884 267.443,622.65 C267.437,622.648 267.063,622.569 266.97,622.537 C265.918,622.235 264.99,623.024 264.705,622.053 C264.566729,621.755181 264.372155,621.48692 264.132,621.263 C264.514,620.839 264.369,620.639 264.465,620.228 C264.778,619.071 265.362,619.85 265.741,618.852 C265.758,618.81 266.375,618.288 266.509,618.087 C266.888,618.545 267.357,618.291 267.974,618.33 C268.107,619.1 269.524,619.842 270.095,619.093 C270.798,619.385 272.055,618.877 271.741,617.975 L271.741,617.976 C271.71969,617.857362 271.681996,617.742261 271.629,617.634 C271.452228,617.287446 271.081139,617.084636 270.694,617.123 C270.50275,616.939663 270.233139,616.862898 269.974,616.918 C269.719,616.364 269.071,615.83 268.486,616.185 C268.284646,616.032758 268.03098,615.966912 267.781,616.002 C267.665652,615.961249 267.54248,615.947563 267.421,615.962 C267.410307,615.929231 267.399307,615.896562 267.388,615.864 C267.419992,615.79552 267.441886,615.722763 267.453,615.648 C267.721962,615.650732 267.977063,615.528903 268.144,615.318 C269.323,616.026 270.326,614.055 269.104,613.383 C269.12,613.383 269.134,613.373 269.15,613.372 C271.073297,614.787955 272.141102,617.087439 271.981911,619.470433 C271.822721,621.853427 270.458547,623.990447 268.364,625.138 L268.364,625.139 Z" id="shared-everyone"></path>
        </g>
    </g>
</svg>