<?xml version="1.0" encoding="UTF-8"?>
<svg width="16px" height="16px" viewBox="0 0 16 16" version="1.1" xmlns="http://www.w3.org/2000/svg" xmlns:xlink="http://www.w3.org/1999/xlink">
    <!-- Generator: Sketch 59.1 (86144) - https://sketch.com -->
    <title>shared-no-one</title>
    <desc>Created with Sketch.</desc>
    <g id="Style" stroke="none" stroke-width="1" fill="none" fill-rule="evenodd">
        <g id="$0-UI-icons" transform="translate(-221.000000, -611.000000)" fill="#000000" fill-rule="nonzero">
            <g id="shared-no-one" transform="translate(221.000000, 611.000000)">
                <path d="M8,0 C10.209139,0 12,1.790861 12,4 L12,7 C13.1045695,7 14,7.8954305 14,9 L14,14 C14,15.1045695 13.1045695,16 12,16 L4,16 C2.8954305,16 2,15.1045695 2,14 L2,9 C2,7.8954305 2.8954305,7 4,7 L4,4 C4,1.790861 5.790861,0 8,0 Z M12,8 L4,8 C3.44771525,8 3,8.44771525 3,9 L3,14 C3,14.5522847 3.44771525,15 4,15 L12,15 C12.5522847,15 13,14.5522847 13,14 L13,9 C13,8.44771525 12.5522847,8 12,8 Z M8,9 L8,10 L9,10 L9,11 L8,11 L8,12 L9,12 L9,13 L8,13 L8,14 L7,14 L7,9 L8,9 Z M8,1 C6.34314575,1 5,2.34314575 5,4 L5,7 L6,7 L6,4 C6,2.8954305 6.8954305,2 8,2 C9.1045695,2 10,2.8954305 10,4 L10,7 L11,7 L11,4 C11,2.34314575 9.65685425,1 8,1 Z M8,3 C7.44771525,3 7,3.44771525 7,4 L7,7 L9,7 L9,4 C9,3.44771525 8.55228475,3 8,3 Z"></path>
            </g>
        </g>
    </g>
</svg>