<?xml version="1.0" encoding="UTF-8"?>
<svg width="16px" height="16px" viewBox="0 0 16 16" version="1.1" xmlns="http://www.w3.org/2000/svg" xmlns:xlink="http://www.w3.org/1999/xlink">
    <!-- Generator: Sketch 64 (93537) - https://sketch.com -->
    <title>ShowSelection-16</title>
    <desc>Created with Sketch.</desc>
    <g id="List" stroke="none" stroke-width="1" fill="none" fill-rule="evenodd">
        <g id="icons" transform="translate(-127.000000, -176.000000)">
            <g id="ShowSelection-16" transform="translate(127.000000, 176.000000)">
                <rect id="Rectangle" fill="#D8D8D8" opacity="0" x="0" y="0" width="16" height="16"></rect>
                <path d="M3.88043942,12.1391701 C4.03985353,12.3247303 4.03985353,12.6255828 3.88043942,12.811143 L2.23912115,14.7216597 C1.92029295,15.0927801 1.4033703,15.0927801 1.08454209,14.7216597 L0.119560576,13.5984081 C-0.0398535254,13.412848 -0.0398535254,13.1119955 0.119560576,12.9264353 C0.278974678,12.7408751 0.537436004,12.7408751 0.696850105,12.9264353 L1.66183162,14.0496869 L3.30314989,12.1391701 C3.462564,11.95361 3.72102532,11.95361 3.88043942,12.1391701 Z M15.5,13 C15.7761424,13 16,13.2238576 16,13.5 C16,13.7761424 15.7761424,14 15.5,14 L6.5,14 C6.22385763,14 6,13.7761424 6,13.5 C6,13.2238576 6.22385763,13 6.5,13 L15.5,13 Z M3.88043942,6.13917013 C4.03985353,6.32473031 4.03985353,6.6255828 3.88043942,6.81114298 L2.23912115,8.72165973 C1.92029295,9.09278009 1.4033703,9.09278009 1.08454209,8.72165973 L0.119560576,7.59840815 C-0.0398535254,7.41284797 -0.0398535254,7.11199547 0.119560576,6.9264353 C0.278974678,6.74087512 0.537436004,6.74087512 0.696850105,6.9264353 L1.66183162,8.04968688 L3.30314989,6.13917013 C3.462564,5.95360996 3.72102532,5.95360996 3.88043942,6.13917013 Z M15.5,7 C15.7761424,7 16,7.22385763 16,7.5 C16,7.77614237 15.7761424,8 15.5,8 L6.5,8 C6.22385763,8 6,7.77614237 6,7.5 C6,7.22385763 6.22385763,7 6.5,7 L15.5,7 Z M3.88043942,0.139170134 C4.03985353,0.324730312 4.03985353,0.625582804 3.88043942,0.811142983 L2.23912115,2.72165973 C1.92029295,3.09278009 1.4033703,3.09278009 1.08454209,2.72165973 L0.119560576,1.59840815 C-0.0398535254,1.41284797 -0.0398535254,1.11199547 0.119560576,0.926435296 C0.278974678,0.740875118 0.537436004,0.740875118 0.696850105,0.926435296 L1.66183162,2.04968688 L3.30314989,0.139170134 C3.462564,-0.0463900446 3.72102532,-0.0463900446 3.88043942,0.139170134 Z M15.5,1 C15.7761424,1 16,1.22385763 16,1.5 C16,1.77614237 15.7761424,2 15.5,2 L6.5,2 C6.22385763,2 6,1.77614237 6,1.5 C6,1.22385763 6.22385763,1 6.5,1 L15.5,1 Z" id="Combined-Shape" fill="#000000"></path>
            </g>
        </g>
    </g>
</svg>