<?xml version="1.0" encoding="UTF-8"?>
<svg width="16px" height="16px" viewBox="0 0 16 16" version="1.1" xmlns="http://www.w3.org/2000/svg" xmlns:xlink="http://www.w3.org/1999/xlink">
    <!-- Generator: Sketch 59.1 (86144) - https://sketch.com -->
    <title>snap-to-bottom</title>
    <desc>Created with Sketch.</desc>
    <g id="Style" stroke="none" stroke-width="1" fill="none" fill-rule="evenodd">
        <g id="$0-UI-icons" transform="translate(-76.000000, -804.000000)" fill="#000000" fill-rule="nonzero">
            <path d="M91.5,819 C91.7761424,819 92,819.223858 92,819.5 C92,819.776142 91.7761424,820 91.5,820 L76.5,820 C76.2238576,820 76,819.776142 76,819.5 C76,819.223858 76.2238576,819 76.5,819 L91.5,819 Z M84,804 C84.2911272,804 84.5271325,804.231031 84.5271325,804.516022 L84.5271325,817.024448 L88.1001285,813.526763 C88.3059866,813.325244 88.6397484,813.325244 88.8456065,813.526763 C89.0514645,813.728282 89.0514645,814.055009 88.8456065,814.256528 L84,819 L79.1543935,814.256528 C78.9485355,814.055009 78.9485355,813.728282 79.1543935,813.526763 C79.3602516,813.325244 79.6940134,813.325244 79.8998715,813.526763 L83.4728675,817.024448 L83.4728675,804.516022 C83.4728675,804.231031 83.7088728,804 84,804 Z" id="snap-to-bottom"></path>
        </g>
    </g>
</svg>