<?xml version="1.0" encoding="UTF-8"?>
<svg width="16px" height="16px" viewBox="0 0 16 16" version="1.1" xmlns="http://www.w3.org/2000/svg" xmlns:xlink="http://www.w3.org/1999/xlink">
    <!-- Generator: Sketch 59.1 (86144) - https://sketch.com -->
    <title>snap-to-left</title>
    <desc>Created with Sketch.</desc>
    <g id="Style" stroke="none" stroke-width="1" fill="none" fill-rule="evenodd">
        <g id="$0-UI-icons" transform="translate(-112.000000, -804.000000)" fill="#000000" fill-rule="nonzero">
            <path d="M112.5,804 C112.776142,804 113,804.223858 113,804.5 L113,819.5 C113,819.776142 112.776142,820 112.5,820 C112.223858,820 112,819.776142 112,819.5 L112,804.5 C112,804.223858 112.223858,804 112.5,804 Z M118.473237,807.154394 C118.674756,807.360252 118.674756,807.694013 118.473237,807.899871 L114.975552,811.472868 L127.483978,811.472868 C127.768969,811.472868 128,811.708873 128,812 C128,812.291127 127.768969,812.527132 127.483978,812.527132 L114.975552,812.527132 L118.473237,816.100129 C118.674756,816.305987 118.674756,816.639748 118.473237,816.845606 C118.271718,817.051465 117.944991,817.051465 117.743472,816.845606 L113,812 L117.743472,807.154394 C117.944991,806.948535 118.271718,806.948535 118.473237,807.154394 Z" id="snap-to-left"></path>
        </g>
    </g>
</svg>