<?xml version="1.0" encoding="UTF-8"?>
<svg width="16px" height="16px" viewBox="0 0 16 16" version="1.1" xmlns="http://www.w3.org/2000/svg" xmlns:xlink="http://www.w3.org/1999/xlink">
    <!-- Generator: Sketch 59.1 (86144) - https://sketch.com -->
    <title>snap-to-top</title>
    <desc>Created with Sketch.</desc>
    <g id="Style" stroke="none" stroke-width="1" fill="none" fill-rule="evenodd">
        <g id="$0-UI-icons" transform="translate(-40.000000, -804.000000)" fill="#000000" fill-rule="nonzero">
            <path d="M48,805 L52.8456065,809.743472 C53.0514645,809.944991 53.0514645,810.271718 52.8456065,810.473237 C52.6397484,810.674756 52.3059866,810.674756 52.1001285,810.473237 L48.5271325,806.975552 L48.5271325,819.483978 C48.5271325,819.768969 48.2911272,820 48,820 C47.7088728,820 47.4728675,819.768969 47.4728675,819.483978 L47.4728675,806.975552 L43.8998715,810.473237 C43.6940134,810.674756 43.3602516,810.674756 43.1543935,810.473237 C42.9485355,810.271718 42.9485355,809.944991 43.1543935,809.743472 L48,805 Z M55.5,804 C55.7761424,804 56,804.223858 56,804.5 C56,804.776142 55.7761424,805 55.5,805 L40.5,805 C40.2238576,805 40,804.776142 40,804.5 C40,804.223858 40.2238576,804 40.5,804 L55.5,804 Z" id="snap-to-top"></path>
        </g>
    </g>
</svg>