<?xml version="1.0" encoding="UTF-8"?>
<svg width="16px" height="16px" viewBox="0 0 16 16" version="1.1" xmlns="http://www.w3.org/2000/svg" xmlns:xlink="http://www.w3.org/1999/xlink">
    <!-- Generator: Sketch 59.1 (86144) - https://sketch.com -->
    <title>snap-to-right</title>
    <desc>Created with Sketch.</desc>
    <g id="Style" stroke="none" stroke-width="1" fill="none" fill-rule="evenodd">
        <g id="$0-UI-icons" transform="translate(-148.000000, -804.000000)" fill="#000000" fill-rule="nonzero">
            <path d="M163.5,804 C163.776142,804 164,804.223858 164,804.5 L164,819.5 C164,819.776142 163.776142,820 163.5,820 C163.223858,820 163,819.776142 163,819.5 L163,804.5 C163,804.223858 163.223858,804 163.5,804 Z M158.256528,807.154394 L163,812 L158.256528,816.845606 C158.055009,817.051465 157.728282,817.051465 157.526763,816.845606 C157.325244,816.639748 157.325244,816.305987 157.526763,816.100129 L161.024448,812.527132 L148.516022,812.527132 C148.231031,812.527132 148,812.291127 148,812 C148,811.708873 148.231031,811.472868 148.516022,811.472868 L161.024448,811.472868 L157.526763,807.899871 C157.325244,807.694013 157.325244,807.360252 157.526763,807.154394 C157.728282,806.948535 158.055009,806.948535 158.256528,807.154394 Z" id="snap-to-right"></path>
        </g>
    </g>
</svg>