<?xml version="1.0" encoding="UTF-8"?>
<svg width="16px" height="16px" viewBox="0 0 16 16" version="1.1" xmlns="http://www.w3.org/2000/svg" xmlns:xlink="http://www.w3.org/1999/xlink">
    <!-- Generator: Sketch 59.1 (86144) - https://sketch.com -->
    <title>snap-to-v-c</title>
    <desc>Created with Sketch.</desc>
    <g id="Style" stroke="none" stroke-width="1" fill="none" fill-rule="evenodd">
        <g id="$0-UI-icons" transform="translate(-220.000000, -804.000000)">
            <g id="snap-to-v-c" transform="translate(220.000000, 804.000000)">
                <path d="M8,9.5 L10.8456065,12.2434722 C11.0514645,12.4449912 11.0514645,12.7717181 10.8456065,12.9732371 C10.6397484,13.1747561 10.3059866,13.1747561 10.1001285,12.9732371 L8.52713249,11.4755516 L8.52713249,14.9839783 C8.52713249,15.2689692 8.29112724,15.5 8,15.5 C7.70887276,15.5 7.47286751,15.2689692 7.47286751,14.9839783 L7.47286751,11.4755516 L5.89987145,12.9732371 C5.69401341,13.1747561 5.36025157,13.1747561 5.15439353,12.9732371 C4.94853549,12.7717181 4.94853549,12.4449912 5.15439353,12.2434722 L8,9.5 Z M8,0.5 C8.29112724,0.5 8.52713249,0.731030804 8.52713249,1.01602174 L8.52713249,1.01602174 L8.52713249,4.52444836 L10.1001285,3.02676288 C10.3059866,2.82524386 10.6397484,2.82524386 10.8456065,3.02676288 C11.0514645,3.22828191 11.0514645,3.5550088 10.8456065,3.75652783 L10.8456065,3.75652783 L8,6.5 L5.15439353,3.75652783 C4.94853549,3.5550088 4.94853549,3.22828191 5.15439353,3.02676288 C5.36025157,2.82524386 5.69401341,2.82524386 5.89987145,3.02676288 L5.89987145,3.02676288 L7.47286751,4.52444836 L7.47286751,1.01602174 C7.47286751,0.731030804 7.70887276,0.5 8,0.5 Z M0.5,7.5 L15.5,7.5 C15.7761424,7.5 16,7.72385763 16,8 C16,8.27614237 15.7761424,8.5 15.5,8.5 L0.5,8.5 C0.223857625,8.5 -1.10100306e-13,8.27614237 -1.10134124e-13,8 C-1.10167942e-13,7.72385763 0.223857625,7.5 0.5,7.5 Z" fill="#000000" fill-rule="nonzero"></path>
                <rect id="Rectangle" x="0" y="0" width="16" height="16"></rect>
            </g>
        </g>
    </g>
</svg>