<?xml version="1.0" encoding="UTF-8"?>
<svg width="16px" height="16px" viewBox="0 0 16 16" version="1.1" xmlns="http://www.w3.org/2000/svg" xmlns:xlink="http://www.w3.org/1999/xlink">
    <!-- Generator: Sketch 59.1 (86144) - https://sketch.com -->
    <title>snap-to-h-m</title>
    <desc>Created with Sketch.</desc>
    <g id="Style" stroke="none" stroke-width="1" fill="none" fill-rule="evenodd">
        <g id="$0-UI-icons" transform="translate(-184.000000, -804.000000)">
            <g id="snap-to-h-m" transform="translate(184.000000, 804.000000)">
                <path d="M8,0 C8.27614237,-5.07265313e-17 8.5,0.223857625 8.5,0.5 L8.5,15.5 C8.5,15.7761424 8.27614237,16 8,16 C7.72385763,16 7.5,15.7761424 7.5,15.5 L7.5,0.5 C7.5,0.223857625 7.72385763,5.07265313e-17 8,0 Z M12.9732371,5.15439353 C13.1747561,5.36025157 13.1747561,5.69401341 12.9732371,5.89987145 L11.4755516,7.47286751 L14.9839783,7.47286751 C15.2689692,7.47286751 15.5,7.70887276 15.5,8 C15.5,8.29112724 15.2689692,8.52713249 14.9839783,8.52713249 L11.4755516,8.52713249 L12.9732371,10.1001285 C13.1747561,10.3059866 13.1747561,10.6397484 12.9732371,10.8456065 C12.7717181,11.0514645 12.4449912,11.0514645 12.2434722,10.8456065 L9.5,8 L12.2434722,5.15439353 C12.4449912,4.94853549 12.7717181,4.94853549 12.9732371,5.15439353 Z M3.02676288,5.15439353 C3.22828191,4.94853549 3.5550088,4.94853549 3.75652783,5.15439353 L3.75652783,5.15439353 L6.5,8 L3.75652783,10.8456065 C3.5550088,11.0514645 3.22828191,11.0514645 3.02676288,10.8456065 C2.82524386,10.6397484 2.82524386,10.3059866 3.02676288,10.1001285 L3.02676288,10.1001285 L4.52444836,8.52713249 L1.01602174,8.52713249 C0.731030804,8.52713249 0.5,8.29112724 0.5,8 C0.5,7.70887276 0.731030804,7.47286751 1.01602174,7.47286751 L1.01602174,7.47286751 L4.52444836,7.47286751 L3.02676288,5.89987145 C2.82524386,5.69401341 2.82524386,5.36025157 3.02676288,5.15439353 Z" fill="#000000" fill-rule="nonzero"></path>
                <rect id="Rectangle" x="0" y="0" width="16" height="16"></rect>
            </g>
        </g>
    </g>
</svg>