<?xml version="1.0" encoding="UTF-8"?>
<svg width="16px" height="16px" viewBox="0 0 16 16" version="1.1" xmlns="http://www.w3.org/2000/svg" xmlns:xlink="http://www.w3.org/1999/xlink">
    <!-- Generator: Sketch 55.1 (78136) - https://sketchapp.com -->
    <title>sort-down</title>
    <desc>Created with Sketch.</desc>
    <g id="Style" stroke="none" stroke-width="1" fill="none" fill-rule="evenodd">
        <g id="0-UI-icons" transform="translate(-975.000000, -818.000000)" fill="#000000" fill-rule="nonzero">
            <path d="M987.826878,818 C988.102941,818 988.326734,818.224011 988.326734,818.500343 L988.326734,832.658428 L990.120616,830.060449 C990.300275,829.850642 990.615834,829.826344 990.825437,830.006179 C991.035039,830.186013 991.059313,830.50188 990.879654,830.711687 L988.734022,833.720441 C988.58208,833.89788 988.360264,834 988.126792,834 C987.685091,834 987.327022,833.641582 987.327022,833.199451 L987.327022,818.500343 C987.327022,818.224011 987.550815,818 987.826878,818 Z M975.5,834 C975.223858,834 975,833.776142 975,833.5 C975,833.223858 975.223858,833 975.5,833 L984.5,833 C984.776142,833 985,833.223858 985,833.5 C985,833.776142 984.776142,834 984.5,834 L975.5,834 Z M975.5,826.5 C975.223858,826.5 975,826.276142 975,826 C975,825.723858 975.223858,825.5 975.5,825.5 L984.5,825.5 C984.776142,825.5 985,825.723858 985,826 C985,826.276142 984.776142,826.5 984.5,826.5 L975.5,826.5 Z M975.5,819 C975.223858,819 975,818.776142 975,818.5 C975,818.223858 975.223858,818 975.5,818 L984.5,818 C984.776142,818 985,818.223858 985,818.5 C985,818.776142 984.776142,819 984.5,819 L975.5,819 Z" id="sort-down"></path>
        </g>
    </g>
</svg>