<?xml version="1.0" encoding="UTF-8"?>
<svg width="16px" height="16px" viewBox="0 0 16 16" version="1.1" xmlns="http://www.w3.org/2000/svg" xmlns:xlink="http://www.w3.org/1999/xlink">
    <!-- Generator: Sketch 55.1 (78136) - https://sketchapp.com -->
    <title>sort-up</title>
    <desc>Created with Sketch.</desc>
    <g id="Style" stroke="none" stroke-width="1" fill="none" fill-rule="evenodd">
        <g id="0-UI-icons" transform="translate(-1021.000000, -818.000000)" fill="#000000" fill-rule="nonzero">
            <path d="M1033.82688,834 C1033.55082,834 1033.32702,833.775989 1033.32702,833.499657 L1033.32702,818.800549 C1033.32702,818.358418 1033.68509,818 1034.12679,818 C1034.36026,818 1034.58208,818.10212 1034.73402,818.279559 L1036.87965,821.288313 C1037.05931,821.49812 1037.03504,821.813987 1036.82544,821.993821 C1036.61583,822.173656 1036.30028,822.149358 1036.12062,821.939551 L1034.32673,819.341572 L1034.32673,833.499657 C1034.32673,833.775989 1034.10294,834 1033.82688,834 Z M1021.5,818 L1030.5,818 C1030.77614,818 1031,818.223858 1031,818.5 C1031,818.776142 1030.77614,819 1030.5,819 L1021.5,819 C1021.22386,819 1021,818.776142 1021,818.5 C1021,818.223858 1021.22386,818 1021.5,818 Z M1021.5,825.5 L1030.5,825.5 C1030.77614,825.5 1031,825.723858 1031,826 C1031,826.276142 1030.77614,826.5 1030.5,826.5 L1021.5,826.5 C1021.22386,826.5 1021,826.276142 1021,826 C1021,825.723858 1021.22386,825.5 1021.5,825.5 Z M1021.5,833 L1030.5,833 C1030.77614,833 1031,833.223858 1031,833.5 C1031,833.776142 1030.77614,834 1030.5,834 L1021.5,834 C1021.22386,834 1021,833.776142 1021,833.5 C1021,833.223858 1021.22386,833 1021.5,833 Z" id="sort-up"></path>
        </g>
    </g>
</svg>