<?xml version="1.0" encoding="UTF-8"?>
<svg width="16px" height="16px" viewBox="0 0 16 16" version="1.1" xmlns="http://www.w3.org/2000/svg" xmlns:xlink="http://www.w3.org/1999/xlink">
    <!-- Generator: Sketch 62 (91390) - https://sketch.com -->
    <title>sort-down</title>
    <desc>Created with Sketch.</desc>
    <g id="Components" stroke="none" stroke-width="1" fill="none" fill-rule="evenodd">
        <g id="$0-UI-icons" transform="translate(-472.000000, -509.000000)" fill="#000000">
            <path d="M487.5,524 C487.776142,524 488,524.223858 488,524.5 C488,524.776142 487.776142,525 487.5,525 L478.5,525 C478.223858,525 478,524.776142 478,524.5 C478,524.223858 478.223858,524 478.5,524 L487.5,524 Z M474,509 C474.276142,509 474.5,509.223858 474.5,509.5 L474.5,523 L475.100029,522.200029 C475.247305,522.003662 475.511295,521.946468 475.723296,522.052549 L475.800029,522.100029 C475.996397,522.247305 476.053591,522.511295 475.94751,522.723296 L475.900029,522.800029 L474.400029,524.800029 C474.220029,525.040029 473.878029,525.064029 473.665629,524.872029 L473.600029,524.800029 L472.100029,522.800029 C471.934344,522.579116 471.979116,522.265715 472.200029,522.100029 C472.396397,521.952753 472.665841,521.971765 472.83966,522.132962 L472.900029,522.200029 L473.5,523 L473.5,509.5 C473.5,509.223858 473.723858,509 474,509 Z M484.5,519 C484.776142,519 485,519.223858 485,519.5 C485,519.776142 484.776142,520 484.5,520 L478.5,520 C478.223858,520 478,519.776142 478,519.5 C478,519.223858 478.223858,519 478.5,519 L484.5,519 Z M482.5,514 C482.776142,514 483,514.223858 483,514.5 C483,514.776142 482.776142,515 482.5,515 L478.5,515 C478.223858,515 478,514.776142 478,514.5 C478,514.223858 478.223858,514 478.5,514 L482.5,514 Z M480.5,509 C480.776142,509 481,509.223858 481,509.5 C481,509.776142 480.776142,510 480.5,510 L478.5,510 C478.223858,510 478,509.776142 478,509.5 C478,509.223858 478.223858,509 478.5,509 L480.5,509 Z" id="sort-down"></path>
        </g>
    </g>
</svg>