<?xml version="1.0" encoding="UTF-8"?>
<svg width="16px" height="16px" viewBox="0 0 16 16" version="1.1" xmlns="http://www.w3.org/2000/svg" xmlns:xlink="http://www.w3.org/1999/xlink">
    <!-- Generator: Sketch 62 (91390) - https://sketch.com -->
    <title>sort-up</title>
    <desc>Created with Sketch.</desc>
    <g id="Components" stroke="none" stroke-width="1" fill="none" fill-rule="evenodd">
        <g id="$0-UI-icons" transform="translate(-508.000000, -509.000000)" fill="#000000">
            <path d="M523.5,524 C523.776142,524 524,524.223858 524,524.5 C524,524.776142 523.776142,525 523.5,525 L514.5,525 C514.223858,525 514,524.776142 514,524.5 C514,524.223858 514.223858,524 514.5,524 L523.5,524 Z M520.5,519 C520.776142,519 521,519.223858 521,519.5 C521,519.776142 520.776142,520 520.5,520 L514.5,520 C514.223858,520 514,519.776142 514,519.5 C514,519.223858 514.223858,519 514.5,519 L520.5,519 Z M518.5,514 C518.776142,514 519,514.223858 519,514.5 C519,514.776142 518.776142,515 518.5,515 L514.5,515 C514.223858,515 514,514.776142 514,514.5 C514,514.223858 514.223858,514 514.5,514 L518.5,514 Z M516.5,509 C516.776142,509 517,509.223858 517,509.5 C517,509.776142 516.776142,510 516.5,510 L514.5,510 C514.223858,510 514,509.776142 514,509.5 C514,509.223858 514.223858,509 514.5,509 L516.5,509 Z M510,525.000029 C510.276142,525.000029 510.5,524.776172 510.5,524.500029 L510.5,511.000029 L511.100029,511.8 C511.247305,511.996368 511.511295,512.053562 511.723296,511.947481 L511.800029,511.9 C511.996397,511.752724 512.053591,511.488735 511.94751,511.276734 L511.900029,511.2 L510.400029,509.2 C510.220029,508.96 509.878029,508.936 509.665629,509.128 L509.600029,509.2 L508.100029,511.2 C507.934344,511.420914 507.979116,511.734315 508.200029,511.9 C508.396397,512.047276 508.665841,512.028265 508.83966,511.867067 L508.900029,511.8 L509.5,511.000029 L509.5,524.500029 C509.5,524.776172 509.723858,525.000029 510,525.000029 Z" id="sort-up"></path>
        </g>
    </g>
</svg>