<svg width="12" height="12" viewBox="0 0 12 12" fill="none" xmlns="http://www.w3.org/2000/svg">
<path id="splash-outlined-12" fill-rule="evenodd" clip-rule="evenodd" d="M6 0C9.31371 0 12 2.57436 12 5.75C12 8.92564 9.31371 11.5 6 11.5C5.22058 11.5 4.47587 11.3576 3.79266 11.0984C3.39802 10.9487 2.1338 11.2492 0 12L0.198332 11.4794C0.783979 9.89433 0.966791 8.91128 0.746767 8.53029C0.270901 7.70629 0 6.75846 0 5.75C0 2.57436 2.68629 0 6 0ZM6 1C3.22928 1 1 3.13639 1 5.75C1 6.55897 1.21235 7.33689 1.61273 8.03019C1.89547 8.51977 1.90726 9.18266 1.68133 10.1192L1.601 10.424L1.75595 10.3803C2.84785 10.0744 3.56582 9.98891 4.05296 10.1318L4.14735 10.1634C4.73083 10.3848 5.35616 10.5 6 10.5C8.77072 10.5 11 8.36361 11 5.75C11 3.13639 8.77072 1 6 1ZM4 3H3V8H4V6H6V8H7V3H6V5H4V3ZM8 5H9V8H8V5ZM9 3H8V4H9V3Z" fill="black"/>
</svg>
