<?xml version="1.0" encoding="UTF-8"?>
<svg width="12px" height="14px" viewBox="0 0 12 14" version="1.1" xmlns="http://www.w3.org/2000/svg" xmlns:xlink="http://www.w3.org/1999/xlink">
    <!-- Generator: Sketch 61.2 (89653) - https://sketch.com -->
    <g id="Button" stroke="none" stroke-width="1" fill="none" fill-rule="evenodd">
        <g id="dropdown" transform="translate(-1211.000000, -407.000000)" fill-rule="nonzero">
            <g id="Select_Pop-up" transform="translate(1197.000000, 397.000000)">
                <g id="text" transform="translate(12.000000, 9.000000)">
                    <rect id="Rectangle" fill="#000000" opacity="0" x="0" y="0" width="16" height="16"></rect>
                    <path d="M4,2.66666667 L4,14 C3.99994364,14.36815 3.70148331,14.6666667 3.33333334,14.6666667 C2.96518336,14.6666667 2.66666667,14.36815 2.66666667,14 L2.66666667,2 C2.66666667,1.63181017 2.9651435,1.33333333 3.33333333,1.33333333 L10,1.33333333 C10.1767965,1.33333333 10.3463382,1.40363375 10.4713333,1.52866667 L13.138,4.19533333 C13.2630329,4.32032849 13.3333333,4.48987013 13.3333333,4.66666667 L13.3333333,14 C13.3333333,14.3681898 13.0348565,14.6666667 12.6666667,14.6666667 L6,14.6666667 C5.63181016,14.6666667 5.33333333,14.3681898 5.33333333,14 C5.33333333,13.6318102 5.63181016,13.3333333 6,13.3333333 L12,13.3333333 L12,4.94266667 L9.724,2.66666667 L4,2.66666667 Z M6,8.66666667 C5.63181016,8.66666667 5.33333333,8.36818984 5.33333333,8 C5.33333333,7.63181016 5.63181016,7.33333333 6,7.33333333 L10,7.33333333 C10.3681898,7.33333333 10.6666667,7.63181016 10.6666667,8 C10.6666667,8.36818984 10.3681898,8.66666667 10,8.66666667 L6,8.66666667 L6,8.66666667 Z M6,6.00000001 C5.76179863,6.00003647 5.54167589,5.87297849 5.42256468,5.66669613 C5.30345346,5.46041377 5.30345346,5.2062529 5.42256468,4.99997054 C5.54167589,4.79368818 5.76179863,4.6666302 6,4.66666666 L7.33333333,4.66666666 C7.7014833,4.66672303 7.99989794,4.96518336 7.99989794,5.33333334 C7.99989794,5.70148331 7.7014833,5.99994364 7.33333333,6.00000001 L6,6.00000001 Z M6,11.3333333 C5.63185003,11.333277 5.33343539,11.0348166 5.33343539,10.6666667 C5.33343539,10.2985167 5.63185003,10.0000564 6,10 L8.66666667,10 C9.03481665,10.0000564 9.33323128,10.2985167 9.33323128,10.6666667 C9.33323128,11.0348166 9.03481665,11.333277 8.66666667,11.3333333 L6,11.3333333 Z" id="Shape" fill="#FFFFFF"></path>
                </g>
            </g>
        </g>
    </g>
</svg>