<?xml version="1.0" encoding="UTF-8"?>
<svg width="12px" height="12px" viewBox="0 0 12 12" version="1.1" xmlns="http://www.w3.org/2000/svg" xmlns:xlink="http://www.w3.org/1999/xlink">
    <!-- Generator: Sketch 57.1 (83088) - https://sketch.com -->
    <title>strike-through</title>
    <desc>Created with Sketch.</desc>
    <g id="Style" stroke="none" stroke-width="1" fill="none" fill-rule="evenodd">
        <g id="0-UI-icons" transform="translate(-1055.000000, -606.000000)">
            <g id="strike-through" transform="translate(1055.000000, 606.000000)">
                <rect id="Rectangle" x="0" y="0" width="12" height="12"></rect>
                <path d="M8.59954059,6.99899224 L9.71126576,6.99991364 C9.89640501,7.45456329 10,7.96316736 10,8.5 C10,10.3663416 8.74788791,11.8914956 7.17023745,11.9944595 L7,12 L4,12 C3.44771525,12 3,11.5522847 3,11 L3,10.5 C3,10.2238576 3.22385763,10 3.5,10 C3.77614237,10 4,10.2238576 4,10.5 L4,10.9989922 L4,10.9989922 L7,11 C8.1045695,11 9,9.88071187 9,8.5 C9,8.00715142 8.88590863,7.54761217 8.68893922,7.1603989 L8.59954059,6.99899224 Z M11,5.5 C11,5.77614237 10.7761424,6 10.5,6 L1.5,6 C1.22385763,6 1,5.77614237 1,5.5 C1,5.22385763 1.22385763,5 1.5,5 L10.5,5 C10.7761424,5 11,5.22385763 11,5.5 Z M9,1 L9,1.5 C9,1.77614237 8.77614237,2 8.5,2 C8.22385763,2 8,1.77614237 8,1.5 L8,1 L8,1 L6,1 C4.8954305,1 4,1.8954305 4,3 C4,3.364732 4.0976323,3.70666076 4.26818814,4.0010775 L3.17102423,4.00090072 C3.06026977,3.6878673 3,3.35097203 3,3 C3,1.34314575 4.34314575,4.97379915e-14 6,4.97379915e-14 L8,4.97379915e-14 C8.55228475,4.96365384e-14 9,0.44771525 9,1 Z" fill="#000000" fill-rule="nonzero"></path>
            </g>
        </g>
    </g>
</svg>