<?xml version="1.0" encoding="UTF-8"?>
<svg width="12px" height="12px" viewBox="0 0 12 12" version="1.1" xmlns="http://www.w3.org/2000/svg" xmlns:xlink="http://www.w3.org/1999/xlink">
    <!-- Generator: Sketch 59.1 (86144) - https://sketch.com -->
    <title>data-string</title>
    <desc>Created with Sketch.</desc>
    <g id="Style" stroke="none" stroke-width="1" fill="none" fill-rule="evenodd">
        <g id="0-UI-icons" transform="translate(-72.000000, -219.000000)" fill="#000000" fill-rule="nonzero">
            <g id="data-string" transform="translate(72.000000, 219.000000)">
                <path d="M1.80380673,3.14516129 L2.44216691,3.14516129 L4.2284041,8.85483871 L3.38506589,8.85483871 L2.99853587,7.5483871 L1.20058565,7.5483871 L0.825768668,8.85483871 L0,8.85483871 L1.80380673,3.14516129 Z M2.74084919,6.67741935 L2.10248902,4.35483871 L1.45241581,6.67741935 L2.74084919,6.67741935 Z M4.69106881,3.14516129 L6.30746706,3.14516129 C6.46364158,3.14516129 6.61786161,3.17069867 6.77013177,3.22177419 C6.92240193,3.27284972 7.05807652,3.35618222 7.17715959,3.47177419 C7.29624266,3.58736617 7.3928742,3.73655823 7.4670571,3.91935484 C7.54124,4.10215145 7.57833089,4.32257935 7.57833089,4.58064516 C7.57833089,4.90322742 7.51195772,5.16935379 7.37920937,5.37903226 C7.24646102,5.58871073 7.07271947,5.73924685 6.8579795,5.83064516 L6.8579795,5.84677419 C6.98682348,5.86827968 7.10688085,5.91801036 7.2181552,5.99596774 C7.32942955,6.07392512 7.42410893,6.17338649 7.50219619,6.29435484 C7.58028346,6.41532319 7.64177625,6.55510673 7.68667643,6.71370968 C7.7315766,6.87231262 7.75402635,7.04300984 7.75402635,7.22580645 C7.75402635,7.53763597 7.70912685,7.79704198 7.6193265,8.00403226 C7.52952615,8.21102254 7.41142094,8.37768754 7.26500732,8.50403226 C7.1185937,8.63037698 6.95070861,8.72042984 6.761347,8.77419355 C6.57198539,8.82795726 6.37969839,8.85483871 6.18448023,8.85483871 L4.69106881,8.85483871 L4.69106881,3.14516129 Z M5.42898975,5.46774194 L6.10248902,5.46774194 C6.34846389,5.46774194 6.53294228,5.40188238 6.65592972,5.27016129 C6.77891716,5.1384402 6.84040996,4.96505484 6.84040996,4.75 C6.84040996,4.50268694 6.77696501,4.31854899 6.65007321,4.19758065 C6.52318141,4.0766123 6.31918149,4.01612903 6.03806735,4.01612903 L5.42898975,4.01612903 L5.42898975,5.46774194 Z M5.42898975,7.98387097 L6.10834553,7.98387097 C6.20205025,7.98387097 6.30258609,7.97580653 6.40995608,7.95967742 C6.51732606,7.94354831 6.61590975,7.90591427 6.7057101,7.84677419 C6.79551045,7.78763411 6.86969224,7.70295754 6.92825769,7.59274194 C6.98682313,7.48252633 7.01610542,7.33333427 7.01610542,7.14516129 C7.01610542,6.84408452 6.94485186,6.63440919 6.80234261,6.51612903 C6.65983335,6.39784887 6.43826407,6.33870968 6.13762811,6.33870968 L5.42898975,6.33870968 L5.42898975,7.98387097 Z M11.3323572,4.48387097 C11.1800871,4.25806339 11.0326996,4.10752726 10.8901903,4.03225806 C10.7476811,3.95698887 10.6041979,3.91935484 10.4597365,3.91935484 C10.2449965,3.91935484 10.0507573,3.97177367 9.87701318,4.0766129 C9.70326902,4.18145214 9.55392937,4.32661198 9.42898975,4.51209677 C9.30405013,4.69758157 9.20741859,4.91397726 9.13909224,5.16129032 C9.07076589,5.40860339 9.03660322,5.67472976 9.03660322,5.95967742 C9.03660322,6.26613056 9.07076589,6.54838581 9.13909224,6.80645161 C9.20741859,7.06451742 9.30405013,7.28763347 9.42898975,7.47580645 C9.55392937,7.66397944 9.70326902,7.81182742 9.87701318,7.91935484 C10.0507573,8.02688226 10.2449965,8.08064516 10.4597365,8.08064516 C10.6276241,8.08064516 10.7906288,8.02553819 10.9487555,7.91532258 C11.1068822,7.80510698 11.2542697,7.62903347 11.3909224,7.38709677 L12,7.98387097 C11.8125906,8.33871145 11.5841888,8.59677339 11.3147877,8.75806452 C11.0453866,8.91935565 10.7584203,9 10.4538799,9 C10.1337222,9 9.83992325,8.92876415 9.57247438,8.78629032 C9.30502551,8.64381649 9.07467154,8.4422056 8.88140556,8.18145161 C8.68813959,7.92069762 8.53684779,7.60752871 8.42752562,7.24193548 C8.31820346,6.87634226 8.26354319,6.47043234 8.26354319,6.02419355 C8.26354319,5.56720202 8.31820346,5.15188359 8.42752562,4.77822581 C8.53684779,4.40456802 8.68813959,4.08602282 8.88140556,3.82258065 C9.07467154,3.55913847 9.30502551,3.35618351 9.57247438,3.21370968 C9.83992325,3.07123585 10.1337222,3 10.4538799,3 C10.7349941,3 10.9956064,3.0685477 11.2357247,3.20564516 C11.4758431,3.34274262 11.6993645,3.57526718 11.9062958,3.90322581 L11.3323572,4.48387097 Z" id="ABC"></path>
            </g>
        </g>
    </g>
</svg>