<svg width="12" height="12" viewBox="0 0 12 12" fill="none" xmlns="http://www.w3.org/2000/svg">
<path fill-rule="evenodd" clip-rule="evenodd" d="M11 2C11 2 8.73352 1.83183 8 1.5C7.6152 1.32593 7.37176 1.02176 7.14035 0.73263C6.83681 0.353382 6.55397 0 6 0C5.44603 0 5.16319 0.353382 4.85965 0.73263C4.62824 1.02176 4.38479 1.32593 4 1.5C3.26648 1.83183 1 2 1 2C1 2 1.07699 5.84631 2 8C2.87022 10.0305 6 12 6 12C6 12 9.12978 10.0305 10 8C10.923 5.84631 11 2 11 2ZM6 10.7911C6.28199 10.5901 6.64677 10.317 7.03171 9.99471C7.90734 9.26157 8.74519 8.3893 9.08086 7.60608C9.48021 6.67425 9.71898 5.30027 9.85206 4.08363C9.90019 3.64357 9.93308 3.23861 9.95539 2.90337C9.85688 2.8921 9.75423 2.87981 9.64921 2.86648C9.30808 2.8232 8.93106 2.76772 8.58417 2.69911C8.25808 2.63461 7.88271 2.54451 7.58783 2.41111C6.96179 2.1279 6.55598 1.61027 6.33873 1.33316C6.30893 1.29514 6.28267 1.26165 6.25988 1.23391C6.04616 0.973788 6.01204 0.993434 6.00231 0.999035C6.00135 0.999585 6.00063 1 6 1C5.99937 1 5.99865 0.999585 5.99769 0.999035C5.98796 0.993434 5.95384 0.973788 5.74012 1.23391C5.71733 1.26165 5.69107 1.29514 5.66127 1.33316C5.44402 1.61027 5.03821 2.1279 4.41217 2.41111C4.11729 2.54451 3.74192 2.63461 3.41583 2.69911C3.06894 2.76772 2.69192 2.8232 2.35079 2.86648C2.24577 2.87981 2.14312 2.8921 2.04461 2.90337C2.06692 3.23861 2.09981 3.64357 2.14794 4.08363C2.28102 5.30027 2.51979 6.67425 2.91914 7.60608C3.25481 8.3893 4.09266 9.26157 4.96829 9.99471C5.35323 10.317 5.71801 10.5901 6 10.7911Z" fill="black"/>
</svg>
