<?xml version="1.0" encoding="UTF-8"?>
<svg width="12px" height="14px" viewBox="0 0 12 14" version="1.1" xmlns="http://www.w3.org/2000/svg" xmlns:xlink="http://www.w3.org/1999/xlink">
    <!-- Generator: Sketch 61.2 (89653) - https://sketch.com -->
    <g id="Button" stroke="none" stroke-width="1" fill="none" fill-rule="evenodd">
        <g id="dropdown" transform="translate(-1211.000000, -460.000000)" fill-rule="nonzero">
            <g id="Select_Pop-up" transform="translate(1197.000000, 397.000000)">
                <g id="总和" transform="translate(12.000000, 62.000000)">
                    <rect id="Rectangle" fill="#000000" opacity="0" x="0" y="0" width="16" height="16"></rect>
                    <path d="M12.05568,4.16528 L12.05568,3.0632 L4.892,3.0632 L9.10736,7.59696 C9.37136,7.88112 9.36768,8.32272 9.09888,8.60224 L4.9312,12.9368 L12.05552,12.9368 L12.05552,12.27136 C12.05552,11.868 12.38368,11.53984 12.78704,11.53984 C13.1904,11.53984 13.51872,11.868 13.51872,12.27136 L13.51872,13.66832 C13.51872,14.07168 13.19056,14.4 12.78704,14.4 L3.2128,14.4 C2.9192,14.4 2.65488,14.22544 2.53968,13.95504 C2.42448,13.68464 2.48176,13.37312 2.68528,13.16128 L7.5648,8.08672 L2.67696,2.82976 C2.47888,2.61648 2.42592,2.3064 2.54208,2.03936 C2.6584,1.77248 2.92176,1.6 3.2128,1.6 L12.7872,1.6 C13.19056,1.6 13.51888,1.92816 13.51888,2.33168 L13.51888,4.16528 C13.51888,4.56864 13.19072,4.89696 12.7872,4.89696 C12.38384,4.89696 12.05568,4.5688 12.05568,4.16528 Z" id="Path" fill="#FFFFFF"></path>
                </g>
            </g>
        </g>
    </g>
</svg>