<?xml version="1.0" encoding="UTF-8"?>
<svg width="16px" height="16px" viewBox="0 0 16 16" version="1.1" xmlns="http://www.w3.org/2000/svg" xmlns:xlink="http://www.w3.org/1999/xlink">
    <!-- Generator: Sketch 61 (89581) - https://sketch.com -->
    <title>template</title>
    <desc>Created with Sketch.</desc>
    <g id="Components" stroke="none" stroke-width="1" fill="none" fill-rule="evenodd">
        <g id="$0-UI-icons" transform="translate(-40.000000, -1829.000000)" fill="#000000" fill-rule="nonzero">
            <g id="待定" transform="translate(40.000000, 1710.000000)">
                <g id="Template-Icon" transform="translate(0.000000, 119.000000)">
                    <path d="M14,1 C15.1045695,1 16,1.8954305 16,3 L16,13 C16,14.1045695 15.1045695,15 14,15 L2,15 C0.8954305,15 0,14.1045695 0,13 L0,3 C0,1.8954305 0.8954305,1 2,1 L14,1 Z M5,2 L2,2 C1.48716416,2 1.06449284,2.38604019 1.00672773,2.88337887 L1,3 L1,13 C1,13.5128358 1.38604019,13.9355072 1.88337887,13.9932723 L2,14 L5,14 L5,2 Z M6,7 L6,14 L14,14 C14.5128358,14 14.9355072,13.6139598 14.9932723,13.1166211 L15,13 L15,7 L6,7 Z M6,6 L15,6 L15,3 C15,2.48716416 14.6139598,2.06449284 14.1166211,2.00672773 L14,2 L6,2 L6,6 Z" id="template"></path>
                </g>
            </g>
        </g>
    </g>
</svg>