<?xml version="1.0" encoding="UTF-8"?>
<svg width="12px" height="12px" viewBox="0 0 12 12" version="1.1" xmlns="http://www.w3.org/2000/svg" xmlns:xlink="http://www.w3.org/1999/xlink">
    <!-- Generator: Sketch 57.1 (83088) - https://sketch.com -->
    <title>text-123</title>
    <desc>Created with Sketch.</desc>
    <g id="Style" stroke="none" stroke-width="1" fill="none" fill-rule="evenodd">
        <g id="0-UI-icons" transform="translate(-1380.000000, -606.000000)">
            <g id="text-123" transform="translate(1380.000000, 606.000000)">
                <rect id="Rectangle" x="0" y="0" width="12" height="12"></rect>
                <path d="M3.5,1 L11.5,1 C11.7761424,1 12,1.22385763 12,1.5 C12,1.77614237 11.7761424,2 11.5,2 L3.5,2 C3.22385763,2 3,1.77614237 3,1.5 C3,1.22385763 3.22385763,1 3.5,1 Z M0.905426357,2.8 L0.905426357,0.743502825 L0.359689922,1.14689266 L0,0.676271186 L0.963307494,-3.46389584e-14 L1.6,-3.46389584e-14 L1.6,2.8 L0.905426357,2.8 Z M0.0569259962,6.8 L0.0569259962,6.2607978 L1.10436433,5.29793673 C1.17014581,5.23374567 1.2232762,5.16827177 1.26375712,5.10151307 C1.30423803,5.03475437 1.32447818,4.96029385 1.32447818,4.8781293 C1.32447818,4.78055889 1.29411795,4.70160507 1.23339658,4.64126547 C1.17267522,4.58092588 1.09171461,4.55075653 0.990512334,4.55075653 C0.884249943,4.55075653 0.797596793,4.58862869 0.730550285,4.66437414 C0.663503776,4.74011959 0.623655977,4.83961424 0.611005693,4.96286107 L0,4.8781293 C0.0151803416,4.73947661 0.0524981214,4.61623163 0.111954459,4.50839065 C0.171410797,4.40054967 0.246678861,4.30875783 0.337760911,4.23301238 C0.42884296,4.15726693 0.533206243,4.09949584 0.65085389,4.05969739 C0.768501537,4.01989893 0.893104972,4 1.02466793,4 C1.14864072,4 1.26881662,4.01668943 1.38519924,4.05006878 C1.50158186,4.08344813 1.60531264,4.1348002 1.69639469,4.20412655 C1.78747674,4.27345289 1.86021478,4.36075142 1.91461101,4.46602476 C1.96900723,4.5712981 1.99620493,4.69454308 1.99620493,4.83576341 C1.99620493,4.93333382 1.98355484,5.02127425 1.95825427,5.09958735 C1.9329537,5.17790044 1.89816594,5.25043525 1.85388994,5.31719395 C1.80961395,5.38395265 1.75901357,5.44621704 1.70208729,5.503989 C1.64516101,5.56176095 1.58633806,5.61889013 1.5256167,5.67537827 L0.903225806,6.23768913 L2,6.23768913 L2,6.8 L0.0569259962,6.8 Z M1.03448276,8.2 C1.14821593,8.2 1.25892263,8.21501325 1.36660617,8.24504021 C1.47428971,8.27506717 1.5704775,8.32135804 1.65517241,8.38391421 C1.73986733,8.44647038 1.80822721,8.52466441 1.86025408,8.61849866 C1.91228096,8.71233291 1.93829401,8.82305566 1.93829401,8.95067024 C1.93829401,9.09830279 1.89776205,9.2227877 1.81669691,9.32412869 C1.73563178,9.42546968 1.63218454,9.49365487 1.50635209,9.52868633 L1.50635209,9.53994638 C1.57894773,9.55746211 1.64549274,9.58561196 1.70598911,9.62439678 C1.76648548,9.66318161 1.81851158,9.70947247 1.86206897,9.76327078 C1.90562635,9.81706908 1.93950381,9.8771221 1.96370236,9.94343164 C1.98790091,10.0097412 2,10.0804286 2,10.155496 C2,10.3006263 1.97156713,10.4263623 1.91470054,10.5327078 C1.85783396,10.6390533 1.78342454,10.7266306 1.69147005,10.7954424 C1.59951557,10.8642541 1.49606833,10.9155494 1.38112523,10.9493298 C1.26618212,10.9831101 1.14942588,11 1.03085299,11 C0.914699964,11 0.801573448,10.9862378 0.691470054,10.9587131 C0.581366661,10.9311884 0.480944192,10.8892764 0.390199637,10.8329759 C0.299455082,10.7766753 0.220206025,10.7041113 0.152450091,10.6152815 C0.0846941561,10.5264517 0.0338779673,10.4194823 0,10.29437 L0.566243194,10.1404826 C0.590441742,10.2280612 0.640048022,10.3050041 0.715063521,10.3713137 C0.79007902,10.4376232 0.885661851,10.4707775 1.00181488,10.4707775 C1.04537227,10.4707775 1.08953396,10.464522 1.13430127,10.4520107 C1.17906858,10.4394995 1.21899559,10.4201074 1.25408348,10.3938338 C1.28917138,10.3675602 1.3182092,10.3331548 1.34119782,10.2906166 C1.36418644,10.2480784 1.37568058,10.195532 1.37568058,10.1329759 C1.37568058,10.0654152 1.36055672,10.0091155 1.33030853,9.96407507 C1.30006034,9.91903463 1.26013334,9.88337815 1.21052632,9.85710456 C1.16091929,9.83083097 1.10465851,9.8120644 1.04174229,9.80080429 C0.978826062,9.78954418 0.91591078,9.78391421 0.852994555,9.78391421 L0.689655172,9.78391421 L0.689655172,9.32225201 L0.867513612,9.32225201 C0.925590127,9.32225201 0.981245953,9.31787314 1.03448276,9.30911528 C1.08771956,9.30035742 1.13551098,9.28409306 1.17785844,9.26032172 C1.2202059,9.23655037 1.25408336,9.20464721 1.27949183,9.16461126 C1.30490031,9.12457531 1.31760436,9.07202892 1.31760436,9.00697051 C1.31760436,8.91188514 1.28493681,8.83932107 1.21960073,8.78927614 C1.15426465,8.73923121 1.07925027,8.71420912 0.994555354,8.71420912 C0.907440581,8.71420912 0.831821252,8.74110786 0.7676951,8.79490617 C0.703568947,8.84870447 0.661827078,8.92064298 0.64246824,9.01072386 L0.0762250454,8.87560322 C0.107683158,8.76300212 0.154869619,8.66479041 0.217785844,8.58096515 C0.280702069,8.49713988 0.355111488,8.42707803 0.441016334,8.37077748 C0.52692118,8.31447693 0.620689147,8.27193938 0.722323049,8.24316354 C0.823956951,8.2143877 0.928009147,8.2 1.03448276,8.2 Z M11.5,9 C11.7761424,9 12,9.22385763 12,9.5 C12,9.77614237 11.7761424,10 11.5,10 L3.5,10 C3.22385763,10 3,9.77614237 3,9.5 C3,9.22385763 3.22385763,9 3.5,9 L11.5,9 Z M11.5,5 C11.7761424,5 12,5.22385763 12,5.5 C12,5.77614237 11.7761424,6 11.5,6 L3.5,6 C3.22385763,6 3,5.77614237 3,5.5 C3,5.22385763 3.22385763,5 3.5,5 L11.5,5 Z" fill="#000000" fill-rule="nonzero"></path>
            </g>
        </g>
    </g>
</svg>