<?xml version="1.0" encoding="UTF-8"?>
<svg width="12px" height="12px" viewBox="0 0 12 12" version="1.1" xmlns="http://www.w3.org/2000/svg" xmlns:xlink="http://www.w3.org/1999/xlink">
    <!-- Generator: Sketch 57.1 (83088) - https://sketch.com -->
    <title>text-dots</title>
    <desc>Created with Sketch.</desc>
    <g id="Style" stroke="none" stroke-width="1" fill="none" fill-rule="evenodd">
        <g id="0-UI-icons" transform="translate(-1412.000000, -606.000000)">
            <g id="text-dots" transform="translate(1412.000000, 606.000000)">
                <rect id="Rectangle" x="0" y="0" width="12" height="12"></rect>
                <path d="M3.5,1 L11.5,1 C11.7761424,1 12,1.22385763 12,1.5 C12,1.77614237 11.7761424,2 11.5,2 L3.5,2 C3.22385763,2 3,1.77614237 3,1.5 C3,1.22385763 3.22385763,1 3.5,1 Z M1,2.5 C1.55228475,2.5 2,2.05228475 2,1.5 C2,0.94771525 1.55228475,0.5 1,0.5 C0.44771525,0.5 0,0.94771525 0,1.5 C0,2.05228475 0.44771525,2.5 1,2.5 Z M1,6.5 C1.55228475,6.5 2,6.05228475 2,5.5 C2,4.94771525 1.55228475,4.5 1,4.5 C0.44771525,4.5 0,4.94771525 0,5.5 C0,6.05228475 0.44771525,6.5 1,6.5 Z M1,8.5 C1.55228475,8.5 2,8.94771525 2,9.5 C2,10.0522847 1.55228475,10.5 1,10.5 C0.44771525,10.5 0,10.0522847 0,9.5 C0,8.94771525 0.44771525,8.5 1,8.5 Z M11.5,9 C11.7761424,9 12,9.22385763 12,9.5 C12,9.77614237 11.7761424,10 11.5,10 L3.5,10 C3.22385763,10 3,9.77614237 3,9.5 C3,9.22385763 3.22385763,9 3.5,9 L11.5,9 Z M11.5,5 C11.7761424,5 12,5.22385763 12,5.5 C12,5.77614237 11.7761424,6 11.5,6 L3.5,6 C3.22385763,6 3,5.77614237 3,5.5 C3,5.22385763 3.22385763,5 3.5,5 L11.5,5 Z" fill="#000000" fill-rule="nonzero"></path>
            </g>
        </g>
    </g>
</svg>