<!-- Generated by IcoMoon.io -->
<svg version="1.1" xmlns="http://www.w3.org/2000/svg" width="27" height="32" viewBox="0 0 27 32">
<title>text</title>
<path d="M0.533 0.356c8.291 0 16.455 0 24.747 0 0 1.629 0 3.258 0 4.886-0.765 0-1.658 0-2.424 0 0-0.752 0-1.629 0-2.381-2.934 0-5.74 0-8.674 0 0 8.896 0 17.791 0 26.687 1.276 0 2.424 0 3.699 0 0 0.752 0 1.629 0 2.381-3.317 0-6.633 0-9.822 0 0-0.752 0-1.629 0-2.381 1.276 0 2.424 0 3.699 0 0-8.896 0-17.791 0-26.687-2.934 0-5.74 0-8.674 0 0 0.752 0 1.629 0 2.381-0.765 0-1.658 0-2.424 0-0.128-1.754-0.128-3.383-0.128-4.886z"></path>
</svg>
