<!-- Generated by IcoMoon.io -->
<svg version="1.1" xmlns="http://www.w3.org/2000/svg" width="32" height="32" viewBox="0 0 32 32">
<title>theme</title>
<path d="M14.861 28.79c-0.040-0.751-0.056-1.172-0.059-1.66-0.002-0.533 0.018-1.021 0.066-1.487 0.457-4.408 2.954-8.178 6.713-7.036 1.489 0.452 2.112 1.334 2.886 3.153 0.103 0.242 0.153 0.361 0.199 0.466 0.284 0.656 0.48 0.986 0.679 1.167 0.995 0.904 1.918 0.925 2.516 0.052 1.397-2.042 2.139-4.629 2.139-7.445 0-7.732-6.268-14-14-14s-14 6.268-14 14c0 7.366 5.688 13.403 12.912 13.958-0.007-0.28-0.023-0.652-0.051-1.169zM16 32c-8.837 0-16-7.163-16-16s7.163-16 16-16c8.837 0 16 7.163 16 16 0 3.154-0.83 6.15-2.489 8.574-1.511 2.208-3.942 1.724-5.511 0.299-1.415-1.286-1.415-3.871-3-4.353-2.312-0.702-3.854 2.55-4.142 5.329s0.721 6.151-0.858 6.151zM9 24c-1.657 0-3-1.343-3-3s1.343-3 3-3c1.657 0 3 1.343 3 3s-1.343 3-3 3zM9 14c-1.657 0-3-1.343-3-3s1.343-3 3-3c1.657 0 3 1.343 3 3s-1.343 3-3 3zM16 8c-1.105 0-2-0.895-2-2s0.895-2 2-2c1.105 0 2 0.895 2 2s-0.895 2-2 2zM24 12c-1.105 0-2-0.895-2-2s0.895-2 2-2c1.105 0 2 0.895 2 2s-0.895 2-2 2z"></path>
</svg>
