<?xml version="1.0" encoding="UTF-8"?>
<svg width="18px" height="18px" viewBox="0 0 18 18" version="1.1" xmlns="http://www.w3.org/2000/svg" xmlns:xlink="http://www.w3.org/1999/xlink">
    <!-- Generator: Sketch 55.1 (78136) - https://sketchapp.com -->
    <title>theme-18</title>
    <desc>Created with Sketch.</desc>
    <g id="Style" stroke="none" stroke-width="1" fill-rule="evenodd">
        <g id="0-UI-icons" transform="translate(-177.000000, -519.000000)" fill-rule="nonzero">
            <g id="Left-navigation" transform="translate(42.000000, 424.000000)">
                <path d="M144,113 C139.029437,113 135,108.970563 135,104 C135,99.0294373 139.029437,95 144,95 C148.970563,95 153,99.0294373 153,104 C153,105.774396 152.533012,107.459546 151.600015,108.822896 C150.75,110.064988 149.382699,109.792914 148.5,108.990811 C147.704163,108.267638 147.704163,106.813132 146.8125,106.542366 C145.511976,106.147444 144.644672,107.976533 144.482503,109.539982 C144.320333,111.103431 144.887802,113 144,113 Z M140.0625,108.5 C140.994481,108.5 141.75,107.744481 141.75,106.8125 C141.75,105.880519 140.994481,105.125 140.0625,105.125 C139.130519,105.125 138.375,105.880519 138.375,106.8125 C138.375,107.744481 139.130519,108.5 140.0625,108.5 Z M140.0625,102.875 C140.994481,102.875 141.75,102.119481 141.75,101.1875 C141.75,100.255519 140.994481,99.5 140.0625,99.5 C139.130519,99.5 138.375,100.255519 138.375,101.1875 C138.375,102.119481 139.130519,102.875 140.0625,102.875 Z M144,99.5 C144.62132,99.5 145.125,98.9963203 145.125,98.375 C145.125,97.7536797 144.62132,97.25 144,97.25 C143.37868,97.25 142.875,97.7536797 142.875,98.375 C142.875,98.9963203 143.37868,99.5 144,99.5 Z M148.5,101.75 C149.12132,101.75 149.625,101.24632 149.625,100.625 C149.625,100.00368 149.12132,99.5 148.5,99.5 C147.87868,99.5 147.375,100.00368 147.375,100.625 C147.375,101.24632 147.87868,101.75 148.5,101.75 Z" id="theme-18"></path>
            </g>
        </g>
    </g>
</svg>