<!-- Generated by IcoMoon.io -->
<svg version="1.1" xmlns="http://www.w3.org/2000/svg" width="29" height="32" viewBox="0 0 29 32">
<title>to-down</title>
<path d="M14.167 28.786h-12.56c-0.887 0-1.607 0.719-1.607 1.607s0.719 1.607 1.607 1.607h26.12c0.887 0 1.607-0.719 1.607-1.607s-0.719-1.607-1.607-1.607h-12.081c0.225-0.086 0.431-0.211 0.604-0.37l12.077-11.107c0.348-0.319 0.522-0.731 0.522-1.143 0-0.435-0.191-0.866-0.573-1.188-0.742-0.63-1.926-0.611-2.639 0.045l-8.823 8.112c-0.003 0.003-0.006-7.16-0.009-21.486 0-0.877-0.776-1.593-1.752-1.646-1.086-0.056-1.985 0.727-1.985 1.683v21.505c0 0.003-2.944-2.7-8.832-8.108-0.713-0.656-1.896-0.678-2.639-0.045-0.742 0.63-0.768 1.676-0.051 2.332l12.013 11.047c0.174 0.159 0.38 0.284 0.606 0.37z"></path>
</svg>
