<!-- Generated by IcoMoon.io -->
<svg version="1.1" xmlns="http://www.w3.org/2000/svg" width="26" height="32" viewBox="0 0 26 32">
<title>to-middle</title>
<path d="M13.646 14.857h11.206c0.634 0 1.148 0.514 1.148 1.148s-0.514 1.148-1.148 1.148h-11.195l6.798 5.728c0.2 0.168 0.3 0.385 0.3 0.602 0 0.229-0.11 0.456-0.329 0.626-0.427 0.332-1.107 0.322-1.517-0.024l-5.074-4.274c-0.002-0.001-0.003 3.772-0.005 11.32 0 0.462-0.446 0.839-1.007 0.867-0.624 0.030-1.142-0.383-1.142-0.887v-11.33c0-0.001-1.693 1.423-5.079 4.272-0.41 0.346-1.090 0.357-1.517 0.024-0.427-0.332-0.442-0.883-0.029-1.228l6.761-5.696h-10.669c-0.634 0-1.148-0.514-1.148-1.148s0.514-1.148 1.148-1.148h10.68l-6.773-5.706c-0.412-0.346-0.398-0.897 0.029-1.228 0.427-0.334 1.107-0.322 1.517 0.024 3.386 2.849 5.079 4.273 5.079 4.272v-11.33c0-0.504 0.517-0.916 1.142-0.887 0.561 0.028 1.007 0.405 1.007 0.867 0.002 7.548 0.003 11.322 0.005 11.32l5.074-4.274c0.41-0.346 1.090-0.356 1.517-0.024 0.22 0.17 0.329 0.397 0.329 0.626 0 0.217-0.1 0.434-0.3 0.602l-6.809 5.737z"></path>
</svg>
