<?xml version="1.0" encoding="UTF-8"?>
<svg width="16px" height="16px" viewBox="0 0 16 16" version="1.1" xmlns="http://www.w3.org/2000/svg" xmlns:xlink="http://www.w3.org/1999/xlink">
    <!-- Generator: Sketch 52.6 (67491) - http://www.bohemiancoding.com/sketch -->
    <title>toc-add-page-16</title>
    <desc>Created with Sketch.</desc>
    <g id="Style" stroke="none" stroke-width="1" fill="none" fill-rule="evenodd">
        <g id="*UI-icons" transform="translate(-476.000000, -1315.000000)" fill="#000000" fill-rule="nonzero">
            <path d="M483.5,1322.5 L483.5,1318.5 C483.5,1318.22386 483.723858,1318 484,1318 C484.276142,1318 484.5,1318.22386 484.5,1318.5 L484.5,1322.5 L488.5,1322.5 C488.776142,1322.5 489,1322.72386 489,1323 C489,1323.27614 488.776142,1323.5 488.5,1323.5 L484.5,1323.5 L484.5,1327.5 C484.5,1327.77614 484.276142,1328 484,1328 C483.723858,1328 483.5,1327.77614 483.5,1327.5 L483.5,1323.5 L479.5,1323.5 C479.223858,1323.5 479,1323.27614 479,1323 C479,1322.72386 479.223858,1322.5 479.5,1322.5 L483.5,1322.5 Z M484,1330 C487.865993,1330 491,1326.86599 491,1323 C491,1319.13401 487.865993,1316 484,1316 C480.134007,1316 477,1319.13401 477,1323 C477,1326.86599 480.134007,1330 484,1330 Z M484,1331 C479.581722,1331 476,1327.41828 476,1323 C476,1318.58172 479.581722,1315 484,1315 C488.418278,1315 492,1318.58172 492,1323 C492,1327.41828 488.418278,1331 484,1331 Z" id="toc-add-page-16"></path>
        </g>
    </g>
</svg>