<?xml version="1.0" encoding="UTF-8"?>
<svg width="12px" height="12px" viewBox="0 0 12 12" version="1.1" xmlns="http://www.w3.org/2000/svg" xmlns:xlink="http://www.w3.org/1999/xlink">
    <!-- Generator: Sketch 55.1 (78136) - https://sketchapp.com -->
    <title>toc-link</title>
    <desc>Created with Sketch.</desc>
    <g id="Style" stroke="none" stroke-width="1" fill-rule="evenodd">
        <g id="0-UI-icons" transform="translate(-224.000000, -633.000000)" fill-rule="nonzero">
            <g id="Toc" transform="translate(100.000000, 586.000000)">
                <path d="M131.419137,55.8386671 C131.615903,56.0354085 131.615903,56.3514058 131.419137,56.5481472 L130,57.9671075 C128.622639,59.3442975 126.410382,59.3442975 125.033021,57.9671075 C123.65566,56.5899175 123.65566,54.3779365 125.033021,53.0007465 L126.449174,51.5788026 C126.64594,51.3820612 126.96496,51.3850448 127.161726,51.5817862 C127.358492,51.7785276 127.358492,52.0945249 127.161726,52.2912664 L125.745573,53.7132102 C124.761744,54.6969174 124.75876,56.2739202 125.742589,57.2576274 C126.726419,58.2413345 128.303618,58.2383509 129.287448,57.2546438 L130.706584,55.8356835 C130.90335,55.6389421 131.222371,55.6419256 131.419137,55.8386671 Z M132.83529,53.7072431 L134.257411,52.2912664 C135.24124,51.3075592 135.24124,49.7275728 134.257411,48.7438656 C133.273581,47.7601585 131.693398,47.7601585 130.709568,48.7438656 L129.290432,50.1628259 C129.093666,50.3595674 128.777629,50.3595674 128.580863,50.1628259 C128.384097,49.9660845 128.381113,49.6471036 128.577879,49.4503622 L129.997016,48.0314019 C131.374377,46.6542119 133.589618,46.6571955 134.966979,48.0343855 C136.34434,49.4115755 136.34434,51.6235565 134.966979,53.0007465 L133.547842,54.4197068 C133.351076,54.6164482 133.03504,54.6164482 132.838274,54.4197068 C132.641508,54.2229654 132.638524,53.9039845 132.83529,53.7072431 Z M127.868311,54.4167232 L131.416153,50.8693225 C131.612919,50.6725811 131.931939,50.6755646 132.128705,50.8723061 C132.325471,51.0690475 132.325471,51.3850448 132.128705,51.5817862 L128.580863,55.1291869 C128.384097,55.3259284 128.068061,55.3259284 127.871295,55.1291869 C127.674529,54.9324455 127.671545,54.6134646 127.868311,54.4167232 Z" id="toc-link"></path>
            </g>
        </g>
    </g>
</svg>