<?xml version="1.0" encoding="UTF-8"?>
<svg width="10px" height="12px" viewBox="0 0 10 12" version="1.1" xmlns="http://www.w3.org/2000/svg" xmlns:xlink="http://www.w3.org/1999/xlink">
    <!-- Generator: Sketch 55.2 (78181) - https://sketchapp.com -->
    <title>toc-page</title>
    <desc>Created with Sketch.</desc>
    <g id="Style" stroke="none" stroke-width="1" fill="none" fill-rule="evenodd">
        <g id="0-UI-icons" transform="translate(-204.000000, -663.000000)" fill="#000000" fill-rule="nonzero">
            <g id="Toc" transform="translate(100.000000, 586.000000)">
                <path d="M105,77 L113,77 C113.552285,77 114,77.4477153 114,78 L114,88 C114,88.5522847 113.552285,89 113,89 L105,89 C104.447715,89 104,88.5522847 104,88 L104,78 C104,77.4477153 104.447715,77 105,77 Z M105,78 L105,88 L113,88 L113,78 L105,78 Z M107,80 L111,80 C111.276142,80 111.5,80.2238576 111.5,80.5 C111.5,80.7761424 111.276142,81 111,81 L107,81 C106.723858,81 106.5,80.7761424 106.5,80.5 C106.5,80.2238576 106.723858,80 107,80 Z M107,82.5 L111,82.5 C111.276142,82.5 111.5,82.7238576 111.5,83 C111.5,83.2761424 111.276142,83.5 111,83.5 L107,83.5 C106.723858,83.5 106.5,83.2761424 106.5,83 C106.5,82.7238576 106.723858,82.5 107,82.5 Z" id="toc-page"></path>
            </g>
        </g>
    </g>
</svg>