<?xml version="1.0" encoding="UTF-8"?>
<svg width="12px" height="12px" viewBox="0 0 12 12" version="1.1" xmlns="http://www.w3.org/2000/svg" xmlns:xlink="http://www.w3.org/1999/xlink">
    <!-- Generator: Sketch 64 (93537) - https://sketch.com -->
    <title>toc-dialog</title>
    <desc>Created with Sketch.</desc>
    <g id="Builder" stroke="none" stroke-width="1" fill="none" fill-rule="evenodd">
        <g id="B3-1-Dialog-Default" transform="translate(-78.000000, -120.000000)" fill="#C5C5C5" fill-rule="nonzero">
            <g id="Dialog" transform="translate(50.000000, 50.000000)">
                <g id="Pages" transform="translate(28.000000, 66.000000)">
                    <g id="Dialog">
                        <path d="M11,4 L11.1166211,4.00672773 C11.6139598,4.06449284 12,4.48716416 12,5 L12,5 L12,12 L11.9932723,12.1166211 C11.9355072,12.6139598 11.5128358,13 11,13 L11,13 L4,13 L0,16 L0,5 L0.00672773133,4.88337887 C0.0644928393,4.38604019 0.487164161,4 1,4 L1,4 L11,4 Z M11,5 L1,5 L1,14 L3.66666667,12 L11,12 L11,5 Z M8.5,9 C8.77614237,9 9,9.22385763 9,9.5 C9,9.77614237 8.77614237,10 8.5,10 L3.5,10 C3.22385763,10 3,9.77614237 3,9.5 C3,9.22385763 3.22385763,9 3.5,9 L8.5,9 Z M8.5,7 C8.77614237,7 9,7.22385763 9,7.5 C9,7.77614237 8.77614237,8 8.5,8 L3.5,8 C3.22385763,8 3,7.77614237 3,7.5 C3,7.22385763 3.22385763,7 3.5,7 L8.5,7 Z" id="toc-dialog"></path>
                    </g>
                </g>
            </g>
        </g>
    </g>
</svg>