<?xml version="1.0" encoding="UTF-8"?>
<svg width="12px" height="12px" viewBox="0 0 12 12" version="1.1" xmlns="http://www.w3.org/2000/svg" xmlns:xlink="http://www.w3.org/1999/xlink">
    <!-- Generator: Sketch 55.1 (78136) - https://sketchapp.com -->
    <title>toc-page</title>
    <desc>Created with Sketch.</desc>
    <g id="Style" stroke="none" stroke-width="1" fill="none" fill-rule="evenodd">
        <g id="0-UI-icons" transform="translate(-202.000000, -633.000000)" fill="#000000" fill-rule="nonzero">
            <g id="Toc" transform="translate(100.000000, 586.000000)">
                <path d="M103,48 L103,58 L113,58 L113,51 L110,48 L103,48 Z M103,47 L110.4,47 L114,50.5 L114,58 C114,58.5522847 113.552285,59 113,59 L103,59 C102.447715,59 102,58.5522847 102,58 L102,48 C102,47.4477153 102.447715,47 103,47 Z M110,51 L113,51 L113,52 L109,52 L109,48 L110,48 L110,51 Z" id="toc-page"></path>
            </g>
        </g>
    </g>
</svg>