<!-- Generated by IcoMoon.io -->
<svg version="1.1" xmlns="http://www.w3.org/2000/svg" width="45" height="32" viewBox="0 0 45 32">
<title>toc</title>
<path d="M41.025 0h-25.6c-1.767 0-3.2 1.433-3.2 3.2s1.433 3.2 3.2 3.2h25.6c1.767 0 3.2-1.433 3.2-3.2s-1.433-3.2-3.2-3.2zM41.025 12.8h-25.6c-1.767 0-3.2 1.433-3.2 3.2s1.433 3.2 3.2 3.2h25.6c1.767 0 3.2-1.433 3.2-3.2s-1.433-3.2-3.2-3.2zM41.025 25.6h-25.6c-1.767 0-3.2 1.433-3.2 3.2s1.433 3.2 3.2 3.2h25.6c1.767 0 3.2-1.433 3.2-3.2s-1.433-3.2-3.2-3.2zM4.758 6.4c1.767 0 3.2-1.433 3.2-3.2s-1.433-3.2-3.2-3.2c-1.767 0-3.2 1.433-3.2 3.2s1.433 3.2 3.2 3.2zM4.758 19.2c1.767 0 3.2-1.433 3.2-3.2s-1.433-3.2-3.2-3.2c-1.767 0-3.2 1.433-3.2 3.2s1.433 3.2 3.2 3.2zM4.758 32c1.767 0 3.2-1.433 3.2-3.2s-1.433-3.2-3.2-3.2c-1.767 0-3.2 1.433-3.2 3.2s1.433 3.2 3.2 3.2z"></path>
</svg>
