<?xml version="1.0" encoding="UTF-8"?>
<svg width="16px" height="16px" viewBox="0 0 16 16" version="1.1" xmlns="http://www.w3.org/2000/svg" xmlns:xlink="http://www.w3.org/1999/xlink">
    <!-- Generator: Sketch 52.6 (67491) - http://www.bohemiancoding.com/sketch -->
    <title>tool-layer-top</title>
    <desc>Created with Sketch.</desc>
    <g id="Style" stroke="none" stroke-width="1" fill="none" fill-rule="evenodd">
        <g id="*UI-icons" transform="translate(-387.000000, -1233.000000)" fill="#000000" fill-rule="nonzero">
            <path d="M395.5,1235.91553 L395.5,1248 L402.5,1248 C402.776142,1248 403,1248.22386 403,1248.5 C403,1248.77614 402.776142,1249 402.5,1249 L387.5,1249 C387.223858,1249 387,1248.77614 387,1248.5 C387,1248.22386 387.223858,1248 387.5,1248 L394.5,1248 L394.5,1235.91289 L393.473553,1236.93934 C393.278291,1237.1346 392.961709,1237.1346 392.766447,1236.93934 C392.571184,1236.74408 392.571184,1236.4275 392.766447,1236.23223 L394.99868,1234 L397.155534,1236.15685 C397.350796,1236.35212 397.350796,1236.6687 397.155534,1236.86396 C396.960272,1237.05922 396.643689,1237.05922 396.448427,1236.86396 L395.5,1235.91553 Z M387.5,1233 L402.5,1233 C402.776142,1233 403,1233.22386 403,1233.5 C403,1233.77614 402.776142,1234 402.5,1234 L387.5,1234 C387.223858,1234 387,1233.77614 387,1233.5 C387,1233.22386 387.223858,1233 387.5,1233 Z M388.5,1242 L393,1242 L393,1243 L388.5,1243 C388.223858,1243 388,1242.77614 388,1242.5 C388,1242.22386 388.223858,1242 388.5,1242 Z M401.5,1242 C401.776142,1242 402,1242.22386 402,1242.5 C402,1242.77614 401.776142,1243 401.5,1243 L397,1243 L397,1242 L401.5,1242 Z" id="tool-layer-top"></path>
        </g>
    </g>
</svg>