<!-- Generated by IcoMoon.io -->
<svg version="1.1" xmlns="http://www.w3.org/2000/svg" width="32" height="32" viewBox="0 0 32 32">
<title>tool-delete</title>
<path d="M9 6v-3.667c0-1.394 1.408-2.333 3-2.333h8c1.592 0 3 0.939 3 2.333v3.667h8c0.552 0 1 0.448 1 1s-0.448 1-1 1h-3l-1.858 22.153c-0.080 1.042-0.949 1.847-1.994 1.847h-16.296c-1.045 0-1.914-0.805-1.994-1.847l-1.858-22.153h-3c-0.552 0-1-0.448-1-1s0.448-1 1-1h8zM11 6h10v-4c0-0.078-10-0.078-10 0v4zM6.006 8l1.846 22h16.296l1.846-22h-19.988zM13 12c0.552 0 1 0.448 1 1v12c0 0.552-0.448 1-1 1s-1-0.448-1-1v-12c0-0.552 0.448-1 1-1zM19 12c0.552 0 1 0.448 1 1v12c0 0.552-0.448 1-1 1s-1-0.448-1-1v-12c0-0.552 0.448-1 1-1z"></path>
</svg>
