<!-- Generated by IcoMoon.io -->
<svg version="1.1" xmlns="http://www.w3.org/2000/svg" width="32" height="32" viewBox="0 0 32 32">
<title>tool-d-h</title>
<path d="M20 15h4v-4.667c0-1.289 0.895-2.333 2-2.333h4c1.105 0 2 1.045 2 2.333v11.333c0 1.289-0.895 2.333-2 2.333h-4c-1.105 0-2-1.045-2-2.333v-4.667h-4v11c0 1.105-0.895 2-2 2h-4c-1.105 0-2-0.895-2-2v-11h-4v6.667c0 1.289-0.895 2.333-2 2.333h-4c-1.105 0-2-1.045-2-2.333v-15.333c0-1.289 0.895-2.333 2-2.333h4c1.105 0 2 1.045 2 2.333v6.667h4v-11c0-1.105 0.895-2 2-2h4c1.105 0 2 0.895 2 2v11zM2 8.333v15.333h4v-15.333h-4zM26 10.333v11.333h4v-11.333h-4zM14 4v24h4v-24h-4z"></path>
</svg>
