<?xml version="1.0" encoding="UTF-8"?>
<svg width="16px" height="16px" viewBox="0 0 16 16" version="1.1" xmlns="http://www.w3.org/2000/svg" xmlns:xlink="http://www.w3.org/1999/xlink">
    <!-- Generator: Sketch 52.6 (67491) - http://www.bohemiancoding.com/sketch -->
    <title>tool-height-max</title>
    <desc>Created with Sketch.</desc>
    <g id="Style" stroke="none" stroke-width="1" fill="none" fill-rule="evenodd">
        <g id="*UI-icons" transform="translate(-136.000000, -1233.000000)" fill="#000000" fill-rule="nonzero">
            <path d="M144.5,1235.91421 L144.5,1239 L143.5,1239 L143.5,1235.91421 L142.474874,1236.93934 C142.279612,1237.1346 141.963029,1237.1346 141.767767,1236.93934 C141.572505,1236.74408 141.572505,1236.4275 141.767767,1236.23223 L144,1234 L146.156854,1236.15685 C146.352116,1236.35212 146.352116,1236.6687 146.156854,1236.86396 C145.961592,1237.05922 145.64501,1237.05922 145.449747,1236.86396 L144.5,1235.91421 Z M144.5,1246.08579 L145.449747,1245.13604 C145.64501,1244.94078 145.961592,1244.94078 146.156854,1245.13604 C146.352116,1245.3313 146.352116,1245.64788 146.156854,1245.84315 L144,1248 L141.767767,1245.76777 C141.572505,1245.5725 141.572505,1245.25592 141.767767,1245.06066 C141.963029,1244.8654 142.279612,1244.8654 142.474874,1245.06066 L143.5,1246.08579 L143.5,1243 L144.5,1243 L144.5,1246.08579 Z M137,1234 L137,1248 L151,1248 L151,1234 L137,1234 Z M137,1233 L151,1233 C151.552285,1233 152,1233.44772 152,1234 L152,1248 C152,1248.55228 151.552285,1249 151,1249 L137,1249 C136.447715,1249 136,1248.55228 136,1248 L136,1234 C136,1233.44772 136.447715,1233 137,1233 Z" id="tool-height-max"></path>
        </g>
    </g>
</svg>