<!-- Generated by IcoMoon.io -->
<svg version="1.1" xmlns="http://www.w3.org/2000/svg" width="28" height="32" viewBox="0 0 28 32">
<title>tool-d-v</title>
<path d="M13 12v-4h-4.667c-1.289 0-2.333-0.895-2.333-2v-4c0-1.105 1.045-2 2.333-2h11.333c1.289 0 2.333 0.895 2.333 2v4c0 1.105-1.045 2-2.333 2h-4.667v4h11c1.105 0 2 0.895 2 2v4c0 1.105-0.895 2-2 2h-11v4h6.667c1.289 0 2.333 0.895 2.333 2v4c0 1.105-1.045 2-2.333 2h-15.333c-1.289 0-2.333-0.895-2.333-2v-4c0-1.105 1.045-2 2.333-2h6.667v-4h-11c-1.105 0-2-0.895-2-2v-4c0-1.105 0.895-2 2-2h11zM6.333 30h15.333v-4h-15.333v4zM8.333 6h11.333v-4h-11.333v4zM2 18h24v-4h-24v4z"></path>
</svg>
