<?xml version="1.0" encoding="UTF-8"?>
<svg width="14px" height="16px" viewBox="0 0 14 16" version="1.1" xmlns="http://www.w3.org/2000/svg" xmlns:xlink="http://www.w3.org/1999/xlink">
    <!-- Generator: Sketch 52.6 (67491) - http://www.bohemiancoding.com/sketch -->
    <title>tool-data</title>
    <desc>Created with Sketch.</desc>
    <g id="Style" stroke="none" stroke-width="1" fill="none" fill-rule="evenodd">
        <g id="*UI-icons" transform="translate(-460.000000, -1233.000000)" fill="#000000" fill-rule="nonzero">
            <path d="M460.999747,1248 L472.999747,1248 L472.999747,1245 L460.999747,1245 L460.999747,1248 Z M459.999747,1244 L473.999747,1244 L473.999747,1248 C473.999747,1248.55228 473.552032,1249 472.999747,1249 L460.999747,1249 C460.447463,1249 459.999747,1248.55228 459.999747,1248 L459.999747,1244 Z M460.999747,1240 L460.999747,1242 L472.999747,1242 L472.999747,1240 L460.999747,1240 Z M459.999747,1239 L473.999747,1239 L473.999747,1243 L459.999747,1243 L459.999747,1239 Z M472.999747,1237 L472.999747,1234 L460.999747,1234 L460.999747,1237 L472.999747,1237 Z M459.999747,1238 L459.999747,1234 C459.999747,1233.44772 460.447463,1233 460.999747,1233 L472.999747,1233 C473.552032,1233 473.999747,1233.44772 473.999747,1234 L473.999747,1238 L459.999747,1238 Z M462.5,1241.5 C462.223858,1241.5 462,1241.27614 462,1241 C462,1240.72386 462.223858,1240.5 462.5,1240.5 C462.776142,1240.5 463,1240.72386 463,1241 C463,1241.27614 462.776142,1241.5 462.5,1241.5 Z M462.5,1247 C462.223858,1247 462,1246.77614 462,1246.5 C462,1246.22386 462.223858,1246 462.5,1246 C462.776142,1246 463,1246.22386 463,1246.5 C463,1246.77614 462.776142,1247 462.5,1247 Z M462.5,1236 C462.223858,1236 462,1235.77614 462,1235.5 C462,1235.22386 462.223858,1235 462.5,1235 C462.776142,1235 463,1235.22386 463,1235.5 C463,1235.77614 462.776142,1236 462.5,1236 Z" id="tool-data"></path>
        </g>
    </g>
</svg>