<svg width="16" height="16" viewBox="0 0 16 16" xmlns="http://www.w3.org/2000/svg">
  <path d="M1.914214 13.5l1.025126 1.02513c.195262.19526.195262.51184 0 .7071-.195262.19527-.511845.19527-.707107 0L0 13l2.307612-2.30761c.195262-.19526.511844-.19526.707107 0 .195262.19526.195262.51184 0 .7071L1.914214 12.5h8.127265c.210759-1.25625 1.202269-2.24776 2.458521-2.45852V1.91421l-.949747.94975c-.195263.19526-.511845.19526-.707107 0-.195262-.19526-.195262-.51184 0-.70711L13 0l2.232233 2.23223c.195262.19527.195262.51185 0 .70711s-.511845.19526-.707107 0L13.5 1.91421v8.12727C14.918857 10.27952 16 11.5135 16 13c0 1.65685-1.343146 3-3 3-1.486498 0-2.720482-1.08114-2.958521-2.5H1.914214zM13 15c1.104569 0 2-.89543 2-2s-.895431-2-2-2c-1.104569 0-2 .89543-2 2s.895431 2 2 2z"/>
</svg>