<?xml version="1.0" encoding="UTF-8"?>
<svg width="16px" height="16px" viewBox="0 0 16 16" version="1.1" xmlns="http://www.w3.org/2000/svg" xmlns:xlink="http://www.w3.org/1999/xlink">
    <!-- Generator: Sketch 52.6 (67491) - http://www.bohemiancoding.com/sketch -->
    <title>tool-layer-up</title>
    <desc>Created with Sketch.</desc>
    <g id="Style" stroke="none" stroke-width="1" fill="none" fill-rule="evenodd">
        <g id="*UI-icons" transform="translate(-315.000000, -1233.000000)" fill="#000000" fill-rule="nonzero">
            <path d="M323.5,1234.91553 L323.5,1248 L330.5,1248 C330.776142,1248 331,1248.22386 331,1248.5 C331,1248.77614 330.776142,1249 330.5,1249 L315.5,1249 C315.223858,1249 315,1248.77614 315,1248.5 C315,1248.22386 315.223858,1248 315.5,1248 L322.5,1248 L322.5,1234.91289 L321.473553,1235.93934 C321.278291,1236.1346 320.961709,1236.1346 320.766447,1235.93934 C320.571184,1235.74408 320.571184,1235.4275 320.766447,1235.23223 L322.99868,1233 L325.155534,1235.15685 C325.350796,1235.35212 325.350796,1235.6687 325.155534,1235.86396 C324.960272,1236.05922 324.643689,1236.05922 324.448427,1235.86396 L323.5,1234.91553 Z M316.5,1242 L321,1242 L321,1243 L316.5,1243 C316.223858,1243 316,1242.77614 316,1242.5 C316,1242.22386 316.223858,1242 316.5,1242 Z M329.5,1242 C329.776142,1242 330,1242.22386 330,1242.5 C330,1242.77614 329.776142,1243 329.5,1243 L325,1243 L325,1242 L329.5,1242 Z" id="tool-layer-up"></path>
        </g>
    </g>
</svg>