<?xml version="1.0" encoding="UTF-8"?>
<svg width="16px" height="16px" viewBox="0 0 16 16" version="1.1" xmlns="http://www.w3.org/2000/svg" xmlns:xlink="http://www.w3.org/1999/xlink">
    <!-- Generator: Sketch 54.1 (76490) - https://sketchapp.com -->
    <title>tool-remove-relevance</title>
    <desc>Created with Sketch.</desc>
    <g id="Style" stroke="none" stroke-width="1" fill="none" fill-rule="evenodd">
        <g id="0-UI-icons" transform="translate(-597.000000, -1083.000000)" fill="#000000">
            <path d="M612.041959,1098.85873 C611.97353,1098.80078 611.901496,1098.7374 611.825857,1098.66858 C610.700016,1097.64427 605.812748,1092.72085 597.164052,1083.89831 L597.148686,1083.88263 C596.948922,1083.67884 596.950669,1083.35243 597.152602,1083.15077 C597.353908,1082.94974 597.68029,1082.94974 597.881596,1083.15077 L612.84902,1098.09765 C613.050327,1098.29868 613.050327,1098.62462 612.84902,1098.82565 C612.629622,1099.04474 612.278608,1099.05913 612.04197,1098.85872 L612.041959,1098.85873 Z M607,1090.87868 L607,1085 L601.12132,1085 L600.12132,1084 L607,1084 C607.552285,1084 608,1084.44772 608,1085 L608,1091.87868 L607,1090.87868 Z M599,1087.12132 L599,1093 L600.5,1093 C600.776142,1093 601,1093.22386 601,1093.5 C601,1093.77614 600.776142,1094 600.5,1094 L599,1094 C598.447715,1094 598,1093.55228 598,1093 L598,1086.12132 L599,1087.12132 Z M603,1091.12132 L603,1097 L608.87868,1097 L609.87868,1098 L603,1098 C602.447715,1098 602,1097.55228 602,1097 L602,1090.12132 L603,1091.12132 Z M611,1094.87868 L611,1089 L609.5,1089 C609.223858,1089 609,1088.77614 609,1088.5 C609,1088.22386 609.223858,1088 609.5,1088 L611,1088 C611.552285,1088 612,1088.44772 612,1089 L612,1095.87868 L611,1094.87868 Z" id="tool-remove-relevance"></path>
        </g>
    </g>
</svg>