<!-- Generated by IcoMoon.io -->
<svg version="1.1" xmlns="http://www.w3.org/2000/svg" width="32" height="32" viewBox="0 0 32 32">
<title>tool-drag</title>
<path d="M3.828 15h11.172v-11.172l-2.050 2.050c-0.391 0.391-1.024 0.391-1.414 0s-0.391-1.024 0-1.414l4.464-4.464 4.314 4.314c0.391 0.391 0.391 1.024 0 1.414s-1.024 0.391-1.414 0l-1.899-1.899v11.172h11.172l-2.201-2.201c-0.391-0.391-0.391-1.024 0-1.414s1.024-0.391 1.414 0l4.615 4.615-4.464 4.464c-0.391 0.391-1.024 0.391-1.414 0s-0.391-1.024 0-1.414l2.050-2.050h-11.172v11.172l2.050-2.050c0.391-0.391 1.024-0.391 1.414 0s0.391 1.024 0 1.414l-4.464 4.464-4.615-4.615c-0.391-0.391-0.391-1.024 0-1.414s1.024-0.391 1.414 0l2.201 2.201v-11.172h-11.172l1.899 1.899c0.391 0.391 0.391 1.024 0 1.414s-1.024 0.391-1.414 0l-4.314-4.314 4.464-4.464c0.391-0.391 1.024-0.391 1.414 0s0.391 1.024 0 1.414l-2.050 2.050z"></path>
</svg>
