<?xml version="1.0" encoding="UTF-8"?>
<svg width="16px" height="16px" viewBox="0 0 16 16" version="1.1" xmlns="http://www.w3.org/2000/svg" xmlns:xlink="http://www.w3.org/1999/xlink">
    <!-- Generator: Sketch 52.6 (67491) - http://www.bohemiancoding.com/sketch -->
    <title>tool-edit</title>
    <desc>Created with Sketch.</desc>
    <g id="Style" stroke="none" stroke-width="1" fill="none" fill-rule="evenodd">
        <g id="*UI-icons" transform="translate(-208.000000, -1233.000000)" fill="#000000" fill-rule="nonzero">
            <path d="M210.212132,1242.93638 L210,1245.26983 L212.333452,1245.0577 L221.269833,1236.12132 L219.148512,1234 L210.212132,1242.93638 Z M209.505025,1242.22927 L218.441405,1233.29289 C218.83193,1232.90237 219.465095,1232.90237 219.855619,1233.29289 L221.976939,1235.41421 C222.367464,1235.80474 222.367464,1236.4379 221.976939,1236.82843 L213.040559,1245.76481 C212.875141,1245.93023 212.656964,1246.03241 212.423988,1246.05359 L210.090536,1246.26573 C209.540519,1246.31573 209.054108,1245.91038 209.004107,1245.36037 C208.998631,1245.30014 208.998631,1245.23953 209.004107,1245.1793 L209.216239,1242.84584 C209.237418,1242.61287 209.339607,1242.39469 209.505025,1242.22927 Z M216.93934,1235.73223 L219.767767,1238.56066 L219.06066,1239.26777 L216.232233,1236.43934 L216.93934,1235.73223 Z M208.5,1248 L223.5,1248 C223.776142,1248 224,1248.22386 224,1248.5 C224,1248.77614 223.776142,1249 223.5,1249 L208.5,1249 C208.223858,1249 208,1248.77614 208,1248.5 C208,1248.22386 208.223858,1248 208.5,1248 Z" id="tool-edit"></path>
        </g>
    </g>
</svg>