<?xml version="1.0" encoding="UTF-8"?>
<svg width="16px" height="16px" viewBox="0 0 16 16" version="1.1" xmlns="http://www.w3.org/2000/svg" xmlns:xlink="http://www.w3.org/1999/xlink">
    <!-- Generator: Sketch 54.1 (76490) - https://sketchapp.com -->
    <title>tool-sync</title>
    <desc>Created with Sketch.</desc>
    <g id="Style" stroke="none" stroke-width="1" fill="none" fill-rule="evenodd">
        <g id="0-UI-icons" transform="translate(-561.000000, -1083.000000)" fill="#000000" fill-rule="nonzero">
            <path d="M568,1092.5 C568,1092.22386 568.223858,1092 568.5,1092 L571,1092 L571,1084 L562,1084 L562,1092 L564.5,1092 C564.776142,1092 565,1092.22386 565,1092.5 C565,1092.77614 564.776142,1093 564.5,1093 L562,1093 C561.447715,1093 561,1092.55228 561,1092 L561,1084 C561,1083.44772 561.447715,1083 562,1083 L571,1083 C571.552285,1083 572,1083.44772 572,1084 L572,1092 C572,1092.55228 571.552285,1093 571,1093 L568.5,1093 C568.223858,1093 568,1092.77614 568,1092.5 Z M570,1089.5 C570,1089.77614 569.776142,1090 569.5,1090 L567,1090 L567,1098 L576,1098 L576,1090 L573.5,1090 C573.223858,1090 573,1089.77614 573,1089.5 C573,1089.22386 573.223858,1089 573.5,1089 L576,1089 C576.552285,1089 577,1089.44772 577,1090 L577,1098 C577,1098.55228 576.552285,1099 576,1099 L567,1099 C566.447715,1099 566,1098.55228 566,1098 L566,1090 C566,1089.44772 566.447715,1089 567,1089 L569.5,1089 C569.776142,1089 570,1089.22386 570,1089.5 Z" id="tool-sync"></path>
        </g>
    </g>
</svg>