<svg width="16" height="16" viewBox="0 0 16 16" xmlns="http://www.w3.org/2000/svg">
  <path d="M14.085786 2.5L13.06066 1.47487c-.195262-.19526-.195262-.51184 0-.7071.195262-.19527.511845-.19527.707107 0L16 3l-2.307612 2.30761c-.195262.19526-.511844.19526-.707107 0-.195262-.19526-.195262-.51184 0-.7071L14.085786 3.5H5.958521C5.747762 4.75625 4.756252 5.74776 3.5 5.95852v8.12727l.949747-.94975c.195263-.19526.511845-.19526.707107 0 .195262.19526.195262.51184 0 .70711L3 16 .767767 13.76777c-.195262-.19527-.195262-.51185 0-.70711s.511845-.19526.707107 0L2.5 14.08579V5.95852C1.081143 5.72048 0 4.4865 0 3c0-1.65685 1.343146-3 3-3 1.486498 0 2.720482 1.08114 2.958521 2.5h8.127265zM3 1c-1.104569 0-2 .89543-2 2s.895431 2 2 2c1.104569 0 2-.89543 2-2s-.895431-2-2-2z"/>
</svg>