<svg width="16" height="16" viewBox="0 0 16 16" xmlns="http://www.w3.org/2000/svg">
  <path d="M14.085786 13.5H5.958521C5.720482 14.91886 4.486498 16 3 16c-1.656854 0-3-1.34315-3-3 0-1.4865 1.081143-2.72048 2.5-2.95852V1.91421L1.474874 2.93934c-.195262.19526-.511845.19526-.707107 0-.195262-.19526-.195262-.51184 0-.70711L3 0l2.156854 2.15685c.195262.19527.195262.51185 0 .70711s-.511844.19526-.707107 0L3.5 1.91421v8.12727c1.256252.21076 2.247762 1.20227 2.458521 2.45852h8.127265l-1.100505-1.10051c-.195262-.19526-.195262-.51184 0-.7071.195263-.19526.511845-.19526.707107 0L16 13l-2.232233 2.23223c-.195262.19527-.511845.19527-.707107 0-.195262-.19526-.195262-.51184 0-.7071L14.085786 13.5zM3 15c1.104569 0 2-.89543 2-2s-.895431-2-2-2c-1.104569 0-2 .89543-2 2s.895431 2 2 2z"/>
</svg>