<?xml version="1.0" encoding="UTF-8"?>
<svg width="16px" height="16px" viewBox="0 0 16 16" version="1.1" xmlns="http://www.w3.org/2000/svg" xmlns:xlink="http://www.w3.org/1999/xlink">
    <!-- Generator: Sketch 52.6 (67491) - http://www.bohemiancoding.com/sketch -->
    <title>tool-width-max</title>
    <desc>Created with Sketch.</desc>
    <g id="Style" stroke="none" stroke-width="1" fill="none" fill-rule="evenodd">
        <g id="*UI-icons" transform="translate(-172.000000, -1233.000000)" fill="#000000" fill-rule="nonzero">
            <path d="M185.085786,1241.5 L182,1241.5 L182,1240.5 L185.085786,1240.5 L184.06066,1239.47487 C183.865398,1239.27961 183.865398,1238.96303 184.06066,1238.76777 C184.255922,1238.5725 184.572505,1238.5725 184.767767,1238.76777 L187,1241 L184.843146,1243.15685 C184.647884,1243.35212 184.331301,1243.35212 184.136039,1243.15685 C183.940777,1242.96159 183.940777,1242.64501 184.136039,1242.44975 L185.085786,1241.5 Z M174.914214,1241.5 L175.863961,1242.44975 C176.059223,1242.64501 176.059223,1242.96159 175.863961,1243.15685 C175.668699,1243.35212 175.352116,1243.35212 175.156854,1243.15685 L173,1241 L175.232233,1238.76777 C175.427495,1238.5725 175.744078,1238.5725 175.93934,1238.76777 C176.134602,1238.96303 176.134602,1239.27961 175.93934,1239.47487 L174.914214,1240.5 L178,1240.5 L178,1241.5 L174.914214,1241.5 Z M187,1234 L173,1234 L173,1248 L187,1248 L187,1234 Z M188,1234 L188,1248 C188,1248.55228 187.552285,1249 187,1249 L173,1249 C172.447715,1249 172,1248.55228 172,1248 L172,1234 C172,1233.44772 172.447715,1233 173,1233 L187,1233 C187.552285,1233 188,1233.44772 188,1234 Z" id="tool-width-max"></path>
        </g>
    </g>
</svg>