<?xml version="1.0" encoding="UTF-8"?>
<svg width="16px" height="16px" viewBox="0 0 16 16" version="1.1" xmlns="http://www.w3.org/2000/svg" xmlns:xlink="http://www.w3.org/1999/xlink">
    <!-- Generator: Sketch 52.6 (67491) - http://www.bohemiancoding.com/sketch -->
    <title>tool-align</title>
    <desc>Created with Sketch.</desc>
    <g id="Style" stroke="none" stroke-width="1" fill="none" fill-rule="evenodd">
        <g id="*UI-icons" transform="translate(-172.000000, -1197.000000)" fill="#000000" fill-rule="nonzero">
            <path d="M187,1198 L173,1198 L173,1212 L187,1212 L187,1198 Z M188,1198 L188,1212 C188,1212.55228 187.552285,1213 187,1213 L173,1213 C172.447715,1213 172,1212.55228 172,1212 L172,1198 C172,1197.44772 172.447715,1197 173,1197 L187,1197 C187.552285,1197 188,1197.44772 188,1198 Z M175,1207 L175,1209 L185,1209 L185,1207 L175,1207 Z M175,1206 L185,1206 C185.552285,1206 186,1206.44772 186,1207 L186,1209 C186,1209.55228 185.552285,1210 185,1210 L175,1210 C174.447715,1210 174,1209.55228 174,1209 L174,1207 C174,1206.44772 174.447715,1206 175,1206 Z M175,1201 L175,1203 L181,1203 L181,1201 L175,1201 Z M175,1200 L181,1200 C181.552285,1200 182,1200.44772 182,1201 L182,1203 C182,1203.55228 181.552285,1204 181,1204 L175,1204 C174.447715,1204 174,1203.55228 174,1203 L174,1201 C174,1200.44772 174.447715,1200 175,1200 Z" id="tool-align"></path>
        </g>
    </g>
</svg>