<!-- Generated by IcoMoon.io -->
<svg version="1.1" xmlns="http://www.w3.org/2000/svg" width="28" height="32" viewBox="0 0 28 32">
<title>tool-a-c</title>
<path d="M15 14v4h10.667c1.289 0 2.333 0.895 2.333 2v4c0 1.105-1.045 2-2.333 2h-10.667v5c0 0.552-0.448 1-1 1s-1-0.448-1-1v-5h-10.667c-1.289 0-2.333-0.895-2.333-2v-4c0-1.105 1.045-2 2.333-2h10.667v-4h-5c-1.105 0-2-0.895-2-2v-4c0-1.105 0.895-2 2-2h5v-5c0-0.552 0.448-1 1-1s1 0.448 1 1v5h5c1.105 0 2 0.895 2 2v4c0 1.105-0.895 2-2 2h-5zM2.333 20v4h23.333v-4h-23.333zM8 8v4h12v-4h-12z"></path>
</svg>
