<?xml version="1.0" encoding="UTF-8"?>
<svg width="16px" height="16px" viewBox="0 0 16 16" version="1.1" xmlns="http://www.w3.org/2000/svg" xmlns:xlink="http://www.w3.org/1999/xlink">
    <!-- Generator: Sketch 55.2 (78181) - https://sketchapp.com -->
    <title>tool-layer</title>
    <desc>Created with Sketch.</desc>
    <g id="Style" stroke="none" stroke-width="1" fill="none" fill-rule="evenodd">
        <g id="0-UI-icons" transform="translate(-279.000000, -1303.000000)" fill="#000000" fill-rule="nonzero">
            <path d="M286.433471,1303.19971 C286.774723,1302.93343 287.225277,1302.93343 287.566529,1303.19971 L294.566529,1308.2238 C294.667405,1308.30251 294.75469,1308.40158 294.824042,1308.51607 C295.136927,1309.0326 295.021635,1309.73921 294.566529,1310.09433 L287.566529,1314.80029 C287.225277,1315.06657 286.774723,1315.06657 286.433471,1314.80029 L279.433471,1310.09433 C279.332595,1310.01562 279.24531,1309.91655 279.175958,1309.80206 C278.863073,1309.28553 278.978365,1308.57891 279.433471,1308.2238 L286.433471,1303.19971 Z M294,1309.15906 L287,1304.13497 L280,1309.15906 L287,1313.86503 L294,1309.15906 Z M279.77735,1313.08403 L287,1317.89908 L294.22265,1313.08403 C294.452414,1312.93085 294.762849,1312.99294 294.916025,1313.2227 C295.069201,1313.45246 295.007114,1313.7629 294.77735,1313.91607 L287.27735,1318.91603 C287.1094,1319.02799 286.8906,1319.02799 286.72265,1318.91603 L279.22265,1313.91607 C278.992886,1313.7629 278.930799,1313.45246 279.083975,1313.2227 C279.237151,1312.99294 279.547586,1312.93085 279.77735,1313.08403 Z" id="tool-layer"></path>
        </g>
    </g>
</svg>