<?xml version="1.0" encoding="UTF-8"?>
<svg width="16px" height="16px" viewBox="0 0 16 16" version="1.1" xmlns="http://www.w3.org/2000/svg" xmlns:xlink="http://www.w3.org/1999/xlink">
    <!-- Generator: Sketch 52.6 (67491) - http://www.bohemiancoding.com/sketch -->
    <title>tool-layer-bottom</title>
    <desc>Created with Sketch.</desc>
    <g id="Style" stroke="none" stroke-width="1" fill="none" fill-rule="evenodd">
        <g id="*UI-icons" transform="translate(-423.000000, -1233.000000)" fill="#000000" fill-rule="nonzero">
            <path d="M431.5,1246.08447 L432.448427,1245.13604 C432.643689,1244.94078 432.960272,1244.94078 433.155534,1245.13604 C433.350796,1245.3313 433.350796,1245.64788 433.155534,1245.84315 L430.99868,1248 L428.766447,1245.76777 C428.571184,1245.5725 428.571184,1245.25592 428.766447,1245.06066 C428.961709,1244.8654 429.278291,1244.8654 429.473553,1245.06066 L430.5,1246.08711 L430.5,1234 L423.5,1234 C423.223858,1234 423,1233.77614 423,1233.5 C423,1233.22386 423.223858,1233 423.5,1233 L438.5,1233 C438.776142,1233 439,1233.22386 439,1233.5 C439,1233.77614 438.776142,1234 438.5,1234 L431.5,1234 L431.5,1246.08447 Z M423.5,1249 C423.223858,1249 423,1248.77614 423,1248.5 C423,1248.22386 423.223858,1248 423.5,1248 L438.5,1248 C438.776142,1248 439,1248.22386 439,1248.5 C439,1248.77614 438.776142,1249 438.5,1249 L423.5,1249 Z M424.5,1240 C424.223858,1240 424,1239.77614 424,1239.5 C424,1239.22386 424.223858,1239 424.5,1239 L429,1239 L429,1240 L424.5,1240 Z M437.5,1240 L433,1240 L433,1239 L437.5,1239 C437.776142,1239 438,1239.22386 438,1239.5 C438,1239.77614 437.776142,1240 437.5,1240 Z" id="tool-layer-bottom"></path>
        </g>
    </g>
</svg>