<?xml version="1.0" encoding="UTF-8"?>
<svg width="16px" height="16px" viewBox="0 0 16 16" version="1.1" xmlns="http://www.w3.org/2000/svg" xmlns:xlink="http://www.w3.org/1999/xlink">
    <!-- Generator: Sketch 52.6 (67491) - http://www.bohemiancoding.com/sketch -->
    <title>tool-layer-down</title>
    <desc>Created with Sketch.</desc>
    <g id="Style" stroke="none" stroke-width="1" fill="none" fill-rule="evenodd">
        <g id="*UI-icons" transform="translate(-351.000000, -1233.000000)" fill="#000000" fill-rule="nonzero">
            <path d="M359.5,1247.08447 L360.448427,1246.13604 C360.643689,1245.94078 360.960272,1245.94078 361.155534,1246.13604 C361.350796,1246.3313 361.350796,1246.64788 361.155534,1246.84315 L358.99868,1249 L356.766447,1246.76777 C356.571184,1246.5725 356.571184,1246.25592 356.766447,1246.06066 C356.961709,1245.8654 357.278291,1245.8654 357.473553,1246.06066 L358.5,1247.08711 L358.5,1234 L351.5,1234 C351.223858,1234 351,1233.77614 351,1233.5 C351,1233.22386 351.223858,1233 351.5,1233 L366.5,1233 C366.776142,1233 367,1233.22386 367,1233.5 C367,1233.77614 366.776142,1234 366.5,1234 L359.5,1234 L359.5,1247.08447 Z M352.5,1240 C352.223858,1240 352,1239.77614 352,1239.5 C352,1239.22386 352.223858,1239 352.5,1239 L357,1239 L357,1240 L352.5,1240 Z M365.5,1240 L361,1240 L361,1239 L365.5,1239 C365.776142,1239 366,1239.22386 366,1239.5 C366,1239.77614 365.776142,1240 365.5,1240 Z" id="tool-layer-down"></path>
        </g>
    </g>
</svg>