<?xml version="1.0" encoding="UTF-8"?>
<svg width="16px" height="16px" viewBox="0 0 16 16" version="1.1" xmlns="http://www.w3.org/2000/svg" xmlns:xlink="http://www.w3.org/1999/xlink">
    <!-- Generator: Sketch 52.6 (67491) - http://www.bohemiancoding.com/sketch -->
    <title>tool-max</title>
    <desc>Created with Sketch.</desc>
    <g id="Style" stroke="none" stroke-width="1" fill="none" fill-rule="evenodd">
        <g id="*UI-icons" transform="translate(-100.000000, -1233.000000)" fill="#000000" fill-rule="nonzero">
            <path d="M114.292893,1234 L112.95,1234 C112.673858,1234 112.45,1233.77614 112.45,1233.5 C112.45,1233.22386 112.673858,1233 112.95,1233 L116.000253,1233 L116.000253,1236.15685 C116.000253,1236.433 115.776395,1236.65685 115.500253,1236.65685 C115.22411,1236.65685 115.000253,1236.433 115.000253,1236.15685 L115.000253,1234.70685 L108.707107,1241 L114.996854,1247.28975 L114.996854,1245.74 C114.996854,1245.46386 115.220712,1245.24 115.496854,1245.24 C115.772997,1245.24 115.996854,1245.46386 115.996854,1245.74 L115.996854,1249.00346 L112.84,1249.00346 C112.563858,1249.00346 112.34,1248.7796 112.34,1248.50346 C112.34,1248.22731 112.563858,1248.00346 112.84,1248.00346 L114.296349,1248.00346 L108,1241.70711 L101.703651,1248.00346 L103.156854,1248.00346 C103.432997,1248.00346 103.656854,1248.22731 103.656854,1248.50346 C103.656854,1248.7796 103.432997,1249.00346 103.156854,1249.00346 L100,1249.00346 L100,1245.74 C100,1245.46386 100.223858,1245.24 100.5,1245.24 C100.776142,1245.24 101,1245.46386 101,1245.74 L101,1247.29289 L107.292893,1241 L101,1234.70711 L101,1236.15685 C101,1236.433 100.776142,1236.65685 100.5,1236.65685 C100.223858,1236.65685 100,1236.433 100,1236.15685 L100,1233 L103.050253,1233 C103.326395,1233 103.550253,1233.22386 103.550253,1233.5 C103.550253,1233.77614 103.326395,1234 103.050253,1234 L101.707107,1234 L108,1240.29289 L114.292893,1234 Z" id="tool-max"></path>
        </g>
    </g>
</svg>