<!-- Generated by IcoMoon.io -->
<svg version="1.1" xmlns="http://www.w3.org/2000/svg" width="28" height="32" viewBox="0 0 28 32">
<title>tool-a-l</title>
<path d="M1 0c0.552 0 1 0.448 1 1v30c0 0.552-0.448 1-1 1s-1-0.448-1-1v-30c0-0.552 0.448-1 1-1zM6 20v4h20v-4h-20zM6 18h20c1.105 0 2 0.895 2 2v4c0 1.105-0.895 2-2 2h-20c-1.105 0-2-0.895-2-2v-4c0-1.105 0.895-2 2-2zM6 8v4h12v-4h-12zM6 6h12c1.105 0 2 0.895 2 2v4c0 1.105-0.895 2-2 2h-12c-1.105 0-2-0.895-2-2v-4c0-1.105 0.895-2 2-2z"></path>
</svg>
