<!-- Generated by IcoMoon.io -->
<svg version="1.1" xmlns="http://www.w3.org/2000/svg" width="32" height="32" viewBox="0 0 32 32">
<title>tool-a-m</title>
<path d="M18 17h-4v10.667c0 1.289-0.895 2.333-2 2.333h-4c-1.105 0-2-1.045-2-2.333v-10.667h-5c-0.552 0-1-0.448-1-1s0.448-1 1-1h5v-10.667c0-1.289 0.895-2.333 2-2.333h4c1.105 0 2 1.045 2 2.333v10.667h4v-5c0-1.105 0.895-2 2-2h4c1.105 0 2 0.895 2 2v5h5c0.552 0 1 0.448 1 1s-0.448 1-1 1h-5v5c0 1.105-0.895 2-2 2h-4c-1.105 0-2-0.895-2-2v-5zM8 4.333v23.333h4v-23.333h-4zM20 10v12h4v-12h-4z"></path>
</svg>
