<svg width="16" height="16" viewBox="0 0 16 16" xmlns="http://www.w3.org/2000/svg">
  <path d="M1.914214 2.5h8.127265C10.279518 1.08114 11.513502 0 13 0c1.656854 0 3 1.34315 3 3 0 1.4865-1.081143 2.72048-2.5 2.95852v8.12727l1.025126-1.02513c.195262-.19526.511845-.19526.707107 0 .195262.19526.195262.51184 0 .70711L13 16l-2.156854-2.15685c-.195262-.19527-.195262-.51185 0-.70711s.511844-.19526.707107 0l.949747.94975V5.95852C11.243748 5.74776 10.252238 4.75625 10.041479 3.5H1.914214l1.100505 1.10051c.195262.19526.195262.51184 0 .7071-.195263.19526-.511845.19526-.707107 0L0 3 2.232233.76777c.195262-.19527.511845-.19527.707107 0 .195262.19526.195262.51184 0 .7071L1.914214 2.5zM13 1c-1.104569 0-2 .89543-2 2s.895431 2 2 2c1.104569 0 2-.89543 2-2s-.895431-2-2-2z"/>
</svg>