<?xml version="1.0" encoding="UTF-8"?>
<svg width="16px" height="16px" viewBox="0 0 16 16" version="1.1" xmlns="http://www.w3.org/2000/svg" xmlns:xlink="http://www.w3.org/1999/xlink">
    <title>uncheck-all</title>
    <g id="Icons" stroke="none" stroke-width="1" fill="none" fill-rule="evenodd">
        <g transform="translate(-580.000000, -728.000000)" fill="#000000" fill-rule="nonzero" id="unlock-16">
            <g transform="translate(396.000000, 727.000000)">
                <path d="M194,1 C194.795802,1 195.5,1.46946544 195.5,2.16666667 L195.5,4 L199.5,4 C199.776142,4 200,4.22385763 200,4.5 C200,4.77614237 199.776142,5 199.5,5 L198,5 L197.071023,16.0766965 C197.034029,16.557617 196.661009,16.9374044 196.192851,16.9929876 L196.073969,17 L187.926031,17 C187.403495,17 186.969053,16.5976937 186.928977,16.0766965 L186,5 L184.5,5 C184.223858,5 184,4.77614237 184,4.5 C184,4.22385763 184.223858,4 184.5,4 L188.5,4 L188.5,2.16666667 C188.5,1.46946544 189.204198,1 190,1 L194,1 Z M196.997046,5 L187.002954,5 L187.926031,16 L196.073969,16 L196.997046,5 Z M194.108478,8 L195,8.86965155 L191.674567,12.6 L189,9.99104535 L189.831358,9.05845823 L191.614403,10.7977613 L194.108478,8 Z M189.5,2 L189.5,4 L194.5,4 L194.5,2 C194.5,1.96082156 189.5,1.96082156 189.5,2 Z" id="uncheck-all"></path>
            </g>
        </g>
    </g>
</svg>