<?xml version="1.0" encoding="UTF-8"?>
<svg width="12px" height="12px" viewBox="0 0 12 12" version="1.1" xmlns="http://www.w3.org/2000/svg" xmlns:xlink="http://www.w3.org/1999/xlink">
    <!-- Generator: Sketch 57.1 (83088) - https://sketch.com -->
    <title>underscore</title>
    <desc>Created with Sketch.</desc>
    <g id="Style" stroke="none" stroke-width="1" fill="none" fill-rule="evenodd">
        <g id="0-UI-icons" transform="translate(-1023.000000, -606.000000)">
            <g id="underscore" transform="translate(1023.000000, 606.000000)">
                <rect id="Rectangle" x="0" y="0" width="12" height="12"></rect>
                <path d="M10,11.5 C10,11.7761424 9.77614237,12 9.5,12 L2.5,12 C2.22385763,12 2,11.7761424 2,11.5 C2,11.2238576 2.22385763,11 2.5,11 L9.5,11 C9.77614237,11 10,11.2238576 10,11.5 Z M3,0.5 L3,6 L3,6 C3,7.65685425 4.34314575,9 6,9 C7.65685425,9 9,7.65685425 9,6 L9,0.5 C9,0.223857625 9.22385763,5.07265313e-17 9.5,0 C9.77614237,-5.07265313e-17 10,0.223857625 10,0.5 L10,6 L10,6 C10,8.209139 8.209139,10 6,10 C3.790861,10 2,8.209139 2,6 L2,0.5 C2,0.223857625 2.22385763,5.07265313e-17 2.5,0 C2.77614237,-5.07265313e-17 3,0.223857625 3,0.5 Z" fill="#000000" fill-rule="nonzero"></path>
            </g>
        </g>
    </g>
</svg>