<?xml version="1.0" encoding="UTF-8"?>
<svg width="20px" height="20px" viewBox="0 0 20 20" version="1.1" xmlns="http://www.w3.org/2000/svg" xmlns:xlink="http://www.w3.org/1999/xlink">
    <!-- Generator: Sketch 52.6 (67491) - http://www.bohemiancoding.com/sketch -->
    <title>undo-20</title>
    <desc>Created with Sketch.</desc>
    <g id="Style" stroke="none" stroke-width="1" fill="none" fill-rule="evenodd">
        <g id="0-UI-icons" transform="translate(-100.000000, -392.000000)" fill="#000000" fill-rule="nonzero">
            <path d="M109.97634,402.104017 L110.973974,402.104017 C115.722344,402.410611 117.829321,405.030216 116.29796,410.122085 C118.735696,407.366577 119.865191,403.287429 118.124965,400.643684 C116.494048,398.165999 114.05896,397.01188 110.973974,397.052009 L109.97634,397.052009 L109.97634,393.010402 C109.97634,393.024285 109.961792,393.010402 109.915179,393.010402 C109.890693,393.010402 109.868804,393.017532 109.854993,393.027716 L101.022141,399.541139 L109.854993,406.054561 C109.889995,406.080372 109.951342,406.075085 109.97634,406.05423 L109.97634,402.104017 Z M110.973974,403.137779 L110.973974,406.071876 C110.973974,406.295473 110.896254,406.512754 110.752988,406.689683 C110.39544,407.131244 109.73049,407.212597 109.267781,406.871392 L100.411449,400.340654 C100.340133,400.288066 100.276145,400.227003 100.221037,400.158946 C99.8634896,399.717386 99.9487395,399.082829 100.411449,398.741623 L109.267781,392.210886 C109.453184,392.074168 109.680873,392 109.915179,392 C110.499936,392 110.973974,392.452372 110.973974,393.010402 L110.973974,395.994185 C114.44954,395.917058 117.109897,397.280068 118.955047,400.083214 C120.856507,402.971907 119.939203,406.676268 117.99396,409.512105 C117.501886,410.229467 116.7485,411.012491 115.733805,411.861177 C115.478906,412.074394 115.101609,412.037941 114.891098,411.77977 C114.753001,411.610407 114.716154,411.378639 114.794781,411.173933 C115.353669,409.71886 115.674876,408.672007 115.758403,408.033375 C116.216768,404.528784 114.093037,403.314329 110.973974,403.137779 Z" id="undo-20"></path>
        </g>
    </g>
</svg>