<?xml version="1.0" encoding="UTF-8"?>
<svg width="16px" height="16px" viewBox="0 0 16 16" version="1.1" xmlns="http://www.w3.org/2000/svg" xmlns:xlink="http://www.w3.org/1999/xlink">
    <!-- Generator: Sketch 59.1 (86144) - https://sketch.com -->
    <title>undo</title>
    <desc>Created with Sketch.</desc>
    <g id="Style" stroke="none" stroke-width="1" fill="none" fill-rule="evenodd">
        <g id="0-UI-icons" transform="translate(-112.000000, -503.000000)" fill="#000000">
            <path d="M118.481256,503 C118.994078,503 119.416739,503.386002 119.474503,503.883291 L119.48123,503.999901 L119.481973,506.033364 C125.055758,506.504234 127.886841,509.657778 127.975221,515.493998 L127.999591,515.99871 L128,516.731362 C127.997725,516.978059 127.991277,517.26365 127.975221,517.582945 L127.936391,518.157828 C127.834343,518.757855 127.440757,519.023222 126.999616,518.998413 C126.650098,518.978756 126.390647,518.653537 126.305336,518.314046 L126.18718,517.858019 L126.063402,517.414432 C125.923603,516.935664 125.799938,516.592526 125.692406,516.385016 C124.209416,513.523216 121.872092,512.173284 119.4811,512.014976 L119.48123,513.591413 C119.48123,513.833612 119.393314,514.067579 119.233813,514.249852 C118.898115,514.633478 118.333999,514.698872 117.922298,514.420645 L117.822768,514.343915 L112.3415,509.548159 C112.30809,509.518927 112.276664,509.487503 112.247431,509.454096 C111.911733,509.070469 111.921796,508.502707 112.252232,508.131611 L112.3415,508.043155 L117.822768,503.247399 C118.005055,503.08791 118.239039,503 118.481256,503 Z" id="undo"></path>
        </g>
    </g>
</svg>