<?xml version="1.0" encoding="UTF-8"?>
<svg width="16px" height="16px" viewBox="0 0 16 16" version="1.1" xmlns="http://www.w3.org/2000/svg" xmlns:xlink="http://www.w3.org/1999/xlink">
    <!-- Generator: Sketch 61.2 (89653) - https://sketch.com -->
    <title>Combined Shape</title>
    <desc>Created with Sketch.</desc>
    <g id="List" stroke="none" stroke-width="1" fill="none" fill-rule="evenodd">
        <g id="Three-States-1" transform="translate(-807.000000, -813.000000)" fill="#FFFFFF">
            <g id="Group-5-Copy-2" transform="translate(778.000000, 712.000000)">
                <g id="sync_off" transform="translate(29.000000, 101.000000)">
                    <path d="M3.4328,0.8219 L11.4328,14.6779 L10.5668,15.1779 L9.3098,12.9999 L1.5008,12.9999 L1.5008,9.9999 L2.4998,9.9999 L2.4998,11.9999 L8.7318,11.9999 L4.1138,3.9999 L2.4998,3.9999 L2.4998,5.9999 L3.4508,5.9999 L1.9508,7.9999 L0.4508,5.9999 L1.5008,5.9999 L1.5008,2.9999 L3.5358,2.9999 L2.5668,1.3219 L3.4328,0.8219 Z M14.0487,7.9997 L15.5497,9.9997 L14.4997,9.9997 L14.4997,13.0007 L11.4637,13.0007 L10.8877,12.0007 L13.4997,12.0007 L13.4997,9.9997 L12.5487,9.9997 L14.0487,7.9997 Z M14.5002,3 L14.5002,6 L13.5002,6 L13.5002,4 L6.2682,4 L5.6902,3 L14.5002,3 Z" id="Combined-Shape"></path>
                </g>
            </g>
        </g>
    </g>
</svg>