<?xml version="1.0" encoding="UTF-8"?>
<svg width="14px" height="16px" viewBox="0 0 14 16" version="1.1" xmlns="http://www.w3.org/2000/svg" xmlns:xlink="http://www.w3.org/1999/xlink">
    <!-- Generator: Sketch 63.1 (92452) - https://sketch.com -->
    <title>unlock-16</title>
    <desc>Created with Sketch.</desc>
    <g id="Icons" stroke="none" stroke-width="1" fill="none" fill-rule="evenodd">
        <g transform="translate(-397.000000, -727.000000)" fill="#000000" fill-rule="nonzero" id="16*16">
            <g transform="translate(40.000000, 343.000000)">
                <g id="unlock-16" transform="translate(356.000000, 384.000000)">
                    <path d="M11.5,0 C13.4329966,0 15,1.56700338 15,3.5 C15,3.77614237 14.7761424,4 14.5,4 C14.2545401,4 14.0503916,3.82312484 14.0080557,3.58987563 L14,3.5 C14,2.1745166 12.9684641,1.08996133 11.6643757,1.00531768 L11.5,1 C10.1745166,1 9.08996133,2.03153594 9.00531768,3.33562431 L9,3.5 L9,6 L11,6 C11.5522847,6 12,6.44771525 12,7 L12,15 C12,15.5522847 11.5522847,16 11,16 L2,16 C1.44771525,16 1,15.5522847 1,15 L1,7 C1,6.44771525 1.44771525,6 2,6 L8,6 L8,3.5 C8,1.56700338 9.56700338,0 11.5,0 Z M11,7 L2,7 L2,15 L11,15 L11,7 Z M6.5,9 C7.32842712,9 8,9.67157288 8,10.5 C8,11.3284271 7.32842712,12 6.5,12 C5.67157288,12 5,11.3284271 5,10.5 C5,9.67157288 5.67157288,9 6.5,9 Z" id="Combined-Shape"></path>
                </g>
            </g>
        </g>
    </g>
</svg>