<?xml version="1.0" encoding="UTF-8"?>
<svg width="11px" height="12px" viewBox="0 0 11 12" version="1.1" xmlns="http://www.w3.org/2000/svg" xmlns:xlink="http://www.w3.org/1999/xlink">
    <!-- Generator: Sketch 63.1 (92452) - https://sketch.com -->
    <title>unlock-12</title>
    <desc>Created with Sketch.</desc>
    <g id="Icons" stroke="none" stroke-width="1" fill="none" fill-rule="evenodd">
        <g transform="translate(-104.000000, -251.000000)" fill="#000000" fill-rule="nonzero" id="12*12">
            <g transform="translate(40.000000, 140.000000)">
                <g id="unlock-12" transform="translate(64.000000, 111.000000)">
                    <path d="M6,2.5 C6,1.11928813 7.12227964,0 8.50668173,0 C9.76978167,0 10.8146814,0.931735901 10.9880936,2.14366178 L10.9993876,2.28918705 C11.0127639,2.55763323 10.805404,2.78606366 10.5362401,2.7994005 L10.5120271,2.8 C10.2376493,2.8 10.009507,2.58936166 9.98837533,2.31652804 C9.98149306,2.22765672 9.9737281,2.16612652 9.96508044,2.13193745 C9.81198146,1.52665087 9.28999202,1.06771295 8.65152784,1.00686658 L8.50668173,1 C7.72490172,1 7.08243663,1.59488808 7.00955762,2.35553999 L7.00267269,2.5 L7.00267269,4 L8,4 C8.55228475,4 9,4.44771525 9,5 L9,11 C9,11.5522847 8.55228475,12 8,12 L1,12 C0.44771525,12 0,11.5522847 0,11 L0,5 C0,4.44771525 0.44771525,4 1,4 L6,4 L6,2.5 Z M8,5 L1,5 L1,11 L8,11 L8,5 Z M4.5,7 C5.05228475,7 5.5,7.44771525 5.5,8 C5.5,8.55228475 5.05228475,9 4.5,9 C3.94771525,9 3.5,8.55228475 3.5,8 C3.5,7.44771525 3.94771525,7 4.5,7 Z" id="unlock"></path>
                </g>
            </g>
        </g>
    </g>
</svg>