<?xml version="1.0" encoding="UTF-8"?>
<svg width="12px" height="12px" viewBox="0 0 12 12" version="1.1" xmlns="http://www.w3.org/2000/svg" xmlns:xlink="http://www.w3.org/1999/xlink">
    <!-- Generator: Sketch 57.1 (83088) - https://sketch.com -->
    <title>uppercase</title>
    <desc>Created with Sketch.</desc>
    <g id="Style" stroke="none" stroke-width="1" fill="none" fill-rule="evenodd">
        <g id="0-UI-icons" transform="translate(-961.000000, -642.000000)" fill="#000000" fill-rule="nonzero">
            <g id="color-text" transform="translate(959.000000, 642.000000)">
                <path d="M8.82836602,0.535080782 L13.7944071,11.5442242 C13.8677517,11.7068208 13.7953987,11.8980889 13.6328022,11.9714335 C13.5910604,11.9902625 13.5457919,12 13.5,12 C13.1955018,12 12.9191075,11.8220187 12.7931157,11.544809 L11.182,8 L11.182,8 L4.818,8 L3.20688432,11.544809 C3.0808925,11.8220187 2.80449823,12 2.5,12 C2.32162658,12 2.17702636,11.8553998 2.17702636,11.6770264 C2.17702636,11.6312344 2.18676387,11.5859659 2.20559286,11.5442242 L7.17163398,0.535080782 C7.31855202,0.209380331 7.64269663,1.48391432e-13 8,1.48325796e-13 C8.35730337,1.48260161e-13 8.68144798,0.209380331 8.82836602,0.535080782 Z M8,1 L5.272,7 L10.728,7 L8,1 Z" id="uppercase"></path>
            </g>
        </g>
    </g>
</svg>