<?xml version="1.0" encoding="UTF-8"?>
<svg width="16px" height="16px" viewBox="0 0 16 16" version="1.1" xmlns="http://www.w3.org/2000/svg" xmlns:xlink="http://www.w3.org/1999/xlink">
    <!-- Generator: Sketch 63 (92445) - https://sketch.com -->
    <title>view-16</title>
    <desc>Created with Sketch.</desc>
    <g id="Components" stroke="none" stroke-width="1" fill="none" fill-rule="evenodd">
        <g id="$0-UI-icons" transform="translate(-436.000000, -580.000000)">
            <g id="view-16" transform="translate(436.000000, 580.000000)">
                <path d="M8,3 C10.583232,3 13.166464,4.44964364 15.7496961,7.34893092 C16.0834361,7.72351922 16.083436,8.27649693 15.7496877,8.65107845 C13.1664585,11.5503595 10.5832292,13 8,13 C5.41676798,13 2.83353595,11.5503564 0.250303929,8.65106908 C-0.0834361116,8.27648078 -0.0834359587,7.72350307 0.250312282,7.34892155 C2.83354152,4.44964052 5.41677076,3 8,3 Z M8,4 C5.76317023,4 3.44213323,5.3025051 1.03869439,8 C3.44212728,10.69749 5.76316599,12 8,12 C10.2368298,12 12.5578668,10.6974949 14.9613056,8 C12.5578727,5.30250996 10.236834,4 8,4 Z M8,11 C6.34314575,11 5,9.65685425 5,8 C5,6.34314575 6.34314575,5 8,5 C9.65685425,5 11,6.34314575 11,8 C11,9.65685425 9.65685425,11 8,11 Z M8,10 C9.1045695,10 10,9.1045695 10,8 C10,6.8954305 9.1045695,6 8,6 C6.8954305,6 6,6.8954305 6,8 C6,9.1045695 6.8954305,10 8,10 Z" fill="#000000" fill-rule="nonzero"></path>
                <rect id="Rectangle" x="0" y="0" width="16" height="16"></rect>
            </g>
        </g>
    </g>
</svg>