<?xml version="1.0" encoding="UTF-8"?>
<svg width="12px" height="12px" viewBox="0 0 12 12" version="1.1" xmlns="http://www.w3.org/2000/svg" xmlns:xlink="http://www.w3.org/1999/xlink">
    <g id="Components" stroke="none" stroke-width="1" fill="none" fill-rule="evenodd">
        <g id="$0-UI-icons" transform="translate(-232.000000, -348.000000)" fill-rule="nonzero" fill="#000000">
            <path d="M243,348 L243,354 L242,354 L242,349 L233,349 L233,359 L238,359 L238,360 L232,360 L232,348 L243,348 Z M240.5,354 C241.880712,354 243,355.119288 243,356.5 C243,357.00097 242.852647,357.467524 242.598918,357.858684 L243.84699,359.108194 C244.051003,359.312207 244.051003,359.642977 243.84699,359.84699 C243.642977,360.051003 243.312207,360.051003 243.108194,359.84699 L241.858684,358.598918 C241.467524,358.852647 241.00097,359 240.5,359 C239.119288,359 238,357.880712 238,356.5 C238,355.119288 239.119288,354 240.5,354 Z M240.5,355 C239.671573,355 239,355.671573 239,356.5 C239,357.328427 239.671573,358 240.5,358 C240.78743,358 241.055978,357.919156 241.284146,357.778965 C241.303242,357.767233 241.322099,357.755056 241.340659,357.742474 L241.31,357.761 L241.341,357.741 L241.375,357.717 L241.403455,357.697507 C241.423982,357.681996 241.444098,357.66597 241.463783,357.649447 L241.406,357.694 L241.48788,357.628784 C241.545895,357.57797 241.599959,357.522755 241.64955,357.46366 C241.667407,357.442386 241.68478,357.42048 241.701542,357.39809 L241.741,357.342 L241.742463,357.340675 L241.757,357.317 L241.771,357.295 L241.774,357.29 L241.782,357.278 L241.816456,357.219577 L241.816456,357.219577 L241.819441,357.214099 C241.9346,357.001769 242,356.758522 242,356.5 C242,355.671573 241.328427,355 240.5,355 Z M237,355 L237,356 L234,356 L234,355 L237,355 Z M238,353 L238,354 L234,354 L234,353 L238,353 Z M241,351 L241,352 L234,352 L234,351 L241,351 Z" id="view-source"></path>
        </g>
    </g>
</svg>