<?xml version="1.0" encoding="UTF-8"?>
<svg width="20px" height="20px" viewBox="0 0 20 20" version="1.1" xmlns="http://www.w3.org/2000/svg" xmlns:xlink="http://www.w3.org/1999/xlink">
    <!-- Generator: Sketch 61.2 (89653) - https://sketch.com -->
    <title>view</title>
    <desc>Created with Sketch.</desc>
    <g id="Components" stroke="none" stroke-width="1" fill="none" fill-rule="evenodd">
        <g id="$0-UI-icons" transform="translate(-80.000000, -1259.000000)" fill="#000000">
            <path d="M81,1277 C81,1277.55228 81.4477153,1278 82,1278 L82,1278 L82,1279 C80.8954305,1279 80,1278.10457 80,1277 L80,1277 Z M100,1277 C100,1278.10457 99.1045695,1279 98,1279 L98,1278 C98.5522847,1278 99,1277.55228 99,1277 L100,1277 Z M85,1278 L85,1279 L83,1279 L83,1278 L85,1278 Z M89,1278 L89,1279 L87,1279 L87,1278 L89,1278 Z M93,1278 L93,1279 L91,1279 L91,1278 L93,1278 Z M97,1278 L97,1279 L95,1279 L95,1278 L97,1278 Z M81,1274 L81,1276 L80,1276 L80,1274 L81,1274 Z M100,1274 L100,1276 L99,1276 L99,1274 L100,1274 Z M81,1270 L81,1272 L80,1272 L80,1270 L81,1270 Z M100,1270 L100,1272 L99,1272 L99,1270 L100,1270 Z M81,1266 L81,1268 L80,1268 L80,1266 L81,1266 Z M100,1266 L100,1268 L99,1268 L99,1266 L100,1266 Z M81,1262 L81,1264 L80,1264 L80,1262 L81,1262 Z M100,1262 L100,1264 L99,1264 L99,1262 L100,1262 Z M82,1259 L82,1260 C81.4871642,1260 81.0644928,1260.38604 81.0067277,1260.88338 L81,1261 L80,1261 C80,1259.94564 80.8158778,1259.08183 81.8507377,1259.00549 L82,1259 Z M98,1259 C99.1045695,1259 100,1259.89543 100,1261 L100,1261 L99,1261 C99,1260.44772 98.5522847,1260 98,1260 L98,1260 Z M85,1259 L85,1260 L83,1260 L83,1259 L85,1259 Z M89,1259 L89,1260 L87,1260 L87,1259 L89,1259 Z M93,1259 L93,1260 L91,1260 L91,1259 L93,1259 Z M97,1259 L97,1260 L95,1260 L95,1259 L97,1259 Z" id="view"></path>
        </g>
    </g>
</svg>