<svg width="12" height="8" viewBox="0 0 12 8" xmlns="http://www.w3.org/2000/svg">
  <path d="M6 5.5c.828427 0 1.5-.67157 1.5-1.5S6.828427 2.5 6 2.5 4.5 3.17157 4.5 4 5.171573 5.5 6 5.5zm0 1C4.619288 6.5 3.5 5.38071 3.5 4S4.619288 1.5 6 1.5 8.5 2.61929 8.5 4 7.380712 6.5 6 6.5zM6 1c-2.123723 0-3.71389.96664-4.86746 3C2.28611 6.03336 3.876277 7 6 7c2.123723 0 3.71389-.96664 4.86746-3C9.71389 1.96664 8.123723 1 6 1zm0 7C3.333333 8 1.333333 6.66667 0 4c1.333333-2.66667 3.333333-4 6-4s4.666667 1.33333 6 4c-1.333333 2.66667-3.333333 4-6 4z"/>
</svg>