<?xml version="1.0" encoding="UTF-8"?>
<svg width="12px" height="12px" viewBox="0 0 12 12" version="1.1" xmlns="http://www.w3.org/2000/svg" xmlns:xlink="http://www.w3.org/1999/xlink">
    <g id="Basic-Components" stroke="none" stroke-width="1" fill="none" fill-rule="evenodd">
        <g id="Panel" transform="translate(-751.000000, -2789.000000)" fill="#FFFFFF" fill-rule="nonzero">
            <g id="SettingPanel-L2-Copy" transform="translate(680.000000, 2709.000000)">
                <path d="M77,80 C80.3137085,80 83,82.6862915 83,86 C83,89.3137085 80.3137085,92 77,92 C73.6862915,92 71,89.3137085 71,86 C71,82.6862915 73.6862915,80 77,80 Z M77,81 C74.2385763,81 72,83.2385763 72,86 C72,88.7614237 74.2385763,91 77,91 C79.7614237,91 82,88.7614237 82,86 C82,83.2385763 79.7614237,81 77,81 Z M77.5,84.5 L77.5,88.5 L78,88.5 C78.2761424,88.5 78.5,88.7238576 78.5,89 C78.5,89.2761424 78.2761424,89.5 78,89.5 L76,89.5 C75.7238576,89.5 75.5,89.2761424 75.5,89 C75.5,88.7238576 75.7238576,88.5 76,88.5 L76.5,88.5 L76.5,85.5 L76,85.5 C75.7238576,85.5 75.5,85.2761424 75.5,85 C75.5,84.7238576 75.7238576,84.5 76,84.5 L77.5,84.5 Z M77,82.5 C77.2761424,82.5 77.5,82.7238576 77.5,83 C77.5,83.2761424 77.2761424,83.5 77,83.5 C76.7238576,83.5 76.5,83.2761424 76.5,83 C76.5,82.7238576 76.7238576,82.5 77,82.5 Z" id="info-12"></path>
            </g>
        </g>
    </g>
</svg>