<?xml version="1.0" encoding="UTF-8"?>
<svg width="15px" height="16px" viewBox="0 0 15 16" version="1.1" xmlns="http://www.w3.org/2000/svg" xmlns:xlink="http://www.w3.org/1999/xlink">
    <!-- Generator: Sketch 52.6 (67491) - http://www.bohemiancoding.com/sketch -->
    <title>widget-survey123</title>
    <desc>Created with Sketch.</desc>
    <g id="Style" stroke="none" stroke-width="1" fill="none" fill-rule="evenodd">
        <g id="0-UI-icons" transform="translate(-425.000000, -772.000000)" fill="#000000" fill-rule="nonzero">
            <g id="widget-survey123" transform="translate(425.000000, 772.000000)">
                <path d="M2,10.5 L2,11 L2,9 L2,9.5 L3,9.5 L3,10.5 L2,10.5 L2,11 L2,9 L2,9.5 L2,10.5 Z M2,6.5 L2,7 L2,5 L2,5.5 L3,5.5 L3,6.5 L2,6.5 L2,7 L2,5 L2,5.5 L2,6.5 Z M2,13 L3,13 L3,14 C3,14.5522847 3.44771525,15 4,15 L13,15 C13.5522847,15 14,14.5522847 14,14 L14,2 C14,1.44771525 13.5522847,1 13,1 L4,1 C3.44771525,1 3,1.44771525 3,2 L3,3 L2,3 L2,2 C2,0.8954305 2.8954305,0 4,0 L13,0 C14.1045695,-2.22044605e-16 15,0.8954305 15,2 L15,14 C15,15.1045695 14.1045695,16 13,16 L4,16 C2.8954305,16 2,15.1045695 2,14 L2,13 Z M2,13 L3,13 L3,14 C3,14.5522847 3.44771525,15 4,15 L13,15 C13.5522847,15 14,14.5522847 14,14 L14,2 C14,1.44771525 13.5522847,1 13,1 L4,1 C3.44771525,1 3,1.44771525 3,2 L3,3 L2,3 L2,2 C2,0.8954305 2.8954305,0 4,0 L13,0 C14.1045695,-2.22044605e-16 15,0.8954305 15,2 L15,14 C15,15.1045695 14.1045695,16 13,16 L4,16 C2.8954305,16 2,15.1045695 2,14 L2,13 Z M12.0710678,6.53553391 L11.363961,5.82842712 L8.53553391,8.65685425 L7.12132034,7.24264069 L6.41421356,7.94974747 L8.53553391,10.0710678 L12.0710678,6.53553391 Z M12.7781746,7.24264069 L9.24264069,10.7781746 C8.8521164,11.1686989 8.21895142,11.1686989 7.82842712,10.7781746 L5.70710678,8.65685425 C5.31658249,8.26632996 5.31658249,7.63316498 5.70710678,7.24264069 L6.41421356,6.53553391 C6.80473785,6.14500961 7.43790283,6.14500961 7.82842712,6.53553391 L8.53553391,7.24264069 L10.6568542,5.12132034 C11.0473785,4.73079605 11.6805435,4.73079605 12.0710678,5.12132034 L12.7781746,5.82842712 C13.1686989,6.21895142 13.1686989,6.8521164 12.7781746,7.24264069 Z" id="Combined-Shape"></path>
                <path d="M1.5,3.5 L1.5,4.5 L3.5,4.5 L3.5,3.5 L1.5,3.5 Z M1.5,2.5 L3.5,2.5 C4.05228475,2.5 4.5,2.94771525 4.5,3.5 L4.5,4.5 C4.5,5.05228475 4.05228475,5.5 3.5,5.5 L1.5,5.5 C0.94771525,5.5 0.5,5.05228475 0.5,4.5 L0.5,3.5 C0.5,2.94771525 0.94771525,2.5 1.5,2.5 Z M1.5,7.5 L1.5,8.5 L3.5,8.5 L3.5,7.5 L1.5,7.5 Z M1.5,6.5 L3.5,6.5 C4.05228475,6.5 4.5,6.94771525 4.5,7.5 L4.5,8.5 C4.5,9.05228475 4.05228475,9.5 3.5,9.5 L1.5,9.5 C0.94771525,9.5 0.5,9.05228475 0.5,8.5 L0.5,7.5 C0.5,6.94771525 0.94771525,6.5 1.5,6.5 Z M1.5,11.5 L1.5,12.5 L3.5,12.5 L3.5,11.5 L1.5,11.5 Z M1.5,10.5 L3.5,10.5 C4.05228475,10.5 4.5,10.9477153 4.5,11.5 L4.5,12.5 C4.5,13.0522847 4.05228475,13.5 3.5,13.5 L1.5,13.5 C0.94771525,13.5 0.5,13.0522847 0.5,12.5 L0.5,11.5 C0.5,10.9477153 0.94771525,10.5 1.5,10.5 Z" id="Combined-Shape"></path>
            </g>
        </g>
    </g>
</svg>