<!-- Generated by IcoMoon.io -->
<svg version="1.1" xmlns="http://www.w3.org/2000/svg" width="32" height="32" viewBox="0 0 32 32">
<title>widgets</title>
<path d="M20.889 1.333h6.222c1.964 0 3.556 1.592 3.556 3.556v6.222c0 1.964-1.592 3.556-3.556 3.556h-6.222c-1.964 0-3.556-1.592-3.556-3.556v-6.222c0-1.964 1.592-3.556 3.556-3.556zM20 4v8h8v-8h-8zM4.889 17.333h6.222c1.964 0 3.556 1.592 3.556 3.556v6.222c0 1.964-1.592 3.556-3.556 3.556h-6.222c-1.964 0-3.556-1.592-3.556-3.556v-6.222c0-1.964 1.592-3.556 3.556-3.556zM4 20v8h8v-8h-8zM24 28c2.209 0 4-1.791 4-4s-1.791-4-4-4c-2.209 0-4 1.791-4 4s1.791 4 4 4zM24 30.667c-3.682 0-6.667-2.985-6.667-6.667s2.985-6.667 6.667-6.667c3.682 0 6.667 2.985 6.667 6.667s-2.985 6.667-6.667 6.667zM4.981 12h6.037l-3.019-6.037-3.019 6.037zM9.193 2.385l5.176 10.352c0.329 0.659 0.062 1.46-0.596 1.789-0.185 0.093-0.389 0.141-0.596 0.141h-10.352c-0.736 0-1.333-0.597-1.333-1.333 0-0.207 0.048-0.411 0.141-0.596l5.176-10.352c0.329-0.659 1.13-0.926 1.789-0.596 0.258 0.129 0.467 0.338 0.596 0.596z"></path>
</svg>
