<?xml version="1.0" encoding="UTF-8"?>
<svg width="16px" height="16px" viewBox="0 0 16 16" version="1.1" xmlns="http://www.w3.org/2000/svg" xmlns:xlink="http://www.w3.org/1999/xlink">
    <!-- Generator: Sketch 52.6 (67491) - http://www.bohemiancoding.com/sketch -->
    <title>widget-infocard</title>
    <desc>Created with Sketch.</desc>
    <g id="Style" stroke="none" stroke-width="1" fill="none" fill-rule="evenodd">
        <g id="0-UI-icons" transform="translate(-281.000000, -772.000000)" fill="#000000" fill-rule="nonzero">
            <path d="M283,773 C282.447715,773 282,773.447715 282,774 L282,786 C282,786.552285 282.447715,787 283,787 L295,787 C295.552285,787 296,786.552285 296,786 L296,774 C296,773.447715 295.552285,773 295,773 L283,773 Z M283,772 L295,772 C296.104569,772 297,772.895431 297,774 L297,786 C297,787.104569 296.104569,788 295,788 L283,788 C281.895431,788 281,787.104569 281,786 L281,774 C281,772.895431 281.895431,772 283,772 Z M289,783.5 L289,778.5 L287.5,778.5 C287.223858,778.5 287,778.276142 287,778 C287,777.723858 287.223858,777.5 287.5,777.5 L289,777.5 C289.552285,777.5 290,777.947715 290,778.5 L290,783.5 L290.5,783.5 C290.776142,783.5 291,783.723858 291,784 C291,784.276142 290.776142,784.5 290.5,784.5 L287.5,784.5 C287.223858,784.5 287,784.276142 287,784 C287,783.723858 287.223858,783.5 287.5,783.5 L289,783.5 Z M288.5,775.5 L289.5,775.5 C289.776142,775.5 290,775.723858 290,776 C290,776.276142 289.776142,776.5 289.5,776.5 L288.5,776.5 C288.223858,776.5 288,776.276142 288,776 C288,775.723858 288.223858,775.5 288.5,775.5 Z" id="widget-infocard"></path>
        </g>
    </g>
</svg>