<?xml version="1.0" encoding="UTF-8"?>
<svg width="16px" height="16px" viewBox="0 0 16 16" version="1.1" xmlns="http://www.w3.org/2000/svg" xmlns:xlink="http://www.w3.org/1999/xlink">
    <!-- Generator: Sketch 52.6 (67491) - http://www.bohemiancoding.com/sketch -->
    <title>widget-text</title>
    <desc>Created with Sketch.</desc>
    <g id="Style" stroke="none" stroke-width="1" fill="none" fill-rule="evenodd">
        <g id="0-UI-icons" transform="translate(-101.000000, -772.000000)" fill="#000000" fill-rule="nonzero">
            <path d="M103,773 C102.447715,773 102,773.447715 102,774 L102,786 C102,786.552285 102.447715,787 103,787 L115,787 C115.552285,787 116,786.552285 116,786 L116,774 C116,773.447715 115.552285,773 115,773 L103,773 Z M103,772 L115,772 C116.104569,772 117,772.895431 117,774 L117,786 C117,787.104569 116.104569,788 115,788 L103,788 C101.895431,788 101,787.104569 101,786 L101,774 C101,772.895431 101.895431,772 103,772 Z M108.5,783 L108.5,777 L106,777 L106,777.5 C106,777.776142 105.776142,778 105.5,778 C105.223858,778 105,777.776142 105,777.5 L105,776.5 C105,776.223858 105.223858,776 105.5,776 L112.5,776 C112.776142,776 113,776.223858 113,776.5 L113,777.5 C113,777.776142 112.776142,778 112.5,778 C112.223858,778 112,777.776142 112,777.5 L112,777 L109.5,777 L109.5,783 L110,783 C110.276142,783 110.5,783.223858 110.5,783.5 C110.5,783.776142 110.276142,784 110,784 L108,784 C107.723858,784 107.5,783.776142 107.5,783.5 C107.5,783.223858 107.723858,783 108,783 L108.5,783 Z" id="widget-text"></path>
        </g>
    </g>
</svg>