<?xml version="1.0" encoding="UTF-8"?>
<svg width="16px" height="16px" viewBox="0 0 16 16" version="1.1" xmlns="http://www.w3.org/2000/svg" xmlns:xlink="http://www.w3.org/1999/xlink">
    <!-- Generator: Sketch 52.6 (67491) - http://www.bohemiancoding.com/sketch -->
    <title>widget-chart</title>
    <desc>Created with Sketch.</desc>
    <g id="Style" stroke="none" stroke-width="1" fill="none" fill-rule="evenodd">
        <g id="0-UI-icons" transform="translate(-100.000000, -808.000000)" fill="#000000" fill-rule="nonzero">
            <path d="M100.5,822 L115.5,822 C115.776142,822 116,822.223858 116,822.5 C116,822.776142 115.776142,823 115.5,823 L100.5,823 C100.223858,823 100,822.776142 100,822.5 C100,822.223858 100.223858,822 100.5,822 Z M106,810 C105.723858,810 105.5,810.223858 105.5,810.5 L105.5,819.5 C105.5,819.776142 105.723858,820 106,820 C106.276142,820 106.5,819.776142 106.5,819.5 L106.5,810.5 C106.5,810.223858 106.276142,810 106,810 Z M106,809 C106.828427,809 107.5,809.671573 107.5,810.5 L107.5,819.5 C107.5,820.328427 106.828427,821 106,821 C105.171573,821 104.5,820.328427 104.5,819.5 L104.5,810.5 C104.5,809.671573 105.171573,809 106,809 Z M110,814 C109.723858,814 109.5,814.223858 109.5,814.5 L109.5,819.5 C109.5,819.776142 109.723858,820 110,820 C110.276142,820 110.5,819.776142 110.5,819.5 L110.5,814.5 C110.5,814.223858 110.276142,814 110,814 Z M110,813 C110.828427,813 111.5,813.671573 111.5,814.5 L111.5,819.5 C111.5,820.328427 110.828427,821 110,821 C109.171573,821 108.5,820.328427 108.5,819.5 L108.5,814.5 C108.5,813.671573 109.171573,813 110,813 Z M114,818 C113.723858,818 113.5,818.223858 113.5,818.5 L113.5,819.5 C113.5,819.776142 113.723858,820 114,820 C114.276142,820 114.5,819.776142 114.5,819.5 L114.5,818.5 C114.5,818.223858 114.276142,818 114,818 Z M114,817 C114.828427,817 115.5,817.671573 115.5,818.5 L115.5,819.5 C115.5,820.328427 114.828427,821 114,821 C113.171573,821 112.5,820.328427 112.5,819.5 L112.5,818.5 C112.5,817.671573 113.171573,817 114,817 Z M102,816 C101.723858,816 101.5,816.223858 101.5,816.5 L101.5,819.5 C101.5,819.776142 101.723858,820 102,820 C102.276142,820 102.5,819.776142 102.5,819.5 L102.5,816.5 C102.5,816.223858 102.276142,816 102,816 Z M102,815 C102.828427,815 103.5,815.671573 103.5,816.5 L103.5,819.5 C103.5,820.328427 102.828427,821 102,821 C101.171573,821 100.5,820.328427 100.5,819.5 L100.5,816.5 C100.5,815.671573 101.171573,815 102,815 Z" id="widget-chart"></path>
        </g>
    </g>
</svg>