<?xml version="1.0" encoding="UTF-8"?>
<svg width="16px" height="16px" viewBox="0 0 16 16" version="1.1" xmlns="http://www.w3.org/2000/svg" xmlns:xlink="http://www.w3.org/1999/xlink">
    <!-- Generator: Sketch 52.6 (67491) - http://www.bohemiancoding.com/sketch -->
    <title>widget-usermenu</title>
    <desc>Created with Sketch.</desc>
    <g id="Style" stroke="none" stroke-width="1" fill="none" fill-rule="evenodd">
        <g id="0-UI-icons" transform="translate(-172.000000, -808.000000)" fill="#000000" fill-rule="nonzero">
            <g id="widget-usermenu" transform="translate(172.000000, 808.000000)">
                <path d="M9.58578644,13 L14,13 C14.5522847,13 15,12.5522847 15,12 L15,2 C15,1.44771525 14.5522847,1 14,1 L2,1 C1.44771525,1 1,1.44771525 1,2 L1,12 C1,12.5522847 1.44771525,13 2,13 L6.4160967,13 L8.00029053,14.5854959 L9.58578644,13 Z M14,0 C15.1045695,8.8817842e-16 16,0.8954305 16,2 L16,12 C16,13.1045695 15.1045695,14 14,14 L10,14 L8,16 L6.00164248,14 L2,14 C0.8954305,14 5.80646642e-14,13.1045695 5.68434189e-14,12 L5.68434189e-14,2 C5.49560397e-14,0.8954305 0.8954305,2.22044605e-15 2,0 L14,0 Z" id="Rectangle"></path>
                <path d="M11.4642904,10.5 C11.2592596,9.15170099 10.1643588,8.5 8,8.5 C5.8356412,8.5 4.74074044,9.15170099 4.53570963,10.5 L11.4642904,10.5 Z M3.5,11 C3.5,8.6875 5.08333333,7.5 8,7.5 C10.9166667,7.5 12.5,8.6875 12.5,11 L12.5,11.5 L3.5,11.5 L3.5,11 Z M8,7 C6.8954305,7 6,6.1045695 6,5 C6,3.8954305 6.8954305,3 8,3 C9.1045695,3 10,3.8954305 10,5 C10,6.1045695 9.1045695,7 8,7 Z M8,6 C8.55228475,6 9,5.55228475 9,5 C9,4.44771525 8.55228475,4 8,4 C7.44771525,4 7,4.44771525 7,5 C7,5.55228475 7.44771525,6 8,6 Z" id="Combined-Shape"></path>
            </g>
        </g>
    </g>
</svg>