<?xml version="1.0" encoding="UTF-8"?>
<svg width="16px" height="16px" viewBox="0 0 16 16" version="1.1" xmlns="http://www.w3.org/2000/svg" xmlns:xlink="http://www.w3.org/1999/xlink">
    <!-- Generator: Sketch 52.6 (67491) - http://www.bohemiancoding.com/sketch -->
    <title>widget-image</title>
    <desc>Created with Sketch.</desc>
    <g id="Style" stroke="none" stroke-width="1" fill="none" fill-rule="evenodd">
        <g id="0-UI-icons" transform="translate(-137.000000, -772.000000)" fill="#000000" fill-rule="nonzero">
            <path d="M139.899794,787 L147.98641,778.279303 L152,782.292893 L152,774 C152,773.447715 151.552285,773 151,773 L139,773 C138.447715,773 138,773.447715 138,774 L138,786 C138,786.552285 138.447715,787 139,787 L139.899794,787 Z M141.263564,787 L151,787 C151.552285,787 152,786.552285 152,786 L152,783.707107 L148.01359,779.720697 L141.263564,787 Z M139,772 L151,772 C152.104569,772 153,772.895431 153,774 L153,786 C153,787.104569 152.104569,788 151,788 L139,788 C137.895431,788 137,787.104569 137,786 L137,774 C137,772.895431 137.895431,772 139,772 Z M142,779.5 C140.619288,779.5 139.5,778.380712 139.5,777 C139.5,775.619288 140.619288,774.5 142,774.5 C143.380712,774.5 144.5,775.619288 144.5,777 C144.5,778.380712 143.380712,779.5 142,779.5 Z M142,778.5 C142.828427,778.5 143.5,777.828427 143.5,777 C143.5,776.171573 142.828427,775.5 142,775.5 C141.171573,775.5 140.5,776.171573 140.5,777 C140.5,777.828427 141.171573,778.5 142,778.5 Z" id="widget-image"></path>
        </g>
    </g>
</svg>