<?xml version="1.0" encoding="UTF-8"?>
<svg width="16px" height="16px" viewBox="0 0 16 16" version="1.1" xmlns="http://www.w3.org/2000/svg" xmlns:xlink="http://www.w3.org/1999/xlink">
    <!-- Generator: Sketch 52.6 (67491) - http://www.bohemiancoding.com/sketch -->
    <title>widget-scene</title>
    <desc>Created with Sketch.</desc>
    <g id="Style" stroke="none" stroke-width="1" fill="none" fill-rule="evenodd">
        <g id="0-UI-icons" transform="translate(-353.000000, -772.000000)" fill="#000000" fill-rule="nonzero">
            <path d="M360.5,776.00036 L360.5,773.389313 C359.401966,774.120368 358.564614,774.989118 357.984672,776.00036 L360.5,776.00036 Z M360.5,779.500045 L360.5,777.00027 L357.512497,777.00027 C357.222899,777.763817 357.056462,778.596542 357.012098,779.500045 L360.5,779.500045 Z M360.5,782.99973 L360.5,780.499955 L357.012098,780.499955 C357.056462,781.403458 357.222899,782.236183 357.512497,782.99973 L360.5,782.99973 Z M360.5,786.610687 L360.5,783.99964 L357.984672,783.99964 C358.564614,785.010882 359.401966,785.879632 360.5,786.610687 Z M363.042519,786.696717 C364.559612,786.234669 365.858207,785.271318 366.745311,783.99964 L365.145142,783.99964 C364.654224,785.016368 363.952663,785.916401 363.042519,786.696717 Z M364.015328,783.99964 L361.5,783.99964 L361.5,786.610687 C362.598034,785.879632 363.435386,785.010882 364.015328,783.99964 Z M365.988969,780.499955 C365.94919,781.390989 365.801872,782.22461 365.547756,782.99973 L367.326369,782.99973 C367.690671,782.232926 367.919641,781.389381 367.982418,780.499955 L365.988969,780.499955 Z M364.987902,780.499955 L361.5,780.499955 L361.5,782.99973 L364.487503,782.99973 C364.777101,782.236183 364.943538,781.403458 364.987902,780.499955 Z M365.547756,777.00027 C365.801872,777.77539 365.94919,778.609011 365.988969,779.500045 L367.982418,779.500045 C367.919641,778.610619 367.690671,777.767074 367.326369,777.00027 L365.547756,777.00027 Z M364.487503,777.00027 L361.5,777.00027 L361.5,779.500045 L364.987902,779.500045 C364.943538,778.596542 364.777101,777.763817 364.487503,777.00027 Z M363.042519,773.303283 C363.952663,774.083599 364.654224,774.983632 365.145142,776.00036 L366.745311,776.00036 C365.858207,774.728682 364.559612,773.765331 363.042519,773.303283 Z M361.5,776.00036 L364.015328,776.00036 C363.435386,774.989118 362.598034,774.120368 361.5,773.389313 L361.5,776.00036 Z M360.973257,787.999237 C356.567278,787.98482 353,784.408964 353,780 C353,775.591036 356.567278,772.01518 360.973257,772.000763 C360.991379,771.999752 361.009648,771.999738 361.027989,772.000767 C365.433395,772.015854 369,775.591452 369,780 C369,784.408548 365.433395,787.984146 361.027989,787.999233 C361.009648,788.000262 360.991379,788.000248 360.973257,787.999237 Z M358.957481,773.303283 C357.440388,773.765331 356.141793,774.728682 355.254689,776.00036 L356.854858,776.00036 C357.345776,774.983632 358.047337,774.083599 358.957481,773.303283 Z M356.011031,779.500045 C356.05081,778.609011 356.198128,777.77539 356.452244,777.00027 L354.673631,777.00027 C354.309329,777.767074 354.080359,778.610619 354.017582,779.500045 L356.011031,779.500045 Z M356.452244,782.99973 C356.198128,782.22461 356.05081,781.390989 356.011031,780.499955 L354.017582,780.499955 C354.080359,781.389381 354.309329,782.232926 354.673631,782.99973 L356.452244,782.99973 Z M358.957481,786.696717 C358.047337,785.916401 357.345776,785.016368 356.854858,783.99964 L355.254689,783.99964 C356.141793,785.271318 357.440388,786.234669 358.957481,786.696717 Z" id="widget-scene"></path>
        </g>
    </g>
</svg>