<?xml version="1.0" encoding="UTF-8"?>
<svg width="16px" height="16px" viewBox="0 0 16 16" version="1.1" xmlns="http://www.w3.org/2000/svg" xmlns:xlink="http://www.w3.org/1999/xlink">
    <!-- Generator: Sketch 52.6 (67491) - http://www.bohemiancoding.com/sketch -->
    <title>widget-navigator</title>
    <desc>Created with Sketch.</desc>
    <g id="Style" stroke="none" stroke-width="1" fill="none" fill-rule="evenodd">
        <g id="0-UI-icons" transform="translate(-460.000000, -772.000000)" fill="#000000" fill-rule="nonzero">
            <path d="M462,773 C461.447715,773 461,773.447715 461,774 L461,786 C461,786.552285 461.447715,787 462,787 L474,787 C474.552285,787 475,786.552285 475,786 L475,774 C475,773.447715 474.552285,773 474,773 L462,773 Z M462,772 L474,772 C475.104569,772 476,772.895431 476,774 L476,786 C476,787.104569 475.104569,788 474,788 L462,788 C460.895431,788 460,787.104569 460,786 L460,774 C460,772.895431 460.895431,772 462,772 Z M468,784.9 C467.558172,784.9 467.2,784.541828 467.2,784.1 C467.2,783.658172 467.558172,783.3 468,783.3 C468.441828,783.3 468.8,783.658172 468.8,784.1 C468.8,784.541828 468.441828,784.9 468,784.9 Z M463.160189,779 L464.859246,780.685951 C465.046918,780.872176 465.046918,781.174106 464.859246,781.360331 C464.671573,781.546556 464.367295,781.546556 464.179623,781.360331 L462.140754,779.33719 C461.953082,779.150965 461.953082,778.849035 462.140754,778.66281 L464.179623,776.639669 C464.367295,776.453444 464.671573,776.453444 464.859246,776.639669 C465.046918,776.825894 465.046918,777.127824 464.859246,777.314049 L463.160189,779 Z M472.839811,779 L471.140754,777.314049 C470.953082,777.127824 470.953082,776.825894 471.140754,776.639669 C471.328427,776.453444 471.632705,776.453444 471.820377,776.639669 L473.859246,778.66281 C474.046918,778.849035 474.046918,779.150965 473.859246,779.33719 L471.820377,781.360331 C471.632705,781.546556 471.328427,781.546556 471.140754,781.360331 C470.953082,781.174106 470.953082,780.872176 471.140754,780.685951 L472.839811,779 Z M465.4,784.9 C464.958172,784.9 464.6,784.541828 464.6,784.1 C464.6,783.658172 464.958172,783.3 465.4,783.3 C465.841828,783.3 466.2,783.658172 466.2,784.1 C466.2,784.541828 465.841828,784.9 465.4,784.9 Z M470.6,784.9 C470.158172,784.9 469.8,784.541828 469.8,784.1 C469.8,783.658172 470.158172,783.3 470.6,783.3 C471.041828,783.3 471.4,783.658172 471.4,784.1 C471.4,784.541828 471.041828,784.9 470.6,784.9 Z" id="widget-navigator"></path>
        </g>
    </g>
</svg>