<?xml version="1.0" encoding="UTF-8"?>
<svg width="15px" height="16px" viewBox="0 0 15 16" version="1.1" xmlns="http://www.w3.org/2000/svg" xmlns:xlink="http://www.w3.org/1999/xlink">
    <!-- Generator: Sketch 52.6 (67491) - http://www.bohemiancoding.com/sketch -->
    <title>widget-event</title>
    <desc>Created with Sketch.</desc>
    <g id="Style" stroke="none" stroke-width="1" fill="none" fill-rule="evenodd">
        <g id="0-UI-icons" transform="translate(-244.000000, -808.000000)" fill="#000000" fill-rule="nonzero">
            <path d="M255,810 L255,810.5 C255,810.776142 254.776142,811 254.5,811 C254.223858,811 254,810.776142 254,810.5 L254,810 L249,810 L249,810.5 C249,810.776142 248.776142,811 248.5,811 C248.223858,811 248,810.776142 248,810.5 L248,810 L246,810 C245.447715,810 245,810.447715 245,811 L245,822 C245,822.552285 245.447715,823 246,823 L257,823 C257.552285,823 258,822.552285 258,822 L258,811 C258,810.447715 257.552285,810 257,810 L255,810 Z M248,809 L248,808.5 C248,808.223858 248.223858,808 248.5,808 C248.776142,808 249,808.223858 249,808.5 L249,809 L254,809 L254,808.5 C254,808.223858 254.223858,808 254.5,808 C254.776142,808 255,808.223858 255,808.5 L255,809 L257,809 C258.104569,809 259,809.895431 259,811 L259,822 C259,823.104569 258.104569,824 257,824 L246,824 C244.895431,824 244,823.104569 244,822 L244,811 C244,809.895431 244.895431,809 246,809 L248,809 Z M245,813 L258,813 L258,814 L245,814 L245,813 Z M247,816.5 L248,816.5 C248.276142,816.5 248.5,816.723858 248.5,817 C248.5,817.276142 248.276142,817.5 248,817.5 L247,817.5 C246.723858,817.5 246.5,817.276142 246.5,817 C246.5,816.723858 246.723858,816.5 247,816.5 Z M251,816.5 L252,816.5 C252.276142,816.5 252.5,816.723858 252.5,817 C252.5,817.276142 252.276142,817.5 252,817.5 L251,817.5 C250.723858,817.5 250.5,817.276142 250.5,817 C250.5,816.723858 250.723858,816.5 251,816.5 Z M255,816.5 L256,816.5 C256.276142,816.5 256.5,816.723858 256.5,817 C256.5,817.276142 256.276142,817.5 256,817.5 L255,817.5 C254.723858,817.5 254.5,817.276142 254.5,817 C254.5,816.723858 254.723858,816.5 255,816.5 Z M247,819.5 L248,819.5 C248.276142,819.5 248.5,819.723858 248.5,820 C248.5,820.276142 248.276142,820.5 248,820.5 L247,820.5 C246.723858,820.5 246.5,820.276142 246.5,820 C246.5,819.723858 246.723858,819.5 247,819.5 Z M251,819.5 L252,819.5 C252.276142,819.5 252.5,819.723858 252.5,820 C252.5,820.276142 252.276142,820.5 252,820.5 L251,820.5 C250.723858,820.5 250.5,820.276142 250.5,820 C250.5,819.723858 250.723858,819.5 251,819.5 Z M255,819.5 L256,819.5 C256.276142,819.5 256.5,819.723858 256.5,820 C256.5,820.276142 256.276142,820.5 256,820.5 L255,820.5 C254.723858,820.5 254.5,820.276142 254.5,820 C254.5,819.723858 254.723858,819.5 255,819.5 Z" id="widget-event"></path>
        </g>
    </g>
</svg>