<?xml version="1.0" encoding="UTF-8"?>
<svg width="20px" height="20px" viewBox="0 0 20 20" version="1.1" xmlns="http://www.w3.org/2000/svg" xmlns:xlink="http://www.w3.org/1999/xlink">
    <!-- Generator: Sketch 64 (93537) - https://sketch.com -->
    <title>widget-bookmark</title>
    <desc>Created with Sketch.</desc>
    <g id="Icons" stroke="none" stroke-width="1" fill="none" fill-rule="evenodd">
        <g transform="translate(-120.000000, -1039.000000)" id="widget-bookmark">
            <g transform="translate(120.000000, 1039.000000)">
                <rect id="Rectangle" x="0" y="0" width="20" height="20"></rect>
                <path d="M19,5.0004445e-12 L19,20 L3.5,20 C2.11928813,20 1,18.8811004 1,17.5008677 L1,17.5008677 L1,2.49913231 C1,1.11889965 2.11928813,5.0004445e-12 3.5,5.0004445e-12 L3.5,5.0004445e-12 L19,5.0004445e-12 Z M18,15.001 L3.5,15.0017354 C2.72030388,15.0017354 2.07955132,15.596417 2.00686658,16.3568049 L2,16.5012148 L2,17.5008677 C2,18.3290073 2.67157288,19.0003471 3.5,19.0003471 L3.5,19.0003471 L18,18.9994035 L18,15.001 Z M8.5,0.999652925 L3.5,0.999652925 C2.72030388,0.999652925 2.07955132,1.59433454 2.00686658,2.35472244 L2.00686658,2.35472244 L2,2.49913231 L2.00004507,14.501692 C2.37686475,14.2187633 2.83626265,14.0397988 3.33562431,14.0073983 L3.5,14.0020825 L18,14.002 L18,0.999652925 L14.5,0.999652925 L14.5,7.9972234 L11.5,5.99791755 L8.5,7.9972234 L8.5,0.999652925 Z" id="Combined-Shape" fill="#000000" fill-rule="nonzero"></path>
            </g>
        </g>
    </g>
</svg>