<?xml version="1.0" encoding="UTF-8"?>
<svg width="16px" height="16px" viewBox="0 0 16 16" version="1.1" xmlns="http://www.w3.org/2000/svg" xmlns:xlink="http://www.w3.org/1999/xlink">
    <!-- Generator: Sketch 52.6 (67491) - http://www.bohemiancoding.com/sketch -->
    <title>widget-annotations</title>
    <desc>Created with Sketch.</desc>
    <g id="Style" stroke="none" stroke-width="1" fill="none" fill-rule="evenodd">
        <g id="0-UI-icons" transform="translate(-208.000000, -808.000000)" fill="#000000" fill-rule="nonzero">
            <path d="M209,821.825779 L211.130076,820 L222,820 C222.552285,820 223,819.552285 223,819 L223,810 C223,809.447715 222.552285,809 222,809 L210,809 C209.447715,809 209,809.447715 209,810 L209,821.825779 Z M210,808 L222,808 C223.104569,808 224,808.895431 224,810 L224,819 C224,820.104569 223.104569,821 222,821 L211.5,821 L208,824 L208,810 C208,808.895431 208.895431,808 210,808 Z M212.5,812 L219.5,812 C219.776142,812 220,812.223858 220,812.5 C220,812.776142 219.776142,813 219.5,813 L212.5,813 C212.223858,813 212,812.776142 212,812.5 C212,812.223858 212.223858,812 212.5,812 Z M212.5,814 L219.5,814 C219.776142,814 220,814.223858 220,814.5 C220,814.776142 219.776142,815 219.5,815 L212.5,815 C212.223858,815 212,814.776142 212,814.5 C212,814.223858 212.223858,814 212.5,814 Z M212.5,816 L216.5,816 C216.776142,816 217,816.223858 217,816.5 C217,816.776142 216.776142,817 216.5,817 L212.5,817 C212.223858,817 212,816.776142 212,816.5 C212,816.223858 212.223858,816 212.5,816 Z" id="widget-annotations"></path>
        </g>
    </g>
</svg>