<?xml version="1.0" encoding="UTF-8"?>
<svg width="16px" height="16px" viewBox="0 0 16 16" version="1.1" xmlns="http://www.w3.org/2000/svg" xmlns:xlink="http://www.w3.org/1999/xlink">
    <!-- Generator: Sketch 52.6 (67491) - http://www.bohemiancoding.com/sketch -->
    <title>widget-html</title>
    <desc>Created with Sketch.</desc>
    <g id="Style" stroke="none" stroke-width="1" fill="none" fill-rule="evenodd">
        <g id="0-UI-icons" transform="translate(-136.000000, -808.000000)" fill="#000000" fill-rule="nonzero">
            <path d="M138,809 C137.447715,809 137,809.447715 137,810 L137,822 C137,822.552285 137.447715,823 138,823 L150,823 C150.552285,823 151,822.552285 151,822 L151,810 C151,809.447715 150.552285,809 150,809 L138,809 Z M138,808 L150,808 C151.104569,808 152,808.895431 152,810 L152,822 C152,823.104569 151.104569,824 150,824 L138,824 C136.895431,824 136,823.104569 136,822 L136,810 C136,808.895431 136.895431,808 138,808 Z M141.853553,818.646447 C142.048816,818.841709 142.048816,819.158291 141.853553,819.353553 C141.658291,819.548816 141.341709,819.548816 141.146447,819.353553 L138.146447,816.353553 C137.951184,816.158291 137.951184,815.841709 138.146447,815.646447 L141.146447,812.646447 C141.341709,812.451184 141.658291,812.451184 141.853553,812.646447 C142.048816,812.841709 142.048816,813.158291 141.853553,813.353553 L139.207107,816 L141.853553,818.646447 Z M146.146447,818.646447 L148.792893,816 L146.146447,813.353553 C145.951184,813.158291 145.951184,812.841709 146.146447,812.646447 C146.341709,812.451184 146.658291,812.451184 146.853553,812.646447 L149.853553,815.646447 C150.048816,815.841709 150.048816,816.158291 149.853553,816.353553 L146.853553,819.353553 C146.658291,819.548816 146.341709,819.548816 146.146447,819.353553 C145.951184,819.158291 145.951184,818.841709 146.146447,818.646447 Z M144.982448,812.61926 C145.249181,812.690731 145.407472,812.964899 145.336001,813.231632 L143.783087,819.027187 C143.711616,819.29392 143.437448,819.452211 143.170715,819.38074 C142.903982,819.309269 142.74569,819.035101 142.817161,818.768368 L144.370075,812.972813 C144.441546,812.70608 144.715715,812.547789 144.982448,812.61926 Z" id="widget-html"></path>
        </g>
    </g>
</svg>