<?xml version="1.0" encoding="UTF-8"?>
<svg width="16px" height="16px" viewBox="0 0 16 16" version="1.1" xmlns="http://www.w3.org/2000/svg" xmlns:xlink="http://www.w3.org/1999/xlink">
    <!-- Generator: Sketch 52.6 (67491) - http://www.bohemiancoding.com/sketch -->
    <title>widget-link</title>
    <desc>Created with Sketch.</desc>
    <g id="Style" stroke="none" stroke-width="1" fill="none" fill-rule="evenodd">
        <g id="0-UI-icons" transform="translate(-209.000000, -772.000000)" fill="#000000" fill-rule="nonzero">
            <path d="M215.262309,778.971644 L214.369307,778.078641 C214.174045,777.883379 214.174045,777.566797 214.369307,777.371535 L214.371535,777.369307 C214.566797,777.174045 214.883379,777.174045 215.078641,777.369307 L215.971644,778.262309 L216.680979,777.552975 C217.072733,777.16122 217.072733,776.52606 216.680979,776.134305 L213.84364,773.296967 C213.451885,772.905212 212.816725,772.905212 212.424971,773.296967 L210.296967,775.424971 C209.905212,775.816725 209.905212,776.451885 210.296967,776.84364 L213.134305,779.680979 C213.52606,780.072733 214.16122,780.072733 214.552975,779.680979 L215.262309,778.971644 Z M216.680979,778.971644 L218.028356,780.319021 L218.737691,779.609687 C219.5212,778.826177 220.79152,778.826177 221.575029,779.609687 L224.412368,782.447025 C225.195877,783.230535 225.195877,784.500855 224.412368,785.284364 L222.284364,787.412368 C221.500855,788.195877 220.230535,788.195877 219.447025,787.412368 L216.609687,784.575029 C215.826177,783.79152 215.826177,782.5212 216.609687,781.737691 L217.319021,781.028356 L215.971644,779.680979 L215.262309,780.390313 C214.4788,781.173823 213.20848,781.173823 212.424971,780.390313 L209.587632,777.552975 C208.804123,776.769465 208.804123,775.499145 209.587632,774.715636 L211.715636,772.587632 C212.499145,771.804123 213.769465,771.804123 214.552975,772.587632 L217.390313,775.424971 C218.173823,776.20848 218.173823,777.4788 217.390313,778.262309 L216.680979,778.971644 Z M218.737691,781.028356 L219.336877,781.627543 C219.532139,781.822805 219.532139,782.139387 219.336877,782.334649 L219.334649,782.336877 C219.139387,782.532139 218.822805,782.532139 218.627543,782.336877 L218.028356,781.737691 L217.319021,782.447025 C216.927267,782.83878 216.927267,783.47394 217.319021,783.865695 L220.15636,786.703033 C220.548115,787.094788 221.183275,787.094788 221.575029,786.703033 L223.703033,784.575029 C224.094788,784.183275 224.094788,783.548115 223.703033,783.15636 L220.865695,780.319021 C220.47394,779.927267 219.83878,779.927267 219.447025,780.319021 L218.737691,781.028356 Z" id="widget-link"></path>
        </g>
    </g>
</svg>