<?xml version="1.0" encoding="UTF-8"?>
<svg width="16px" height="16px" viewBox="0 0 16 16" version="1.1" xmlns="http://www.w3.org/2000/svg" xmlns:xlink="http://www.w3.org/1999/xlink">
    <!-- Generator: Sketch 52.6 (67491) - http://www.bohemiancoding.com/sketch -->
    <title>widget-menu</title>
    <desc>Created with Sketch.</desc>
    <g id="Style" stroke="none" stroke-width="1" fill="none" fill-rule="evenodd">
        <g id="0-UI-icons" transform="translate(-173.000000, -772.000000)" fill="#000000" fill-rule="nonzero">
            <path d="M175,773 C174.447715,773 174,773.447715 174,774 C174,774.552285 174.447715,775 175,775 L187,775 C187.552285,775 188,774.552285 188,774 C188,773.447715 187.552285,773 187,773 L175,773 Z M175,772 L187,772 C188.104569,772 189,772.895431 189,774 C189,775.104569 188.104569,776 187,776 L175,776 C173.895431,776 173,775.104569 173,774 C173,772.895431 173.895431,772 175,772 Z M175,779 C174.447715,779 174,779.447715 174,780 C174,780.552285 174.447715,781 175,781 L187,781 C187.552285,781 188,780.552285 188,780 C188,779.447715 187.552285,779 187,779 L175,779 Z M175,778 L187,778 C188.104569,778 189,778.895431 189,780 C189,781.104569 188.104569,782 187,782 L175,782 C173.895431,782 173,781.104569 173,780 C173,778.895431 173.895431,778 175,778 Z M175,785 C174.447715,785 174,785.447715 174,786 C174,786.552285 174.447715,787 175,787 L187,787 C187.552285,787 188,786.552285 188,786 C188,785.447715 187.552285,785 187,785 L175,785 Z M175,784 L187,784 C188.104569,784 189,784.895431 189,786 C189,787.104569 188.104569,788 187,788 L175,788 C173.895431,788 173,787.104569 173,786 C173,784.895431 173.895431,784 175,784 Z" id="widget-menu"></path>
        </g>
    </g>
</svg>