<?xml version="1.0" encoding="UTF-8"?>
<svg width="16px" height="16px" viewBox="0 0 16 16" version="1.1" xmlns="http://www.w3.org/2000/svg" xmlns:xlink="http://www.w3.org/1999/xlink">
    <!-- Generator: Sketch 52.6 (67491) - http://www.bohemiancoding.com/sketch -->
    <title>widget-list</title>
    <desc>Created with Sketch.</desc>
    <g id="Style" stroke="none" stroke-width="1" fill="none" fill-rule="evenodd">
        <g id="0-UI-icons" transform="translate(-245.000000, -772.000000)" fill="#000000" fill-rule="nonzero">
            <path d="M247,775 C247.552285,775 248,774.552285 248,774 C248,773.447715 247.552285,773 247,773 C246.447715,773 246,773.447715 246,774 C246,774.552285 246.447715,775 247,775 Z M247,776 C245.895431,776 245,775.104569 245,774 C245,772.895431 245.895431,772 247,772 C248.104569,772 249,772.895431 249,774 C249,775.104569 248.104569,776 247,776 Z M252,773 C251.447715,773 251,773.447715 251,774 C251,774.552285 251.447715,775 252,775 L259,775 C259.552285,775 260,774.552285 260,774 C260,773.447715 259.552285,773 259,773 L252,773 Z M252,772 L259,772 C260.104569,772 261,772.895431 261,774 C261,775.104569 260.104569,776 259,776 L252,776 C250.895431,776 250,775.104569 250,774 C250,772.895431 250.895431,772 252,772 Z M252,779 C251.447715,779 251,779.447715 251,780 C251,780.552285 251.447715,781 252,781 L259,781 C259.552285,781 260,780.552285 260,780 C260,779.447715 259.552285,779 259,779 L252,779 Z M252,778 L259,778 C260.104569,778 261,778.895431 261,780 C261,781.104569 260.104569,782 259,782 L252,782 C250.895431,782 250,781.104569 250,780 C250,778.895431 250.895431,778 252,778 Z M252,785 C251.447715,785 251,785.447715 251,786 C251,786.552285 251.447715,787 252,787 L259,787 C259.552285,787 260,786.552285 260,786 C260,785.447715 259.552285,785 259,785 L252,785 Z M252,784 L259,784 C260.104569,784 261,784.895431 261,786 C261,787.104569 260.104569,788 259,788 L252,788 C250.895431,788 250,787.104569 250,786 C250,784.895431 250.895431,784 252,784 Z M247,781 C247.552285,781 248,780.552285 248,780 C248,779.447715 247.552285,779 247,779 C246.447715,779 246,779.447715 246,780 C246,780.552285 246.447715,781 247,781 Z M247,782 C245.895431,782 245,781.104569 245,780 C245,778.895431 245.895431,778 247,778 C248.104569,778 249,778.895431 249,780 C249,781.104569 248.104569,782 247,782 Z M247,787 C247.552285,787 248,786.552285 248,786 C248,785.447715 247.552285,785 247,785 C246.447715,785 246,785.447715 246,786 C246,786.552285 246.447715,787 247,787 Z M247,788 C245.895431,788 245,787.104569 245,786 C245,784.895431 245.895431,784 247,784 C248.104569,784 249,784.895431 249,786 C249,787.104569 248.104569,788 247,788 Z" id="widget-list"></path>
        </g>
    </g>
</svg>