<?xml version="1.0" encoding="UTF-8"?>
<svg width="16px" height="16px" viewBox="0 0 16 16" version="1.1" xmlns="http://www.w3.org/2000/svg" xmlns:xlink="http://www.w3.org/1999/xlink">
    <title>icon_flyalongpath_16</title>
    <g id="Fly" stroke="none" stroke-width="1" fill="none" fill-rule="evenodd">
        <g id="icons" transform="translate(-74.000000, -181.000000)" fill="#000000">
            <g id="icon_flyAlongPath_16" transform="translate(74.000000, 181.000000)">
                <path d="M1,14 C1.55228475,14 2,14.4477153 2,15 C2,15.5522847 1.55228475,16 1,16 C0.44771525,16 0,15.5522847 0,15 C0,14.4477153 0.44771525,14 1,14 Z M4,13 C4.55228475,13 5,13.4477153 5,14 C5,14.5522847 4.55228475,15 4,15 C3.44771525,15 3,14.5522847 3,14 C3,13.4477153 3.44771525,13 4,13 Z M11,4 L10.1881389,13 L7.43780135,9.66510382 L3,9.32831486 L11,4 Z M6,11 C6.55228475,11 7,11.4477153 7,12 C7,12.5522847 6.55228475,13 6,13 C5.44771525,13 5,12.5522847 5,12 C5,11.4477153 5.44771525,11 6,11 Z M12,1 C12.5522847,1 13,1.44771525 13,2 C13,2.55228475 12.5522847,3 12,3 C11.4477153,3 11,2.55228475 11,2 C11,1.44771525 11.4477153,1 12,1 Z M15,0 C15.5522847,0 16,0.44771525 16,1 C16,1.55228475 15.5522847,2 15,2 C14.4477153,2 14,1.55228475 14,1 C14,0.44771525 14.4477153,0 15,0 Z" id="Combined-Shape"></path>
            </g>
        </g>
    </g>
</svg>