<?xml version="1.0" encoding="UTF-8"?>
<svg width="16px" height="16px" viewBox="0 0 16 16" version="1.1" xmlns="http://www.w3.org/2000/svg" xmlns:xlink="http://www.w3.org/1999/xlink">
    <title>icon_flyByPoint_16</title>
    <g id="Fly" stroke="none" stroke-width="1" fill="none" fill-rule="evenodd">
        <g id="icons" transform="translate(-114.000000, -181.000000)" fill="#000000" fill-rule="nonzero">
            <g id="icon_flyByPoint_16" transform="translate(114.000000, 181.000000)">
                <path d="M8.95698341,0.0566478091 C12.9240984,0.529557801 16,3.90557125 16,8 C16,12.418278 12.418278,16 8,16 C3.581722,16 0,12.418278 0,8 C0,6.10324599 0.660097094,4.36066591 1.76309993,2.98945113 L2.01199242,3.23071245 L2.10537285,4.22304318 C1.40575729,5.31265975 1,6.60894503 1,8 C1,11.8659932 4.13400675,15 8,15 C11.8659932,15 15,11.8659932 15,8 C15,4.13400675 11.8659932,1 8,1 L8.213,1.00364781 L8.95698341,0.0566478091 Z M8,7 C8.55228475,7 9,7.44771525 9,8 C9,8.55228475 8.55228475,9 8,9 C7.44771525,9 7,8.55228475 7,8 C7,7.44771525 7.44771525,7 8,7 Z M1,-4.97379915e-14 L7.7338543,0.46059982 L2.86095746,5.3761174 L2.86095746,2.38576631 L1,-4.97379915e-14 Z"></path>
            </g>
        </g>
    </g>
</svg>