<?xml version="1.0" encoding="UTF-8"?>
<svg width="16px" height="16px" viewBox="0 0 16 16" version="1.1" xmlns="http://www.w3.org/2000/svg" xmlns:xlink="http://www.w3.org/1999/xlink">
    <title>icon_settings_16</title>
    <g id="Fly" stroke="none" stroke-width="1" fill="none" fill-rule="evenodd">
        <g id="icons" transform="translate(-273.000000, -181.000000)" fill="#000000" fill-rule="nonzero">
            <g id="icon_settings_16" transform="translate(273.000000, 181.000000)">
                <path d="M9.63634583,-3.73034936e-14 C9.88024302,-3.73034936e-14 10.0904754,0.167079681 10.1393343,0.399825377 C10.3126057,1.22522566 10.4331858,1.9308736 10.5010747,2.5167692 C10.9277224,2.70000097 11.3289831,2.93080207 11.6980587,3.20105633 L13.6731413,2.42948309 C13.9102178,2.33679564 14.1811896,2.4280102 14.3089204,2.64349913 L15.9311575,5.38030317 C16.0531579,5.58600804 16.0096679,5.84691391 15.8271577,6.00450061 C15.1792565,6.5639251 14.6116463,7.0188158 14.1243273,7.36917271 C14.1485588,7.57527513 14.1600253,7.78633329 14.1600253,8 C14.1600253,8.24389891 14.1450845,8.48439884 14.1160456,8.72067884 L15.7894457,10.0001938 C15.9903945,10.1538307 16.0447795,10.4280102 15.9170487,10.6434991 L14.2948116,13.3803032 C14.1729149,13.5860664 13.9191925,13.6798342 13.6878234,13.6046753 C12.866449,13.3378562 12.1781721,13.0864989 11.6229928,12.8506036 C11.2517921,13.1166013 10.8471636,13.341582 10.4174273,13.5203483 L10.1163045,15.5707107 C10.0801767,15.8170351 9.86358988,16 9.6081283,16 L6.36365417,16 C6.11975698,16 5.9095246,15.8329203 5.86066568,15.6001747 C5.68739429,14.7747744 5.56681416,14.0691264 5.49892527,13.4832308 C5.07227757,13.2999991 4.67101688,13.069198 4.30194127,12.7989437 L2.32685873,13.5705169 C2.08978219,13.6632044 1.8188104,13.5719898 1.69107961,13.3565009 L0.0688425455,10.6196969 C-0.053157947,10.413992 -0.00966785522,10.1530861 0.172842251,9.99549942 C0.820603746,9.43619559 1.38810879,8.98138047 1.8753574,8.63105404 C1.85144116,8.4247249 1.83997469,8.21366674 1.83997469,8 C1.83997469,7.75610112 1.85491555,7.5156012 1.88395441,7.27932119 L0.210554269,5.99980626 C0.0096054517,5.84616934 -0.0447794771,5.57198983 0.082951311,5.3565009 L1.70518838,2.61969686 C1.82708508,2.41393362 2.08080755,2.32016579 2.31217658,2.39532478 C3.13355101,2.66214387 3.82182788,2.91350109 4.3770072,3.14939646 C4.74776621,2.88359817 5.15309216,2.65822063 5.58360696,2.4792216 L5.88369554,0.429289337 C5.91982326,0.182964968 6.13641012,-3.73034936e-14 6.3918717,-3.73034936e-14 L9.63634583,-3.73034936e-14 Z M9.21455166,1.00000002 L6.83678189,1.00000002 L6.51838909,3.17785657 L5.98667335,3.39893283 C5.71874632,3.51033128 5.46252268,3.64331974 5.22146405,3.79582835 L4.98558862,3.95476701 L4.50895345,4.29646824 L3.96650004,4.06598011 C3.59202632,3.90686644 3.14803244,3.73833322 2.63540371,3.56097901 L2.38308359,3.47500002 L1.19419871,5.48000002 L2.97195838,6.83991424 L2.90334738,7.39818012 C2.87895579,7.59664677 2.86664558,7.79746478 2.86664558,8.00000002 C2.86664558,8.11954883 2.87093447,8.23649119 2.87949779,8.35037935 L2.89554678,8.51886496 L2.96205753,9.09266366 L2.48508565,9.43560124 C2.15642716,9.67190311 1.7846554,9.96211053 1.37074429,10.3057764 L1.16853193,10.475 L2.35639015,12.481 L4.45657174,11.6611049 L4.91887615,11.9996256 C5.15135472,12.1698572 5.3971761,12.3198853 5.65346284,12.4477808 L5.91313148,12.5682273 L6.45295436,12.8000643 L6.5191192,13.371081 C6.56491363,13.7662967 6.63703884,14.2247303 6.73558391,14.7453397 L6.78544834,15 L9.16219144,15 L9.48290873,12.8217161 L10.0141875,12.6007092 C10.2817256,12.4894159 10.5375156,12.3566247 10.778563,12.2041193 L11.0145852,12.0451084 L11.4911783,11.7035878 L12.0335,11.9340199 C12.4079737,12.0931336 12.8519676,12.2616668 13.3645963,12.439021 L13.6158897,12.524 L14.8047746,10.519 L13.0280416,9.16008579 L13.0966526,8.60181991 C13.1210442,8.40335326 13.1333544,8.20253525 13.1333544,8.00000002 C13.1333544,7.88024245 13.1290506,7.76349961 13.1204486,7.65021744 L13.1043228,7.48294545 L13.0367468,6.90817623 L13.5146218,6.56460916 C13.8433237,6.32828965 14.215158,6.03804125 14.62915,5.69431138 L14.8304414,5.52400002 L13.6425832,3.51800002 L11.5434283,4.33889512 L11.0811238,4.00037442 C10.8486453,3.83014285 10.6028239,3.68011477 10.3465372,3.55221925 L10.0868685,3.43177268 L9.54704564,3.19993573 L9.4808808,2.62891906 C9.44424525,2.31274646 9.39075801,1.95611448 9.32037346,1.55955655 L9.21455166,1.00000002 Z M8,5.00000002 C9.70104402,5.00000002 11.0800127,6.34314577 11.0800127,8.00000002 C11.0800127,9.65685426 9.70104402,11 8,11 C6.29895598,11 4.91998735,9.65685426 4.91998735,8.00000002 C4.91998735,6.34314577 6.29895598,5.00000002 8,5.00000002 Z M8,6.00000002 C6.86597065,6.00000002 5.94665823,6.89543052 5.94665823,8.00000002 C5.94665823,9.10456951 6.86597065,10 8,10 C9.13402935,10 10.0533418,9.10456951 10.0533418,8.00000002 C10.0533418,6.89543052 9.13402935,6.00000002 8,6.00000002 Z"></path>
            </g>
        </g>
    </g>
</svg>