<?xml version="1.0" encoding="UTF-8"?>
<svg width="15px" height="16px" viewBox="0 0 15 16" version="1.1" xmlns="http://www.w3.org/2000/svg" xmlns:xlink="http://www.w3.org/1999/xlink">
    <title>icon_select_16</title>
    <g id="Fly" stroke="none" stroke-width="1" fill="none" fill-rule="evenodd">
        <g id="icons" transform="translate(-234.000000, -181.000000)" fill="#000000" fill-rule="nonzero">
            <g id="icon_select_16" transform="translate(234.000000, 181.000000)">
                <path d="M5.3,3.3826087 L14.3,9.66757101 L10.42625,9.66757101 L12.7415,14.0891525 L10.055,15.3826087 L7.682,10.8849415 L5.3,14.0087601 L5.3,3.3826087 Z M6.299,5.3 L6.299,11.048 L7.83598139,9.03381236 L10.489,14.063 L11.375,13.637 L8.773828,8.66757101 L11.121,8.667 L6.299,5.3 Z M3.4794,6.72608696 L4.0077,7.44695652 L1.4292,8.63826087 L1.0404,7.85391304 L3.4794,6.72608696 Z M0.648,3.6973913 L3.2724,4.59130435 L3.1545,5.47391304 L0.3492,4.5173913 L0.648,3.6973913 Z M11.5938,2.97391304 L11.9826,3.75826087 L9.4041,4.95130435 L9.1548,4.10173913 L11.5938,2.97391304 Z M8.4888,0.072173913 L9.3375,0.36173913 L8.3484,3.07217391 L7.5636,2.60695652 L8.4888,0.072173913 Z M4.392,0.520869565 L5.3658,2.48695652 L4.554,2.86173913 L3.5802,0.895652174 L4.392,0.520869565 Z" id="Combined-Shape"></path>
            </g>
        </g>
    </g>
</svg>