<?xml version="1.0" encoding="UTF-8"?>
<svg width="16px" height="16px" viewBox="0 0 16 16" version="1.1" xmlns="http://www.w3.org/2000/svg" xmlns:xlink="http://www.w3.org/1999/xlink">
    <title>icon_line_16</title>
    <g id="Fly" stroke="none" stroke-width="1" fill="none" fill-rule="evenodd">
        <g id="icons" transform="translate(-194.000000, -181.000000)" fill="#000000" fill-rule="nonzero">
            <g id="icon_line_16" transform="translate(194.000000, 181.000000)">
                <path d="M14.0666667,7 C14.3059901,7 14.5,7.18315624 14.5,7.40909091 C14.5,7.63502558 14.3059901,7.81818182 14.0666667,7.81818182 L13.3024729,7.82278139 C12.3368594,7.83575849 11.5618316,7.87895919 10.7054678,7.98653889 C9.28152712,8.16541975 8.21480623,8.49055344 7.65330792,8.96545531 C7.07311572,9.45616802 7.04205759,10.1194593 7.73670853,11.1205369 L7.94538709,11.4105629 C9.90011394,14.1846232 8.17160523,15.7384525 3.28301594,15.9697339 L3.0228067,15.9806849 L2.48494864,15.9952464 L1.93333333,16 C1.69400994,16 1.5,15.8168438 1.5,15.5909091 C1.5,15.3649744 1.69400994,15.1818182 1.93333333,15.1818182 L2.48133017,15.1778769 C7.37648209,15.1055685 8.75472675,14.0368819 7.21698055,11.8542921 L7.01579698,11.5741679 C6.10070035,10.2497574 6.1443623,9.14317776 7.07500353,8.35606362 C7.80060715,7.74236539 9.00782062,7.37440995 10.5911497,7.1755061 C11.7099787,7.03495452 12.683195,7 14.0666667,7 Z M2,8.07639847 C3.04911667,8.07639847 3.90991167,8.7168951 3.99336837,9.54646458 L4,9.67895466 L4,12.8719628 L2,14.4885402 L0,12.8719628 L0,9.67895466 C0,8.78609003 0.895666667,8.07639847 2,8.07639847 Z M14,4.8316906e-13 C15.0491167,4.8316906e-13 15.9099117,0.640496629 15.9933684,1.47006611 L16,1.60255619 L16,4.7955643 L14,6.41214175 L12,4.7955643 L12,1.60255619 C12,0.709691555 12.8956667,4.8316906e-13 14,4.8316906e-13 Z" id="s"></path>
            </g>
        </g>
    </g>
</svg>