<?xml version="1.0" encoding="UTF-8"?>
<svg width="16px" height="16px" viewBox="0 0 16 16" version="1.1" xmlns="http://www.w3.org/2000/svg" xmlns:xlink="http://www.w3.org/1999/xlink">
    <title>icon_clear_16</title>
    <g id="Fly" stroke="none" stroke-width="1" fill="none" fill-rule="evenodd">
        <g id="icons" transform="translate(-393.000000, -181.000000)" fill="#000000" fill-rule="nonzero">
            <g id="icon_clear_16" transform="translate(393.000000, 181.000000)">
                <path d="M8.79296228,1.29957619 C9.15350624,0.930867033 9.72045699,0.90250479 10.1127827,1.21448946 L10.2070057,1.29957619 L15.7070324,6.92363384 C16.0676079,7.292343 16.0953445,7.87208512 15.7902421,8.27326089 L15.7070324,8.36960923 L9.20701634,15.0162133 C9.05078405,15.1759989 8.84806592,15.2775142 8.63140751,15.3069141 L8.5,15.3157895 L4.5,15.3157895 C4.27906552,15.3157895 4.06558745,15.2409051 3.89205072,15.1049815 L3.79298152,15.0162133 L0.292967623,11.4372484 C-0.0676079129,11.0685716 -0.0953444926,10.4888319 0.209757884,10.0876563 L0.292967623,9.99130801 L8.79296228,1.29957619 Z M9.50000383,2.006 L1.00791621,10.690485 C1.00088298,10.6976769 0.998538569,10.711635 1.00088298,10.7233373 L1.00791621,10.7380714 L4.505,14.315 L8.494,14.315 L14.9920838,7.67043221 C14.9991204,7.66323685 15.001466,7.64926717 14.9991211,7.63755625 L14.992086,7.62281309 L9.50000383,2.006 Z M4.84352979,8.5 L3.00565171,10.349855 C3.00062797,10.3551135 2.99895339,10.3653192 3.00062797,10.3738757 L3.00565171,10.3846488 L5.50356933,13 L8.35285577,13 L8.76644777,12.641676 C8.77147394,12.636415 8.77314933,12.6262007 8.7714744,12.617638 L8.76644933,12.6068582 L4.84352979,8.5 Z" id="Shape"></path>
            </g>
        </g>
    </g>
</svg>