<?xml version="1.0" encoding="UTF-8"?>
<svg width="16px" height="16px" viewBox="0 0 16 16" version="1.1" xmlns="http://www.w3.org/2000/svg" xmlns:xlink="http://www.w3.org/1999/xlink">
    <title>icon_point_16</title>
    <g id="Fly" stroke="none" stroke-width="1" fill="none" fill-rule="evenodd">
        <g id="icons" transform="translate(-154.000000, -181.000000)" fill="#000000" fill-rule="nonzero">
            <g id="icon_point_16" transform="translate(154.000000, 181.000000)">
                <path d="M8,1 C5.791,1 4,1.852 4,4.067 L4,11.989 L8,16 L12,11.99 L12,4.066 C12,1.852 10.209,1 8,1 Z M11.1,11.686 L8,14.794 L4.9,11.686 L4.9,3.926 C4.9,2.51 5.943,1.79 8,1.79 C10.057,1.79 11.1,2.509 11.1,3.927 L11.1,11.686 Z M10,6.022 C10,7.1265695 9.1045695,8.022 8,8.022 C6.8954305,8.022 6,7.1265695 6,6.022 C6,4.9174305 6.8954305,4.022 8,4.022 C9.1045695,4.022 10,4.9174305 10,6.022 Z M9,6.022 C9,5.46971525 8.55228475,5.022 8,5.022 C7.44771525,5.022 7,5.46971525 7,6.022 C7,6.57428475 7.44771525,7.022 8,7.022 C8.55228475,7.022 9,6.57428475 9,6.022 Z" id="Shape"></path>
            </g>
        </g>
    </g>
</svg>