<?xml version="1.0" encoding="UTF-8"?>
<svg width="20px" height="20px" viewBox="0 0 20 20" version="1.1" xmlns="http://www.w3.org/2000/svg" xmlns:xlink="http://www.w3.org/1999/xlink">
    <!-- Generator: Sketch 59.1 (86144) - https://sketch.com -->
    <title>widget-list</title>
    <desc>Created with Sketch.</desc>
    <g id="Style" stroke="none" stroke-width="1" fill="none" fill-rule="evenodd">
        <g id="$0-UI-icons" transform="translate(-240.000000, -1139.000000)" fill="#000000" fill-rule="nonzero">
            <path d="M246,1151 C247.104569,1151 248,1151.89543 248,1153 L248,1157 C248,1158.10457 247.104569,1159 246,1159 L242,1159 C240.895431,1159 240,1158.10457 240,1157 L240,1153 C240,1151.89543 240.895431,1151 242,1151 L246,1151 Z M246,1152 L242,1152 C241.447715,1152 241,1152.44772 241,1153 L241,1157 C241,1157.55228 241.447715,1158 242,1158 L246,1158 C246.552285,1158 247,1157.55228 247,1157 L247,1153 C247,1152.44772 246.552285,1152 246,1152 Z M259.5,1156 C259.776142,1156 260,1156.22386 260,1156.5 C260,1156.77614 259.776142,1157 259.5,1157 L250.5,1157 C250.223858,1157 250,1156.77614 250,1156.5 C250,1156.22386 250.223858,1156 250.5,1156 L259.5,1156 Z M259.5,1153 C259.776142,1153 260,1153.22386 260,1153.5 C260,1153.77614 259.776142,1154 259.5,1154 L250.5,1154 C250.223858,1154 250,1153.77614 250,1153.5 C250,1153.22386 250.223858,1153 250.5,1153 L259.5,1153 Z M246,1139 C247.104569,1139 248,1139.89543 248,1141 L248,1145 C248,1146.10457 247.104569,1147 246,1147 L242,1147 C240.895431,1147 240,1146.10457 240,1145 L240,1141 C240,1139.89543 240.895431,1139 242,1139 L246,1139 Z M246,1140 L242,1140 C241.447715,1140 241,1140.44772 241,1141 L241,1145 C241,1145.55228 241.447715,1146 242,1146 L246,1146 C246.552285,1146 247,1145.55228 247,1145 L247,1141 C247,1140.44772 246.552285,1140 246,1140 Z M259.5,1144 C259.776142,1144 260,1144.22386 260,1144.5 C260,1144.77614 259.776142,1145 259.5,1145 L250.5,1145 C250.223858,1145 250,1144.77614 250,1144.5 C250,1144.22386 250.223858,1144 250.5,1144 L259.5,1144 Z M259.5,1141 C259.776142,1141 260,1141.22386 260,1141.5 C260,1141.77614 259.776142,1142 259.5,1142 L250.5,1142 C250.223858,1142 250,1141.77614 250,1141.5 C250,1141.22386 250.223858,1141 250.5,1141 L259.5,1141 Z" id="widget-list"></path>
        </g>
    </g>
</svg>