<?xml version="1.0" encoding="UTF-8"?>
<svg width="20px" height="20px" viewBox="0 0 20 20" version="1.1" xmlns="http://www.w3.org/2000/svg" xmlns:xlink="http://www.w3.org/1999/xlink">
    <title>icon-pause</title>
    <g id="Icons" stroke="none" stroke-width="1" fill="none" fill-rule="evenodd">
        <g transform="translate(-320.000000, -1851.000000)" fill="#FFFFFF" fill-rule="nonzero" id="icon-pause">
            <g transform="translate(320.000000, 1851.000000)">
                <path d="M8,16.6285714 C8,17.3859905 7.4627417,18 6.8,18 L4.2,18 C3.5372583,18 3,17.3859905 3,16.6285714 L3,3.37142857 C3,2.61400949 3.5372583,2 4.2,2 L6.8,2 C7.4627417,2 8,2.61400949 8,3.37142857 L8,16.6285714 Z M18,3.37142857 C18,2.61400949 17.4627417,2 16.8,2 L14.2,2 C13.5372583,2 13,2.61400949 13,3.37142857 L13,16.6285714 C13,17.3859905 13.5372583,18 14.2,18 L16.8,18 C17.4627417,18 18,17.3859905 18,16.6285714 L18,3.37142857 Z" id="Shape"></path>
            </g>
        </g>
    </g>
</svg>