<?xml version="1.0" encoding="UTF-8"?>
<svg width="20px" height="20px" viewBox="0 0 20 20" version="1.1" xmlns="http://www.w3.org/2000/svg" xmlns:xlink="http://www.w3.org/1999/xlink">
    <g id="Style" stroke="none" stroke-width="1" fill="none" fill-rule="evenodd">
        <g id="$0-UI-icons" transform="translate(-120.000000, -919.000000)">
            <g id="data" transform="translate(120.000000, 919.000000)">
                <path d="M18,14 L18,17 C18,18.6568542 14.418278,20 10,20 C5.68213741,20 2.16323765,18.7172126 2.00551796,17.1124691 L2,17 L2,14 L2.00551796,14.1124691 C2.16323765,15.7172126 5.68213741,17 10,17 C14.3178626,17 17.8367623,15.7172126 17.994482,14.1124691 L18,14 Z M18,8.50059498 L18,11.500595 C18,13.1574492 14.418278,14.500595 10,14.500595 C5.68213741,14.500595 2.16323765,13.2178075 2.00551796,11.6130641 L2,11.500595 L2,8.50059498 L2.00551796,8.61306411 C2.16323765,10.2178075 5.68213741,11.500595 10,11.500595 C14.3178626,11.500595 17.8367623,10.2178075 17.994482,8.61306411 L18,8.50059498 Z M10,0 C14.3178626,0 17.8367623,1.28278744 17.994482,2.88753087 L18,3 L18,6 C18,7.65685425 14.418278,9 10,9 C5.68213741,9 2.16323765,7.71721256 2.00551796,6.11246913 L2,6 L2,3 L2.00551796,2.88753087 C2.16323765,1.28278744 5.68213741,0 10,0 Z" id="Combined-Shape" fill="#000000"></path>
                <rect id="Rectangle" x="0" y="0" width="20" height="20"></rect>
            </g>
        </g>
    </g>
</svg>