<?xml version="1.0" encoding="UTF-8"?>
<svg width="16px" height="16px" viewBox="0 0 16 16" version="1.1" xmlns="http://www.w3.org/2000/svg" xmlns:xlink="http://www.w3.org/1999/xlink">
    <title>help-documents-16</title>
    <g id="Icons" stroke="none" stroke-width="1" fill="none" fill-rule="evenodd">
        <g transform="translate(-673.000000, -553.000000)" fill="#000000" fill-rule="nonzero" id="help-documents-16">
            <path d="M686,553 C687.104569,553 688,553.895431 688,555 L688,567 C688,568.104569 687.104569,569 686,569 L677,569 C675.895431,569 675,568.104569 675,567 L675,555 C675,553.895431 675.895431,553 677,553 L686,553 Z M686,554 L677,554 C676.487164,554 676.064493,554.38604 676.006728,554.883379 L676,555 L676,567 C676,567.512836 676.38604,567.935507 676.883379,567.993272 L677,568 L686,568 C686.512836,568 686.935507,567.61396 686.993272,567.116621 L687,567 L687,555 C687,554.487164 686.61396,554.064493 686.116621,554.006728 L686,554 Z M684,554 L684,568 L683,568 L683,554 L684,554 Z M676.5,565 C676.776142,565 677,565.223858 677,565.5 C677,565.776142 676.776142,566 676.5,566 L674.5,566 C674.223858,566 674,565.776142 674,565.5 C674,565.223858 674.223858,565 674.5,565 L676.5,565 Z M676.5,561 C676.776142,561 677,561.223858 677,561.5 C677,561.776142 676.776142,562 676.5,562 L674.5,562 C674.223858,562 674,561.776142 674,561.5 C674,561.223858 674.223858,561 674.5,561 L676.5,561 Z M676.5,557 C676.776142,557 677,557.223858 677,557.5 C677,557.776142 676.776142,558 676.5,558 L674.5,558 C674.223858,558 674,557.776142 674,557.5 C674,557.223858 674.223858,557 674.5,557 L676.5,557 Z"></path>
        </g>
    </g>
</svg>