<?xml version="1.0" encoding="UTF-8"?>
<svg width="16px" height="16px" viewBox="0 0 16 16" version="1.1" xmlns="http://www.w3.org/2000/svg" xmlns:xlink="http://www.w3.org/1999/xlink">
    <g id="Style" stroke="none" stroke-width="1" fill="none" fill-rule="evenodd">
        <g id="0-UI-icons" transform="translate(-76.000000, -503.000000)" fill="#000000">
            <path d="M84,503 C88.4,503 92,506.6 92,511 C92,515.4 88.4,519 84,519 C79.6,519 76,515.4 76,511 C76,506.6 79.6,503 84,503 Z M84,515 C83.4477153,515 83,515.447715 83,516 C83,516.552285 83.4477153,517 84,517 C84.5522847,517 85,516.552285 85,516 C85,515.447715 84.5522847,515 84,515 Z M83.9375403,505 C82.3868449,505 81.0570971,506.06018 80.5707831,507.464989 C80.500896,507.638611 80.500896,507.806907 80.500896,507.806907 C80.480618,508.254253 80.806614,508.6 81.2656955,508.6 L81.2656955,508.6 L81.3801129,508.593293 C81.8375504,508.540172 82.1554135,508.278828 82.3266166,507.85065 C82.4164445,507.662386 82.4498449,507.612733 82.4662261,507.588524 C82.7877354,507.113376 83.3281814,506.8 83.9375403,506.8 C84.9172167,506.8 85.7187701,507.61 85.7187701,508.6 C85.7187701,509.14 85.5406471,509.59 85.1844012,509.86 L85.1844012,509.86 L84.1156633,511.03 C83.5382565,511.540555 83.1948163,512.228434 83.0853426,512.997834 C83.0819641,513.021579 83.0804504,513.049109 83.0797815,513.070703 L83.0797815,513.070703 L83.0808747,513.20443 C83.112561,513.64848 83.4784588,514 83.9375403,514 L83.9375403,514 L84.0424604,513.994273 C84.491344,513.945096 84.858711,513.585268 84.890877,513.148681 L84.890877,513.148681 L84.9278361,512.964136 C85.0789778,512.311773 85.4019968,511.917597 85.8968931,511.48 C86.3917894,511.042403 86.6984466,510.67 86.6984466,510.67 C87.143754,510.13 87.5,509.41 87.5,508.6 C87.5,506.62 85.8968931,505 83.9375403,505 Z" id="help"></path>
        </g>
    </g>
</svg>