<?xml version="1.0" encoding="UTF-8"?>
<svg width="16px" height="16px" viewBox="0 0 16 16" version="1.1" xmlns="http://www.w3.org/2000/svg" xmlns:xlink="http://www.w3.org/1999/xlink">
    <title>launch-16</title>
    <g id="Icons" stroke="none" stroke-width="1" fill="none" fill-rule="evenodd">
        <g transform="translate(-745.000000, -553.000000)" fill="#000000" fill-rule="nonzero" id="launch-16">
            <path d="M748.84,565.571429 C748.414741,565.571429 748.06329,565.270464 748.007668,564.879984 L748,564.771429 L748,563.759101 C748,563.361276 748.145195,562.977709 748.407636,562.672659 L748.527208,562.546918 L749.794365,561.373919 C748.818915,557.881442 749.653024,555.216339 752.296692,553.378611 C752.379904,553.320766 752.489026,553.249559 752.624057,553.16499 L752.767716,553.075956 C752.937776,552.971581 753.164799,552.97507 753.330611,553.084607 L753.628034,553.285545 C753.714149,553.345404 753.787237,553.398143 753.847299,553.443763 C756.288866,555.29824 757.151084,557.991715 756.253716,561.41807 L757.472792,562.546918 L757.592364,562.672659 C757.854805,562.977709 758,563.361276 758,563.759101 L758,563.759101 L758,564.771429 L757.992332,564.879984 C757.93671,565.270464 757.585259,565.571429 757.16,565.571429 L757.16,565.571429 L748.84,565.571429 Z M753.0264,554.215734 L752.838806,554.352251 C750.140089,556.365743 749.844958,559.529749 752.135496,564.074095 L752.364,564.515772 L753.7392,564.515772 L753.80682,564.389988 C756.143653,559.892938 755.873797,556.533443 753.263254,554.400473 L753.0264,554.215734 Z M755.063292,564.504148 L756.8,564.504343 L756.8,563.759101 L756.792526,563.669171 C756.772742,563.550938 756.714282,563.440771 756.624264,563.35504 L756.624264,563.35504 L755.865629,562.652188 C755.647619,563.249781 755.38045,563.867263 755.063292,564.504148 Z M750.196486,562.595205 L749.375736,563.35504 C749.285718,563.440771 749.227258,563.550938 749.207474,563.669171 L749.2,563.759101 L749.2,564.504343 L751.040258,564.503999 C750.708751,563.844759 750.427493,563.208494 750.196486,562.595205 Z M752.956494,557.571429 C753.611226,557.571429 754.141992,558.083103 754.141992,558.714286 C754.141992,559.345468 753.611226,559.857143 752.956494,559.857143 C752.301761,559.857143 751.770996,559.345468 751.770996,558.714286 C751.770996,558.083103 752.301761,557.571429 752.956494,557.571429 Z M753,566.5 C753.276142,566.5 753.5,566.723858 753.5,567 L753.5,568.5 C753.5,568.776142 753.276142,569 753,569 C752.723858,569 752.5,568.776142 752.5,568.5 L752.5,567 C752.5,566.723858 752.723858,566.5 753,566.5 Z M751,566.5 C751.276142,566.5 751.5,566.723858 751.5,567 L751.5,567.5 C751.5,567.776142 751.276142,568 751,568 C750.723858,568 750.5,567.776142 750.5,567.5 L750.5,567 C750.5,566.723858 750.723858,566.5 751,566.5 Z M755,566.5 C755.276142,566.5 755.5,566.723858 755.5,567 L755.5,567.5 C755.5,567.776142 755.276142,568 755,568 C754.723858,568 754.5,567.776142 754.5,567.5 L754.5,567 C754.5,566.723858 754.723858,566.5 755,566.5 Z"></path>
        </g>
    </g>
</svg>