<?xml version="1.0" encoding="UTF-8"?>
<svg width="20px" height="20px" viewBox="0 0 20 20" version="1.1" xmlns="http://www.w3.org/2000/svg" xmlns:xlink="http://www.w3.org/1999/xlink">
    <g id="Style" stroke="none" stroke-width="1" fill="none" fill-rule="evenodd">
        <g id="0-UI-icons" transform="translate(-80.000000, -919.000000)">
            <g id="page" transform="translate(80.000000, 919.000000)">
                <path d="M10,0 C10.5522847,-1.01453063e-16 11,0.44771525 11,1 L11,6 C11,6.55228475 11.4477153,7 12,7 L17,7 C17.5522847,7 18,7.44771525 18,8 L18,18 C18,19.1045695 17.1045695,20 16,20 L4,20 C2.8954305,20 2,19.1045695 2,18 L2,2 C2,0.8954305 2.8954305,0 4,0 L10,0 Z M6,14 C5.44771525,14 5,14.4477153 5,15 C5,15.5522847 5.44771525,16 6,16 C6.55228475,16 7,15.5522847 7,15 C7,14.4477153 6.55228475,14 6,14 Z M15,14 L8,14 L8,16 L15,16 L15,14 Z M15,10 L8,10 L8,12 L15,12 L15,10 Z M6,10 C5.44771525,10 5,10.4477153 5,11 C5,11.5522847 5.44771525,12 6,12 C6.55228475,12 7,11.5522847 7,11 C7,10.4477153 6.55228475,10 6,10 Z M13,0 L18,5 L14,5 C13.4871642,5 13.0644928,4.61395981 13.0067277,4.11662113 L13,4 L13,0 Z" fill="#000000"></path>
                <rect id="Rectangle" x="0" y="0" width="20" height="20"></rect>
            </g>
        </g>
    </g>
</svg>