<?xml version="1.0" encoding="UTF-8"?>
<svg width="20px" height="20px" viewBox="0 0 20 20" version="1.1" xmlns="http://www.w3.org/2000/svg" xmlns:xlink="http://www.w3.org/1999/xlink">
    <g id="Style" stroke="none" stroke-width="1" fill="none" fill-rule="evenodd">
        <g id="0-UI-icons" transform="translate(-160.000000, -919.000000)" fill="#000000" fill-rule="nonzero">
            <path d="M169.982971,919 C175.496414,919 180.460354,923.143264 179.965942,929 C179.569043,932.223788 176.250634,933.320405 174.419847,933.444444 C172.703633,933.560721 171.667964,933.144325 171.049647,934.228497 C170.212583,935.696226 171.561219,936.210719 171.646799,937.333333 C171.73238,938.455948 170.691803,939 169.982971,939 C164.469528,939 160,934.522847 160,929 C160,923.477153 164.469528,919 169.982971,919 Z M164,928 C162.895431,928 162,928.895431 162,930 C162,931.104569 162.895431,932 164,932 C165.104569,932 166,931.104569 166,930 C166,928.895431 165.104569,928 164,928 Z M176.5,925 C175.671573,925 175,925.671573 175,926.5 C175,927.328427 175.671573,928 176.5,928 C177.328427,928 178,927.328427 178,926.5 C178,925.671573 177.328427,925 176.5,925 Z M166,922 C164.895431,922 164,922.895431 164,924 C164,925.104569 164.895431,926 166,926 C167.104569,926 168,925.104569 168,924 C168,922.895431 167.104569,922 166,922 Z M172.5,921 C171.671573,921 171,921.671573 171,922.5 C171,923.328427 171.671573,924 172.5,924 C173.328427,924 174,923.328427 174,922.5 C174,921.671573 173.328427,921 172.5,921 Z" id="theme"></path>
        </g>
    </g>
</svg>