<?xml version="1.0" encoding="UTF-8"?>
<svg width="16px" height="16px" viewBox="0 0 16 16" version="1.1" xmlns="http://www.w3.org/2000/svg" xmlns:xlink="http://www.w3.org/1999/xlink">
    <title>new-16</title>
    <g id="Icons" stroke="none" stroke-width="1" fill="none" fill-rule="evenodd">
        <g transform="translate(-709.000000, -553.000000)" fill="#000000" id="new-16">
            <path d="M723.222222,557 C724.204062,557 725,557.795938 725,558.777778 L725,563.222222 C725,564.204062 724.204062,565 723.222222,565 L710.777778,565 C709.795938,565 709,564.204062 709,563.222222 L709,558.777778 C709,557.795938 709.795938,557 710.777778,557 L723.222222,557 Z M711.666667,558.777778 L710.777778,558.777778 L710.777778,563.222222 L711.666667,563.222222 L711.666667,560.259556 L713.444444,563.222222 L714.333333,563.222222 L714.333333,558.777778 L713.444444,558.777778 L713.444444,561.740444 L711.666667,558.777778 Z M717.888889,558.777778 L715.222222,558.777778 L715.222222,563.222222 L717.888889,563.222222 L717.888889,562.333333 L716.111111,562.333333 L716.111111,561.444444 L717.888889,561.444444 L717.888889,560.555556 L716.111111,560.555556 L716.111111,559.666667 L717.888889,559.666667 L717.888889,558.777778 Z M719.222222,558.777778 L718.333333,558.777778 L719.666667,563.222222 L720.555556,563.222222 L721,561 L721.444444,563.222222 L722.333333,563.222222 L723.666667,558.777778 L722.777778,558.777778 L721.977778,561.444444 L721.444444,558.777778 L720.555556,558.777778 L720.022222,561.444444 L719.222222,558.777778 Z"></path>
        </g>
    </g>
</svg>